<svg width="31" height="40" viewBox="0 0 31 40" fill="none" xmlns="http://www.w3.org/2000/svg">
<path d="M9.64077 11.4397L13.8495 26.3097L20.5289 15.1828H13.8361V11.4387H21.6402L6.21555 0.692925C5.60187 0.265954 4.89719 0.0276039 4.17348 0.00225683C3.44978 -0.0230903 2.73299 0.165455 2.09633 0.548634C1.46489 0.925871 0.936831 1.48553 0.567861 2.16851C0.198891 2.8515 0.00269572 3.63251 0 4.42908V28.0101L4.69591 11.4297L9.64077 11.4397Z" fill="white"/>
<path d="M28.4498 16.1794L25.5843 14.1895L18.1992 26.4705H24.4228L28.4525 23.6656C29.0258 23.2711 29.499 22.7205 29.8271 22.0659C30.1553 21.4112 30.3275 20.6743 30.3275 19.925C30.3275 19.1757 30.1553 18.4388 29.8271 17.7842C29.499 17.1295 29.0258 16.5789 28.4525 16.1844L28.4498 16.1794Z" fill="white"/>
<path d="M7.03262 15.3252L3.57069 30.2609H0.00488281V35.4039C0.00738667 36.2005 0.20348 36.9816 0.572471 37.6646C0.941461 38.3477 1.46964 38.9073 2.1012 39.2843C2.73786 39.6674 3.45458 39.8559 4.17823 39.8307C4.90188 39.8056 5.60656 39.5676 6.22042 39.141L18.9766 30.2569H10.6351L7.03262 15.3252ZM7.17053 30.2609C6.81006 30.2552 6.45914 30.1312 6.16188 29.9046C5.86463 29.6779 5.6343 29.3587 5.49985 28.9871C5.3654 28.6154 5.33282 28.2079 5.40621 27.8157C5.4796 27.4235 5.65568 27.0642 5.91232 26.7829C6.16897 26.5016 6.49472 26.3109 6.84865 26.2347C7.20257 26.1585 7.56888 26.2002 7.90151 26.3546C8.23415 26.5091 8.51827 26.7693 8.71818 27.1027C8.91809 27.436 9.02486 27.8276 9.02507 28.2281C9.02343 28.4969 8.97416 28.7627 8.88007 29.0103C8.78598 29.2579 8.64892 29.4825 8.47671 29.6712C8.3045 29.86 8.10051 30.0092 7.8764 30.1104C7.65228 30.2116 7.41243 30.2627 7.17053 30.2609V30.2609Z" fill="white"/>
</svg>
