<svg width="120" height="40" viewBox="0 0 120 40" fill="none" xmlns="http://www.w3.org/2000/svg">
<path d="M56.6142 10.9183H50.5894V29.7413H54.7211V23.4928H56.7288C60.3528 23.4928 63.5139 21.5198 63.5139 17.0424C63.5183 12.3849 60.3985 10.9183 56.6142 10.9183ZM56.5246 19.9228H54.7247V14.4843H56.4091C58.3935 14.4843 59.5012 15.142 59.5012 17.0394C59.4976 18.8871 58.5296 19.9228 56.521 19.9228H56.5246Z" fill="white"/>
<path d="M69.6235 10.9183H65.4917V29.7413H76.2939V25.9465H69.6244L69.6235 10.9183Z" fill="white"/>
<path d="M99.1243 18.7707H99.0348C98.5503 17.3041 96.2194 10.9183 96.2194 10.9183H91.8315L97.0011 23.0859V29.7413H101.109V23.0879L106.303 10.9202H101.987C101.987 10.9202 99.6088 17.3041 99.1243 18.7707Z" fill="white"/>
<path d="M112.523 25.9445L119.931 13.6246V10.9183H108.161V14.6614H114.854L107.445 27.0061V29.7413H120V25.9465L112.523 25.9445Z" fill="white"/>
<path d="M38.6398 10.9183L33.3081 29.7413H37.5079L40.9708 14.8066L44.5706 29.7413H48.9092L43.5766 10.9183H38.6398Z" fill="white"/>
<path d="M41.1097 25.6748C40.7492 25.6805 40.3983 25.8045 40.101 26.0312C39.8037 26.2578 39.5734 26.5771 39.439 26.9488C39.3046 27.3205 39.272 27.7281 39.3455 28.1203C39.419 28.5125 39.5951 28.8718 39.8518 29.1531C40.1086 29.4344 40.4344 29.625 40.7884 29.7011C41.1424 29.7772 41.5087 29.7353 41.8413 29.5807C42.174 29.4261 42.458 29.1657 42.6578 28.8323C42.8576 28.4988 42.9642 28.1072 42.9643 27.7066C42.9626 27.4378 42.9134 27.1721 42.8193 26.9245C42.7252 26.677 42.5881 26.4524 42.4159 26.2637C42.2436 26.0751 42.0396 25.9259 41.8155 25.8249C41.5914 25.7238 41.3516 25.6728 41.1097 25.6748Z" fill="white"/>
<path d="M9.64077 11.4397L13.8495 26.3097L20.5289 15.1828H13.8361V11.4387H21.6402L6.21555 0.692925C5.60187 0.265954 4.89719 0.0276039 4.17348 0.00225683C3.44978 -0.0230903 2.73299 0.165455 2.09633 0.548634C1.46489 0.925871 0.936831 1.48553 0.567861 2.16851C0.198891 2.8515 0.00269572 3.63251 0 4.42908V28.0101L4.69591 11.4297L9.64077 11.4397Z" fill="white"/>
<path d="M28.4498 16.1798L25.5843 14.1898L18.1992 26.4708H24.4228L28.4525 23.666C29.0258 23.2715 29.499 22.7208 29.8271 22.0662C30.1553 21.4116 30.3275 20.6747 30.3275 19.9254C30.3275 19.1761 30.1553 18.4392 29.8271 17.7845C29.499 17.1299 29.0258 16.5793 28.4525 16.1848L28.4498 16.1798Z" fill="white"/>
<path d="M7.03262 15.3251L3.57069 30.2607H0.00488281V35.4038C0.00738667 36.2004 0.20348 36.9815 0.572471 37.6645C0.941461 38.3475 1.46964 38.9071 2.1012 39.2842C2.73786 39.6672 3.45458 39.8558 4.17823 39.8306C4.90188 39.8055 5.60656 39.5674 6.22042 39.1409L18.9766 30.2568H10.6351L7.03262 15.3251ZM7.17053 30.2607C6.81006 30.255 6.45914 30.1311 6.16188 29.9044C5.86463 29.6778 5.6343 29.3586 5.49985 28.987C5.3654 28.6153 5.33282 28.2078 5.40621 27.8156C5.4796 27.4234 5.65568 27.0641 5.91232 26.7828C6.16897 26.5015 6.49472 26.3107 6.84865 26.2345C7.20257 26.1583 7.56888 26.2001 7.90151 26.3545C8.23415 26.5089 8.51827 26.7692 8.71818 27.1025C8.91809 27.4359 9.02486 27.8274 9.02507 28.228C9.02343 28.4968 8.97416 28.7625 8.88007 29.0101C8.78598 29.2578 8.64892 29.4824 8.47671 29.6711C8.3045 29.8599 8.10051 30.0091 7.8764 30.1103C7.65228 30.2114 7.41243 30.2626 7.17053 30.2607Z" fill="white"/>
<path d="M83.572 10.9183L78.2412 29.7413H82.4419L85.9039 14.8066L89.5037 29.7413H93.8432L88.5115 10.9212L83.572 10.9183Z" fill="white"/>
<path d="M86.0432 25.6748C85.6827 25.6803 85.3317 25.8041 85.0343 26.0307C84.7369 26.2572 84.5064 26.5765 84.3718 26.9482C84.2373 27.3199 84.2046 27.7275 84.278 28.1197C84.3514 28.512 84.5275 28.8714 84.7842 29.1528C85.0409 29.4342 85.3667 29.6249 85.7207 29.7011C86.0747 29.7772 86.4411 29.7354 86.7737 29.5808C87.1064 29.4263 87.3905 29.1659 87.5904 28.8324C87.7902 28.4989 87.8969 28.1072 87.8969 27.7066C87.8954 27.4379 87.8462 27.1722 87.7522 26.9246C87.6582 26.677 87.5212 26.4525 87.3491 26.2638C87.1769 26.0751 86.973 25.926 86.7489 25.8249C86.5248 25.7239 86.2851 25.6728 86.0432 25.6748Z" fill="white"/>
</svg>
