<svg width="25" height="24" viewBox="0 0 25 24" fill="none" xmlns="http://www.w3.org/2000/svg">
<path d="M11.6699 21C11.6699 20.6022 11.5119 20.2206 11.2306 19.9393C10.9493 19.658 10.5677 19.5 10.1699 19.5C9.7721 19.5 9.39057 19.658 9.10926 19.9393C8.82796 20.2206 8.66992 20.6022 8.66992 21H3.66992C3.40471 21 3.15035 20.8946 2.96282 20.7071C2.77528 20.5196 2.66992 20.2652 2.66992 20V4C2.66992 3.73478 2.77528 3.48043 2.96282 3.29289C3.15035 3.10536 3.40471 3 3.66992 3H8.66992C8.66992 3.39782 8.82796 3.77936 9.10926 4.06066C9.39057 4.34196 9.7721 4.5 10.1699 4.5C10.5677 4.5 10.9493 4.34196 11.2306 4.06066C11.5119 3.77936 11.6699 3.39782 11.6699 3H21.6699C21.9351 3 22.1895 3.10536 22.377 3.29289C22.5646 3.48043 22.6699 3.73478 22.6699 4V9.5C22.0069 9.5 21.371 9.76339 20.9022 10.2322C20.4333 10.7011 20.1699 11.337 20.1699 12C20.1699 12.663 20.4333 13.2989 20.9022 13.7678C21.371 14.2366 22.0069 14.5 22.6699 14.5V20C22.6699 20.2652 22.5646 20.5196 22.377 20.7071C22.1895 20.8946 21.9351 21 21.6699 21H11.6699ZM10.1699 10.5C10.5677 10.5 10.9493 10.342 11.2306 10.0607C11.5119 9.77936 11.6699 9.39782 11.6699 9C11.6699 8.60218 11.5119 8.22064 11.2306 7.93934C10.9493 7.65804 10.5677 7.5 10.1699 7.5C9.7721 7.5 9.39057 7.65804 9.10926 7.93934C8.82796 8.22064 8.66992 8.60218 8.66992 9C8.66992 9.39782 8.82796 9.77936 9.10926 10.0607C9.39057 10.342 9.7721 10.5 10.1699 10.5ZM10.1699 16.5C10.5677 16.5 10.9493 16.342 11.2306 16.0607C11.5119 15.7794 11.6699 15.3978 11.6699 15C11.6699 14.6022 11.5119 14.2206 11.2306 13.9393C10.9493 13.658 10.5677 13.5 10.1699 13.5C9.7721 13.5 9.39057 13.658 9.10926 13.9393C8.82796 14.2206 8.66992 14.6022 8.66992 15C8.66992 15.3978 8.82796 15.7794 9.10926 16.0607C9.39057 16.342 9.7721 16.5 10.1699 16.5Z" fill="white"/>
</svg>
