<svg width="16" height="16" viewBox="0 0 16 16" fill="none" xmlns="http://www.w3.org/2000/svg">
<path d="M8.00016 14.6668C4.31816 14.6668 1.3335 11.6822 1.3335 8.00016C1.3335 4.31816 4.31816 1.3335 8.00016 1.3335C11.6822 1.3335 14.6668 4.31816 14.6668 8.00016C14.6668 11.6822 11.6822 14.6668 8.00016 14.6668ZM7.0815 5.61016C7.04137 5.58339 6.99474 5.56801 6.94657 5.56564C6.89839 5.56328 6.85048 5.57403 6.80793 5.59674C6.76538 5.61945 6.72978 5.65328 6.70494 5.69462C6.68009 5.73596 6.66692 5.78326 6.66683 5.8315V10.1688C6.66692 10.2171 6.68009 10.2644 6.70494 10.3057C6.72978 10.347 6.76538 10.3809 6.80793 10.4036C6.85048 10.4263 6.89839 10.437 6.94657 10.4347C6.99474 10.4323 7.04137 10.4169 7.0815 10.3902L10.3342 8.22216C10.3707 8.19782 10.4007 8.16482 10.4215 8.12609C10.4422 8.08736 10.4531 8.0441 10.4531 8.00016C10.4531 7.95623 10.4422 7.91297 10.4215 7.87424C10.4007 7.83551 10.3707 7.80251 10.3342 7.77816L7.08083 5.61016H7.0815Z" fill="white"/>
</svg>
