<svg width="108" height="20" viewBox="0 0 108 20" fill="none" xmlns="http://www.w3.org/2000/svg">
<path d="M3.0075 1.51172L11.4933 10.0001L3.00833 18.4884C2.85745 18.425 2.72869 18.3183 2.63824 18.1819C2.5478 18.0455 2.4997 17.8854 2.5 17.7217V2.27839C2.50007 2.1149 2.54821 1.95505 2.63845 1.81873C2.72869 1.68241 2.85703 1.57564 3.0075 1.51172ZM12.0825 10.5892L14.0008 12.5076L4.88667 17.7851L12.0825 10.5892ZM14.7483 7.92422L17.0875 9.27922C17.2138 9.35247 17.3186 9.45762 17.3915 9.58412C17.4643 9.71063 17.5027 9.85406 17.5027 10.0001C17.5027 10.146 17.4643 10.2895 17.3915 10.416C17.3186 10.5425 17.2138 10.6476 17.0875 10.7209L14.7475 12.0759L12.6717 10.0001L14.7483 7.92422ZM4.88667 2.21505L14.0017 7.49172L12.0825 9.41089L4.88667 2.21505Z" fill="white"/>
<path d="M36.8 10.328V14.888C35.6533 15.7147 34.32 16.128 32.8 16.128C31.8667 16.128 31.0213 15.984 30.264 15.696C29.512 15.4027 28.8693 14.9973 28.336 14.48C27.8027 13.9573 27.392 13.336 27.104 12.616C26.816 11.896 26.672 11.104 26.672 10.24C26.672 9.37067 26.8107 8.576 27.088 7.856C27.3653 7.13067 27.7627 6.50933 28.28 5.992C28.7973 5.46933 29.4213 5.06667 30.152 4.784C30.8827 4.496 31.704 4.352 32.616 4.352C33.08 4.352 33.5093 4.38933 33.904 4.464C34.304 4.53333 34.6747 4.632 35.016 4.76C35.3573 4.888 35.672 5.04267 35.96 5.224C36.248 5.40533 36.512 5.608 36.752 5.832L36.216 6.688C36.1307 6.82133 36.0213 6.904 35.888 6.936C35.7547 6.968 35.6107 6.936 35.456 6.84C35.3013 6.74933 35.136 6.65333 34.96 6.552C34.7893 6.45067 34.592 6.35733 34.368 6.272C34.144 6.18133 33.8853 6.10933 33.592 6.056C33.2987 5.99733 32.952 5.968 32.552 5.968C31.944 5.968 31.3947 6.06933 30.904 6.272C30.4187 6.46933 30.0027 6.75467 29.656 7.128C29.3093 7.496 29.0427 7.944 28.856 8.472C28.6693 9 28.576 9.58933 28.576 10.24C28.576 10.928 28.6747 11.544 28.872 12.088C29.0693 12.6267 29.3493 13.0853 29.712 13.464C30.0747 13.8373 30.512 14.1227 31.024 14.32C31.5413 14.5173 32.1173 14.616 32.752 14.616C33.2267 14.616 33.648 14.5653 34.016 14.464C34.3893 14.3627 34.7547 14.2213 35.112 14.04V11.752H33.504C33.3813 11.752 33.2853 11.72 33.216 11.656C33.1467 11.5867 33.112 11.4987 33.112 11.392V10.328H36.8ZM41.8029 7.712C42.4055 7.712 42.9495 7.81067 43.4349 8.008C43.9255 8.20533 44.3415 8.48533 44.6829 8.848C45.0295 9.21067 45.2962 9.65067 45.4829 10.168C45.6695 10.6853 45.7629 11.2667 45.7629 11.912C45.7629 12.5573 45.6695 13.1387 45.4829 13.656C45.2962 14.1733 45.0295 14.616 44.6829 14.984C44.3415 15.3467 43.9255 15.6267 43.4349 15.824C42.9495 16.0213 42.4055 16.12 41.8029 16.12C41.1949 16.12 40.6455 16.0213 40.1549 15.824C39.6695 15.6267 39.2535 15.3467 38.9069 14.984C38.5602 14.616 38.2935 14.1733 38.1069 13.656C37.9202 13.1387 37.8269 12.5573 37.8269 11.912C37.8269 11.2667 37.9202 10.6853 38.1069 10.168C38.2935 9.65067 38.5602 9.21067 38.9069 8.848C39.2535 8.48533 39.6695 8.20533 40.1549 8.008C40.6455 7.81067 41.1949 7.712 41.8029 7.712ZM41.8029 14.776C42.5389 14.776 43.0855 14.5307 43.4429 14.04C43.8055 13.544 43.9869 12.8373 43.9869 11.92C43.9869 11.0027 43.8055 10.296 43.4429 9.8C43.0855 9.29867 42.5389 9.048 41.8029 9.048C41.0562 9.048 40.5015 9.29867 40.1389 9.8C39.7762 10.296 39.5949 11.0027 39.5949 11.92C39.5949 12.8373 39.7762 13.544 40.1389 14.04C40.5015 14.5307 41.0562 14.776 41.8029 14.776ZM50.6235 7.712C51.2262 7.712 51.7702 7.81067 52.2555 8.008C52.7462 8.20533 53.1622 8.48533 53.5035 8.848C53.8502 9.21067 54.1168 9.65067 54.3035 10.168C54.4902 10.6853 54.5835 11.2667 54.5835 11.912C54.5835 12.5573 54.4902 13.1387 54.3035 13.656C54.1168 14.1733 53.8502 14.616 53.5035 14.984C53.1622 15.3467 52.7462 15.6267 52.2555 15.824C51.7702 16.0213 51.2262 16.12 50.6235 16.12C50.0155 16.12 49.4662 16.0213 48.9755 15.824C48.4902 15.6267 48.0742 15.3467 47.7275 14.984C47.3808 14.616 47.1142 14.1733 46.9275 13.656C46.7408 13.1387 46.6475 12.5573 46.6475 11.912C46.6475 11.2667 46.7408 10.6853 46.9275 10.168C47.1142 9.65067 47.3808 9.21067 47.7275 8.848C48.0742 8.48533 48.4902 8.20533 48.9755 8.008C49.4662 7.81067 50.0155 7.712 50.6235 7.712ZM50.6235 14.776C51.3595 14.776 51.9062 14.5307 52.2635 14.04C52.6262 13.544 52.8075 12.8373 52.8075 11.92C52.8075 11.0027 52.6262 10.296 52.2635 9.8C51.9062 9.29867 51.3595 9.048 50.6235 9.048C49.8768 9.048 49.3222 9.29867 48.9595 9.8C48.5968 10.296 48.4155 11.0027 48.4155 11.92C48.4155 12.8373 48.5968 13.544 48.9595 14.04C49.3222 14.5307 49.8768 14.776 50.6235 14.776ZM58.7656 11.848C59.299 11.848 59.699 11.712 59.9656 11.44C60.2323 11.168 60.3656 10.8133 60.3656 10.376C60.3656 9.928 60.2323 9.57333 59.9656 9.312C59.699 9.05067 59.299 8.92 58.7656 8.92C58.2376 8.92 57.8376 9.05067 57.5656 9.312C57.299 9.57333 57.1656 9.928 57.1656 10.376C57.1656 10.5893 57.2003 10.7867 57.2696 10.968C57.339 11.1493 57.4403 11.3067 57.5736 11.44C57.707 11.568 57.8723 11.6693 58.0696 11.744C58.2723 11.8133 58.5043 11.848 58.7656 11.848ZM61.1576 16.4C61.1576 16.2187 61.1043 16.0747 60.9976 15.968C60.8963 15.856 60.7576 15.7707 60.5816 15.712C60.4056 15.648 60.2003 15.6027 59.9656 15.576C59.731 15.544 59.4803 15.5227 59.2136 15.512C58.9523 15.496 58.683 15.4827 58.4056 15.472C58.1336 15.456 57.8696 15.4293 57.6136 15.392C57.3576 15.5253 57.147 15.6853 56.9816 15.872C56.8216 16.0587 56.7416 16.2747 56.7416 16.52C56.7416 16.68 56.7816 16.8293 56.8616 16.968C56.947 17.1067 57.075 17.2267 57.2456 17.328C57.4216 17.4293 57.643 17.5093 57.9096 17.568C58.1816 17.6267 58.507 17.656 58.8856 17.656C59.643 17.656 60.211 17.5387 60.5896 17.304C60.9683 17.0693 61.1576 16.768 61.1576 16.4ZM62.8856 8.136V8.776C62.8856 8.98933 62.7576 9.12 62.5016 9.168L61.6856 9.304C61.8243 9.61333 61.8936 9.95733 61.8936 10.336C61.8936 10.736 61.8136 11.0987 61.6536 11.424C61.499 11.7493 61.283 12.0267 61.0056 12.256C60.7283 12.4853 60.3976 12.6613 60.0136 12.784C59.6296 12.9067 59.2136 12.968 58.7656 12.968C58.595 12.968 58.427 12.96 58.2616 12.944C58.1016 12.9227 57.9443 12.896 57.7896 12.864C57.635 12.9547 57.5203 13.0507 57.4456 13.152C57.371 13.2533 57.3336 13.3573 57.3336 13.464C57.3336 13.64 57.411 13.7707 57.5656 13.856C57.7203 13.9413 57.923 14.0027 58.1736 14.04C58.4296 14.0773 58.7203 14.1013 59.0456 14.112C59.371 14.1227 59.7016 14.1413 60.0376 14.168C60.3736 14.1947 60.7043 14.24 61.0296 14.304C61.355 14.3627 61.643 14.464 61.8936 14.608C62.1496 14.7467 62.355 14.936 62.5096 15.176C62.6643 15.416 62.7416 15.728 62.7416 16.112C62.7416 16.464 62.6536 16.808 62.4776 17.144C62.3016 17.48 62.0456 17.7787 61.7096 18.04C61.379 18.3013 60.9736 18.5093 60.4936 18.664C60.0136 18.824 59.467 18.904 58.8536 18.904C58.2456 18.904 57.715 18.8453 57.2616 18.728C56.8136 18.6107 56.4376 18.4507 56.1336 18.248C55.835 18.0507 55.611 17.8213 55.4616 17.56C55.3176 17.2987 55.2456 17.0267 55.2456 16.744C55.2456 16.36 55.3656 16.032 55.6056 15.76C55.851 15.488 56.1816 15.2747 56.5976 15.12C56.3736 15.0133 56.1923 14.8667 56.0536 14.68C55.9203 14.4933 55.8536 14.248 55.8536 13.944C55.8536 13.704 55.9416 13.4533 56.1176 13.192C56.2936 12.9307 56.5576 12.7093 56.9096 12.528C56.5043 12.304 56.1843 12.008 55.9496 11.64C55.715 11.2667 55.5976 10.832 55.5976 10.336C55.5976 9.93067 55.675 9.56533 55.8296 9.24C55.9896 8.91467 56.211 8.63733 56.4936 8.408C56.7763 8.17867 57.1096 8.00267 57.4936 7.88C57.883 7.75733 58.307 7.696 58.7656 7.696C59.4696 7.696 60.083 7.84267 60.6056 8.136H62.8856ZM65.6763 4.16V16H63.9563V4.16H65.6763ZM72.8313 11C72.8313 10.712 72.7886 10.4453 72.7033 10.2C72.6233 9.94933 72.5033 9.73333 72.3433 9.552C72.1833 9.36533 71.9833 9.22133 71.7433 9.12C71.5086 9.01333 71.2366 8.96 70.9273 8.96C70.3033 8.96 69.8126 9.13867 69.4553 9.496C69.0979 9.85333 68.8713 10.3547 68.7753 11H72.8313ZM68.7273 12.056C68.7486 12.52 68.8206 12.9227 68.9433 13.264C69.0659 13.6 69.2286 13.88 69.4313 14.104C69.6393 14.328 69.8846 14.496 70.1673 14.608C70.4553 14.7147 70.7753 14.768 71.1273 14.768C71.4633 14.768 71.7539 14.7307 71.9993 14.656C72.2446 14.576 72.4579 14.4907 72.6393 14.4C72.8206 14.304 72.9753 14.2187 73.1033 14.144C73.2313 14.064 73.3486 14.024 73.4553 14.024C73.5939 14.024 73.7006 14.0773 73.7753 14.184L74.2633 14.816C74.0606 15.056 73.8313 15.2587 73.5753 15.424C73.3193 15.5893 73.0473 15.7253 72.7593 15.832C72.4713 15.9333 72.1753 16.0053 71.8713 16.048C71.5673 16.096 71.2713 16.12 70.9833 16.12C70.4179 16.12 69.8926 16.0267 69.4073 15.84C68.9273 15.648 68.5086 15.368 68.1513 15C67.7993 14.632 67.5219 14.176 67.3193 13.632C67.1219 13.088 67.0233 12.4613 67.0233 11.752C67.0233 11.1867 67.1113 10.6587 67.2873 10.168C67.4686 9.67733 67.7246 9.25067 68.0553 8.888C68.3913 8.52533 68.7966 8.24 69.2713 8.032C69.7513 7.81867 70.2926 7.712 70.8953 7.712C71.3966 7.712 71.8606 7.79467 72.2873 7.96C72.7139 8.12 73.0819 8.35733 73.3913 8.672C73.7006 8.98667 73.9406 9.37333 74.1113 9.832C74.2873 10.2853 74.3753 10.8027 74.3753 11.384C74.3753 11.6507 74.3459 11.8293 74.2873 11.92C74.2286 12.0107 74.1219 12.056 73.9673 12.056H68.7273ZM83.2276 10.352C83.6436 10.352 84.009 10.2987 84.3236 10.192C84.6436 10.0853 84.9076 9.936 85.1156 9.744C85.329 9.54667 85.489 9.30933 85.5956 9.032C85.7023 8.75467 85.7556 8.44533 85.7556 8.104C85.7556 7.768 85.7023 7.46667 85.5956 7.2C85.4943 6.93333 85.3396 6.70667 85.1316 6.52C84.9236 6.33333 84.6596 6.192 84.3396 6.096C84.025 5.99467 83.6543 5.944 83.2276 5.944H81.5156V10.352H83.2276ZM83.2276 4.48C83.9796 4.48 84.6303 4.568 85.1796 4.744C85.7343 4.92 86.1903 5.168 86.5476 5.488C86.9103 5.80267 87.1796 6.184 87.3556 6.632C87.5316 7.07467 87.6196 7.56533 87.6196 8.104C87.6196 8.65333 87.5263 9.15733 87.3396 9.616C87.153 10.0693 86.8756 10.4613 86.5076 10.792C86.1396 11.1173 85.681 11.3733 85.1316 11.56C84.5876 11.7413 83.953 11.832 83.2276 11.832H81.5156V16H79.6436V4.48H83.2276ZM90.4744 4.16V16H88.7544V4.16H90.4744ZM96.6374 12.432C96.024 12.4533 95.5067 12.504 95.0854 12.584C94.664 12.6587 94.3227 12.7573 94.0614 12.88C93.8 12.9973 93.6107 13.1387 93.4934 13.304C93.3814 13.4693 93.3254 13.6507 93.3254 13.848C93.3254 14.04 93.3547 14.2053 93.4134 14.344C93.4774 14.4773 93.5627 14.5893 93.6694 14.68C93.7814 14.7653 93.9094 14.8293 94.0534 14.872C94.2027 14.9093 94.3654 14.928 94.5414 14.928C94.9894 14.928 95.3734 14.8453 95.6934 14.68C96.0187 14.5093 96.3334 14.264 96.6374 13.944V12.432ZM92.0774 8.976C93 8.11733 94.0987 7.688 95.3734 7.688C95.8427 7.688 96.2587 7.76533 96.6214 7.92C96.9894 8.06933 97.296 8.28267 97.5414 8.56C97.792 8.83733 97.9814 9.168 98.1094 9.552C98.2427 9.93067 98.3094 10.352 98.3094 10.816V16H97.5414C97.376 16 97.2507 15.976 97.1654 15.928C97.08 15.8747 97.008 15.7707 96.9494 15.616L96.7814 14.952C96.5734 15.1387 96.368 15.3067 96.1654 15.456C95.9627 15.6 95.752 15.7227 95.5334 15.824C95.32 15.9253 95.088 16 94.8374 16.048C94.592 16.1013 94.32 16.128 94.0214 16.128C93.6907 16.128 93.3814 16.0827 93.0934 15.992C92.8107 15.9013 92.5654 15.7653 92.3574 15.584C92.1494 15.3973 91.984 15.168 91.8614 14.896C91.744 14.624 91.6854 14.304 91.6854 13.936C91.6854 13.6213 91.768 13.3147 91.9334 13.016C92.104 12.7173 92.3814 12.4507 92.7654 12.216C93.1547 11.976 93.664 11.7787 94.2934 11.624C94.928 11.4693 95.7094 11.3813 96.6374 11.36V10.816C96.6374 10.2293 96.512 9.792 96.2614 9.504C96.0107 9.216 95.6427 9.072 95.1574 9.072C94.8267 9.072 94.5494 9.11467 94.3254 9.2C94.1014 9.28 93.9067 9.368 93.7414 9.464C93.576 9.56 93.4294 9.65067 93.3014 9.736C93.1734 9.816 93.0374 9.856 92.8934 9.856C92.776 9.856 92.6747 9.82667 92.5894 9.768C92.5094 9.704 92.4427 9.62667 92.3894 9.536L92.0774 8.976ZM107.026 7.84L102.53 18.32C102.471 18.4427 102.399 18.5387 102.314 18.608C102.234 18.6773 102.108 18.712 101.938 18.712H100.666L102.17 15.448L98.8415 7.84H100.338C100.482 7.84 100.591 7.87467 100.666 7.944C100.746 8.008 100.804 8.08533 100.842 8.176L102.786 12.808C102.834 12.9413 102.876 13.0747 102.914 13.208C102.956 13.336 102.996 13.4693 103.034 13.608C103.076 13.4693 103.119 13.3333 103.162 13.2C103.204 13.0667 103.252 12.9333 103.306 12.8L105.17 8.176C105.207 8.08 105.268 8 105.354 7.936C105.444 7.872 105.543 7.84 105.65 7.84H107.026Z" fill="white"/>
</svg>
