<svg width="250" height="108" viewBox="0 0 250 108" fill="none" xmlns="http://www.w3.org/2000/svg">
<g filter="url(#filter0_d_6560_61881)">
<path d="M42.7094 30.8081H20V97.4381H35.574V75.3197H43.1414C56.8015 75.3197 68.7166 68.3355 68.7166 52.4863C68.7335 35.9996 56.9737 30.8081 42.7094 30.8081ZM42.3719 62.6825H35.5875V43.4311H41.9364C49.4162 43.4311 53.5916 45.7592 53.5916 52.4757C53.5781 59.0162 49.9293 62.6825 42.3584 62.6825H42.3719Z" fill="#FF2D55"/>
<path d="M91.7454 30.8081H76.1714V97.4381H116.888V84.005H91.7487L91.7454 30.8081Z" fill="#FF2D55"/>
<path d="M202.943 58.6041H202.605C200.779 53.4126 191.993 30.8081 191.993 30.8081H175.454L194.94 73.8792V97.4381H210.423V73.8862L230 30.8151H213.734C213.734 30.8151 204.769 53.4126 202.943 58.6041Z" fill="#FF2D55"/>
<path d="M144.321 30.8081L124.228 97.4381H140.061L153.111 44.5722L166.679 97.4381H183.036L162.94 30.8186L144.321 30.8081Z" fill="#FF2D55"/>
<path d="M153.636 83.0432C152.277 83.0626 150.954 83.5009 149.833 84.3029C148.712 85.1049 147.843 86.2349 147.336 87.5506C146.829 88.8664 146.706 90.3092 146.982 91.6978C147.259 93.0863 147.922 94.3586 148.89 95.3546C149.858 96.3506 151.086 97.0257 152.42 97.2953C153.755 97.565 155.135 97.4169 156.389 96.8698C157.643 96.3227 158.714 95.4009 159.468 94.2204C160.221 93.04 160.623 91.6535 160.623 90.2353C160.617 89.2842 160.432 88.3435 160.077 87.4672C159.723 86.5909 159.207 85.7961 158.558 85.1281C157.909 84.4602 157.14 83.9323 156.296 83.5746C155.451 83.2168 154.547 83.0362 153.636 83.0432Z" fill="#FF2D55"/>
</g>
<defs>
<filter id="filter0_d_6560_61881" x="0" y="0.808105" width="250" height="106.63" filterUnits="userSpaceOnUse" color-interpolation-filters="sRGB">
<feFlood flood-opacity="0" result="BackgroundImageFix"/>
<feColorMatrix in="SourceAlpha" type="matrix" values="0 0 0 0 0 0 0 0 0 0 0 0 0 0 0 0 0 0 127 0" result="hardAlpha"/>
<feOffset dy="-10"/>
<feGaussianBlur stdDeviation="10"/>
<feComposite in2="hardAlpha" operator="out"/>
<feColorMatrix type="matrix" values="0 0 0 0 0 0 0 0 0 0 0 0 0 0 0 0 0 0 0.1 0"/>
<feBlend mode="normal" in2="BackgroundImageFix" result="effect1_dropShadow_6560_61881"/>
<feBlend mode="normal" in="SourceGraphic" in2="effect1_dropShadow_6560_61881" result="shape"/>
</filter>
</defs>
</svg>
