<svg width="21" height="20" viewBox="0 0 21 20" fill="none" xmlns="http://www.w3.org/2000/svg">
<path d="M3.0075 2L11.4933 10.4883L3.00833 18.9767C2.85745 18.9132 2.72869 18.8066 2.63824 18.6702C2.5478 18.5338 2.4997 18.3737 2.5 18.21V2.76667C2.50007 2.60318 2.54821 2.44333 2.63845 2.30701C2.72869 2.17069 2.85703 2.06392 3.0075 2ZM12.0825 11.0775L14.0008 12.9958L4.88667 18.2733L12.0825 11.0775ZM14.7483 8.4125L17.0875 9.7675C17.2138 9.84075 17.3186 9.9459 17.3915 10.0724C17.4643 10.1989 17.5027 10.3423 17.5027 10.4883C17.5027 10.6343 17.4643 10.7778 17.3915 10.9043C17.3186 11.0308 17.2138 11.1359 17.0875 11.2092L14.7475 12.5642L12.6717 10.4883L14.7483 8.4125ZM4.88667 2.70333L14.0017 7.98L12.0825 9.89917L4.88667 2.70333Z" fill="#FFC700"/>
<path d="M3.0075 2L11.4933 10.4883L3.00833 18.9767C2.85745 18.9132 2.72869 18.8066 2.63824 18.6702C2.5478 18.5338 2.4997 18.3737 2.5 18.21V2.76667C2.50007 2.60318 2.54821 2.44333 2.63845 2.30701C2.72869 2.17069 2.85703 2.06392 3.0075 2ZM12.0825 11.0775L14.0008 12.9958L4.88667 18.2733L12.0825 11.0775ZM4.88667 2.70333L14.0017 7.98L12.0825 9.89917L4.88667 2.70333Z" fill="#EE314B"/>
<path d="M4.88672 2.7002L14.0017 7.97686L12.0826 9.89603L4.88672 2.7002Z" fill="#00DE76"/>
<path d="M3.0075 2L11.4933 10.4883L3.00833 18.9767C2.85745 18.9132 2.72869 18.8066 2.63824 18.6702C2.5478 18.5338 2.4997 18.3737 2.5 18.21V2.76667C2.50007 2.60318 2.54821 2.44333 2.63845 2.30701C2.72869 2.17069 2.85703 2.06392 3.0075 2Z" fill="#00C5FF"/>
</svg>
