<svg width="74" height="37" viewBox="0 0 74 37" fill="none" xmlns="http://www.w3.org/2000/svg">
<mask id="path-1-inside-1_6560_61872" fill="white">
<path fill-rule="evenodd" clip-rule="evenodd" d="M38.4142 1.41293C37.6332 0.631886 36.3668 0.631887 35.5858 1.41294L31.9985 5.00019H5C2.23858 5.00019 0 7.23876 0 10.0002V32.0002C0 34.7616 2.23858 37.0002 5 37.0002H69C71.7614 37.0002 74 34.7616 74 32.0002V10.0002C74 7.23876 71.7614 5.00019 69 5.00019H42.0015L38.4142 1.41293Z"/>
</mask>
<path fill-rule="evenodd" clip-rule="evenodd" d="M38.4142 1.41293C37.6332 0.631886 36.3668 0.631887 35.5858 1.41294L31.9985 5.00019H5C2.23858 5.00019 0 7.23876 0 10.0002V32.0002C0 34.7616 2.23858 37.0002 5 37.0002H69C71.7614 37.0002 74 34.7616 74 32.0002V10.0002C74 7.23876 71.7614 5.00019 69 5.00019H42.0015L38.4142 1.41293Z" fill="white"/>
<path d="M35.5858 1.41294L36.2929 2.12004V2.12004L35.5858 1.41294ZM38.4142 1.41293L39.1213 0.705828L39.1213 0.705826L38.4142 1.41293ZM31.9985 5.00019V6.00019H32.4128L32.7056 5.70729L31.9985 5.00019ZM42.0015 5.00019L41.2944 5.70729L41.5872 6.00019H42.0015V5.00019ZM36.2929 2.12004C36.6834 1.72952 37.3166 1.72952 37.7071 2.12004L39.1213 0.705826C37.9497 -0.465744 36.0503 -0.465745 34.8787 0.705829L36.2929 2.12004ZM32.7056 5.70729L36.2929 2.12004L34.8787 0.705829L31.2914 4.29308L32.7056 5.70729ZM5 6.00019H31.9985V4.00019H5V6.00019ZM1 10.0002C1 7.79105 2.79086 6.00019 5 6.00019V4.00019C1.68629 4.00019 -1 6.68648 -1 10.0002H1ZM1 32.0002V10.0002H-1V32.0002H1ZM5 36.0002C2.79086 36.0002 1 34.2093 1 32.0002H-1C-1 35.3139 1.68629 38.0002 5 38.0002V36.0002ZM69 36.0002H5V38.0002H69V36.0002ZM73 32.0002C73 34.2093 71.2091 36.0002 69 36.0002V38.0002C72.3137 38.0002 75 35.3139 75 32.0002H73ZM73 10.0002V32.0002H75V10.0002H73ZM69 6.00019C71.2091 6.00019 73 7.79105 73 10.0002H75C75 6.68648 72.3137 4.00019 69 4.00019V6.00019ZM42.0015 6.00019H69V4.00019H42.0015V6.00019ZM37.7071 2.12004L41.2944 5.70729L42.7086 4.29308L39.1213 0.705828L37.7071 2.12004Z" fill="url(#paint0_linear_6560_61872)" mask="url(#path-1-inside-1_6560_61872)"/>
<path d="M15.8725 18.908V20.084H18.1405V24.116H19.5825V15.422H18.1405V18.908H15.8725ZM16.5585 21.568C14.6405 20.994 13.5625 19.594 13.5625 18.152V17.984H16.2225V16.822H13.5765V15.394H12.1205V16.822H9.46048V17.984H12.1205V18.152C12.1205 19.748 11.0285 21.274 9.09648 21.89L9.79648 23.01C11.2665 22.534 12.3305 21.54 12.8765 20.252C13.4365 21.372 14.4725 22.268 15.9005 22.688L16.5585 21.568ZM16.1805 23.332H14.6965V23.57C14.6965 25.082 13.0025 26.524 10.5805 26.902L11.1265 28.036C13.1005 27.728 14.6685 26.734 15.4385 25.404C16.1945 26.748 17.7765 27.714 19.7645 28.036L20.3245 26.902C17.8605 26.524 16.1805 25.138 16.1805 23.57V23.332ZM30.3719 19.804C28.8039 20.126 27.3899 20.21 25.0659 20.224V17.284H29.2519V16.136H23.6239V21.386H24.6459C27.2919 21.386 28.8179 21.302 30.5399 20.938L30.3719 19.804ZM26.2839 25.642H33.0039V22.338H24.8419V23.5H31.5759V24.55H24.8699V27.924H33.4239V26.776H26.2839V25.642ZM33.0039 17.97V15.436H31.5619V21.764H33.0039V19.16H34.7959V17.97H33.0039ZM45.7534 19.944H39.9714V17.256H45.7534V19.944ZM47.1814 16.108H38.5434V21.106H47.1814V16.108ZM48.6094 22.66H37.1434V23.822H42.1134V28.078H43.5554V23.822H48.6094V22.66ZM53.5303 23.22H56.1203V25.404H53.5303V23.22ZM57.5483 25.404V23.22H59.4103V22.058H51.8363V20.308H59.1303V16.318H50.3943V17.48H57.7023V19.16H50.4223V23.22H52.1023V25.404H49.0363V26.594H60.4883V25.404H57.5483ZM62.0632 23.71H63.1412L63.3652 18.11L63.4212 16.444H61.7972L61.8392 18.11L62.0632 23.71ZM62.5952 27.182C63.2112 27.182 63.6872 26.72 63.6872 26.062C63.6872 25.39 63.2112 24.914 62.5952 24.914C61.9932 24.914 61.5312 25.39 61.5312 26.062C61.5312 26.72 61.9932 27.182 62.5952 27.182Z" fill="url(#paint1_linear_6560_61872)"/>
<defs>
<linearGradient id="paint0_linear_6560_61872" x1="37" y1="0.827148" x2="37" y2="37.0002" gradientUnits="userSpaceOnUse">
<stop stop-color="#FF2D55"/>
<stop offset="1" stop-color="#FD4E6D"/>
</linearGradient>
<linearGradient id="paint1_linear_6560_61872" x1="8" y1="22" x2="63.5" y2="26.5" gradientUnits="userSpaceOnUse">
<stop stop-color="#FF2D55"/>
<stop offset="1" stop-color="#FD4E6D"/>
</linearGradient>
</defs>
</svg>
