<svg width="95" height="51" viewBox="0 0 95 51" fill="none" xmlns="http://www.w3.org/2000/svg">
<g filter="url(#filter0_d_6557_62315)">
<mask id="path-1-inside-1_6557_62315" fill="white">
<path fill-rule="evenodd" clip-rule="evenodd" d="M48.4142 0.585786C47.6332 -0.195262 46.3668 -0.195262 45.5858 0.585786L41.1716 5H9C6.23858 5 4 7.23858 4 10V38C4 40.7614 6.23858 43 9 43H86C88.7614 43 91 40.7614 91 38V10C91 7.23858 88.7614 5 86 5H52.8284L48.4142 0.585786Z"/>
</mask>
<path fill-rule="evenodd" clip-rule="evenodd" d="M48.4142 0.585786C47.6332 -0.195262 46.3668 -0.195262 45.5858 0.585786L41.1716 5H9C6.23858 5 4 7.23858 4 10V38C4 40.7614 6.23858 43 9 43H86C88.7614 43 91 40.7614 91 38V10C91 7.23858 88.7614 5 86 5H52.8284L48.4142 0.585786Z" fill="white"/>
<path d="M45.5858 0.585786L44.8787 -0.121322L44.8787 -0.12132L45.5858 0.585786ZM48.4142 0.585786L49.1213 -0.12132L49.1213 -0.121322L48.4142 0.585786ZM41.1716 5V6H41.5858L41.8787 5.70711L41.1716 5ZM52.8284 5L52.1213 5.70711L52.4142 6H52.8284V5ZM46.2929 1.29289C46.6834 0.902368 47.3166 0.902368 47.7071 1.29289L49.1213 -0.121322C47.9497 -1.29289 46.0503 -1.29289 44.8787 -0.121322L46.2929 1.29289ZM41.8787 5.70711L46.2929 1.29289L44.8787 -0.12132L40.4645 4.29289L41.8787 5.70711ZM9 6H41.1716V4H9V6ZM5 10C5 7.79086 6.79086 6 9 6V4C5.68629 4 3 6.68629 3 10H5ZM5 38V10H3V38H5ZM9 42C6.79086 42 5 40.2091 5 38H3C3 41.3137 5.68629 44 9 44V42ZM86 42H9V44H86V42ZM90 38C90 40.2091 88.2091 42 86 42V44C89.3137 44 92 41.3137 92 38H90ZM90 10V38H92V10H90ZM86 6C88.2091 6 90 7.79086 90 10H92C92 6.68629 89.3137 4 86 4V6ZM52.8284 6H86V4H52.8284V6ZM47.7071 1.29289L52.1213 5.70711L53.5355 4.29289L49.1213 -0.12132L47.7071 1.29289Z" fill="#FF2D55" mask="url(#path-1-inside-1_6557_62315)"/>
<path d="M23.7706 21.752V23.096H26.3626V27.704H28.0106V17.768H26.3626V21.752H23.7706ZM24.5546 24.792C22.3626 24.136 21.1306 22.536 21.1306 20.888V20.696H24.1706V19.368H21.1466V17.736H19.4826V19.368H16.4426V20.696H19.4826V20.888C19.4826 22.712 18.2346 24.456 16.0266 25.16L16.8266 26.44C18.5066 25.896 19.7226 24.76 20.3466 23.288C20.9866 24.568 22.1706 25.592 23.8026 26.072L24.5546 24.792ZM24.1226 26.808H22.4266V27.08C22.4266 28.808 20.4906 30.456 17.7226 30.888L18.3466 32.184C20.6026 31.832 22.3946 30.696 23.2746 29.176C24.1386 30.712 25.9466 31.816 28.2186 32.184L28.8586 30.888C26.0426 30.456 24.1226 28.872 24.1226 27.08V26.808ZM40.6271 22.776C38.8351 23.144 37.2191 23.24 34.5631 23.256V19.896H39.3471V18.584H32.9151V24.584H34.0831C37.1071 24.584 38.8511 24.488 40.8191 24.072L40.6271 22.776ZM35.9551 29.448H43.6351V25.672H34.3071V27H42.0031V28.2H34.3391V32.056H44.1151V30.744H35.9551V29.448ZM43.6351 20.68V17.784H41.9871V25.016H43.6351V22.04H45.6831V20.68H43.6351ZM58.4916 22.936H51.8836V19.864H58.4916V22.936ZM60.1236 18.552H50.2516V24.264H60.1236V18.552ZM61.7556 26.04H48.6516V27.368H54.3316V32.232H55.9796V27.368H61.7556V26.04ZM67.5223 26.68H70.4823V29.176H67.5223V26.68ZM72.1143 29.176V26.68H74.2423V25.352H65.5863V23.352H73.9223V18.792H63.9383V20.12H72.2903V22.04H63.9703V26.68H65.8903V29.176H62.3863V30.536H75.4743V29.176H72.1143ZM77.4171 27.24H78.6491L78.9051 20.84L78.9691 18.936H77.1131L77.1611 20.84L77.4171 27.24ZM78.0251 31.208C78.7291 31.208 79.2731 30.68 79.2731 29.928C79.2731 29.16 78.7291 28.616 78.0251 28.616C77.3371 28.616 76.8091 29.16 76.8091 29.928C76.8091 30.68 77.3371 31.208 78.0251 31.208Z" fill="#FF2D55"/>
</g>
<defs>
<filter id="filter0_d_6557_62315" x="0" y="0" width="95" height="51" filterUnits="userSpaceOnUse" color-interpolation-filters="sRGB">
<feFlood flood-opacity="0" result="BackgroundImageFix"/>
<feColorMatrix in="SourceAlpha" type="matrix" values="0 0 0 0 0 0 0 0 0 0 0 0 0 0 0 0 0 0 127 0" result="hardAlpha"/>
<feOffset dy="4"/>
<feGaussianBlur stdDeviation="2"/>
<feComposite in2="hardAlpha" operator="out"/>
<feColorMatrix type="matrix" values="0 0 0 0 0 0 0 0 0 0 0 0 0 0 0 0 0 0 0.25 0"/>
<feBlend mode="normal" in2="BackgroundImageFix" result="effect1_dropShadow_6557_62315"/>
<feBlend mode="normal" in="SourceGraphic" in2="effect1_dropShadow_6557_62315" result="shape"/>
</filter>
</defs>
</svg>
