<svg width="205" height="61" viewBox="0 0 205 61" fill="none" xmlns="http://www.w3.org/2000/svg">
<path fill-rule="evenodd" clip-rule="evenodd" d="M98.2442 56H8C3.58173 56 0 52.4183 0 48V8.00002C0 3.58174 3.58173 1.83849e-05 8 1.83849e-05H197C201.418 1.83849e-05 205 3.58174 205 8.00002V48C205 52.4183 201.418 56 197 56H106.123L103.766 59.9995C102.973 61.3458 101.078 61.3295 100.355 59.9701L98.2442 56Z" fill="white"/>
<path d="M63.5881 18.61C61.0961 18.162 59.0661 16.216 59.0661 14.2V13.248H57.5401V14.2C57.5401 16.202 55.5101 18.148 53.0181 18.61L53.6341 19.8C55.6921 19.38 57.4701 18.064 58.2961 16.328C59.1221 18.064 60.9001 19.38 62.9581 19.8L63.5881 18.61ZM52.6261 22.264V23.454H64.0781V22.264H52.6261ZM67.343 15.124H68.617V20.794C68.183 20.822 67.763 20.836 67.343 20.85V15.124ZM69.933 15.124H70.871V13.962H65.117V15.124H66.027V20.878C65.607 20.878 65.215 20.878 64.865 20.878L65.033 22.068C66.629 22.068 69.233 22.012 71.207 21.62L71.109 20.57C70.745 20.626 70.339 20.668 69.933 20.71V15.124ZM72.019 17.154H70.521V18.428H72.019V24.448H73.377V12.716H72.019V17.154ZM74.497 12.436V25.078H75.883V12.436H74.497ZM86.3299 12.422V25.106H87.7859V12.422H86.3299ZM81.0519 13.36C79.1759 13.36 77.8039 15.096 77.8039 17.812C77.8039 20.556 79.1759 22.278 81.0519 22.278C82.9419 22.278 84.3139 20.556 84.3139 17.812C84.3139 15.096 82.9419 13.36 81.0519 13.36ZM81.0519 14.662C82.1579 14.662 82.9279 15.852 82.9279 17.812C82.9279 19.8 82.1579 20.99 81.0519 20.99C79.9599 20.99 79.1899 19.8 79.1899 17.812C79.1899 15.852 79.9599 14.662 81.0519 14.662ZM100.725 18.61C98.2328 18.162 96.2028 16.216 96.2028 14.2V13.248H94.6768V14.2C94.6768 16.202 92.6468 18.148 90.1548 18.61L90.7708 19.8C92.8288 19.38 94.6068 18.064 95.4328 16.328C96.2588 18.064 98.0368 19.38 100.095 19.8L100.725 18.61ZM89.7628 22.264V23.454H101.215V22.264H89.7628ZM114.908 16.132H107.642V14.032H114.824V12.87H106.214V17.294H114.908V16.132ZM110.47 23.958C108.622 23.958 107.586 23.552 107.586 22.768C107.586 21.998 108.622 21.578 110.47 21.578C112.318 21.578 113.368 21.998 113.368 22.768C113.368 23.552 112.318 23.958 110.47 23.958ZM110.47 20.472C107.768 20.472 106.116 21.312 106.116 22.768C106.116 24.238 107.768 25.078 110.47 25.078C113.186 25.078 114.824 24.238 114.824 22.768C114.824 21.312 113.186 20.472 110.47 20.472ZM104.8 18.344V19.534H116.224V18.344H104.8ZM118.439 22.488H125.803V25.008H127.245V21.326H118.439V22.488ZM123.605 19.31V18.162H127.427V17.056H120.035V15.936H127.175V12.73H118.593V13.836H125.747V14.9H118.621V18.162H122.163V19.31H117.151V20.472H128.617V19.31H123.605Z" fill="#FF2D55"/>
<path d="M135.256 13.15C132.61 13.15 130.608 14.578 130.608 16.72C130.608 18.876 132.61 20.29 135.256 20.29C137.888 20.29 139.904 18.876 139.904 16.72C139.904 14.578 137.888 13.15 135.256 13.15ZM135.256 14.34C137.118 14.34 138.504 15.264 138.504 16.72C138.504 18.176 137.118 19.1 135.256 19.1C133.38 19.1 132.008 18.176 132.008 16.72C132.008 15.264 133.38 14.34 135.256 14.34ZM129.544 22.292V23.482H140.996V22.292H129.544ZM148.349 22.404V20.248H152.297V19.086H144.723V17.322H152.017V13.318H143.281V14.48H150.589V16.174H143.309V20.248H146.907V22.404H141.923V23.594H153.375V22.404H148.349ZM16.0431 32.668H14.6011V40.928H15.6511C17.5551 40.928 19.5151 40.788 21.6571 40.368L21.4891 39.178C19.5711 39.57 17.7511 39.71 16.0431 39.724V32.668ZM25.8711 36.364H23.9531V31.436H22.5111V44.078H23.9531V37.554H25.8711V36.364ZM31.488 37.33H28.408V33.676H31.488V37.33ZM32.902 32.514H26.98V38.492H32.902V32.514ZM29.864 39.794H28.408V43.84H36.92V42.664H29.864V39.794ZM36.416 35.188V31.422H34.974V40.69H36.416V36.378H38.208V35.188H36.416ZM42.9989 32.318C41.0249 32.318 39.5689 33.564 39.5689 35.356C39.5689 37.148 41.0249 38.394 42.9989 38.394C44.9729 38.394 46.4429 37.148 46.4429 35.356C46.4429 33.564 44.9729 32.318 42.9989 32.318ZM42.9989 33.55C44.1749 33.55 45.0289 34.25 45.0289 35.356C45.0289 36.448 44.1749 37.162 42.9989 37.162C41.8369 37.162 40.9829 36.448 40.9829 35.356C40.9829 34.25 41.8369 33.55 42.9989 33.55ZM47.8709 31.422V44.092H49.3269V31.422H47.8709ZM39.1629 41.418C41.4029 41.418 44.4269 41.39 47.2129 40.858L47.1149 39.808C44.3989 40.214 41.2489 40.228 38.9809 40.228L39.1629 41.418ZM64.9104 37.61C62.4184 37.162 60.3884 35.216 60.3884 33.2V32.248H58.8624V33.2C58.8624 35.202 56.8324 37.148 54.3404 37.61L54.9564 38.8C57.0144 38.38 58.7924 37.064 59.6184 35.328C60.4444 37.064 62.2224 38.38 64.2804 38.8L64.9104 37.61ZM53.9484 41.264V42.454H65.4004V41.264H53.9484ZM68.6653 34.124H69.9393V39.794C69.5053 39.822 69.0853 39.836 68.6653 39.85V34.124ZM71.2553 34.124H72.1933V32.962H66.4393V34.124H67.3493V39.878C66.9293 39.878 66.5373 39.878 66.1873 39.878L66.3553 41.068C67.9513 41.068 70.5553 41.012 72.5293 40.62L72.4313 39.57C72.0673 39.626 71.6613 39.668 71.2553 39.71V34.124ZM73.3413 36.154H71.8433V37.428H73.3413V43.448H74.6993V31.716H73.3413V36.154ZM75.8193 31.436V44.078H77.2053V31.436H75.8193ZM87.6522 31.422V44.106H89.1082V31.422H87.6522ZM82.3742 32.36C80.4982 32.36 79.1262 34.096 79.1262 36.812C79.1262 39.556 80.4982 41.278 82.3742 41.278C84.2642 41.278 85.6362 39.556 85.6362 36.812C85.6362 34.096 84.2642 32.36 82.3742 32.36ZM82.3742 33.662C83.4802 33.662 84.2502 34.852 84.2502 36.812C84.2502 38.8 83.4802 39.99 82.3742 39.99C81.2822 39.99 80.5122 38.8 80.5122 36.812C80.5122 34.852 81.2822 33.662 82.3742 33.662ZM102.047 37.61C99.5551 37.162 97.5251 35.216 97.5251 33.2V32.248H95.9991V33.2C95.9991 35.202 93.9691 37.148 91.4771 37.61L92.0931 38.8C94.1511 38.38 95.9291 37.064 96.7551 35.328C97.5811 37.064 99.3591 38.38 101.417 38.8L102.047 37.61ZM91.0851 41.264V42.454H102.537V41.264H91.0851ZM112.046 33.592H104.92V36.434H113.698V35.426H106.334V34.53H113.474V31.744H104.892V32.738H112.046V33.592ZM106.236 41.978H113.516V39.15H104.78V40.144H112.088V41.04H104.808V43.938H113.894V42.944H106.236V41.978ZM103.45 37.232V38.296H114.916V37.232H103.45ZM123.429 37.33H120.349V33.676H123.429V37.33ZM124.843 32.514H118.921V38.492H124.843V32.514ZM121.805 39.794H120.349V43.84H128.861V42.664H121.805V39.794ZM128.357 35.188V31.422H126.915V40.69H128.357V36.378H130.149V35.188H128.357ZM140.96 34.516H133.764V32.934H140.834V31.772H132.336V35.678H140.96V34.516ZM133.666 41.768H140.862V38.632H132.21V39.738H139.448V40.718H132.238V43.952H141.226V42.832H133.666V41.768ZM130.88 36.546V37.708H142.318V36.546H130.88ZM146.647 39.99C145.569 39.99 144.827 38.814 144.827 36.812C144.827 34.852 145.569 33.662 146.647 33.662C147.739 33.662 148.481 34.852 148.481 36.812C148.481 38.814 147.739 39.99 146.647 39.99ZM152.289 31.422V36.14H149.825C149.629 33.816 148.341 32.36 146.647 32.36C144.785 32.36 143.455 34.096 143.455 36.812C143.455 39.556 144.785 41.278 146.647 41.278C148.383 41.278 149.671 39.766 149.839 37.316H152.289V44.106H153.745V31.422H152.289ZM158.34 35.566H164.332V37.638H158.34V35.566ZM162.05 41.348V38.8H165.76V32.276H164.332V34.404H158.34V32.276H156.912V38.8H160.608V41.348H155.624V42.538H167.076V41.348H162.05ZM171.881 32.598H170.481V34.88C170.481 37.036 169.613 39.304 167.821 40.368L168.703 41.46C169.921 40.718 170.747 39.388 171.195 37.834C171.629 39.248 172.385 40.48 173.533 41.18L174.345 40.06C172.651 38.996 171.881 36.854 171.881 34.81V32.598ZM174.849 35.86H172.987V37.036H174.849V43.49H176.207V31.674H174.849V35.86ZM177.425 31.436V44.078H178.797V31.436H177.425ZM184.498 38.604C184.988 38.716 185.534 38.772 186.094 38.772C186.654 38.772 187.2 38.716 187.69 38.59V41.348H184.498V38.604ZM186.094 33.298C187.998 33.298 189.328 34.138 189.328 35.468C189.328 36.812 187.998 37.652 186.094 37.652C184.176 37.652 182.846 36.812 182.846 35.468C182.846 34.138 184.176 33.298 186.094 33.298ZM189.132 41.348V38.058C190.14 37.484 190.742 36.588 190.742 35.468C190.742 33.452 188.782 32.164 186.094 32.164C183.392 32.164 181.446 33.452 181.446 35.468C181.446 36.588 182.048 37.498 183.056 38.058V41.348H180.382V42.524H191.834V41.348H189.132Z" fill="#222222"/>
</svg>
