<svg width="280" height="281" viewBox="0 0 280 281" fill="none" xmlns="http://www.w3.org/2000/svg">
<g filter="url(#filter0_b_5362_52196)">
<rect width="280" height="280" rx="140" fill="white" fill-opacity="0.3"/>
</g>
<g filter="url(#filter1_d_5362_52196)">
<rect x="40" y="40" width="200" height="200" rx="100" fill="url(#paint0_linear_5362_52196)"/>
<path d="M107.143 159.747V160.685C107.143 162.547 105.533 164.605 102.607 165.109L103.405 166.649C106.765 165.991 108.767 163.499 108.767 160.685V159.747H107.143ZM107.521 159.747V160.685C107.521 163.541 109.509 165.991 112.869 166.649L113.667 165.109C110.727 164.605 109.131 162.589 109.131 160.685V159.747H107.521ZM102.341 168.875V170.387H114.073V168.875H102.341ZM124.184 159.005V171.969H125.962V159.005H124.184ZM120.39 163.723V165.361H122.126V163.723H120.39ZM121.608 159.257V171.367H123.358V159.257H121.608ZM114.804 160.461V161.945H120.698V160.461H114.804ZM114.776 169.029C116.372 169.029 119.004 168.987 121.02 168.553L120.894 167.209C118.934 167.475 116.204 167.517 114.58 167.517L114.776 169.029ZM115.602 161.413V167.909H117.268V161.413H115.602ZM118.206 161.413V167.909H119.886V161.413H118.206ZM135.975 158.991V171.997H137.851V158.991H135.975ZM130.865 159.901C128.905 159.901 127.463 161.693 127.463 164.521C127.463 167.377 128.905 169.169 130.865 169.169C132.825 169.169 134.267 167.377 134.267 164.521C134.267 161.693 132.825 159.901 130.865 159.901ZM130.865 161.595C131.831 161.595 132.475 162.617 132.475 164.521C132.475 166.453 131.831 167.489 130.865 167.489C129.899 167.489 129.241 166.453 129.241 164.521C129.241 162.617 129.899 161.595 130.865 161.595ZM144.279 159.747V160.685C144.279 162.547 142.669 164.605 139.743 165.109L140.541 166.649C143.901 165.991 145.903 163.499 145.903 160.685V159.747H144.279ZM144.657 159.747V160.685C144.657 163.541 146.645 165.991 150.005 166.649L150.803 165.109C147.863 164.605 146.267 162.589 146.267 160.685V159.747H144.657ZM139.477 168.875V170.387H151.209V168.875H139.477ZM154.528 164.927V166.439H166.26V164.927H154.528ZM155.942 162.561V164.031H164.93V162.561H155.942ZM155.942 159.355V163.289H157.79V160.839H164.86V159.355H155.942ZM160.352 167.209C157.552 167.209 155.844 168.063 155.844 169.589C155.844 171.115 157.552 171.969 160.352 171.969C163.152 171.969 164.846 171.115 164.846 169.589C164.846 168.063 163.152 167.209 160.352 167.209ZM160.352 168.609C162.088 168.609 162.97 168.931 162.97 169.589C162.97 170.261 162.088 170.555 160.352 170.555C158.616 170.555 157.734 170.261 157.734 169.589C157.734 168.931 158.616 168.609 160.352 168.609ZM166.893 165.949V167.433H178.639V165.949H166.893ZM168.335 159.257V160.671H175.377V161.455H168.349V164.171H170.197V162.771H177.211V159.257H168.335ZM168.349 163.611V165.025H177.463V163.611H168.349ZM171.835 164.297V166.761H173.697V164.297H171.835ZM168.195 168.161V169.631H175.433V171.927H177.295V168.161H168.195Z" fill="white"/>
<rect x="124.97" y="129.589" width="30.3333" height="3.01967" rx="1.50984" fill="white"/>
<rect x="141.653" y="116" width="30.1967" height="3.03333" rx="1.51667" transform="rotate(90 141.653 116)" fill="white"/>
</g>
<circle cx="140" cy="141" r="139" stroke="#FD4E6D" stroke-width="2"/>
<defs>
<filter id="filter0_b_5362_52196" x="-80" y="-80" width="440" height="440" filterUnits="userSpaceOnUse" color-interpolation-filters="sRGB">
<feFlood flood-opacity="0" result="BackgroundImageFix"/>
<feGaussianBlur in="BackgroundImage" stdDeviation="40"/>
<feComposite in2="SourceAlpha" operator="in" result="effect1_backgroundBlur_5362_52196"/>
<feBlend mode="normal" in="SourceGraphic" in2="effect1_backgroundBlur_5362_52196" result="shape"/>
</filter>
<filter id="filter1_d_5362_52196" x="10" y="20" width="260" height="260" filterUnits="userSpaceOnUse" color-interpolation-filters="sRGB">
<feFlood flood-opacity="0" result="BackgroundImageFix"/>
<feColorMatrix in="SourceAlpha" type="matrix" values="0 0 0 0 0 0 0 0 0 0 0 0 0 0 0 0 0 0 127 0" result="hardAlpha"/>
<feOffset dy="10"/>
<feGaussianBlur stdDeviation="15"/>
<feComposite in2="hardAlpha" operator="out"/>
<feColorMatrix type="matrix" values="0 0 0 0 0 0 0 0 0 0 0 0 0 0 0 0 0 0 0.25 0"/>
<feBlend mode="normal" in2="BackgroundImageFix" result="effect1_dropShadow_5362_52196"/>
<feBlend mode="normal" in="SourceGraphic" in2="effect1_dropShadow_5362_52196" result="shape"/>
</filter>
<linearGradient id="paint0_linear_5362_52196" x1="140" y1="40" x2="140" y2="240" gradientUnits="userSpaceOnUse">
<stop stop-color="#FF1150"/>
<stop offset="1" stop-color="#FF1B57"/>
</linearGradient>
</defs>
</svg>
