<svg width="109" height="57" viewBox="0 0 109 57" fill="none" xmlns="http://www.w3.org/2000/svg">
<path d="M32.1173 43.45C33.6102 43.4244 34.5137 45.1236 33.7436 46.5086L28.9787 55.0785C28.2086 56.4635 26.3424 56.4955 25.6196 55.1362L21.1473 46.725C20.4245 45.3656 21.3871 43.6343 22.88 43.6086L32.1173 43.45Z" fill="white"/>
<rect width="109" height="52" rx="8" fill="white"/>
<path d="M10.576 13.816H13.642V19.78H10.576V13.816ZM9.148 20.928H15.07V12.668H9.148V20.928ZM20.474 16.378H18.5V11.436H17.058V24.092H18.5V17.568H20.474V16.378ZM26.8049 11.702C24.0469 11.702 22.2969 12.612 22.2969 14.124C22.2969 15.622 24.0469 16.546 26.8049 16.546C29.5629 16.546 31.3129 15.622 31.3129 14.124C31.3129 12.612 29.5629 11.702 26.8049 11.702ZM26.8049 12.822C28.6809 12.822 29.8149 13.284 29.8149 14.124C29.8149 14.95 28.6809 15.412 26.8049 15.412C24.9289 15.412 23.7809 14.95 23.7809 14.124C23.7809 13.284 24.9289 12.822 26.8049 12.822ZM22.4509 19.696V23.924H31.1309V19.696H22.4509ZM29.7169 20.844V22.776H23.8789V20.844H29.7169ZM21.0789 17.47V18.618H32.5169V17.47H21.0789ZM36.3138 20.032C35.4458 20.032 34.9138 18.898 34.9138 16.896C34.9138 14.894 35.4458 13.774 36.3138 13.774C37.1818 13.774 37.7138 14.894 37.7138 16.896C37.7138 18.898 37.1818 20.032 36.3138 20.032ZM40.3598 16.224H39.0018C38.8478 13.858 37.8258 12.416 36.3138 12.416C34.6758 12.416 33.5978 14.124 33.5978 16.896C33.5978 19.668 34.6758 21.39 36.3138 21.39C37.8538 21.39 38.8898 19.878 39.0158 17.414H40.3598V23.476H41.7038V11.674H40.3598V16.224ZM42.8938 11.436V24.064H44.2658V11.436H42.8938ZM58.6593 17.4H51.3373V13.718H58.5613V12.542H49.8953V18.562H58.6593V17.4ZM48.4953 21.264V22.454H59.9613V21.264H48.4953ZM71.0242 15.062H63.7862V11.884H62.3442V16.238H71.0242V15.062ZM63.7022 20.074H62.2602V23.798H71.0942V22.636H63.7022V20.074ZM60.8602 17.75V18.912H72.3402V17.75H60.8602ZM85.5856 16.56C85.9076 15.104 85.9076 13.984 85.9076 13.032V12.094H77.2276V13.256H84.4656C84.4656 14.138 84.4376 15.118 84.1576 16.434L85.5856 16.56ZM77.1156 20.942H84.4096V24.092H85.8516V19.794H77.1156V20.942ZM81.8476 17.344V14.88H80.3916V17.344H75.9116V18.52H87.3216V17.344H81.8476ZM93.9885 12.99C95.8365 12.99 96.9985 13.508 96.9985 14.39C96.9985 15.286 95.8365 15.804 93.9885 15.804C92.1265 15.804 90.9645 15.286 90.9645 14.39C90.9645 13.508 92.1265 12.99 93.9885 12.99ZM93.9885 16.966C96.7185 16.966 98.4965 16 98.4965 14.39C98.4965 12.794 96.7185 11.828 93.9885 11.828C91.2585 11.828 89.4805 12.794 89.4805 14.39C89.4805 16 91.2585 16.966 93.9885 16.966ZM91.1605 20.158H89.7045V23.84H98.4265V22.664H91.1605V20.158ZM88.2625 17.988V19.164H99.7005V17.988H88.2625Z" fill="#222222"/>
<path d="M9.876 36.212C11.948 35.932 13.6 35.008 14.412 33.748C15.238 35.008 16.89 35.946 18.948 36.212L19.466 35.078C17.016 34.784 15.28 33.44 15.154 32.096H19.06V30.934H15.14V29.45H13.698V30.934H9.792V32.096H13.684C13.558 33.454 11.822 34.784 9.372 35.078L9.876 36.212ZM20.138 37.038H8.714V38.228H13.698V42.106H15.14V38.228H20.138V37.038ZM27.7989 33.23V34.42H30.1229V38.844H31.5649V29.45H30.1229V33.23H27.7989ZM28.6109 36.058C26.6649 35.456 25.5449 33.986 25.5449 32.432V32.194H28.2049V31.032H25.5589V29.52H24.1029V31.032H21.4429V32.194H24.1029V32.432C24.1029 34.098 23.0109 35.638 21.0649 36.296L21.7789 37.416C23.2489 36.926 24.2989 35.918 24.8589 34.63C25.4189 35.82 26.4829 36.744 27.9109 37.192L28.6109 36.058ZM24.8169 40.664V38.032H23.3749V41.84H31.8869V40.664H24.8169ZM47.5823 35.638V34.476H45.8043C46.2103 32.726 46.2103 31.452 46.2103 30.598V29.968H42.1363V31.13H44.8103C44.7963 31.942 44.7263 33.006 44.3483 34.476H40.7783C41.2823 32.628 41.2823 31.284 41.2823 30.486V29.968H37.1803V31.13H39.8683C39.8543 31.928 39.7423 33.02 39.3363 34.476H36.1023V35.638H41.0863V37.654H37.4183V38.816H44.6283V42.05H46.0703V37.654H42.5283V35.638H47.5823ZM49.6433 37.71H50.7213L50.9453 32.11L51.0013 30.444H49.3773L49.4193 32.11L49.6433 37.71ZM50.1753 41.182C50.7913 41.182 51.2673 40.72 51.2673 40.062C51.2673 39.39 50.7913 38.914 50.1753 38.914C49.5733 38.914 49.1113 39.39 49.1113 40.062C49.1113 40.72 49.5733 41.182 50.1753 41.182Z" fill="#FF3B6F"/>
</svg>
