<svg width="328" height="111" viewBox="0 0 328 111" fill="none" xmlns="http://www.w3.org/2000/svg">
<g filter="url(#filter0_b_5362_51301)">
<path d="M0 55.5C0 24.8482 24.8482 0 55.5 0H272.5C303.152 0 328 24.8482 328 55.5V55.5C328 86.1518 303.152 111 272.5 111H55.5C24.8482 111 0 86.1518 0 55.5V55.5Z" fill="white" fill-opacity="0.16"/>
<path d="M55.5 1H272.5C302.6 1 327 25.4005 327 55.5C327 85.5995 302.6 110 272.5 110H55.5C25.4005 110 1 85.5995 1 55.5C1 25.4005 25.4005 1 55.5 1Z" stroke="#FF3B6F" stroke-width="2"/>
</g>
<rect x="65" y="17" width="199" height="35" rx="4" fill="white" fill-opacity="0.11"/>
<path d="M75.7984 45H77.5024L78.1744 39.624H81.4864L80.8384 45H82.5664L83.2144 39.624H85.7344V37.776H83.4304L83.8864 34.104H86.2624V32.256H84.1024L84.7024 27.456H82.9984L82.3744 32.256H79.0624L79.6384 27.456H77.9584L77.3344 32.256H74.8864V34.104H77.1424L76.6624 37.776H74.3584V39.624H76.4464L75.7984 45ZM78.3664 37.776L78.8224 34.104H82.1584L81.7024 37.776H78.3664ZM92.6419 39.84C90.7939 39.84 89.5219 37.824 89.5219 34.392C89.5219 31.032 90.7939 28.992 92.6419 28.992C94.5139 28.992 95.7859 31.032 95.7859 34.392C95.7859 37.824 94.5139 39.84 92.6419 39.84ZM102.314 25.152V33.24H98.0899C97.7539 29.256 95.5459 26.76 92.6419 26.76C89.4499 26.76 87.1699 29.736 87.1699 34.392C87.1699 39.096 89.4499 42.048 92.6419 42.048C95.6179 42.048 97.8259 39.456 98.1139 35.256H102.314V46.896H104.81V25.152H102.314ZM119.652 31.2H114.66V27.696H119.652V31.2ZM112.188 31.2H109.236V33.072H125.052V31.2H122.124V27.696H125.172V25.8H109.116V27.696H112.188V31.2ZM112.188 43.176H124.524V38.136H109.692V39.96H122.1V41.472H109.74V46.656H125.148V44.808H112.188V43.176ZM107.364 34.584V36.552H126.996V34.584H107.364ZM131.014 35.328H136.294V27.456H128.59V29.448H133.918V33.336H128.638V41.64H130.126C132.838 41.64 135.262 41.568 138.19 41.064L137.974 39.024C135.43 39.456 133.294 39.576 131.014 39.6V35.328ZM139.702 32.76H137.254V34.8H139.702V45.768H142.006V25.656H139.702V32.76ZM144.094 25.176V46.848H146.446V25.176H144.094ZM163.88 25.152V46.896H166.376V25.152H163.88ZM154.832 26.76C151.616 26.76 149.264 29.736 149.264 34.392C149.264 39.096 151.616 42.048 154.832 42.048C158.072 42.048 160.424 39.096 160.424 34.392C160.424 29.736 158.072 26.76 154.832 26.76ZM154.832 28.992C156.728 28.992 158.048 31.032 158.048 34.392C158.048 37.8 156.728 39.84 154.832 39.84C152.96 39.84 151.64 37.8 151.64 34.392C151.64 31.032 152.96 28.992 154.832 28.992ZM170.97 38.592C174.474 37.92 177.522 35.88 178.914 33.072C180.33 35.856 183.402 37.824 186.954 38.496L187.962 36.528C183.666 35.88 180.21 32.952 180.21 29.688V29.184H187.098V27.168H170.73V29.184H177.618V29.688C177.618 32.952 174.186 35.928 169.962 36.624L170.97 38.592ZM169.122 42.096V44.112H188.754V42.096H169.122ZM194.479 26.688V28.704H201.919C201.487 32.064 198.535 34.8 193.519 36.24L194.527 38.208C200.863 36.384 204.607 32.352 204.607 26.688H194.479ZM203.599 44.904C200.719 44.904 198.895 44.04 198.895 42.552C198.895 41.04 200.719 40.176 203.599 40.176C206.503 40.176 208.303 41.04 208.303 42.552C208.303 44.04 206.503 44.904 203.599 44.904ZM203.599 38.208C199.279 38.208 196.447 39.864 196.447 42.552C196.447 45.216 199.279 46.848 203.599 46.848C207.943 46.848 210.751 45.216 210.751 42.552C210.751 39.864 207.943 38.208 203.599 38.208ZM210.511 30.528V25.176H208.039V37.92H210.511V32.568H213.583V30.528H210.511ZM226.625 33.048C223.433 33.696 220.433 33.912 217.601 33.96V26.232H215.129V36H216.881C220.049 36 223.313 35.784 226.937 35.064L226.625 33.048ZM219.665 40.488H228.665V44.592H219.665V40.488ZM217.241 46.584H231.089V38.52H217.241V46.584ZM234.161 29.976H231.089V25.176H228.617V37.416H231.089V32.016H234.161V29.976ZM247.611 35.304C244.395 34.176 242.547 31.464 242.547 28.776V28.416H247.059V26.424H235.467V28.416H240.051V28.776C240.051 31.728 238.083 34.584 234.723 35.76L235.995 37.704C238.563 36.816 240.387 34.92 241.347 32.592C242.259 34.704 244.011 36.384 246.411 37.224L247.611 35.304ZM240.891 40.728H250.275V44.616H240.891V40.728ZM238.467 46.584H252.699V38.76H238.467V46.584ZM250.227 25.152V30.432H246.387V32.448H250.227V37.776H252.699V25.152H250.227Z" fill="white"/>
<rect x="37" y="60" width="71" height="35" rx="4" fill="white" fill-opacity="0.11"/>
<path d="M47.4781 88H49.1821L49.8541 82.624H53.1661L52.5181 88H54.2461L54.8941 82.624H57.4141V80.776H55.1101L55.5661 77.104H57.9421V75.256H55.7821L56.3821 70.456H54.6781L54.0541 75.256H50.7421L51.3181 70.456H49.6381L49.0141 75.256H46.5661V77.104H48.8221L48.3421 80.776H46.0381V82.624H48.1261L47.4781 88ZM50.0461 80.776L50.5021 77.104H53.8381L53.3821 80.776H50.0461ZM66.9616 76.432H61.6816V71.32H66.9616V76.432ZM69.3856 69.352H59.2336V78.4H69.3856V69.352ZM62.9776 85.864H67.7056V80.608H60.5536V82.48H65.3056V84.112H60.6016V89.584H61.9456C65.7616 89.584 67.3936 89.536 69.3376 89.104L69.1216 87.256C67.3936 87.616 65.9536 87.688 62.9776 87.712V85.864ZM68.5936 82.576H72.9616V89.68H75.4096V80.608H68.5936V82.576ZM78.4576 72.76H75.4096V68.176H72.9376V79.576H75.4096V74.8H78.4576V72.76ZM88.8598 70.84C92.0278 70.84 94.0198 71.728 94.0198 73.24C94.0198 74.776 92.0278 75.664 88.8598 75.664C85.6678 75.664 83.6758 74.776 83.6758 73.24C83.6758 71.728 85.6678 70.84 88.8598 70.84ZM88.8598 77.656C93.5398 77.656 96.5878 76 96.5878 73.24C96.5878 70.504 93.5398 68.848 88.8598 68.848C84.1797 68.848 81.1318 70.504 81.1318 73.24C81.1318 76 84.1797 77.656 88.8598 77.656ZM84.0117 83.128H81.5158V89.44H96.4678V87.424H84.0117V83.128ZM79.0438 79.408V81.424H98.6518V79.408H79.0438Z" fill="white"/>
<rect x="116" y="60" width="95" height="35" rx="4" fill="white" fill-opacity="0.12"/>
<path d="M126.689 88H128.393L129.065 82.624H132.377L131.729 88H133.457L134.105 82.624H136.625V80.776H134.321L134.777 77.104H137.153V75.256H134.993L135.593 70.456H133.889L133.265 75.256H129.953L130.529 70.456H128.849L128.225 75.256H125.777V77.104H128.033L127.553 80.776H125.249V82.624H127.337L126.689 88ZM129.257 80.776L129.713 77.104H133.049L132.593 80.776H129.257ZM143.501 83.728H153.461V87.616H143.501V83.728ZM141.077 89.584H155.885V81.76H141.077V89.584ZM155.333 77.128C155.885 74.536 155.885 72.616 155.885 70.912V69.232H141.173V71.248H153.461C153.461 72.88 153.413 74.704 152.861 77.128H138.701V79.144H158.333V77.128H155.333ZM167.335 80.464C168.175 80.656 169.111 80.752 170.071 80.752C171.031 80.752 171.967 80.656 172.807 80.44V85.168H167.335V80.464ZM170.071 71.368C173.335 71.368 175.615 72.808 175.615 75.088C175.615 77.392 173.335 78.832 170.071 78.832C166.783 78.832 164.503 77.392 164.503 75.088C164.503 72.808 166.783 71.368 170.071 71.368ZM175.279 85.168V79.528C177.007 78.544 178.039 77.008 178.039 75.088C178.039 71.632 174.679 69.424 170.071 69.424C165.439 69.424 162.103 71.632 162.103 75.088C162.103 77.008 163.135 78.568 164.863 79.528V85.168H160.279V87.184H179.911V85.168H175.279ZM199.713 68.152H197.241V79.168H199.713V68.152ZM184.665 73.768C184.665 72.04 186.057 70.912 187.929 70.912C189.825 70.912 191.241 72.04 191.241 73.768C191.241 75.496 189.825 76.624 187.929 76.624C186.057 76.624 184.665 75.496 184.665 73.768ZM193.641 73.768C193.641 70.912 191.217 68.872 187.929 68.872C184.665 68.872 182.265 70.912 182.265 73.768C182.265 76.624 184.665 78.64 187.929 78.64C191.217 78.64 193.641 76.624 193.641 73.768ZM187.977 87.64V85.72H199.713V80.152H185.505V82.096H197.265V83.896H185.553V89.584H200.361V87.64H187.977Z" fill="white"/>
<rect x="219" y="60" width="73" height="35" rx="4" fill="white" fill-opacity="0.12"/>
<path d="M229.478 88H231.182L231.854 82.624H235.166L234.518 88H236.246L236.894 82.624H239.414V80.776H237.11L237.566 77.104H239.942V75.256H237.782L238.382 70.456H236.678L236.054 75.256H232.742L233.318 70.456H231.638L231.014 75.256H228.566V77.104H230.822L230.342 80.776H228.038V82.624H230.126L229.478 88ZM232.046 80.776L232.502 77.104H235.838L235.382 80.776H232.046ZM249.266 72.352H253.97V70.336H242.09V72.352H246.77V74.104C246.77 78.016 244.586 82.144 241.25 83.752L242.714 85.72C245.234 84.424 247.106 81.784 248.066 78.712C249.026 81.616 250.874 84.064 253.346 85.264L254.786 83.32C251.426 81.76 249.266 77.776 249.266 74.104V72.352ZM256.994 68.152V75.904H252.722V77.944H256.994V89.872H259.466V68.152H256.994ZM274.972 77.656C272.284 78.184 269.86 78.328 266.764 78.352V69.4H264.292V80.416H265.948C269.548 80.416 272.236 80.248 275.308 79.672L274.972 77.656ZM266.38 84.184H278.548V89.848H281.02V82.192H266.38V84.184ZM278.548 68.152V70.6H272.86V72.496H278.548V74.488H272.86V76.408H278.548V81.208H281.02V68.152H278.548Z" fill="white"/>
<defs>
<filter id="filter0_b_5362_51301" x="-100" y="-100" width="528" height="311" filterUnits="userSpaceOnUse" color-interpolation-filters="sRGB">
<feFlood flood-opacity="0" result="BackgroundImageFix"/>
<feGaussianBlur in="BackgroundImage" stdDeviation="50"/>
<feComposite in2="SourceAlpha" operator="in" result="effect1_backgroundBlur_5362_51301"/>
<feBlend mode="normal" in="SourceGraphic" in2="effect1_backgroundBlur_5362_51301" result="shape"/>
</filter>
</defs>
</svg>
