<svg width="54" height="54" viewBox="0 0 54 54" fill="none" xmlns="http://www.w3.org/2000/svg">
<circle cx="27" cy="27" r="26" fill="#FF3C6F" stroke="#FD4E6D" stroke-width="2"/>
<path d="M32.4525 34.5L32.4546 34.5C32.7016 34.501 32.9479 34.4217 33.1624 34.2652C33.3776 34.1082 33.5524 33.8793 33.6577 33.6023L33.6577 33.6023L33.6591 33.5986L36.4022 26.5537C36.4658 26.3782 36.4993 26.1898 36.5 25.9987C36.5 25.9986 36.5 25.9984 36.5 25.9982L36.5 24.2833L36.4685 24.2487L36.4941 24.0235L36.4997 23.9742C36.4923 23.5716 36.3433 23.1954 36.0953 22.923C35.8434 22.6462 35.5128 22.5007 35.1792 22.5C35.179 22.5 35.1789 22.5 35.1787 22.5L29.4438 22.5H28.8405L28.9525 21.9072L29.8113 17.3608L29.8344 17.0898C29.8292 16.8179 29.7288 16.5662 29.5654 16.3857C29.5651 16.3853 29.5648 16.385 29.5644 16.3846L28.9732 15.7412L23.3515 21.9258C23.3514 21.9259 23.3514 21.9259 23.3513 21.926C23.2274 22.0628 23.127 22.2277 23.058 22.4123C22.9889 22.597 22.9532 22.7963 22.9538 22.9984V23V32.9994C22.9551 33.4115 23.1048 33.7979 23.3578 34.0762C23.6093 34.3529 23.9394 34.4987 24.2726 34.5L32.4525 34.5ZM20.1359 34.5V23.5H17.5V34.5H20.1359Z" fill="white" stroke="white"/>
</svg>
