<svg width="106" height="58" viewBox="0 0 106 58" fill="none" xmlns="http://www.w3.org/2000/svg">
<path d="M73.4479 12.3898C71.9318 12.3768 71.0283 10.6776 71.8216 9.33122L76.7302 1.00077C77.5235 -0.345567 79.4187 -0.329255 80.1415 1.03013L84.6138 9.44133C85.3366 10.8007 84.3449 12.4836 82.8288 12.4706L73.4479 12.3898Z" fill="white"/>
<rect y="5" width="106" height="52.0656" rx="8" fill="white"/>
<path d="M15.154 26.362V23.212H18.906V22.036H11.514V17.458H10.058V23.212H13.698V26.362H8.714V27.552H20.166V26.362H15.154ZM22.8709 22.386H26.2029V17.738H21.4569V18.914H24.8169V21.224H21.4849V26.152H22.3389C23.8929 26.152 25.2929 26.11 26.9869 25.816L26.8609 24.64C25.4189 24.878 24.1869 24.948 22.8709 24.962V22.386ZM30.5009 16.436V21.322H29.0029V16.688H27.6449V28.448H29.0029V22.498H30.5009V29.064H31.8729V16.436H30.5009ZM34.0878 17.766V18.942H38.5118C38.2178 21.854 36.5518 24.08 33.4578 25.662L34.2558 26.768C38.3858 24.682 39.9538 21.434 39.9538 17.766H34.0878ZM45.1758 21.42H43.2578V16.422H41.8158V29.064H43.2578V22.624H45.1758V21.42ZM57.5113 19.25V20.44H54.8933V19.25H57.5113ZM53.4793 21.406H50.4973V19.754H53.4793V21.406ZM54.8933 21.56H57.5113V22.988H58.9673V16.436H57.5113V18.144H54.8933V16.996H53.4793V18.648H50.4973V16.996H49.0693V22.554H54.8933V21.56ZM52.1773 27.79V26.712H58.9673V23.548H50.7353V24.682H57.5393V25.648H50.7493V28.924H59.3873V27.79H52.1773ZM67.3002 26.404V24.248H71.2482V23.086H63.6742V21.322H70.9682V17.318H62.2322V18.48H69.5402V20.174H62.2602V24.248H65.8582V26.404H60.8742V27.594H72.3262V26.404H67.3002ZM75.1851 22.26H79.5111V17.556H73.7291V18.732H78.0831V21.098H73.7571V26.096H74.7931C77.1311 26.096 78.8251 26.012 80.7711 25.662L80.6171 24.486C78.8391 24.808 77.2571 24.892 75.1851 24.906V22.26ZM85.0131 21.35H83.0671V16.408H81.6111V29.092H83.0671V22.554H85.0131V21.35ZM90.63 22.386H87.592V18.634H90.63V22.386ZM94.662 19.726V21.266H92.03V19.726H94.662ZM92.03 22.428H94.662V25.662H96.104V16.436H94.662V18.55H92.03V17.486H86.178V23.534H92.03V22.428ZM89.328 27.664V24.822H87.872V28.84H96.398V27.664H89.328Z" fill="#151515" fill-opacity="0.87"/>
<path d="M19.13 34.436H17.674V40.708L19.13 40.722V34.436ZM16.414 39.392C14.468 38.804 13.32 37.348 13.32 35.738V34.786H11.85V35.738C11.85 37.418 10.702 39.028 8.7 39.658L9.414 40.806C10.954 40.302 12.032 39.252 12.606 37.908C13.18 39.126 14.258 40.078 15.728 40.512L16.414 39.392ZM11.64 44.698H14.258V41.618H10.24V42.682H12.9V43.704H10.268V46.924H10.968C12.732 46.924 13.656 46.91 14.79 46.686L14.664 45.622C13.712 45.79 12.942 45.832 11.64 45.846V44.698ZM17.268 46.098C16.694 46.098 16.288 45.832 16.288 45.328C16.288 44.838 16.694 44.558 17.268 44.558C17.842 44.558 18.248 44.838 18.248 45.328C18.248 45.832 17.842 46.098 17.268 46.098ZM17.268 43.578C16.008 43.578 15.07 44.264 15.07 45.328C15.07 46.406 16.008 47.078 17.268 47.078C18.528 47.078 19.466 46.406 19.466 45.328C19.466 44.264 18.528 43.578 17.268 43.578ZM17.982 42.08V41.03H16.582V42.08H14.636V43.144H19.97V42.08H17.982ZM24.4949 42.99C23.4169 42.99 22.6749 41.814 22.6749 39.812C22.6749 37.852 23.4169 36.662 24.4949 36.662C25.5869 36.662 26.3289 37.852 26.3289 39.812C26.3289 41.814 25.5869 42.99 24.4949 42.99ZM30.1369 34.422V39.14H27.6729C27.4769 36.816 26.1889 35.36 24.4949 35.36C22.6329 35.36 21.3029 37.096 21.3029 39.812C21.3029 42.556 22.6329 44.278 24.4949 44.278C26.2309 44.278 27.5189 42.766 27.6869 40.316H30.1369V47.106H31.5929V34.422H30.1369ZM37.5878 41.604C38.0778 41.716 38.6238 41.772 39.1838 41.772C39.7438 41.772 40.2898 41.716 40.7798 41.59V44.348H37.5878V41.604ZM39.1838 36.298C41.0878 36.298 42.4178 37.138 42.4178 38.468C42.4178 39.812 41.0878 40.652 39.1838 40.652C37.2658 40.652 35.9358 39.812 35.9358 38.468C35.9358 37.138 37.2658 36.298 39.1838 36.298ZM42.2218 44.348V41.058C43.2298 40.484 43.8318 39.588 43.8318 38.468C43.8318 36.452 41.8718 35.164 39.1838 35.164C36.4818 35.164 34.5358 36.452 34.5358 38.468C34.5358 39.588 35.1378 40.498 36.1458 41.058V44.348H33.4718V45.524H44.9238V44.348H42.2218ZM51.2393 44.74H58.6173V41.618H49.7973V42.738H57.1893V43.69H49.8253V46.924H59.0513V45.804H51.2393V44.74ZM58.2533 39.476C58.5193 38.09 58.5193 36.984 58.5193 35.99V34.968H49.9373V36.102H57.1053C57.1053 36.424 57.1053 36.746 57.0913 37.096L49.6013 37.32L49.7693 38.426L57.0213 38.118C56.9793 38.538 56.9233 38.986 56.8113 39.476H48.5093V40.624H59.9053V39.476H58.2533ZM68.5322 40.008C66.6982 40.302 65.1162 40.372 62.9462 40.386V38.832H67.2722V35.15H61.4902V36.312H65.8582V37.74H61.5182V41.562H62.5822C65.0042 41.562 66.7122 41.492 68.7002 41.17L68.5322 40.008ZM62.7642 43.984H69.8482V47.092H71.2902V42.808H62.7642V43.984ZM69.8482 34.422V42.192H71.2902V34.422H69.8482ZM74.4011 42.71H75.4791L75.7031 37.11L75.7591 35.444H74.1351L74.1771 37.11L74.4011 42.71ZM74.9331 46.182C75.5491 46.182 76.0251 45.72 76.0251 45.062C76.0251 44.39 75.5491 43.914 74.9331 43.914C74.3311 43.914 73.8691 44.39 73.8691 45.062C73.8691 45.72 74.3311 46.182 74.9331 46.182Z" fill="#FF3B6F"/>
</svg>
