<svg width="54" height="54" viewBox="0 0 54 54" fill="none" xmlns="http://www.w3.org/2000/svg">
<g filter="url(#filter0_b_5362_51289)">
<circle cx="27" cy="27" r="27" transform="rotate(-180 27 27)" fill="white" fill-opacity="0.16"/>
<circle cx="27" cy="27" r="26" transform="rotate(-180 27 27)" stroke="#FD4E6D" stroke-width="2"/>
</g>
<path d="M29.7282 19L21.5475 19C21.1903 18.9986 20.8407 19.1137 20.543 19.3309C20.2452 19.548 20.0128 19.8575 19.875 20.22L17.1299 27.27M29.7282 19C30.2099 19.0015 30.6716 19.2127 31.0122 19.5875C31.3528 19.9622 31.5448 20.47 31.5462 21M29.7282 19L29.7282 19.5L29.7274 19.5M29.7282 19L29.7267 19.5C29.7269 19.5 29.7271 19.5 29.7274 19.5M31.5462 21L31.5462 31C31.547 31.2616 31.5008 31.5209 31.4104 31.7628C31.3199 32.0048 31.1869 32.2247 31.019 32.41M31.5462 21L31.0462 21.0013C31.0462 21.0011 31.0462 21.0008 31.0462 21.0006M31.5462 21L31.0462 21L31.0462 21.0006M31.019 32.41L25.3665 38.6285L25.0268 38.2588M31.019 32.41L30.6485 32.0742L25.0268 38.2588M31.019 32.41L30.649 32.0737L30.6487 32.074C30.7726 31.9372 30.873 31.7723 30.942 31.5877C31.0111 31.403 31.0468 31.2037 31.0462 31.0016L31.0462 31L31.0462 21.0006M25.0268 38.2588L24.6891 38.6303L24.0653 37.9514M25.0268 38.2588L24.4356 37.6154L24.0653 37.9514M24.0653 37.9514C23.81 37.6701 23.6662 37.289 23.6654 36.8914M24.0653 37.9514L24.4335 37.6131L24.4347 37.6145C24.2712 37.4339 24.1708 37.1822 24.1656 36.9102M23.6654 36.8914L23.6926 36.5714M23.6654 36.8914L24.1654 36.8904C24.1654 36.897 24.1655 36.9036 24.1656 36.9102M23.6654 36.8914L24.1636 36.9339L24.1656 36.9102M23.6926 36.5714L24.4617 32.5L24.5562 32.5L24.5562 32L24.0648 31.9072L24.0473 32L18.8205 32M23.6926 36.5714L24.1908 36.6139L24.1887 36.6392M23.6926 36.5714L24.1839 36.6642L24.1887 36.6392M18.8205 32C18.3384 31.9993 17.8761 31.7884 17.5349 31.4136C17.1937 31.0387 17.0014 30.5305 17 30M18.8205 32L18.8205 31.5L18.8208 31.5C18.4872 31.4993 18.1566 31.3538 17.9047 31.077C17.6567 30.8046 17.5077 30.4284 17.5003 30.0258M18.8205 32L18.8213 31.5L24.5562 31.5L25.1595 31.5L25.0475 32.0928L24.1887 36.6392M17 30L17.0091 29.92L17 29.91M17 30L17.5 29.9987C17.5 30.0078 17.5001 30.0168 17.5003 30.0258M17 30L17.4968 30.0565L17.5003 30.0258M17 29.91L17 28M17 29.91L17.37 29.5737L17.3791 29.5837L17.5 29.7167M17 29.91L17.0201 29.91L17.5 29.91L17.5 29.7167M17 28C17.0009 27.7498 17.0449 27.5021 17.1299 27.27M17 28L17.5 28L17.5 28.0008M17 28L17.5 28.0018C17.5 28.0014 17.5 28.0011 17.5 28.0008M17.1299 27.27L17.5994 27.4418C17.5989 27.4433 17.5983 27.4448 17.5978 27.4463M17.1299 27.27L17.5958 27.4514L17.5978 27.4463M17.5978 27.4463C17.5342 27.6216 17.5008 27.8098 17.5 28.0008M17.5978 27.4463L20.3409 20.4014L20.3423 20.3977L20.3423 20.3977C20.4476 20.1207 20.6224 19.8918 20.8376 19.7348C21.0521 19.5783 21.2984 19.499 21.5454 19.5L21.5475 19.5L29.7274 19.5M17.5 28.0008L17.5 29.7167M17.5 29.7167L17.5315 29.7513L17.5059 29.9765L17.5003 30.0258M24.1887 36.6392L24.1656 36.9102M31.0462 21.0006C31.0449 20.5885 30.8952 20.2021 30.6422 19.9238C30.3907 19.6471 30.0606 19.5013 29.7274 19.5M33.8641 19.5L33.8641 30.5L36.5 30.5L36.5 19.5L33.8641 19.5Z" fill="white" stroke="white"/>
<defs>
<filter id="filter0_b_5362_51289" x="-100" y="-100" width="254" height="254" filterUnits="userSpaceOnUse" color-interpolation-filters="sRGB">
<feFlood flood-opacity="0" result="BackgroundImageFix"/>
<feGaussianBlur in="BackgroundImage" stdDeviation="50"/>
<feComposite in2="SourceAlpha" operator="in" result="effect1_backgroundBlur_5362_51289"/>
<feBlend mode="normal" in="SourceGraphic" in2="effect1_backgroundBlur_5362_51289" result="shape"/>
</filter>
</defs>
</svg>
