<svg width="134" height="57" viewBox="0 0 134 57" fill="none" xmlns="http://www.w3.org/2000/svg">
<path d="M34.5523 12.3908C36.0684 12.3778 36.9719 10.6785 36.1786 9.3322L31.2699 1.00175C30.4766 -0.34459 28.5815 -0.328278 27.8587 1.03111L23.3863 9.44231C22.6635 10.8017 23.6552 12.4846 25.1713 12.4716L34.5523 12.3908Z" fill="white"/>
<rect y="5.00024" width="134" height="52" rx="8" fill="white"/>
<path d="M10.59 17.6682H9.148V25.9282H10.198C12.102 25.9282 14.062 25.7882 16.204 25.3682L16.036 24.1782C14.118 24.5702 12.298 24.7102 10.59 24.7242V17.6682ZM20.418 21.3642H18.5V16.4362H17.058V29.0782H18.5V22.5542H20.418V21.3642ZM25.1669 17.3182C23.1929 17.3182 21.7369 18.5642 21.7369 20.3562C21.7369 22.1482 23.1929 23.3942 25.1669 23.3942C27.1409 23.3942 28.6109 22.1482 28.6109 20.3562C28.6109 18.5642 27.1409 17.3182 25.1669 17.3182ZM25.1669 18.5502C26.3429 18.5502 27.1969 19.2502 27.1969 20.3562C27.1969 21.4482 26.3429 22.1622 25.1669 22.1622C24.0049 22.1622 23.1509 21.4482 23.1509 20.3562C23.1509 19.2502 24.0049 18.5502 25.1669 18.5502ZM30.0389 16.4222V29.0922H31.4949V16.4222H30.0389ZM21.3309 26.4182C23.5709 26.4182 26.5949 26.3902 29.3809 25.8582L29.2829 24.8082C26.5669 25.2142 23.4169 25.2282 21.1489 25.2282L21.3309 26.4182ZM41.0583 21.6022H37.9783V18.4242H41.0583V21.6022ZM42.4723 17.2622H36.5503V22.7502H42.4723V17.2622ZM46.1683 25.4242V24.2762H37.8103V25.4242H41.2123C40.9883 26.6002 39.5043 27.6502 37.2923 27.9442L37.8243 29.0362C39.7703 28.7562 41.2683 27.9162 41.9963 26.7402C42.7243 27.9022 44.2363 28.7842 46.1543 29.0502L46.6723 27.9722C44.5163 27.6502 42.9903 26.5722 42.7803 25.4242H46.1683ZM45.9863 19.3342V16.4222H44.5443V23.5902H45.9863V20.5242H47.7783V19.3342H45.9863ZM49.5033 21.9942C51.7153 21.8122 53.4093 21.1122 54.1933 20.0062C54.9913 21.1122 56.6853 21.8122 58.8973 21.9942L59.3313 20.9022C56.7553 20.7202 55.1873 19.8522 55.0193 18.7182H58.7713V17.5842H54.9213V16.3942H53.4793V17.5842H49.6292V18.7182H53.3813C53.2133 19.8522 51.6313 20.7202 49.0693 20.9022L49.5033 21.9942ZM57.1193 27.7762H51.2812V26.1102H57.1193V27.7762ZM59.9193 23.7442V22.5822H48.4813V23.7442H53.4793V24.9622H49.8533V28.9242H58.5333V24.9622H54.9213V23.7442H59.9193ZM74.9567 23.1142H73.1507C73.5847 21.0562 73.5847 19.6002 73.5847 18.2982V17.1362H64.9187V18.3122H72.1847C72.1847 18.8162 72.1847 19.3202 72.1567 19.8802L64.5267 20.1462L64.7087 21.3642L72.0867 21.0002C72.0167 21.6442 71.9047 22.3302 71.7367 23.1142H63.5187V24.3042H66.3047V29.0922H67.7467V24.3042H70.6447V29.0922H72.0867V24.3042H74.9567V23.1142ZM77.6756 22.3582H80.7556V17.7662H76.2616V18.9282H79.3696V21.1962H76.2896V26.0402H77.1576C78.7396 26.0402 80.1536 25.9982 81.8616 25.7042L81.7356 24.5142C80.2516 24.7662 79.0056 24.8362 77.6756 24.8502V22.3582ZM82.7436 20.8602H81.3156V22.0502H82.7436V28.4482H84.0876V16.7162H82.7436V20.8602ZM85.3056 16.4362V29.0782H86.6776V16.4362H85.3056ZM97.2225 16.4222V29.1062H98.6785V16.4222H97.2225ZM91.9445 17.3602C90.0685 17.3602 88.6965 19.0962 88.6965 21.8122C88.6965 24.5562 90.0685 26.2782 91.9445 26.2782C93.8345 26.2782 95.2065 24.5562 95.2065 21.8122C95.2065 19.0962 93.8345 17.3602 91.9445 17.3602ZM91.9445 18.6622C93.0505 18.6622 93.8205 19.8522 93.8205 21.8122C93.8205 23.8002 93.0505 24.9902 91.9445 24.9902C90.8525 24.9902 90.0825 23.8002 90.0825 21.8122C90.0825 19.8522 90.8525 18.6622 91.9445 18.6622ZM109.685 25.8442H111.127V16.4362H109.685V18.2002H107.333V19.3762H109.685V20.7342H107.333V21.8962H109.685V25.8442ZM108.103 22.9742C106.213 22.2462 105.163 20.4962 105.163 18.7042V17.1362H103.693V18.7042C103.693 20.6082 102.601 22.4142 100.627 23.1422L101.411 24.2762C102.853 23.7022 103.903 22.5822 104.449 21.1542C104.981 22.4702 105.975 23.5482 107.305 24.1082L108.103 22.9742ZM104.351 27.6642V24.9342H102.895V28.8402H111.421V27.6642H104.351Z" fill="#FF2D55"/>
<path d="M121.98 16.4222V29.1062H123.436V16.4222H121.98ZM116.702 17.3602C114.826 17.3602 113.454 19.0962 113.454 21.8122C113.454 24.5562 114.826 26.2782 116.702 26.2782C118.592 26.2782 119.964 24.5562 119.964 21.8122C119.964 19.0962 118.592 17.3602 116.702 17.3602ZM116.702 18.6622C117.808 18.6622 118.578 19.8522 118.578 21.8122C118.578 23.8002 117.808 24.9902 116.702 24.9902C115.61 24.9902 114.84 23.8002 114.84 21.8122C114.84 19.8522 115.61 18.6622 116.702 18.6622ZM12.662 42.6402H10.478V36.9702H12.662V42.6402ZM15.602 39.1262H14.006V35.8222H9.134V43.7882H14.006V40.3022H15.602V46.4762H16.946V34.6742H15.602V39.1262ZM18.136 34.4362V47.0642H19.508V34.4362H18.136ZM31.5089 34.4362H30.0669V43.6202H31.5089V34.4362ZM22.7449 38.4402C22.7449 37.2782 23.5709 36.5222 24.6909 36.5222C25.7969 36.5222 26.6369 37.2782 26.6369 38.4402C26.6369 39.5882 25.7969 40.3582 24.6909 40.3582C23.5709 40.3582 22.7449 39.5882 22.7449 38.4402ZM28.0369 38.4402C28.0369 36.5922 26.5949 35.2762 24.6909 35.2762C22.7869 35.2762 21.3309 36.5922 21.3309 38.4402C21.3309 40.2742 22.7869 41.6042 24.6909 41.6042C26.5949 41.6042 28.0369 40.2742 28.0369 38.4402ZM24.7049 45.6642V42.6962H23.2489V46.8402H31.8729V45.6642H24.7049ZM36.3138 43.0322C35.4458 43.0322 34.9138 41.8982 34.9138 39.8962C34.9138 37.8942 35.4458 36.7742 36.3138 36.7742C37.1818 36.7742 37.7138 37.8942 37.7138 39.8962C37.7138 41.8982 37.1818 43.0322 36.3138 43.0322ZM40.3598 39.2242H39.0018C38.8478 36.8582 37.8258 35.4162 36.3138 35.4162C34.6758 35.4162 33.5978 37.1242 33.5978 39.8962C33.5978 42.6682 34.6758 44.3902 36.3138 44.3902C37.8538 44.3902 38.8898 42.8782 39.0158 40.4142H40.3598V46.4762H41.7038V34.6742H40.3598V39.2242ZM42.8938 34.4362V47.0642H44.2658V34.4362H42.8938ZM54.9353 44.3622V41.2122H58.6873V40.0362H51.2953V35.4582H49.8392V41.2122H53.4793V44.3622H48.4953V45.5522H59.9473V44.3622H54.9353ZM61.8262 39.4762C64.0662 39.3222 65.7742 38.7062 66.5722 37.6422C67.3702 38.7062 69.1062 39.3222 71.3462 39.4762L71.7382 38.3982C69.2742 38.2582 67.7062 37.5582 67.4262 36.5642H71.1642V35.4862H67.3002V34.3802H65.8582V35.4862H62.0082V36.5642H65.7322C65.4522 37.5582 63.8982 38.2582 61.4062 38.3982L61.8262 39.4762ZM72.2982 41.0162V39.9382H60.8882V41.0162H65.8582V41.9962H62.2182V43.0602H69.4562V43.9422H62.2462V46.9662H71.2342V45.8882H63.6742V44.9362H70.8702V41.9962H67.3002V41.0162H72.2982ZM81.3311 39.9662C80.3091 40.1202 79.2311 40.2182 78.1531 40.2602V39.1262H80.4911V37.9642H75.8291V36.2142H80.3931V35.0382H74.3871V39.1262H76.7111V40.3302C75.4791 40.3722 74.3031 40.3722 73.2811 40.3722L73.4771 41.5062C75.7031 41.5062 78.7131 41.4642 81.4291 40.9742L81.3311 39.9662ZM82.2691 45.7762H76.7251V44.5442H82.2691V45.7762ZM82.2691 43.4382H76.7251V42.2902H75.2971V46.9242H83.6971V42.2902H82.2691V43.4382ZM82.2411 34.4362V41.7442H83.6971V34.4362H82.2411ZM87.802 35.6682H86.374V43.8862H87.452C89.412 43.8862 91.456 43.7322 93.626 43.2842L93.472 42.0802C91.484 42.4862 89.594 42.6402 87.802 42.6542V35.6682ZM94.634 34.4362V47.0782H96.076V34.4362H94.634ZM99.9569 36.8022H104.395V35.6262H98.5149V43.9842H99.5509C101.833 43.9842 103.541 43.9142 105.459 43.5642L105.305 42.3742C103.541 42.6822 102.001 42.7662 99.9569 42.7802V36.8022ZM109.771 39.2942H107.797V34.4222H106.355V47.0922H107.797V40.4842H109.771V39.2942ZM111.762 46.1822C112.364 46.1822 112.84 45.7202 112.84 45.0622C112.84 44.3902 112.364 43.9142 111.762 43.9142C111.16 43.9142 110.684 44.3902 110.684 45.0622C110.684 45.7202 111.16 46.1822 111.762 46.1822Z" fill="#151515" fill-opacity="0.87"/>
</svg>
