<svg width="298" height="50" viewBox="0 0 298 50" fill="none" xmlns="http://www.w3.org/2000/svg">
<path d="M278 0V17" stroke="white" stroke-width="2" stroke-dasharray="2 2"/>
<path d="M21 0L21 17" stroke="white" stroke-width="2" stroke-dasharray="2 2"/>
<rect y="16" width="298" height="34" rx="8" fill="white"/>
<path d="M9.708 31.958C11.976 31.776 13.754 30.964 14.426 29.746C15.098 30.964 16.876 31.776 19.13 31.958L19.592 30.866C17.31 30.698 15.672 29.9 15.42 28.906H19.102V27.8H9.75V28.906H13.418C13.166 29.9 11.528 30.698 9.26 30.866L9.708 31.958ZM14.412 39.168C12.886 39.168 12.074 38.944 12.074 38.468C12.074 37.992 12.886 37.768 14.412 37.768C15.938 37.768 16.75 37.992 16.75 38.468C16.75 38.944 15.938 39.168 14.412 39.168ZM14.412 36.802C11.962 36.802 10.576 37.362 10.576 38.468C10.576 39.574 11.962 40.134 14.412 40.134C16.848 40.134 18.234 39.574 18.234 38.468C18.234 37.362 16.848 36.802 14.412 36.802ZM15.14 34.142H13.684V35.192H9.75V36.298H19.088V35.192H15.14V34.142ZM15.126 32.546V31.202H13.684V32.546H8.7V33.694H20.166V32.546H15.126ZM24.4529 35.99C23.3469 35.99 22.5909 34.8 22.5909 32.826C22.5909 30.852 23.3469 29.662 24.4529 29.662C25.5449 29.662 26.3149 30.852 26.3149 32.826C26.3149 34.8 25.5449 35.99 24.4529 35.99ZM24.4529 28.36C22.5629 28.36 21.2049 30.096 21.2049 32.826C21.2049 35.556 22.5629 37.278 24.4529 37.278C26.3429 37.278 27.7009 35.556 27.7009 32.826C27.7009 30.096 26.3429 28.36 24.4529 28.36ZM32.8529 32.378H30.8789V27.436H29.4369V40.092H30.8789V33.568H32.8529V32.378ZM37.5878 34.604C38.0778 34.716 38.6238 34.772 39.1838 34.772C39.7438 34.772 40.2898 34.716 40.7798 34.59V37.348H37.5878V34.604ZM39.1838 29.298C41.0878 29.298 42.4178 30.138 42.4178 31.468C42.4178 32.812 41.0878 33.652 39.1838 33.652C37.2658 33.652 35.9358 32.812 35.9358 31.468C35.9358 30.138 37.2658 29.298 39.1838 29.298ZM42.2218 37.348V34.058C43.2298 33.484 43.8318 32.588 43.8318 31.468C43.8318 29.452 41.8718 28.164 39.1838 28.164C36.4818 28.164 34.5358 29.452 34.5358 31.468C34.5358 32.588 35.1378 33.498 36.1458 34.058V37.348H33.4718V38.524H44.9238V37.348H42.2218ZM46.2427 41.8C47.6847 41.254 48.5387 40.12 48.5387 38.65C48.5387 37.572 48.0767 36.914 47.2927 36.914C46.6767 36.914 46.1727 37.32 46.1727 37.95C46.1727 38.622 46.6767 38.986 47.2507 38.986C47.3067 38.986 47.3487 38.986 47.4047 38.972C47.4047 39.784 46.8447 40.498 45.8787 40.89L46.2427 41.8ZM62.5812 27.436H61.1252V33.708L62.5812 33.722V27.436ZM59.8652 32.392C57.9192 31.804 56.7712 30.348 56.7712 28.738V27.786H55.3012V28.738C55.3012 30.418 54.1532 32.028 52.1512 32.658L52.8652 33.806C54.4052 33.302 55.4832 32.252 56.0572 30.908C56.6312 32.126 57.7092 33.078 59.1792 33.512L59.8652 32.392ZM55.0912 37.698H57.7092V34.618H53.6912V35.682H56.3512V36.704H53.7192V39.924H54.4192C56.1832 39.924 57.1072 39.91 58.2412 39.686L58.1152 38.622C57.1632 38.79 56.3932 38.832 55.0912 38.846V37.698ZM60.7192 39.098C60.1452 39.098 59.7392 38.832 59.7392 38.328C59.7392 37.838 60.1452 37.558 60.7192 37.558C61.2932 37.558 61.6992 37.838 61.6992 38.328C61.6992 38.832 61.2932 39.098 60.7192 39.098ZM60.7192 36.578C59.4592 36.578 58.5212 37.264 58.5212 38.328C58.5212 39.406 59.4592 40.078 60.7192 40.078C61.9792 40.078 62.9172 39.406 62.9172 38.328C62.9172 37.264 61.9792 36.578 60.7192 36.578ZM61.4332 35.08V34.03H60.0332V35.08H58.0872V36.144H63.4212V35.08H61.4332ZM67.9461 35.99C66.8681 35.99 66.1261 34.814 66.1261 32.812C66.1261 30.852 66.8681 29.662 67.9461 29.662C69.0381 29.662 69.7801 30.852 69.7801 32.812C69.7801 34.814 69.0381 35.99 67.9461 35.99ZM73.5881 27.422V32.14H71.1241C70.9281 29.816 69.6401 28.36 67.9461 28.36C66.0841 28.36 64.7541 30.096 64.7541 32.812C64.7541 35.556 66.0841 37.278 67.9461 37.278C69.6821 37.278 70.9701 35.766 71.1381 33.316H73.5881V40.106H75.0441V27.422H73.5881ZM81.039 34.604C81.529 34.716 82.075 34.772 82.635 34.772C83.195 34.772 83.741 34.716 84.231 34.59V37.348H81.039V34.604ZM82.635 29.298C84.539 29.298 85.869 30.138 85.869 31.468C85.869 32.812 84.539 33.652 82.635 33.652C80.717 33.652 79.387 32.812 79.387 31.468C79.387 30.138 80.717 29.298 82.635 29.298ZM85.673 37.348V34.058C86.681 33.484 87.283 32.588 87.283 31.468C87.283 29.452 85.323 28.164 82.635 28.164C79.933 28.164 77.987 29.452 77.987 31.468C77.987 32.588 78.589 33.498 79.597 34.058V37.348H76.923V38.524H88.375V37.348H85.673ZM146.725 33.4C147.061 32.28 147.383 31.146 147.677 29.97H147.747C148.055 31.132 148.363 32.28 148.713 33.4L149.119 34.786H146.305L146.725 33.4ZM143.393 39H145.045L145.927 36.06H149.511L150.379 39H152.101L148.685 28.682H146.809L143.393 39ZM152.96 39H154.584V28.682H152.96V39ZM170.218 34.114H168.412C168.846 32.056 168.846 30.6 168.846 29.298V28.136H160.18V29.312H167.446C167.446 29.816 167.446 30.32 167.418 30.88L159.788 31.146L159.97 32.364L167.348 32C167.278 32.644 167.166 33.33 166.998 34.114H158.78V35.304H161.566V40.092H163.008V35.304H165.906V40.092H167.348V35.304H170.218V34.114ZM172.937 33.358H176.017V28.766H171.523V29.928H174.631V32.196H171.551V37.04H172.419C174.001 37.04 175.415 36.998 177.123 36.704L176.997 35.514C175.513 35.766 174.267 35.836 172.937 35.85V33.358ZM178.005 31.86H176.577V33.05H178.005V39.448H179.349V27.716H178.005V31.86ZM180.567 27.436V40.078H181.939V27.436H180.567ZM192.484 27.422V40.106H193.94V27.422H192.484ZM187.206 28.36C185.33 28.36 183.958 30.096 183.958 32.812C183.958 35.556 185.33 37.278 187.206 37.278C189.096 37.278 190.468 35.556 190.468 32.812C190.468 30.096 189.096 28.36 187.206 28.36ZM187.206 29.662C188.312 29.662 189.082 30.852 189.082 32.812C189.082 34.8 188.312 35.99 187.206 35.99C186.114 35.99 185.344 34.8 185.344 32.812C185.344 30.852 186.114 29.662 187.206 29.662ZM204.947 36.844H206.389V27.436H204.947V29.2H202.595V30.376H204.947V31.734H202.595V32.896H204.947V36.844ZM203.365 33.974C201.475 33.246 200.425 31.496 200.425 29.704V28.136H198.955V29.704C198.955 31.608 197.863 33.414 195.889 34.142L196.673 35.276C198.115 34.702 199.165 33.582 199.711 32.154C200.243 33.47 201.237 34.548 202.567 35.108L203.365 33.974ZM199.613 38.664V35.934H198.157V39.84H206.683V38.664H199.613ZM217.242 27.422V40.106H218.698V27.422H217.242ZM211.964 28.36C210.088 28.36 208.716 30.096 208.716 32.812C208.716 35.556 210.088 37.278 211.964 37.278C213.854 37.278 215.226 35.556 215.226 32.812C215.226 30.096 213.854 28.36 211.964 28.36ZM211.964 29.662C213.07 29.662 213.84 30.852 213.84 32.812C213.84 34.8 213.07 35.99 211.964 35.99C210.872 35.99 210.102 34.8 210.102 32.812C210.102 30.852 210.872 29.662 211.964 29.662ZM230.889 30.614V31.79H233.129V34.968H234.571V27.436H233.129V30.614H230.889ZM231.617 33.428C229.727 32.77 228.649 31.202 228.649 29.62V29.452H231.281V28.29H224.519V29.452H227.193V29.634C227.193 31.37 226.059 33.05 224.099 33.75L224.841 34.898C226.339 34.366 227.403 33.246 227.963 31.86C228.495 33.078 229.503 34.072 230.903 34.562L231.617 33.428ZM230.371 38.972C228.565 38.972 227.543 38.524 227.543 37.698C227.543 36.872 228.565 36.424 230.371 36.424C232.149 36.424 233.185 36.872 233.185 37.698C233.185 38.524 232.149 38.972 230.371 38.972ZM230.371 35.304C227.725 35.304 226.101 36.2 226.101 37.698C226.101 39.21 227.725 40.092 230.371 40.092C233.003 40.092 234.627 39.21 234.627 37.698C234.627 36.2 233.003 35.304 230.371 35.304ZM245.27 29.942C245.27 31.482 245.27 33.19 244.822 35.5L246.264 35.668C246.712 33.218 246.712 31.524 246.712 29.942V28.612H237.612V29.788H245.27V29.942ZM243.66 37.236V33.148H242.232V37.236H240.538V33.148H239.11V37.236H236.478V38.426H247.902V37.236H243.66Z" fill="#FD4E6D"/>
<path d="M97.8839 29.592H90.7579V32.434H99.5359V31.426H92.1719V30.53H99.3119V27.744H90.7299V28.738H97.8839V29.592ZM92.0739 37.978H99.3539V35.15H90.6179V36.144H97.9259V37.04H90.6459V39.938H99.7319V38.944H92.0739V37.978ZM89.2879 33.232V34.296H100.754V33.232H89.2879ZM114.503 31.538H107.209V28.024H105.767V32.7H114.503V31.538ZM115.777 34.394H104.311V35.584H109.267V40.092H110.723V35.584H115.777V34.394ZM125.37 31.202H118.09V35.29H127.078V34.114H119.504V32.35H126.798V28.346H118.062V29.522H125.37V31.202ZM116.704 37.376V38.566H128.156V37.376H116.704ZM134.081 33.386H131.043V29.634H134.081V33.386ZM138.113 30.726V32.266H135.481V30.726H138.113ZM135.481 33.428H138.113V36.662H139.555V27.436H138.113V29.55H135.481V28.486H129.629V34.534H135.481V33.428ZM132.779 38.664V35.822H131.323V39.84H139.849V38.664H132.779ZM251.937 36.046C251.083 36.046 250.481 35.36 250.481 34.31C250.481 33.26 251.083 32.56 251.937 32.56C252.791 32.56 253.393 33.26 253.393 34.31C253.393 35.36 252.791 36.046 251.937 36.046ZM251.937 31.37C250.341 31.37 249.193 32.56 249.193 34.31C249.193 36.046 250.341 37.25 251.937 37.25C253.533 37.25 254.681 36.046 254.681 34.31C254.681 32.56 253.533 31.37 251.937 31.37ZM252.651 27.8H251.223V29.494H248.829V30.656H255.017V29.494H252.651V27.8ZM258.251 27.436V32.672H256.907V27.702H255.563V39.49H256.907V33.862H258.251V40.078H259.623V27.436H258.251ZM265.771 29.872H268.473V28.696H261.599V29.872H264.315V30.88C264.315 33.176 263.041 35.64 261.109 36.606L262.061 37.698C263.461 36.928 264.539 35.346 265.085 33.512C265.659 35.192 266.737 36.676 268.109 37.39L268.949 36.284C267.045 35.29 265.771 32.882 265.771 30.88V29.872ZM270.279 27.436V30.95H267.969V32.14H270.279V33.638H267.969V34.828H270.279V40.092H271.721V27.436H270.279ZM277.73 34.604C278.22 34.716 278.766 34.772 279.326 34.772C279.886 34.772 280.432 34.716 280.922 34.59V37.348H277.73V34.604ZM279.326 29.298C281.23 29.298 282.56 30.138 282.56 31.468C282.56 32.812 281.23 33.652 279.326 33.652C277.408 33.652 276.078 32.812 276.078 31.468C276.078 30.138 277.408 29.298 279.326 29.298ZM282.364 37.348V34.058C283.372 33.484 283.974 32.588 283.974 31.468C283.974 29.452 282.014 28.164 279.326 28.164C276.624 28.164 274.678 29.452 274.678 31.468C274.678 32.588 275.28 33.498 276.288 34.058V37.348H273.614V38.524H285.066V37.348H282.364ZM287.365 39.182C287.967 39.182 288.443 38.72 288.443 38.062C288.443 37.39 287.967 36.914 287.365 36.914C286.763 36.914 286.287 37.39 286.287 38.062C286.287 38.72 286.763 39.182 287.365 39.182Z" fill="#222222"/>
</svg>
