<svg width="139" height="56" viewBox="0 0 139 56" fill="none" xmlns="http://www.w3.org/2000/svg">
<path d="M3.598 13.298H2.142V16.84H10.864V15.664H3.598V13.298ZM3.612 7.474H9.24V8.874H3.612V7.474ZM7.14 11.24V10.022H10.668V4.926H9.24V6.354H3.612V4.926H2.184V10.022H5.684V11.24H0.686V12.402H12.152V11.24H7.14ZM17.5169 5.486H16.0749V7.558C16.0749 9.896 14.8429 12.29 12.8689 13.256L13.7509 14.418C15.1929 13.676 16.2569 12.206 16.8029 10.456C17.3489 12.108 18.3569 13.48 19.7149 14.18L20.5969 13.032C18.6929 12.094 17.5169 9.812 17.5169 7.558V5.486ZM24.8529 9.448H22.8789V4.436H21.4369V17.078H22.8789V10.638H24.8529V9.448ZM28.3138 13.032C27.4458 13.032 26.9138 11.898 26.9138 9.896C26.9138 7.894 27.4458 6.774 28.3138 6.774C29.1818 6.774 29.7138 7.894 29.7138 9.896C29.7138 11.898 29.1818 13.032 28.3138 13.032ZM32.3598 9.224H31.0018C30.8478 6.858 29.8258 5.416 28.3138 5.416C26.6758 5.416 25.5978 7.124 25.5978 9.896C25.5978 12.668 26.6758 14.39 28.3138 14.39C29.8538 14.39 30.8898 12.878 31.0158 10.414H32.3598V16.476H33.7038V4.674H32.3598V9.224ZM34.8938 4.436V17.064H36.2658V4.436H34.8938ZM42.4287 5.458H40.9727V7.544C40.9727 9.91 39.7407 12.346 37.7667 13.312L38.6767 14.46C40.1187 13.718 41.1547 12.248 41.7147 10.456C42.2607 12.15 43.2827 13.536 44.7107 14.25L45.5647 13.088C43.6327 12.192 42.4287 9.896 42.4287 7.544V5.458ZM46.8947 4.408V8.566H44.1927V9.742H46.8947V17.092H48.3507V4.408H46.8947ZM62.9962 8.132H55.7302V6.032H62.9122V4.87H54.3022V9.294H62.9962V8.132ZM58.5582 15.958C56.7102 15.958 55.6742 15.552 55.6742 14.768C55.6742 13.998 56.7102 13.578 58.5582 13.578C60.4062 13.578 61.4562 13.998 61.4562 14.768C61.4562 15.552 60.4062 15.958 58.5582 15.958ZM58.5582 12.472C55.8562 12.472 54.2042 13.312 54.2042 14.768C54.2042 16.238 55.8562 17.078 58.5582 17.078C61.2742 17.078 62.9122 16.238 62.9122 14.768C62.9122 13.312 61.2742 12.472 58.5582 12.472ZM52.8882 10.344V11.534H64.3122V10.344H52.8882ZM66.5271 14.488H73.8911V17.008H75.3331V13.326H66.5271V14.488ZM71.6931 11.31V10.162H75.5151V9.056H68.1231V7.936H75.2631V4.73H66.6811V5.836H73.8351V6.9H66.7091V10.162H70.2511V11.31H65.2391V12.472H76.7051V11.31H71.6931ZM85.108 5.878H82.098V4.436H80.656V5.878H77.646V7.026H85.108V5.878ZM79.69 10.008C79.69 9.21 80.376 8.734 81.37 8.734C82.378 8.734 83.064 9.21 83.064 10.008C83.064 10.806 82.378 11.282 81.37 11.282C80.376 11.282 79.69 10.806 79.69 10.008ZM84.436 10.008C84.436 8.58 83.19 7.614 81.37 7.614C79.564 7.614 78.304 8.58 78.304 10.008C78.304 11.45 79.564 12.402 81.37 12.402C83.19 12.402 84.436 11.45 84.436 10.008ZM80.95 13.186H79.494V16.84H88.006V15.664H80.95V13.186ZM87.502 8.468V4.436H86.06V13.914H87.502V9.658H89.294V8.468H87.502ZM98.3674 4.702C95.6094 4.702 93.8594 5.612 93.8594 7.124C93.8594 8.622 95.6094 9.546 98.3674 9.546C101.125 9.546 102.875 8.622 102.875 7.124C102.875 5.612 101.125 4.702 98.3674 4.702ZM98.3674 5.822C100.243 5.822 101.377 6.284 101.377 7.124C101.377 7.95 100.243 8.412 98.3674 8.412C96.4914 8.412 95.3434 7.95 95.3434 7.124C95.3434 6.284 96.4914 5.822 98.3674 5.822ZM94.0134 12.696V16.924H102.693V12.696H94.0134ZM101.279 13.844V15.776H95.4414V13.844H101.279ZM92.6414 10.47V11.618H104.079V10.47H92.6414ZM111.586 11.856V12.864H114.064V14.04H115.506V4.422H114.064V11.856H111.586ZM109.066 5.976C110.102 5.976 110.816 6.424 110.816 7.138C110.816 7.852 110.102 8.3 109.066 8.3C108.016 8.3 107.302 7.852 107.302 7.138C107.302 6.424 108.016 5.976 109.066 5.976ZM109.066 9.364C110.914 9.364 112.188 8.482 112.188 7.138C112.188 5.794 110.914 4.912 109.066 4.912C107.204 4.912 105.93 5.794 105.93 7.138C105.93 8.482 107.204 9.364 109.066 9.364ZM108.492 13.634H109.934V11.198C111.012 11.128 112.118 11.016 113.182 10.834L113.07 9.798C110.396 10.134 107.288 10.162 104.964 10.176L105.146 11.352C106.154 11.352 107.288 11.338 108.492 11.282V13.634ZM108.114 15.664V13.102H106.672V16.84H115.8V15.664H108.114ZM123.125 5.71C125.085 5.71 126.135 6.088 126.135 6.816C126.135 7.53 125.085 7.908 123.125 7.908C121.165 7.908 120.115 7.53 120.115 6.816C120.115 6.088 121.165 5.71 123.125 5.71ZM123.125 8.986C125.953 8.986 127.633 8.216 127.633 6.816C127.633 5.402 125.953 4.632 123.125 4.632C120.283 4.632 118.617 5.402 118.617 6.816C118.617 8.216 120.283 8.986 123.125 8.986ZM120.213 14.81H127.409V11.786H118.757V12.878H125.995V13.788H118.785V16.966H127.773V15.86H120.213V14.81ZM117.399 9.728V10.876H128.851V9.728H117.399Z" fill="#FD4E6D"/>
<path d="M2.478 26.97H4.662V32.64H2.478V26.97ZM1.134 33.788H6.006V25.822H1.134V33.788ZM10.136 24.436V29.364H8.694V24.674H7.336V36.476H8.694V30.54H10.136V37.064H11.508V24.436H10.136ZM20.5129 30.386C18.5809 29.77 17.5309 28.3 17.5309 26.732V26.494H20.1769V25.332H13.3869V26.494H16.0749V26.746C16.0749 28.468 14.9689 30.092 12.9809 30.778L13.7089 31.912C15.2209 31.394 16.2849 30.316 16.8449 28.972C17.3909 30.148 18.3989 31.058 19.8129 31.506L20.5129 30.386ZM18.8889 35.944C17.1249 35.944 16.1029 35.496 16.1029 34.684C16.1029 33.858 17.1249 33.424 18.8889 33.424C20.6529 33.424 21.6749 33.858 21.6749 34.684C21.6749 35.496 20.6529 35.944 18.8889 35.944ZM18.8889 32.29C16.2849 32.29 14.6749 33.172 14.6749 34.684C14.6749 36.182 16.2849 37.078 18.8889 37.078C21.4929 37.078 23.1029 36.182 23.1029 34.684C23.1029 33.172 21.4929 32.29 18.8889 32.29ZM22.9629 27.516V24.436H21.5209V31.996H22.9629V28.706H24.7549V27.516H22.9629ZM28.3138 33.032C27.4458 33.032 26.9138 31.898 26.9138 29.896C26.9138 27.894 27.4458 26.774 28.3138 26.774C29.1818 26.774 29.7138 27.894 29.7138 29.896C29.7138 31.898 29.1818 33.032 28.3138 33.032ZM32.3598 29.224H31.0018C30.8478 26.858 29.8258 25.416 28.3138 25.416C26.6758 25.416 25.5978 27.124 25.5978 29.896C25.5978 32.668 26.6758 34.39 28.3138 34.39C29.8538 34.39 30.8898 32.878 31.0158 30.414H32.3598V36.476H33.7038V24.674H32.3598V29.224ZM34.8938 24.436V37.064H36.2658V24.436H34.8938ZM50.6453 28.398H43.3792V27.53H50.2533V26.564H43.3792V25.738H50.5613V24.73H41.9373V29.406H50.6453V28.398ZM43.2953 34.978H50.4913V32.08H41.8392V33.102H49.0773V33.998H41.8673V36.966H50.8553V35.93H43.2953V34.978ZM40.5093 30.204V31.282H51.9193V30.204H40.5093ZM66.4527 29.098C63.9047 28.734 62.0007 27.152 62.0007 25.514V24.842H60.4747V25.514C60.4747 27.18 58.5987 28.734 56.0227 29.098L56.5827 30.26C58.6827 29.924 60.4327 28.874 61.2447 27.404C62.0707 28.86 63.7927 29.924 65.8927 30.26L66.4527 29.098ZM66.9427 31.45H55.5187V32.626H60.4747V37.092H61.9167V32.626H66.9427V31.45ZM80.9581 24.45H79.5161V31.632H80.9581V24.45ZM74.1401 26.326C75.2601 26.326 76.0861 27.04 76.0861 28.118C76.0861 29.21 75.2601 29.91 74.1401 29.91C73.0201 29.91 72.1941 29.21 72.1941 28.118C72.1941 27.04 73.0201 26.326 74.1401 26.326ZM74.1401 31.1C76.0721 31.1 77.4861 29.882 77.4861 28.118C77.4861 26.354 76.0721 25.136 74.1401 25.136C72.2081 25.136 70.7801 26.354 70.7801 28.118C70.7801 29.882 72.2081 31.1 74.1401 31.1ZM79.6141 32.178H78.2001V32.738C78.2001 33.69 77.6681 34.88 76.5481 35.636C75.4421 34.936 74.9521 33.802 74.9521 32.738V32.178H73.5521V32.738C73.5521 33.97 72.7121 35.272 71.1021 35.846L71.8021 36.91C72.9781 36.476 73.7901 35.664 74.2521 34.67C74.6441 35.692 75.3861 36.56 76.5761 37.022C77.7241 36.546 78.4801 35.636 78.8861 34.642C79.3201 35.664 80.1461 36.476 81.3641 36.91L82.0781 35.846C80.4401 35.314 79.6141 34.04 79.6141 32.738V32.178ZM86.323 32.99C85.245 32.99 84.503 31.814 84.503 29.812C84.503 27.852 85.245 26.662 86.323 26.662C87.415 26.662 88.157 27.852 88.157 29.812C88.157 31.814 87.415 32.99 86.323 32.99ZM91.965 24.422V29.14H89.501C89.305 26.816 88.017 25.36 86.323 25.36C84.461 25.36 83.131 27.096 83.131 29.812C83.131 32.556 84.461 34.278 86.323 34.278C88.059 34.278 89.347 32.766 89.515 30.316H91.965V37.106H93.421V24.422H91.965ZM99.4159 31.604C99.9059 31.716 100.452 31.772 101.012 31.772C101.572 31.772 102.118 31.716 102.608 31.59V34.348H99.4159V31.604ZM101.012 26.298C102.916 26.298 104.246 27.138 104.246 28.468C104.246 29.812 102.916 30.652 101.012 30.652C99.0939 30.652 97.7639 29.812 97.7639 28.468C97.7639 27.138 99.0939 26.298 101.012 26.298ZM104.05 34.348V31.058C105.058 30.484 105.66 29.588 105.66 28.468C105.66 26.452 103.7 25.164 101.012 25.164C98.3099 25.164 96.3639 26.452 96.3639 28.468C96.3639 29.588 96.9659 30.498 97.9739 31.058V34.348H95.2999V35.524H106.752V34.348H104.05ZM109.051 36.182C109.653 36.182 110.129 35.72 110.129 35.062C110.129 34.39 109.653 33.914 109.051 33.914C108.449 33.914 107.973 34.39 107.973 35.062C107.973 35.72 108.449 36.182 109.051 36.182Z" fill="white"/>
<path d="M129.5 30.5C138 40 129.5 53 125.554 53.9677M125.554 53.9677L130.5 54M125.554 53.9677L126 49.5" stroke="#EE4B3C" stroke-linecap="round"/>
</svg>
