<svg width="360" height="176" viewBox="0 0 360 176" fill="none" xmlns="http://www.w3.org/2000/svg">
<g filter="url(#filter0_d_4836_46250)">
<path d="M14 30C14 18.9543 22.9543 10 34 10H321C332.046 10 341 18.9543 341 30V106C341 117.046 332.046 126 321 126H34C22.9543 126 14 117.046 14 106V30Z" fill="#151515"/>
<path d="M34 11H321C331.493 11 340 19.5066 340 30V106C340 116.493 331.493 125 321 125H34C23.5066 125 15 116.493 15 106V30C15 19.5066 23.5066 11 34 11Z" stroke="#FD4E6D" stroke-width="2"/>
</g>
<path d="M29.102 44.186C27.898 44.186 27.058 42.87 27.058 40.826C27.058 38.796 27.898 37.48 29.102 37.48C30.292 37.48 31.132 38.796 31.132 40.826C31.132 42.87 30.292 44.186 29.102 44.186ZM34.94 35.478V40.266H32.21C32.028 37.914 30.796 36.444 29.102 36.444C27.268 36.444 25.966 38.152 25.966 40.826C25.966 43.5 27.268 45.208 29.102 45.208C30.852 45.208 32.098 43.668 32.21 41.204H34.94V48.064H36.088V35.478H34.94ZM44.8449 39.146H41.7229V36.752H44.8449V39.146ZM40.5749 39.146H38.7129V40.028H47.8409V39.146H45.9929V36.752H47.8829V35.87H38.6709V36.752H40.5749V39.146ZM40.1409 45.852H47.5189V43.094H38.9789V43.948H46.3849V45.026H39.0209V47.896H47.8969V47.028H40.1409V45.852ZM37.6069 41.078V41.988H48.9749V41.078H37.6069ZM51.0258 41.218H54.3858V36.864H49.8778V37.802H53.2798V40.308H49.9198V44.956H50.7458C52.3418 44.956 53.7698 44.886 55.5198 44.592L55.4218 43.654C53.8118 43.934 52.4538 43.99 51.0258 43.99V41.218ZM56.5278 39.986H54.9738V40.938H56.5278V47.378H57.6058V35.786H56.5278V39.986ZM59.0618 35.478V48.036H60.1678V35.478H59.0618ZM70.5067 35.478V48.064H71.6547V35.478H70.5067ZM65.0327 36.444C63.1707 36.444 61.8407 38.152 61.8407 40.826C61.8407 43.5 63.1707 45.208 65.0327 45.208C66.8947 45.208 68.2247 43.5 68.2247 40.826C68.2247 38.152 66.8947 36.444 65.0327 36.444ZM65.0327 37.48C66.2507 37.48 67.1187 38.796 67.1187 40.826C67.1187 42.87 66.2507 44.186 65.0327 44.186C63.8007 44.186 62.9327 42.87 62.9327 40.826C62.9327 38.796 63.8007 37.48 65.0327 37.48ZM74.2936 43.234C76.1836 42.856 78.1576 41.596 78.9556 39.86C79.7536 41.582 81.7556 42.814 83.6596 43.206L84.1216 42.282C81.9376 41.918 79.5436 40.196 79.5436 38.208V37.662H83.7016V36.724H74.1956V37.662H78.3536V38.208C78.3536 40.196 75.9736 41.946 73.8036 42.324L74.2936 43.234ZM73.2576 45.418V46.37H84.6536V45.418H73.2576ZM89.4794 39.594C89.4794 38.152 90.9494 37.214 92.9514 37.214C94.9534 37.214 96.4094 38.152 96.4094 39.594C96.4094 41.036 94.9534 41.974 92.9514 41.974C90.9494 41.974 89.4794 41.036 89.4794 39.594ZM93.5254 45.474V42.856C95.8634 42.688 97.5014 41.442 97.5014 39.594C97.5014 37.592 95.5974 36.304 92.9514 36.304C90.2914 36.304 88.3734 37.592 88.3734 39.594C88.3734 41.442 90.0254 42.688 92.3634 42.856V45.474H87.2534V46.426H98.6634V45.474H93.5254ZM106.37 42.03H103.248V37.662H106.37V42.03ZM102.1 42.03H100.182V42.968H109.436V42.03H107.518V37.662H109.464V36.738H100.154V37.662H102.1V42.03ZM99.1463 45.474V46.426H110.528V45.474H99.1463ZM121.301 35.478H120.153V42.982H121.301V35.478ZM118.823 40.392C116.891 40.798 115.113 40.938 112.943 40.938V36.318H111.795V41.904H112.817C115.099 41.904 116.919 41.764 118.963 41.344L118.823 40.392ZM117.143 47.098C115.239 47.098 114.063 46.524 114.063 45.558C114.063 44.578 115.239 44.004 117.143 44.004C119.033 44.004 120.209 44.578 120.209 45.558C120.209 46.524 119.033 47.098 117.143 47.098ZM117.143 43.08C114.553 43.08 112.915 44.004 112.915 45.558C112.915 47.098 114.553 48.022 117.143 48.022C119.733 48.022 121.357 47.098 121.357 45.558C121.357 44.004 119.733 43.08 117.143 43.08Z" fill="white"/>
<rect width="5.02985" height="0.921471" transform="matrix(0.707107 0.707107 0.707107 -0.707107 133.182 38.0679)" fill="white"/>
<rect width="5.0553" height="0.921471" transform="matrix(0.707107 -0.707107 -0.707107 -0.707107 133.834 44.5837)" fill="white"/>
<rect x="297.999" y="36" width="32" height="10" rx="5" fill="#FF2D55" fill-opacity="0.6"/>
<g filter="url(#filter1_d_4836_46250)">
<circle cx="322" cy="41" r="8" fill="#FF2D55"/>
</g>
<path d="M29.102 96.186C27.898 96.186 27.058 94.87 27.058 92.826C27.058 90.796 27.898 89.48 29.102 89.48C30.292 89.48 31.132 90.796 31.132 92.826C31.132 94.87 30.292 96.186 29.102 96.186ZM34.94 87.478V92.266H32.21C32.028 89.914 30.796 88.444 29.102 88.444C27.268 88.444 25.966 90.152 25.966 92.826C25.966 95.5 27.268 97.208 29.102 97.208C30.852 97.208 32.098 95.668 32.21 93.204H34.94V100.064H36.088V87.478H34.94ZM45.3449 91.146H42.2229V88.752H45.3449V91.146ZM41.0749 91.146H39.2129V92.028H48.3409V91.146H46.4929V88.752H48.3829V87.87H39.1709V88.752H41.0749V91.146ZM40.6409 97.852H48.0189V95.094H39.4789V95.948H46.8849V97.026H39.5209V99.896H48.3969V99.028H40.6409V97.852ZM38.1069 93.078V93.988H49.4749V93.078H38.1069ZM52.0258 93.218H55.3858V88.864H50.8778V89.802H54.2798V92.308H50.9198V96.956H51.7458C53.3418 96.956 54.7698 96.886 56.5198 96.592L56.4218 95.654C54.8118 95.934 53.4538 95.99 52.0258 95.99V93.218ZM57.5278 91.986H55.9738V92.938H57.5278V99.378H58.6058V87.786H57.5278V91.986ZM60.0618 87.478V100.036H61.1678V87.478H60.0618ZM72.0067 87.478V100.064H73.1547V87.478H72.0067ZM66.5327 88.444C64.6707 88.444 63.3407 90.152 63.3407 92.826C63.3407 95.5 64.6707 97.208 66.5327 97.208C68.3947 97.208 69.7247 95.5 69.7247 92.826C69.7247 90.152 68.3947 88.444 66.5327 88.444ZM66.5327 89.48C67.7507 89.48 68.6187 90.796 68.6187 92.826C68.6187 94.87 67.7507 96.186 66.5327 96.186C65.3007 96.186 64.4327 94.87 64.4327 92.826C64.4327 90.796 65.3007 89.48 66.5327 89.48ZM76.2936 95.234C78.1836 94.856 80.1576 93.596 80.9556 91.86C81.7536 93.582 83.7556 94.814 85.6596 95.206L86.1216 94.282C83.9376 93.918 81.5436 92.196 81.5436 90.208V89.662H85.7016V88.724H76.1956V89.662H80.3536V90.208C80.3536 92.196 77.9736 93.946 75.8036 94.324L76.2936 95.234ZM75.2576 97.418V98.37H86.6536V97.418H75.2576ZM92.7734 97.656H100.263V94.73H91.6114V95.626H99.1434V96.802H91.6394V99.868H100.711V98.972H92.7734V97.656ZM99.8994 92.616C100.193 91.132 100.193 90.012 100.193 89.032V88.08H91.7234V88.99H99.0594V89.032C99.0594 89.396 99.0594 89.788 99.0454 90.208L91.4154 90.446L91.5554 91.356L98.9894 91.02C98.9334 91.496 98.8634 92.028 98.7374 92.616H90.2954V93.54H101.607V92.616H99.8994ZM108.904 97.544V95.178H112.922V94.254H105.194V92.224H112.628V88.402H104.032V89.34H111.508V91.3H104.06V95.178H107.742V97.544H102.632V98.482H114.042V97.544H108.904ZM125.329 87.492H124.181V95.066H125.329V87.492ZM122.697 93.568C120.849 92.966 119.547 91.44 119.547 89.76V89.396H122.389V88.458H115.501V89.396H118.371V89.76C118.371 91.58 117.097 93.232 115.207 93.89L115.809 94.8C117.293 94.24 118.455 93.092 118.987 91.664C119.561 92.966 120.709 93.988 122.137 94.478L122.697 93.568ZM121.157 99.182C119.253 99.182 118.077 98.65 118.077 97.726C118.077 96.788 119.253 96.27 121.157 96.27C123.061 96.27 124.223 96.788 124.223 97.726C124.223 98.65 123.061 99.182 121.157 99.182ZM121.157 95.36C118.553 95.36 116.943 96.228 116.943 97.726C116.943 99.224 118.553 100.078 121.157 100.078C123.761 100.078 125.371 99.224 125.371 97.726C125.371 96.228 123.761 95.36 121.157 95.36Z" fill="white" fill-opacity="0.87"/>
<rect width="5.02985" height="0.921471" transform="matrix(0.707107 0.707107 0.707107 -0.707107 137.182 90.0679)" fill="white"/>
<rect width="5.0553" height="0.921471" transform="matrix(0.707107 -0.707107 -0.707107 -0.707107 137.834 96.5837)" fill="white"/>
<rect x="297.999" y="88" width="32" height="10" rx="5" fill="white" fill-opacity="0.2"/>
<g filter="url(#filter2_d_4836_46250)">
<circle cx="305.999" cy="93" r="8" fill="white"/>
<circle cx="305.999" cy="93" r="8" fill="black" fill-opacity="0.6"/>
</g>
<defs>
<filter id="filter0_d_4836_46250" x="-16" y="0" width="387" height="176" filterUnits="userSpaceOnUse" color-interpolation-filters="sRGB">
<feFlood flood-opacity="0" result="BackgroundImageFix"/>
<feColorMatrix in="SourceAlpha" type="matrix" values="0 0 0 0 0 0 0 0 0 0 0 0 0 0 0 0 0 0 127 0" result="hardAlpha"/>
<feOffset dy="20"/>
<feGaussianBlur stdDeviation="15"/>
<feComposite in2="hardAlpha" operator="out"/>
<feColorMatrix type="matrix" values="0 0 0 0 0 0 0 0 0 0 0 0 0 0 0 0 0 0 0.8 0"/>
<feBlend mode="normal" in2="BackgroundImageFix" result="effect1_dropShadow_4836_46250"/>
<feBlend mode="normal" in="SourceGraphic" in2="effect1_dropShadow_4836_46250" result="shape"/>
</filter>
<filter id="filter1_d_4836_46250" x="306" y="27" width="28" height="28" filterUnits="userSpaceOnUse" color-interpolation-filters="sRGB">
<feFlood flood-opacity="0" result="BackgroundImageFix"/>
<feColorMatrix in="SourceAlpha" type="matrix" values="0 0 0 0 0 0 0 0 0 0 0 0 0 0 0 0 0 0 127 0" result="hardAlpha"/>
<feOffset dx="-2"/>
<feGaussianBlur stdDeviation="3"/>
<feComposite in2="hardAlpha" operator="out"/>
<feColorMatrix type="matrix" values="0 0 0 0 0 0 0 0 0 0 0 0 0 0 0 0 0 0 0.4 0"/>
<feBlend mode="normal" in2="BackgroundImageFix" result="effect1_dropShadow_4836_46250"/>
<feBlend mode="normal" in="SourceGraphic" in2="effect1_dropShadow_4836_46250" result="shape"/>
</filter>
<filter id="filter2_d_4836_46250" x="289.999" y="79" width="28" height="28" filterUnits="userSpaceOnUse" color-interpolation-filters="sRGB">
<feFlood flood-opacity="0" result="BackgroundImageFix"/>
<feColorMatrix in="SourceAlpha" type="matrix" values="0 0 0 0 0 0 0 0 0 0 0 0 0 0 0 0 0 0 127 0" result="hardAlpha"/>
<feOffset dx="-2"/>
<feGaussianBlur stdDeviation="3"/>
<feComposite in2="hardAlpha" operator="out"/>
<feColorMatrix type="matrix" values="0 0 0 0 0 0 0 0 0 0 0 0 0 0 0 0 0 0 0.4 0"/>
<feBlend mode="normal" in2="BackgroundImageFix" result="effect1_dropShadow_4836_46250"/>
<feBlend mode="normal" in="SourceGraphic" in2="effect1_dropShadow_4836_46250" result="shape"/>
</filter>
</defs>
</svg>
