<svg width="146" height="67" viewBox="0 0 146 67" fill="none" xmlns="http://www.w3.org/2000/svg">
<path d="M32.1173 43.45C33.6102 43.4244 34.5137 45.1236 33.7436 46.5086L28.9787 55.0785C28.2086 56.4635 26.3424 56.4955 25.6196 55.1362L21.1473 46.725C20.4245 45.3656 21.3871 43.6343 22.88 43.6086L32.1173 43.45Z" fill="white"/>
<rect width="146" height="56" rx="8" fill="white"/>
<path d="M11.598 21.298H10.142V24.84H18.864V23.664H11.598V21.298ZM11.612 15.474H17.24V16.874H11.612V15.474ZM15.14 19.24V18.022H18.668V12.926H17.24V14.354H11.612V12.926H10.184V18.022H13.684V19.24H8.686V20.402H20.152V19.24H15.14ZM25.5169 13.486H24.0749V15.558C24.0749 17.896 22.8429 20.29 20.8689 21.256L21.7509 22.418C23.1929 21.676 24.2569 20.206 24.8029 18.456C25.3489 20.108 26.3569 21.48 27.7149 22.18L28.5969 21.032C26.6929 20.094 25.5169 17.812 25.5169 15.558V13.486ZM32.8529 17.448H30.8789V12.436H29.4369V25.078H30.8789V18.638H32.8529V17.448ZM36.3138 21.032C35.4458 21.032 34.9138 19.898 34.9138 17.896C34.9138 15.894 35.4458 14.774 36.3138 14.774C37.1818 14.774 37.7138 15.894 37.7138 17.896C37.7138 19.898 37.1818 21.032 36.3138 21.032ZM40.3598 17.224H39.0018C38.8478 14.858 37.8258 13.416 36.3138 13.416C34.6758 13.416 33.5978 15.124 33.5978 17.896C33.5978 20.668 34.6758 22.39 36.3138 22.39C37.8538 22.39 38.8898 20.878 39.0158 18.414H40.3598V24.476H41.7038V12.674H40.3598V17.224ZM42.8938 12.436V25.064H44.2658V12.436H42.8938ZM50.4287 13.458H48.9727V15.544C48.9727 17.91 47.7407 20.346 45.7667 21.312L46.6767 22.46C48.1187 21.718 49.1547 20.248 49.7147 18.456C50.2607 20.15 51.2827 21.536 52.7107 22.25L53.5647 21.088C51.6327 20.192 50.4287 17.896 50.4287 15.544V13.458ZM54.8947 12.408V16.566H52.1927V17.742H54.8947V25.092H56.3507V12.408H54.8947ZM70.9962 16.132H63.7302V14.032H70.9122V12.87H62.3022V17.294H70.9962V16.132ZM66.5582 23.958C64.7102 23.958 63.6742 23.552 63.6742 22.768C63.6742 21.998 64.7102 21.578 66.5582 21.578C68.4062 21.578 69.4562 21.998 69.4562 22.768C69.4562 23.552 68.4062 23.958 66.5582 23.958ZM66.5582 20.472C63.8562 20.472 62.2042 21.312 62.2042 22.768C62.2042 24.238 63.8562 25.078 66.5582 25.078C69.2742 25.078 70.9122 24.238 70.9122 22.768C70.9122 21.312 69.2742 20.472 66.5582 20.472ZM60.8882 18.344V19.534H72.3122V18.344H60.8882ZM74.5271 22.488H81.8911V25.008H83.3331V21.326H74.5271V22.488ZM79.6931 19.31V18.162H83.5151V17.056H76.1231V15.936H83.2631V12.73H74.6811V13.836H81.8351V14.9H74.7091V18.162H78.2511V19.31H73.2391V20.472H84.7051V19.31H79.6931ZM93.108 13.878H90.098V12.436H88.656V13.878H85.646V15.026H93.108V13.878ZM87.69 18.008C87.69 17.21 88.376 16.734 89.37 16.734C90.378 16.734 91.064 17.21 91.064 18.008C91.064 18.806 90.378 19.282 89.37 19.282C88.376 19.282 87.69 18.806 87.69 18.008ZM92.436 18.008C92.436 16.58 91.19 15.614 89.37 15.614C87.564 15.614 86.304 16.58 86.304 18.008C86.304 19.45 87.564 20.402 89.37 20.402C91.19 20.402 92.436 19.45 92.436 18.008ZM88.95 21.186H87.494V24.84H96.006V23.664H88.95V21.186ZM95.502 16.468V12.436H94.06V21.914H95.502V17.658H97.294V16.468H95.502ZM106.367 12.702C103.609 12.702 101.859 13.612 101.859 15.124C101.859 16.622 103.609 17.546 106.367 17.546C109.125 17.546 110.875 16.622 110.875 15.124C110.875 13.612 109.125 12.702 106.367 12.702ZM106.367 13.822C108.243 13.822 109.377 14.284 109.377 15.124C109.377 15.95 108.243 16.412 106.367 16.412C104.491 16.412 103.343 15.95 103.343 15.124C103.343 14.284 104.491 13.822 106.367 13.822ZM102.013 20.696V24.924H110.693V20.696H102.013ZM109.279 21.844V23.776H103.441V21.844H109.279ZM100.641 18.47V19.618H112.079V18.47H100.641ZM119.586 19.856V20.864H122.064V22.04H123.506V12.422H122.064V19.856H119.586ZM117.066 13.976C118.102 13.976 118.816 14.424 118.816 15.138C118.816 15.852 118.102 16.3 117.066 16.3C116.016 16.3 115.302 15.852 115.302 15.138C115.302 14.424 116.016 13.976 117.066 13.976ZM117.066 17.364C118.914 17.364 120.188 16.482 120.188 15.138C120.188 13.794 118.914 12.912 117.066 12.912C115.204 12.912 113.93 13.794 113.93 15.138C113.93 16.482 115.204 17.364 117.066 17.364ZM116.492 21.634H117.934V19.198C119.012 19.128 120.118 19.016 121.182 18.834L121.07 17.798C118.396 18.134 115.288 18.162 112.964 18.176L113.146 19.352C114.154 19.352 115.288 19.338 116.492 19.282V21.634ZM116.114 23.664V21.102H114.672V24.84H123.8V23.664H116.114ZM131.125 13.71C133.085 13.71 134.135 14.088 134.135 14.816C134.135 15.53 133.085 15.908 131.125 15.908C129.165 15.908 128.115 15.53 128.115 14.816C128.115 14.088 129.165 13.71 131.125 13.71ZM131.125 16.986C133.953 16.986 135.633 16.216 135.633 14.816C135.633 13.402 133.953 12.632 131.125 12.632C128.283 12.632 126.617 13.402 126.617 14.816C126.617 16.216 128.283 16.986 131.125 16.986ZM128.213 22.81H135.409V19.786H126.757V20.878H133.995V21.788H126.785V24.966H135.773V23.86H128.213V22.81ZM125.399 17.728V18.876H136.851V17.728H125.399Z" fill="#FF2D55"/>
<path d="M10.478 34.97H12.662V40.64H10.478V34.97ZM9.134 41.788H14.006V33.822H9.134V41.788ZM18.136 32.436V37.364H16.694V32.674H15.336V44.476H16.694V38.54H18.136V45.064H19.508V32.436H18.136ZM28.5129 38.386C26.5809 37.77 25.5309 36.3 25.5309 34.732V34.494H28.1769V33.332H21.3869V34.494H24.0749V34.746C24.0749 36.468 22.9689 38.092 20.9809 38.778L21.7089 39.912C23.2209 39.394 24.2849 38.316 24.8449 36.972C25.3909 38.148 26.3989 39.058 27.8129 39.506L28.5129 38.386ZM26.8889 43.944C25.1249 43.944 24.1029 43.496 24.1029 42.684C24.1029 41.858 25.1249 41.424 26.8889 41.424C28.6529 41.424 29.6749 41.858 29.6749 42.684C29.6749 43.496 28.6529 43.944 26.8889 43.944ZM26.8889 40.29C24.2849 40.29 22.6749 41.172 22.6749 42.684C22.6749 44.182 24.2849 45.078 26.8889 45.078C29.4929 45.078 31.1029 44.182 31.1029 42.684C31.1029 41.172 29.4929 40.29 26.8889 40.29ZM30.9629 35.516V32.436H29.5209V39.996H30.9629V36.706H32.7549V35.516H30.9629ZM36.3138 41.032C35.4458 41.032 34.9138 39.898 34.9138 37.896C34.9138 35.894 35.4458 34.774 36.3138 34.774C37.1818 34.774 37.7138 35.894 37.7138 37.896C37.7138 39.898 37.1818 41.032 36.3138 41.032ZM40.3598 37.224H39.0018C38.8478 34.858 37.8258 33.416 36.3138 33.416C34.6758 33.416 33.5978 35.124 33.5978 37.896C33.5978 40.668 34.6758 42.39 36.3138 42.39C37.8538 42.39 38.8898 40.878 39.0158 38.414H40.3598V44.476H41.7038V32.674H40.3598V37.224ZM42.8938 32.436V45.064H44.2658V32.436H42.8938ZM58.6453 36.398H51.3792V35.53H58.2533V34.564H51.3792V33.738H58.5613V32.73H49.9373V37.406H58.6453V36.398ZM51.2953 42.978H58.4913V40.08H49.8392V41.102H57.0773V41.998H49.8673V44.966H58.8553V43.93H51.2953V42.978ZM48.5093 38.204V39.282H59.9193V38.204H48.5093ZM74.4527 37.098C71.9047 36.734 70.0007 35.152 70.0007 33.514V32.842H68.4747V33.514C68.4747 35.18 66.5987 36.734 64.0227 37.098L64.5827 38.26C66.6827 37.924 68.4327 36.874 69.2447 35.404C70.0707 36.86 71.7927 37.924 73.8927 38.26L74.4527 37.098ZM74.9427 39.45H63.5187V40.626H68.4747V45.092H69.9167V40.626H74.9427V39.45ZM88.9581 32.45H87.5161V39.632H88.9581V32.45ZM82.1401 34.326C83.2601 34.326 84.0861 35.04 84.0861 36.118C84.0861 37.21 83.2601 37.91 82.1401 37.91C81.0201 37.91 80.1941 37.21 80.1941 36.118C80.1941 35.04 81.0201 34.326 82.1401 34.326ZM82.1401 39.1C84.0721 39.1 85.4861 37.882 85.4861 36.118C85.4861 34.354 84.0721 33.136 82.1401 33.136C80.2081 33.136 78.7801 34.354 78.7801 36.118C78.7801 37.882 80.2081 39.1 82.1401 39.1ZM87.6141 40.178H86.2001V40.738C86.2001 41.69 85.6681 42.88 84.5481 43.636C83.4421 42.936 82.9521 41.802 82.9521 40.738V40.178H81.5521V40.738C81.5521 41.97 80.7121 43.272 79.1021 43.846L79.8021 44.91C80.9781 44.476 81.7901 43.664 82.2521 42.67C82.6441 43.692 83.3861 44.56 84.5761 45.022C85.7241 44.546 86.4801 43.636 86.8861 42.642C87.3201 43.664 88.1461 44.476 89.3641 44.91L90.0781 43.846C88.4401 43.314 87.6141 42.04 87.6141 40.738V40.178ZM94.323 40.99C93.245 40.99 92.503 39.814 92.503 37.812C92.503 35.852 93.245 34.662 94.323 34.662C95.415 34.662 96.157 35.852 96.157 37.812C96.157 39.814 95.415 40.99 94.323 40.99ZM99.965 32.422V37.14H97.501C97.305 34.816 96.017 33.36 94.323 33.36C92.461 33.36 91.131 35.096 91.131 37.812C91.131 40.556 92.461 42.278 94.323 42.278C96.059 42.278 97.347 40.766 97.515 38.316H99.965V45.106H101.421V32.422H99.965ZM107.416 39.604C107.906 39.716 108.452 39.772 109.012 39.772C109.572 39.772 110.118 39.716 110.608 39.59V42.348H107.416V39.604ZM109.012 34.298C110.916 34.298 112.246 35.138 112.246 36.468C112.246 37.812 110.916 38.652 109.012 38.652C107.094 38.652 105.764 37.812 105.764 36.468C105.764 35.138 107.094 34.298 109.012 34.298ZM112.05 42.348V39.058C113.058 38.484 113.66 37.588 113.66 36.468C113.66 34.452 111.7 33.164 109.012 33.164C106.31 33.164 104.364 34.452 104.364 36.468C104.364 37.588 104.966 38.498 105.974 39.058V42.348H103.3V43.524H114.752V42.348H112.05ZM117.051 44.182C117.653 44.182 118.129 43.72 118.129 43.062C118.129 42.39 117.653 41.914 117.051 41.914C116.449 41.914 115.973 42.39 115.973 43.062C115.973 43.72 116.449 44.182 117.051 44.182Z" fill="#222222"/>
<path d="M32.1173 48.4457C33.6102 48.4201 34.5137 50.1193 33.7436 51.5043L28.9787 60.0742C28.2086 61.4592 26.3424 61.4912 25.6196 60.1319L21.1473 51.7207C20.4245 50.3613 21.3871 48.63 22.88 48.6043L32.1173 48.4457Z" fill="white"/>
</svg>
