<svg width="176" height="41" viewBox="0 0 176 41" fill="none" xmlns="http://www.w3.org/2000/svg">
<path d="M32.1031 28.3421C33.5986 28.3147 34.5069 30.0133 33.7371 31.3979L28.9877 39.9412C28.2187 41.3244 26.3514 41.3569 25.6256 39.9997L21.1478 31.6258C20.422 30.2686 21.3817 28.5388 22.8757 28.5114L32.1031 28.3421Z" fill="white"/>
<rect width="176" height="36" rx="8" fill="white"/>
<path d="M14.426 12.702C11.668 12.702 9.918 13.612 9.918 15.124C9.918 16.622 11.668 17.546 14.426 17.546C17.184 17.546 18.934 16.622 18.934 15.124C18.934 13.612 17.184 12.702 14.426 12.702ZM14.426 13.822C16.302 13.822 17.436 14.284 17.436 15.124C17.436 15.95 16.302 16.412 14.426 16.412C12.55 16.412 11.402 15.95 11.402 15.124C11.402 14.284 12.55 13.822 14.426 13.822ZM10.072 20.696V24.924H18.752V20.696H10.072ZM17.338 21.844V23.776H11.5V21.844H17.338ZM8.7 18.47V19.618H20.138V18.47H8.7ZM27.6449 19.856V20.864H30.1229V22.04H31.5649V12.422H30.1229V19.856H27.6449ZM25.1249 13.976C26.1609 13.976 26.8749 14.424 26.8749 15.138C26.8749 15.852 26.1609 16.3 25.1249 16.3C24.0749 16.3 23.3609 15.852 23.3609 15.138C23.3609 14.424 24.0749 13.976 25.1249 13.976ZM25.1249 17.364C26.9729 17.364 28.2469 16.482 28.2469 15.138C28.2469 13.794 26.9729 12.912 25.1249 12.912C23.2629 12.912 21.9889 13.794 21.9889 15.138C21.9889 16.482 23.2629 17.364 25.1249 17.364ZM24.5509 21.634H25.9929V19.198C27.0709 19.128 28.1769 19.016 29.2409 18.834L29.1289 17.798C26.4549 18.134 23.3469 18.162 21.0229 18.176L21.2049 19.352C22.2129 19.352 23.3469 19.338 24.5509 19.282V21.634ZM24.1729 23.664V21.102H22.7309V24.84H31.8589V23.664H24.1729ZM39.1838 13.71C41.1438 13.71 42.1938 14.088 42.1938 14.816C42.1938 15.53 41.1438 15.908 39.1838 15.908C37.2238 15.908 36.1738 15.53 36.1738 14.816C36.1738 14.088 37.2238 13.71 39.1838 13.71ZM39.1838 16.986C42.0118 16.986 43.6918 16.216 43.6918 14.816C43.6918 13.402 42.0118 12.632 39.1838 12.632C36.3418 12.632 34.6758 13.402 34.6758 14.816C34.6758 16.216 36.3418 16.986 39.1838 16.986ZM36.2718 22.81H43.4678V19.786H34.8158V20.878H42.0538V21.788H34.8438V24.966H43.8318V23.86H36.2718V22.81ZM33.4578 17.728V18.876H44.9098V17.728H33.4578ZM49.1673 13.626V21.984H55.1033V13.626H49.1673ZM53.6893 14.774V20.822H50.5813V14.774H53.6893ZM57.4413 12.422V25.106H58.8973V12.422H57.4413ZM63.0442 18.246H67.4542V13.556H61.5602V14.732H65.9982V17.084H61.5882V22.096H62.6662C64.8922 22.096 66.7822 22.026 68.9522 21.648L68.7982 20.472C66.7962 20.794 65.0462 20.892 63.0442 20.906V18.246ZM69.8482 12.408V25.106H71.3042V12.408H69.8482ZM83.3891 15.95H76.1371V13.976H83.2771V12.8H74.6951V17.126H83.4031L83.3891 15.95ZM76.0951 21.746H83.3331V20.584H74.6531V24.924H83.4451V23.748H76.0951V21.746ZM73.2671 18.26V19.422H84.7051V18.26H73.2671ZM86.346 13.766V14.942H90.854C90.602 17.854 89.034 20.08 85.716 21.676L86.486 22.824C90.826 20.724 92.338 17.532 92.338 13.766H86.346ZM94.62 12.436V25.078H96.062V12.436H94.62Z" fill="#FF2D55"/>
<path d="M108.131 13.5H105.121V12.31H103.679V13.5H100.669V14.592H108.131V13.5ZM102.713 17.112C102.713 16.454 103.371 16.076 104.393 16.076C105.429 16.076 106.087 16.454 106.087 17.112C106.087 17.756 105.429 18.134 104.393 18.134C103.371 18.134 102.713 17.756 102.713 17.112ZM107.459 17.112C107.459 15.824 106.255 15.026 104.393 15.026C102.545 15.026 101.327 15.824 101.327 17.112C101.327 18.386 102.545 19.17 104.393 19.17C106.255 19.17 107.459 18.386 107.459 17.112ZM103.805 22.894H110.525V19.912H102.363V20.976H109.097V21.886H102.391V24.966H110.945V23.888H103.805V22.894ZM110.525 15.292V12.408H109.083V19.338H110.525V16.482H112.317V15.292H110.525ZM126.613 17.098C124.065 16.734 122.161 15.152 122.161 13.514V12.842H120.635V13.514C120.635 15.18 118.759 16.734 116.183 17.098L116.743 18.26C118.843 17.924 120.593 16.874 121.405 15.404C122.231 16.86 123.953 17.924 126.053 18.26L126.613 17.098ZM127.103 19.45H115.679V20.626H120.635V25.092H122.077V20.626H127.103V19.45ZM141.118 12.45H139.676V19.632H141.118V12.45ZM134.3 14.326C135.42 14.326 136.246 15.04 136.246 16.118C136.246 17.21 135.42 17.91 134.3 17.91C133.18 17.91 132.354 17.21 132.354 16.118C132.354 15.04 133.18 14.326 134.3 14.326ZM134.3 19.1C136.232 19.1 137.646 17.882 137.646 16.118C137.646 14.354 136.232 13.136 134.3 13.136C132.368 13.136 130.94 14.354 130.94 16.118C130.94 17.882 132.368 19.1 134.3 19.1ZM139.774 20.178H138.36V20.738C138.36 21.69 137.828 22.88 136.708 23.636C135.602 22.936 135.112 21.802 135.112 20.738V20.178H133.712V20.738C133.712 21.97 132.872 23.272 131.262 23.846L131.962 24.91C133.138 24.476 133.95 23.664 134.412 22.67C134.804 23.692 135.546 24.56 136.736 25.022C137.884 24.546 138.64 23.636 139.046 22.642C139.48 23.664 140.306 24.476 141.524 24.91L142.238 23.846C140.6 23.314 139.774 22.04 139.774 20.738V20.178ZM146.483 20.99C145.405 20.99 144.663 19.814 144.663 17.812C144.663 15.852 145.405 14.662 146.483 14.662C147.575 14.662 148.317 15.852 148.317 17.812C148.317 19.814 147.575 20.99 146.483 20.99ZM152.125 12.422V17.14H149.661C149.465 14.816 148.177 13.36 146.483 13.36C144.621 13.36 143.291 15.096 143.291 17.812C143.291 20.556 144.621 22.278 146.483 22.278C148.219 22.278 149.507 20.766 149.675 18.316H152.125V25.106H153.581V12.422H152.125ZM159.576 19.604C160.066 19.716 160.612 19.772 161.172 19.772C161.732 19.772 162.278 19.716 162.768 19.59V22.348H159.576V19.604ZM161.172 14.298C163.076 14.298 164.406 15.138 164.406 16.468C164.406 17.812 163.076 18.652 161.172 18.652C159.254 18.652 157.924 17.812 157.924 16.468C157.924 15.138 159.254 14.298 161.172 14.298ZM164.21 22.348V19.058C165.218 18.484 165.82 17.588 165.82 16.468C165.82 14.452 163.86 13.164 161.172 13.164C158.47 13.164 156.524 14.452 156.524 16.468C156.524 17.588 157.126 18.498 158.134 19.058V22.348H155.46V23.524H166.912V22.348H164.21Z" fill="#222222"/>
</svg>
