<svg width="177" height="34" viewBox="0 0 177 34" fill="none" xmlns="http://www.w3.org/2000/svg">
<path d="M6.426 4.702C3.668 4.702 1.918 5.612 1.918 7.124C1.918 8.622 3.668 9.546 6.426 9.546C9.184 9.546 10.934 8.622 10.934 7.124C10.934 5.612 9.184 4.702 6.426 4.702ZM6.426 5.822C8.302 5.822 9.436 6.284 9.436 7.124C9.436 7.95 8.302 8.412 6.426 8.412C4.55 8.412 3.402 7.95 3.402 7.124C3.402 6.284 4.55 5.822 6.426 5.822ZM2.072 12.696V16.924H10.752V12.696H2.072ZM9.338 13.844V15.776H3.5V13.844H9.338ZM0.7 10.47V11.618H12.138V10.47H0.7ZM19.6449 11.856V12.864H22.1229V14.04H23.5649V4.422H22.1229V11.856H19.6449ZM17.1249 5.976C18.1609 5.976 18.8749 6.424 18.8749 7.138C18.8749 7.852 18.1609 8.3 17.1249 8.3C16.0749 8.3 15.3609 7.852 15.3609 7.138C15.3609 6.424 16.0749 5.976 17.1249 5.976ZM17.1249 9.364C18.9729 9.364 20.2469 8.482 20.2469 7.138C20.2469 5.794 18.9729 4.912 17.1249 4.912C15.2629 4.912 13.9889 5.794 13.9889 7.138C13.9889 8.482 15.2629 9.364 17.1249 9.364ZM16.5509 13.634H17.9929V11.198C19.0709 11.128 20.1769 11.016 21.2409 10.834L21.1289 9.798C18.4549 10.134 15.3469 10.162 13.0229 10.176L13.2049 11.352C14.2129 11.352 15.3469 11.338 16.5509 11.282V13.634ZM16.1729 15.664V13.102H14.7309V16.84H23.8589V15.664H16.1729ZM31.1838 5.71C33.1438 5.71 34.1938 6.088 34.1938 6.816C34.1938 7.53 33.1438 7.908 31.1838 7.908C29.2238 7.908 28.1738 7.53 28.1738 6.816C28.1738 6.088 29.2238 5.71 31.1838 5.71ZM31.1838 8.986C34.0118 8.986 35.6918 8.216 35.6918 6.816C35.6918 5.402 34.0118 4.632 31.1838 4.632C28.3418 4.632 26.6758 5.402 26.6758 6.816C26.6758 8.216 28.3418 8.986 31.1838 8.986ZM28.2718 14.81H35.4678V11.786H26.8158V12.878H34.0538V13.788H26.8438V16.966H35.8318V15.86H28.2718V14.81ZM25.4578 9.728V10.876H36.9098V9.728H25.4578ZM41.1673 5.626V13.984H47.1033V5.626H41.1673ZM45.6893 6.774V12.822H42.5813V6.774H45.6893ZM49.4413 4.422V17.106H50.8973V4.422H49.4413ZM55.0442 10.246H59.4542V5.556H53.5602V6.732H57.9982V9.084H53.5882V14.096H54.6662C56.8922 14.096 58.7822 14.026 60.9522 13.648L60.7982 12.472C58.7962 12.794 57.0462 12.892 55.0442 12.906V10.246ZM61.8482 4.408V17.106H63.3042V4.408H61.8482ZM75.3891 7.95H68.1371V5.976H75.2771V4.8H66.6951V9.126H75.4031L75.3891 7.95ZM68.0951 13.746H75.3331V12.584H66.6531V16.924H75.4451V15.748H68.0951V13.746ZM65.2671 10.26V11.422H76.7051V10.26H65.2671ZM78.346 5.766V6.942H82.854C82.602 9.854 81.034 12.08 77.716 13.676L78.486 14.824C82.826 12.724 84.338 9.532 84.338 5.766H78.346ZM86.62 4.436V17.078H88.062V4.436H86.62Z" fill="#FD4E6D"/>
<path d="M100.131 5.5H97.1214V4.31H95.6794V5.5H92.6694V6.592H100.131V5.5ZM94.7134 9.112C94.7134 8.454 95.3714 8.076 96.3934 8.076C97.4294 8.076 98.0874 8.454 98.0874 9.112C98.0874 9.756 97.4294 10.134 96.3934 10.134C95.3714 10.134 94.7134 9.756 94.7134 9.112ZM99.4594 9.112C99.4594 7.824 98.2554 7.026 96.3934 7.026C94.5454 7.026 93.3274 7.824 93.3274 9.112C93.3274 10.386 94.5454 11.17 96.3934 11.17C98.2554 11.17 99.4594 10.386 99.4594 9.112ZM95.8054 14.894H102.525V11.912H94.3634V12.976H101.097V13.886H94.3914V16.966H102.945V15.888H95.8054V14.894ZM102.525 7.292V4.408H101.083V11.338H102.525V8.482H104.317V7.292H102.525ZM118.613 9.098C116.065 8.734 114.161 7.152 114.161 5.514V4.842H112.635V5.514C112.635 7.18 110.759 8.734 108.183 9.098L108.743 10.26C110.843 9.924 112.593 8.874 113.405 7.404C114.231 8.86 115.953 9.924 118.053 10.26L118.613 9.098ZM119.103 11.45H107.679V12.626H112.635V17.092H114.077V12.626H119.103V11.45ZM133.118 4.45H131.676V11.632H133.118V4.45ZM126.3 6.326C127.42 6.326 128.246 7.04 128.246 8.118C128.246 9.21 127.42 9.91 126.3 9.91C125.18 9.91 124.354 9.21 124.354 8.118C124.354 7.04 125.18 6.326 126.3 6.326ZM126.3 11.1C128.232 11.1 129.646 9.882 129.646 8.118C129.646 6.354 128.232 5.136 126.3 5.136C124.368 5.136 122.94 6.354 122.94 8.118C122.94 9.882 124.368 11.1 126.3 11.1ZM131.774 12.178H130.36V12.738C130.36 13.69 129.828 14.88 128.708 15.636C127.602 14.936 127.112 13.802 127.112 12.738V12.178H125.712V12.738C125.712 13.97 124.872 15.272 123.262 15.846L123.962 16.91C125.138 16.476 125.95 15.664 126.412 14.67C126.804 15.692 127.546 16.56 128.736 17.022C129.884 16.546 130.64 15.636 131.046 14.642C131.48 15.664 132.306 16.476 133.524 16.91L134.238 15.846C132.6 15.314 131.774 14.04 131.774 12.738V12.178ZM138.483 12.99C137.405 12.99 136.663 11.814 136.663 9.812C136.663 7.852 137.405 6.662 138.483 6.662C139.575 6.662 140.317 7.852 140.317 9.812C140.317 11.814 139.575 12.99 138.483 12.99ZM144.125 4.422V9.14H141.661C141.465 6.816 140.177 5.36 138.483 5.36C136.621 5.36 135.291 7.096 135.291 9.812C135.291 12.556 136.621 14.278 138.483 14.278C140.219 14.278 141.507 12.766 141.675 10.316H144.125V17.106H145.581V4.422H144.125ZM151.576 11.604C152.066 11.716 152.612 11.772 153.172 11.772C153.732 11.772 154.278 11.716 154.768 11.59V14.348H151.576V11.604ZM153.172 6.298C155.076 6.298 156.406 7.138 156.406 8.468C156.406 9.812 155.076 10.652 153.172 10.652C151.254 10.652 149.924 9.812 149.924 8.468C149.924 7.138 151.254 6.298 153.172 6.298ZM156.21 14.348V11.058C157.218 10.484 157.82 9.588 157.82 8.468C157.82 6.452 155.86 5.164 153.172 5.164C150.47 5.164 148.524 6.452 148.524 8.468C148.524 9.588 149.126 10.498 150.134 11.058V14.348H147.46V15.524H158.912V14.348H156.21Z" fill="white"/>
<path d="M167.382 8.80942C175.911 18.2319 167.488 31.0307 163.554 31.9677M163.554 31.9677L168.491 32.023M163.554 31.9677L163.978 27.5575" stroke="#EE4B3C" stroke-linecap="round"/>
</svg>
