<svg width="327" height="304" viewBox="0 0 327 304" fill="none" xmlns="http://www.w3.org/2000/svg">
<path d="M20 1H307C317.493 1 326 9.50659 326 20V97C326 107.493 317.493 116 307 116H20C9.50658 116 1 107.493 1 97V20C1 9.50659 9.50659 1 20 1Z" fill="#151515" stroke="#FD4E6D" stroke-width="2"/>
<path d="M13.26 55.18V62.176H18.204V55.18H13.26ZM17.244 55.972V61.396H14.22V55.972H17.244ZM20.46 54.124V64.912H21.444V54.124H20.46ZM24.2831 58.96H28.2551V55.12H23.2631V55.924H27.2591V58.168H23.2991V62.296H24.1871C26.0351 62.296 27.6671 62.224 29.6111 61.9L29.5151 61.096C27.6311 61.396 26.0471 61.48 24.2831 61.48V58.96ZM30.5231 54.112V64.9H31.5071V54.112H30.5231ZM41.3181 57.232H34.9581V55.264H41.2101V54.472H33.9741V58.036H41.3181V57.232ZM34.9101 61.948H41.2701V61.156H33.9261V64.732H41.3781V63.94H34.9101V61.948ZM32.7141 59.188V59.992H42.4461V59.188H32.7141ZM43.3892 55.288V56.08H47.4332C47.2292 58.636 45.7892 60.7 42.8972 62.08L43.4252 62.884C47.0012 61.132 48.4292 58.396 48.4292 55.288H43.3892ZM50.6012 54.124V64.888H51.5852V54.124H50.6012Z" fill="white"/>
<path d="M31.6432 87.8481C32.2699 87.4564 32.2699 86.5438 31.6432 86.1521L18.53 77.9563C17.8639 77.5401 17 78.0189 17 78.8043V95.1958C17 95.9813 17.864 96.4601 18.53 96.0438L31.6432 87.8481Z" fill="white"/>
<rect x="40" y="85" width="269" height="4" rx="2" fill="white" fill-opacity="0.12"/>
<rect x="40" y="85" width="62.48" height="4" rx="2" fill="white" fill-opacity="0.6"/>
<g filter="url(#filter0_d_4847_46482)">
<rect x="97.7467" y="82" width="9.46667" height="10" rx="4.73333" fill="white"/>
</g>
<path d="M17.31 28.806C16.104 28.806 15.294 27.492 15.294 25.026C15.294 22.578 16.104 21.264 17.31 21.264C18.534 21.264 19.344 22.578 19.344 25.026C19.344 27.492 18.534 28.806 17.31 28.806ZM24.312 17.952V23.928H21.54C21.216 20.94 19.542 19.122 17.31 19.122C14.844 19.122 13.026 21.39 13.026 25.026C13.026 28.68 14.844 30.966 17.31 30.966C19.614 30.966 21.306 29.022 21.558 25.854H24.312V34.584H26.688V17.952H24.312ZM37.5126 22.308H34.1106V20.184H37.5126V22.308ZM31.7526 22.308H29.7546V24.072H41.8506V22.308H39.8706V20.184H41.9766V18.42H29.6466V20.184H31.7526V22.308ZM32.4186 31.812H41.4906V27.708H30.0426V29.418H39.1506V30.228H30.0606V34.422H41.9226V32.712H32.4186V31.812ZM28.3326 24.918V26.79H43.3086V24.918H28.3326ZM46.6452 25.944H50.1912V19.59H44.3232V21.48H47.8872V24.072H44.3412V30.678H45.5112C47.5812 30.678 49.4172 30.624 51.5592 30.246L51.3612 28.338C49.6872 28.608 48.2112 28.698 46.6452 28.734V25.944ZM52.4952 23.604H50.8572V25.548H52.4952V33.774H54.6912V18.258H52.4952V23.604ZM55.8612 17.952V34.53H58.1112V17.952H55.8612ZM70.8078 17.952V34.584H73.1838V17.952H70.8078ZM64.2738 19.122C61.7718 19.122 59.9178 21.39 59.9178 25.026C59.9178 28.68 61.7718 30.966 64.2738 30.966C66.7758 30.966 68.6298 28.68 68.6298 25.026C68.6298 21.39 66.7758 19.122 64.2738 19.122ZM64.2738 21.264C65.4978 21.264 66.3438 22.578 66.3438 25.026C66.3438 27.492 65.4978 28.806 64.2738 28.806C63.0498 28.806 62.2038 27.492 62.2038 25.026C62.2038 22.578 63.0498 21.264 64.2738 21.264ZM76.5204 28.248C79.4004 27.726 81.4704 26.268 82.5144 24.306C83.5584 26.232 85.6644 27.654 88.5804 28.158L89.4804 26.286C85.7364 25.728 83.7744 23.532 83.7564 21.246H88.7424V19.374H76.2504V21.246H81.2364C81.2184 23.532 79.2564 25.782 75.6024 26.358L76.5204 28.248ZM75.0084 30.642V32.568H90.0204V30.642H75.0084ZM97.7034 23.388C97.7034 21.696 99.2694 20.706 101.537 20.706C103.823 20.706 105.389 21.696 105.389 23.388C105.389 25.08 103.823 26.07 101.537 26.07C99.2694 26.07 97.7034 25.08 97.7034 23.388ZM102.725 30.696V27.888C105.659 27.546 107.729 25.854 107.729 23.388C107.729 20.616 105.083 18.816 101.537 18.816C98.0094 18.816 95.3634 20.616 95.3634 23.388C95.3634 25.854 97.4334 27.528 100.349 27.888V30.696H94.0494V32.622H109.061V30.696H102.725ZM118.77 26.268H115.386V21.3H118.77V26.268ZM113.028 26.268H110.868V28.158H123.324V26.268H121.128V21.3H123.378V19.41H110.778V21.3H113.028V26.268ZM109.608 30.696V32.622H124.62V30.696H109.608ZM138.883 17.97H136.507V27.564H138.883V17.97ZM135.229 24C132.907 24.468 130.675 24.666 128.461 24.72V19.014H126.103V26.664H127.543C130.153 26.664 132.763 26.502 135.481 25.926L135.229 24ZM133.285 32.658C131.161 32.658 129.991 32.19 129.991 31.182C129.991 30.156 131.161 29.688 133.285 29.688C135.427 29.688 136.597 30.156 136.597 31.182C136.597 32.19 135.427 32.658 133.285 32.658ZM133.285 27.798C129.829 27.798 127.633 29.076 127.633 31.182C127.633 33.288 129.829 34.548 133.285 34.548C136.759 34.548 138.955 33.288 138.955 31.182C138.955 29.076 136.759 27.798 133.285 27.798Z" fill="white"/>
<path d="M20 125H307C317.493 125 326 133.507 326 144V284C326 294.493 317.493 303 307 303H20C9.50658 303 1 294.493 1 284V144C1 133.507 9.50659 125 20 125Z" fill="#151515" stroke="#FD4E6D" stroke-width="2"/>
<path d="M16.476 141.044H19.008V140.228H12.996V141.044H15.492V142.412C15.492 144.272 14.184 146.3 12.636 147.032L13.212 147.824C14.436 147.2 15.492 145.844 15.984 144.272C16.5 145.748 17.556 146.984 18.804 147.56L19.356 146.768C17.772 146.096 16.476 144.236 16.476 142.412V141.044ZM20.46 139.136V149.888H21.444V139.136H20.46ZM28.4231 141.92V142.724H30.5471V145.544H31.5431V139.136H30.5471V141.92H28.4231ZM29.0231 144.368C27.4631 143.816 26.4071 142.46 26.4071 141.08V140.708H28.7711V139.916H23.0231V140.708H25.4231V141.08C25.4231 142.628 24.3191 144.08 22.7111 144.668L23.2271 145.448C24.4871 144.968 25.4831 143.96 25.9391 142.712C26.4071 143.816 27.3311 144.704 28.5311 145.136L29.0231 144.368ZM27.9911 149.12C26.3711 149.12 25.3871 148.664 25.3871 147.884C25.3871 147.104 26.3711 146.636 27.9911 146.636C29.6111 146.636 30.5951 147.104 30.5951 147.884C30.5951 148.664 29.6111 149.12 27.9911 149.12ZM27.9911 145.88C25.7831 145.88 24.4031 146.612 24.4031 147.884C24.4031 149.156 25.7831 149.888 27.9911 149.888C30.1991 149.888 31.5791 149.156 31.5791 147.884C31.5791 146.612 30.1991 145.88 27.9911 145.88ZM36.5301 140.06H35.5581V141.992C35.5581 144.032 34.2501 146.096 32.6661 146.852L33.2661 147.656C34.5261 147.008 35.5581 145.664 36.0501 144.044C36.5661 145.58 37.5981 146.852 38.8221 147.452L39.4101 146.66C37.8141 145.94 36.5301 143.96 36.5301 141.992V140.06ZM40.5381 139.124V149.912H41.5221V139.124H40.5381ZM43.2092 139.964V140.768H47.1692C46.9652 142.664 45.3092 144.188 42.7772 144.98L43.1732 145.76C46.2692 144.788 48.2252 142.748 48.2252 139.964H43.2092ZM45.3812 146.192H44.3972V149.648H51.5732V148.844H45.3812V146.192ZM51.1052 142.4V139.136H50.1212V146.996H51.1052V143.216H52.6892V142.4H51.1052Z" fill="white"/>
<rect x="12" y="160" width="302" height="48" rx="8" fill="white" fill-opacity="0.08"/>
<path d="M35.7 183.988C35.7 184.865 35.6043 185.626 35.413 186.27C35.2263 186.909 34.9697 187.439 34.643 187.859C34.3163 188.279 33.929 188.592 33.481 188.797C33.0377 189.002 32.5617 189.105 32.053 189.105C31.5397 189.105 31.0613 189.002 30.618 188.797C30.1793 188.592 29.7967 188.279 29.47 187.859C29.1433 187.439 28.8867 186.909 28.7 186.27C28.5133 185.626 28.42 184.865 28.42 183.988C28.42 183.111 28.5133 182.35 28.7 181.706C28.8867 181.062 29.1433 180.53 29.47 180.11C29.7967 179.685 30.1793 179.37 30.618 179.165C31.0613 178.96 31.5397 178.857 32.053 178.857C32.5617 178.857 33.0377 178.96 33.481 179.165C33.929 179.37 34.3163 179.685 34.643 180.11C34.9697 180.53 35.2263 181.062 35.413 181.706C35.6043 182.35 35.7 183.111 35.7 183.988ZM34.405 183.988C34.405 183.223 34.3397 182.581 34.209 182.063C34.083 181.54 33.9103 181.12 33.691 180.803C33.4763 180.486 33.2267 180.259 32.942 180.124C32.6573 179.984 32.361 179.914 32.053 179.914C31.745 179.914 31.4487 179.984 31.164 180.124C30.8793 180.259 30.6297 180.486 30.415 180.803C30.2003 181.12 30.0277 181.54 29.897 182.063C29.771 182.581 29.708 183.223 29.708 183.988C29.708 184.753 29.771 185.395 29.897 185.913C30.0277 186.431 30.2003 186.849 30.415 187.166C30.6297 187.483 30.8793 187.712 31.164 187.852C31.4487 187.987 31.745 188.055 32.053 188.055C32.361 188.055 32.6573 187.987 32.942 187.852C33.2267 187.712 33.4763 187.483 33.691 187.166C33.9103 186.849 34.083 186.431 34.209 185.913C34.3397 185.395 34.405 184.753 34.405 183.988ZM38.1021 181.916C38.1021 182.233 38.1464 182.518 38.2351 182.77C38.3284 183.017 38.4591 183.227 38.6271 183.4C38.7998 183.573 39.0074 183.703 39.2501 183.792C39.4974 183.881 39.7728 183.925 40.0761 183.925C40.4121 183.925 40.7084 183.871 40.9651 183.764C41.2264 183.652 41.4458 183.505 41.6231 183.323C41.8004 183.141 41.9358 182.931 42.0291 182.693C42.1224 182.455 42.1691 182.208 42.1691 181.951C42.1691 181.638 42.1178 181.356 42.0151 181.104C41.9171 180.847 41.7794 180.63 41.6021 180.453C41.4248 180.276 41.2124 180.14 40.9651 180.047C40.7224 179.949 40.4541 179.9 40.1601 179.9C39.8521 179.9 39.5721 179.951 39.3201 180.054C39.0681 180.152 38.8511 180.29 38.6691 180.467C38.4871 180.644 38.3471 180.857 38.2491 181.104C38.1511 181.351 38.1021 181.622 38.1021 181.916ZM41.0141 185.003C41.1168 184.868 41.2124 184.739 41.3011 184.618C41.3898 184.497 41.4738 184.375 41.5531 184.254C41.2964 184.459 41.0071 184.616 40.6851 184.723C40.3631 184.83 40.0224 184.884 39.6631 184.884C39.2851 184.884 38.9258 184.821 38.5851 184.695C38.2491 184.569 37.9528 184.385 37.6961 184.142C37.4394 183.895 37.2341 183.594 37.0801 183.239C36.9308 182.88 36.8561 182.469 36.8561 182.007C36.8561 181.568 36.9378 181.158 37.1011 180.775C37.2644 180.392 37.4931 180.059 37.7871 179.774C38.0811 179.489 38.4311 179.265 38.8371 179.102C39.2431 178.939 39.6888 178.857 40.1741 178.857C40.6548 178.857 41.0911 178.936 41.4831 179.095C41.8751 179.254 42.2111 179.475 42.4911 179.76C42.7711 180.045 42.9858 180.385 43.1351 180.782C43.2891 181.179 43.3661 181.617 43.3661 182.098C43.3661 182.387 43.3381 182.663 43.2821 182.924C43.2308 183.181 43.1538 183.435 43.0511 183.687C42.9531 183.934 42.8318 184.182 42.6871 184.429C42.5424 184.672 42.3791 184.921 42.1971 185.178L39.7541 188.706C39.6934 188.795 39.6071 188.867 39.4951 188.923C39.3831 188.974 39.2548 189 39.1101 189H37.9621L41.0141 185.003ZM45.1172 188.23C45.1172 188.109 45.1382 187.994 45.1802 187.887C45.2269 187.78 45.2875 187.686 45.3622 187.607C45.4415 187.528 45.5349 187.465 45.6422 187.418C45.7495 187.371 45.8639 187.348 45.9852 187.348C46.1065 187.348 46.2209 187.371 46.3282 187.418C46.4355 187.465 46.5289 187.528 46.6082 187.607C46.6875 187.686 46.7505 187.78 46.7972 187.887C46.8439 187.994 46.8672 188.109 46.8672 188.23C46.8672 188.356 46.8439 188.473 46.7972 188.58C46.7505 188.683 46.6875 188.774 46.6082 188.853C46.5289 188.932 46.4355 188.993 46.3282 189.035C46.2209 189.082 46.1065 189.105 45.9852 189.105C45.8639 189.105 45.7495 189.082 45.6422 189.035C45.5349 188.993 45.4415 188.932 45.3622 188.853C45.2875 188.774 45.2269 188.683 45.1802 188.58C45.1382 188.473 45.1172 188.356 45.1172 188.23ZM45.1172 182.98C45.1172 182.859 45.1382 182.744 45.1802 182.637C45.2269 182.53 45.2875 182.436 45.3622 182.357C45.4415 182.278 45.5349 182.215 45.6422 182.168C45.7495 182.121 45.8639 182.098 45.9852 182.098C46.1065 182.098 46.2209 182.121 46.3282 182.168C46.4355 182.215 46.5289 182.278 46.6082 182.357C46.6875 182.436 46.7505 182.53 46.7972 182.637C46.8439 182.744 46.8672 182.859 46.8672 182.98C46.8672 183.106 46.8439 183.223 46.7972 183.33C46.7505 183.433 46.6875 183.524 46.6082 183.603C46.5289 183.682 46.4355 183.745 46.3282 183.792C46.2209 183.834 46.1065 183.855 45.9852 183.855C45.8639 183.855 45.7495 183.834 45.6422 183.792C45.5349 183.745 45.4415 183.682 45.3622 183.603C45.2875 183.524 45.2269 183.433 45.1802 183.33C45.1382 183.223 45.1172 183.106 45.1172 182.98ZM55.4422 183.988C55.4422 184.865 55.3465 185.626 55.1552 186.27C54.9685 186.909 54.7119 187.439 54.3852 187.859C54.0585 188.279 53.6712 188.592 53.2232 188.797C52.7799 189.002 52.3039 189.105 51.7952 189.105C51.2819 189.105 50.8035 189.002 50.3602 188.797C49.9215 188.592 49.5389 188.279 49.2122 187.859C48.8855 187.439 48.6289 186.909 48.4422 186.27C48.2555 185.626 48.1622 184.865 48.1622 183.988C48.1622 183.111 48.2555 182.35 48.4422 181.706C48.6289 181.062 48.8855 180.53 49.2122 180.11C49.5389 179.685 49.9215 179.37 50.3602 179.165C50.8035 178.96 51.2819 178.857 51.7952 178.857C52.3039 178.857 52.7799 178.96 53.2232 179.165C53.6712 179.37 54.0585 179.685 54.3852 180.11C54.7119 180.53 54.9685 181.062 55.1552 181.706C55.3465 182.35 55.4422 183.111 55.4422 183.988ZM54.1472 183.988C54.1472 183.223 54.0819 182.581 53.9512 182.063C53.8252 181.54 53.6525 181.12 53.4332 180.803C53.2185 180.486 52.9689 180.259 52.6842 180.124C52.3995 179.984 52.1032 179.914 51.7952 179.914C51.4872 179.914 51.1909 179.984 50.9062 180.124C50.6215 180.259 50.3719 180.486 50.1572 180.803C49.9425 181.12 49.7699 181.54 49.6392 182.063C49.5132 182.581 49.4502 183.223 49.4502 183.988C49.4502 184.753 49.5132 185.395 49.6392 185.913C49.7699 186.431 49.9425 186.849 50.1572 187.166C50.3719 187.483 50.6215 187.712 50.9062 187.852C51.1909 187.987 51.4872 188.055 51.7952 188.055C52.1032 188.055 52.3995 187.987 52.6842 187.852C52.9689 187.712 53.2185 187.483 53.4332 187.166C53.6525 186.849 53.8252 186.431 53.9512 185.913C54.0819 185.395 54.1472 184.753 54.1472 183.988ZM63.5633 183.988C63.5633 184.865 63.4676 185.626 63.2763 186.27C63.0896 186.909 62.8329 187.439 62.5063 187.859C62.1796 188.279 61.7923 188.592 61.3443 188.797C60.9009 189.002 60.4249 189.105 59.9163 189.105C59.4029 189.105 58.9246 189.002 58.4813 188.797C58.0426 188.592 57.6599 188.279 57.3333 187.859C57.0066 187.439 56.7499 186.909 56.5633 186.27C56.3766 185.626 56.2833 184.865 56.2833 183.988C56.2833 183.111 56.3766 182.35 56.5633 181.706C56.7499 181.062 57.0066 180.53 57.3333 180.11C57.6599 179.685 58.0426 179.37 58.4813 179.165C58.9246 178.96 59.4029 178.857 59.9163 178.857C60.4249 178.857 60.9009 178.96 61.3443 179.165C61.7923 179.37 62.1796 179.685 62.5063 180.11C62.8329 180.53 63.0896 181.062 63.2763 181.706C63.4676 182.35 63.5633 183.111 63.5633 183.988ZM62.2683 183.988C62.2683 183.223 62.2029 182.581 62.0723 182.063C61.9463 181.54 61.7736 181.12 61.5543 180.803C61.3396 180.486 61.0899 180.259 60.8053 180.124C60.5206 179.984 60.2243 179.914 59.9163 179.914C59.6083 179.914 59.3119 179.984 59.0273 180.124C58.7426 180.259 58.4929 180.486 58.2783 180.803C58.0636 181.12 57.8909 181.54 57.7603 182.063C57.6343 182.581 57.5713 183.223 57.5713 183.988C57.5713 184.753 57.6343 185.395 57.7603 185.913C57.8909 186.431 58.0636 186.849 58.2783 187.166C58.4929 187.483 58.7426 187.712 59.0273 187.852C59.3119 187.987 59.6083 188.055 59.9163 188.055C60.2243 188.055 60.5206 187.987 60.8053 187.852C61.0899 187.712 61.3396 187.483 61.5543 187.166C61.7736 186.849 61.9463 186.431 62.0723 185.913C62.2029 185.395 62.2683 184.753 62.2683 183.988Z" fill="white" fill-opacity="0.87"/>
<path d="M286 188L280 182H292L286 188Z" fill="white"/>
<path d="M17.1 229.44H14.052V227.472H17.1V229.44ZM18.06 224.904H17.1V226.704H14.052V224.904H13.08V230.232H18.06V224.904ZM15.276 231.276H14.292V234.648H21.468V233.844H15.276V231.276ZM20.988 227.388V224.136H20.004V232.032H20.988V228.216H22.572V227.388H20.988ZM23.7551 232.32H30.2231V234.888H31.2071V231.528H23.7551V232.32ZM24.9311 226.368H30.1631V227.616H24.9311V226.368ZM28.0391 229.68V228.396H31.1351V224.376H30.1631V225.6H24.9311V224.376H23.9591V228.396H27.0551V229.68H22.6631V230.484H32.4071V229.68H28.0391ZM33.6741 229.356C35.3421 229.068 36.9261 228.168 37.5861 226.896C38.2341 228.168 39.8301 229.068 41.4981 229.356L41.8821 228.576C39.9861 228.3 38.1261 227.064 38.1261 225.648V225.588H41.4981V224.796H33.6381V225.588H37.0341V225.648C37.0341 227.064 35.1741 228.3 33.3021 228.576L33.6741 229.356ZM42.4461 230.256H32.7261V231.06H37.0701V234.888H38.0541V231.06H42.4581L42.4461 230.256ZM43.3892 225.288V226.08H47.4332C47.2292 228.636 45.7892 230.7 42.8972 232.08L43.4252 232.884C47.0012 231.132 48.4292 228.396 48.4292 225.288H43.3892ZM50.6012 224.124V234.888H51.5852V224.124H50.6012Z" fill="white"/>
<path d="M12 253C12 248.582 15.5817 245 20 245H163V293H20C15.5817 293 12 289.418 12 285V253Z" fill="white" fill-opacity="0.08"/>
<path d="M31.7 269.988C31.7 270.865 31.6043 271.626 31.413 272.27C31.2263 272.909 30.9697 273.439 30.643 273.859C30.3163 274.279 29.929 274.592 29.481 274.797C29.0377 275.002 28.5617 275.105 28.053 275.105C27.5397 275.105 27.0613 275.002 26.618 274.797C26.1793 274.592 25.7967 274.279 25.47 273.859C25.1433 273.439 24.8867 272.909 24.7 272.27C24.5133 271.626 24.42 270.865 24.42 269.988C24.42 269.111 24.5133 268.35 24.7 267.706C24.8867 267.062 25.1433 266.53 25.47 266.11C25.7967 265.685 26.1793 265.37 26.618 265.165C27.0613 264.96 27.5397 264.857 28.053 264.857C28.5617 264.857 29.0377 264.96 29.481 265.165C29.929 265.37 30.3163 265.685 30.643 266.11C30.9697 266.53 31.2263 267.062 31.413 267.706C31.6043 268.35 31.7 269.111 31.7 269.988ZM30.405 269.988C30.405 269.223 30.3397 268.581 30.209 268.063C30.083 267.54 29.9103 267.12 29.691 266.803C29.4763 266.486 29.2267 266.259 28.942 266.124C28.6573 265.984 28.361 265.914 28.053 265.914C27.745 265.914 27.4487 265.984 27.164 266.124C26.8793 266.259 26.6297 266.486 26.415 266.803C26.2003 267.12 26.0277 267.54 25.897 268.063C25.771 268.581 25.708 269.223 25.708 269.988C25.708 270.753 25.771 271.395 25.897 271.913C26.0277 272.431 26.2003 272.849 26.415 273.166C26.6297 273.483 26.8793 273.712 27.164 273.852C27.4487 273.987 27.745 274.055 28.053 274.055C28.361 274.055 28.6573 273.987 28.942 273.852C29.2267 273.712 29.4763 273.483 29.691 273.166C29.9103 272.849 30.083 272.431 30.209 271.913C30.3397 271.395 30.405 270.753 30.405 269.988ZM33.8221 267.916C33.8221 268.233 33.8664 268.518 33.9551 268.77C34.0484 269.017 34.1791 269.227 34.3471 269.4C34.5198 269.573 34.7274 269.703 34.9701 269.792C35.2174 269.881 35.4928 269.925 35.7961 269.925C36.1321 269.925 36.4284 269.871 36.6851 269.764C36.9464 269.652 37.1658 269.505 37.3431 269.323C37.5204 269.141 37.6558 268.931 37.7491 268.693C37.8424 268.455 37.8891 268.208 37.8891 267.951C37.8891 267.638 37.8378 267.356 37.7351 267.104C37.6371 266.847 37.4994 266.63 37.3221 266.453C37.1448 266.276 36.9324 266.14 36.6851 266.047C36.4424 265.949 36.1741 265.9 35.8801 265.9C35.5721 265.9 35.2921 265.951 35.0401 266.054C34.7881 266.152 34.5711 266.29 34.3891 266.467C34.2071 266.644 34.0671 266.857 33.9691 267.104C33.8711 267.351 33.8221 267.622 33.8221 267.916ZM36.7341 271.003C36.8368 270.868 36.9324 270.739 37.0211 270.618C37.1098 270.497 37.1938 270.375 37.2731 270.254C37.0164 270.459 36.7271 270.616 36.4051 270.723C36.0831 270.83 35.7424 270.884 35.3831 270.884C35.0051 270.884 34.6458 270.821 34.3051 270.695C33.9691 270.569 33.6728 270.385 33.4161 270.142C33.1594 269.895 32.9541 269.594 32.8001 269.239C32.6508 268.88 32.5761 268.469 32.5761 268.007C32.5761 267.568 32.6578 267.158 32.8211 266.775C32.9844 266.392 33.2131 266.059 33.5071 265.774C33.8011 265.489 34.1511 265.265 34.5571 265.102C34.9631 264.939 35.4088 264.857 35.8941 264.857C36.3748 264.857 36.8111 264.936 37.2031 265.095C37.5951 265.254 37.9311 265.475 38.2111 265.76C38.4911 266.045 38.7058 266.385 38.8551 266.782C39.0091 267.179 39.0861 267.617 39.0861 268.098C39.0861 268.387 39.0581 268.663 39.0021 268.924C38.9508 269.181 38.8738 269.435 38.7711 269.687C38.6731 269.934 38.5518 270.182 38.4071 270.429C38.2624 270.672 38.0991 270.921 37.9171 271.178L35.4741 274.706C35.4134 274.795 35.3271 274.867 35.2151 274.923C35.1031 274.974 34.9748 275 34.8301 275H33.6821L36.7341 271.003ZM40.5572 274.23C40.5572 274.109 40.5782 273.994 40.6202 273.887C40.6669 273.78 40.7275 273.686 40.8022 273.607C40.8815 273.528 40.9749 273.465 41.0822 273.418C41.1895 273.371 41.3039 273.348 41.4252 273.348C41.5465 273.348 41.6609 273.371 41.7682 273.418C41.8755 273.465 41.9689 273.528 42.0482 273.607C42.1275 273.686 42.1905 273.78 42.2372 273.887C42.2839 273.994 42.3072 274.109 42.3072 274.23C42.3072 274.356 42.2839 274.473 42.2372 274.58C42.1905 274.683 42.1275 274.774 42.0482 274.853C41.9689 274.932 41.8755 274.993 41.7682 275.035C41.6609 275.082 41.5465 275.105 41.4252 275.105C41.3039 275.105 41.1895 275.082 41.0822 275.035C40.9749 274.993 40.8815 274.932 40.8022 274.853C40.7275 274.774 40.6669 274.683 40.6202 274.58C40.5782 274.473 40.5572 274.356 40.5572 274.23ZM40.5572 268.98C40.5572 268.859 40.5782 268.744 40.6202 268.637C40.6669 268.53 40.7275 268.436 40.8022 268.357C40.8815 268.278 40.9749 268.215 41.0822 268.168C41.1895 268.121 41.3039 268.098 41.4252 268.098C41.5465 268.098 41.6609 268.121 41.7682 268.168C41.8755 268.215 41.9689 268.278 42.0482 268.357C42.1275 268.436 42.1905 268.53 42.2372 268.637C42.2839 268.744 42.3072 268.859 42.3072 268.98C42.3072 269.106 42.2839 269.223 42.2372 269.33C42.1905 269.433 42.1275 269.524 42.0482 269.603C41.9689 269.682 41.8755 269.745 41.7682 269.792C41.6609 269.834 41.5465 269.855 41.4252 269.855C41.3039 269.855 41.1895 269.834 41.0822 269.792C40.9749 269.745 40.8815 269.682 40.8022 269.603C40.7275 269.524 40.6669 269.433 40.6202 269.33C40.5782 269.223 40.5572 269.106 40.5572 268.98ZM43.8122 267.685C43.8775 267.228 44.0035 266.824 44.1902 266.474C44.3769 266.119 44.6125 265.823 44.8972 265.585C45.1865 265.347 45.5155 265.167 45.8842 265.046C46.2575 264.92 46.6589 264.857 47.0882 264.857C47.5129 264.857 47.9049 264.918 48.2642 265.039C48.6235 265.16 48.9315 265.333 49.1882 265.557C49.4495 265.781 49.6525 266.052 49.7972 266.369C49.9419 266.686 50.0142 267.039 50.0142 267.426C50.0142 267.743 49.9722 268.028 49.8882 268.28C49.8089 268.527 49.6922 268.744 49.5382 268.931C49.3889 269.118 49.2069 269.276 48.9922 269.407C48.7775 269.538 48.5372 269.645 48.2712 269.729C48.9245 269.897 49.4145 270.186 49.7412 270.597C50.0725 271.003 50.2382 271.512 50.2382 272.123C50.2382 272.585 50.1495 273 49.9722 273.369C49.7995 273.738 49.5615 274.053 49.2582 274.314C48.9549 274.571 48.6002 274.769 48.1942 274.909C47.7929 275.044 47.3612 275.112 46.8992 275.112C46.3672 275.112 45.9122 275.047 45.5342 274.916C45.1562 274.781 44.8365 274.596 44.5752 274.363C44.3139 274.13 44.0992 273.854 43.9312 273.537C43.7632 273.215 43.6209 272.867 43.5042 272.494L44.0432 272.27C44.1832 272.209 44.3185 272.193 44.4492 272.221C44.5845 272.249 44.6825 272.326 44.7432 272.452C44.8039 272.583 44.8785 272.739 44.9672 272.921C45.0605 273.103 45.1865 273.278 45.3452 273.446C45.5039 273.614 45.7045 273.756 45.9472 273.873C46.1945 273.99 46.5072 274.048 46.8852 274.048C47.2352 274.048 47.5409 273.992 47.8022 273.88C48.0682 273.763 48.2875 273.614 48.4602 273.432C48.6375 273.25 48.7705 273.047 48.8592 272.823C48.9479 272.599 48.9922 272.377 48.9922 272.158C48.9922 271.887 48.9572 271.64 48.8872 271.416C48.8172 271.192 48.6865 270.998 48.4952 270.835C48.3039 270.672 48.0402 270.543 47.7042 270.45C47.3729 270.357 46.9459 270.31 46.4232 270.31V269.407C46.8525 269.402 47.2165 269.356 47.5152 269.267C47.8185 269.178 48.0635 269.057 48.2502 268.903C48.4415 268.749 48.5792 268.565 48.6632 268.35C48.7519 268.135 48.7962 267.897 48.7962 267.636C48.7962 267.347 48.7495 267.095 48.6562 266.88C48.5675 266.665 48.4439 266.488 48.2852 266.348C48.1265 266.208 47.9375 266.103 47.7182 266.033C47.5035 265.963 47.2702 265.928 47.0182 265.928C46.7662 265.928 46.5305 265.965 46.3112 266.04C46.0965 266.115 45.9052 266.22 45.7372 266.355C45.5739 266.486 45.4362 266.642 45.3242 266.824C45.2122 267.006 45.1329 267.207 45.0862 267.426C45.0255 267.589 44.9485 267.699 44.8552 267.755C44.7665 267.806 44.6359 267.82 44.4632 267.797L43.8122 267.685ZM58.4433 269.988C58.4433 270.865 58.3476 271.626 58.1563 272.27C57.9696 272.909 57.7129 273.439 57.3863 273.859C57.0596 274.279 56.6723 274.592 56.2243 274.797C55.7809 275.002 55.3049 275.105 54.7963 275.105C54.2829 275.105 53.8046 275.002 53.3613 274.797C52.9226 274.592 52.5399 274.279 52.2133 273.859C51.8866 273.439 51.6299 272.909 51.4433 272.27C51.2566 271.626 51.1633 270.865 51.1633 269.988C51.1633 269.111 51.2566 268.35 51.4433 267.706C51.6299 267.062 51.8866 266.53 52.2133 266.11C52.5399 265.685 52.9226 265.37 53.3613 265.165C53.8046 264.96 54.2829 264.857 54.7963 264.857C55.3049 264.857 55.7809 264.96 56.2243 265.165C56.6723 265.37 57.0596 265.685 57.3863 266.11C57.7129 266.53 57.9696 267.062 58.1563 267.706C58.3476 268.35 58.4433 269.111 58.4433 269.988ZM57.1483 269.988C57.1483 269.223 57.0829 268.581 56.9523 268.063C56.8263 267.54 56.6536 267.12 56.4343 266.803C56.2196 266.486 55.9699 266.259 55.6853 266.124C55.4006 265.984 55.1043 265.914 54.7963 265.914C54.4883 265.914 54.1919 265.984 53.9073 266.124C53.6226 266.259 53.3729 266.486 53.1583 266.803C52.9436 267.12 52.7709 267.54 52.6403 268.063C52.5143 268.581 52.4513 269.223 52.4513 269.988C52.4513 270.753 52.5143 271.395 52.6403 271.913C52.7709 272.431 52.9436 272.849 53.1583 273.166C53.3729 273.483 53.6226 273.712 53.9073 273.852C54.1919 273.987 54.4883 274.055 54.7963 274.055C55.1043 274.055 55.4006 273.987 55.6853 273.852C55.9699 273.712 56.2196 273.483 56.4343 273.166C56.6536 272.849 56.8263 272.431 56.9523 271.913C57.0829 271.395 57.1483 270.753 57.1483 269.988ZM70.9692 268.476H64.7392V266.628H70.9692V268.476ZM72.1172 263.982H70.9692V265.704H64.7392V263.982H63.6052V269.414H72.1172V263.982ZM73.5592 270.926H62.1632V271.85H67.2592V276.05H68.4072V271.85H73.5592V270.926ZM76.4981 269.078H80.6141V268.154H76.4981V265.564H81.1601V264.612H75.3501V273.026H76.3161C78.7101 273.026 80.2361 272.956 82.0561 272.634L81.9301 271.696C80.2221 272.004 78.7661 272.088 76.4981 272.088V269.078ZM83.9741 263.464V268.21H81.3841V269.162H83.9741V276.05H85.1221V263.464H83.9741Z" fill="white"/>
<path d="M143 273L137 267H149L143 273Z" fill="white"/>
<path d="M163 245H306C310.418 245 314 248.582 314 253V285C314 289.418 310.418 293 306 293H163V245Z" fill="white" fill-opacity="0.08"/>
<path d="M182.126 274.048V275H176.75V274.048H178.899V267.209C178.899 267.004 178.906 266.796 178.92 266.586L177.135 268.119C177.074 268.17 177.014 268.203 176.953 268.217C176.892 268.226 176.836 268.226 176.785 268.217C176.734 268.208 176.685 268.189 176.638 268.161C176.596 268.133 176.563 268.103 176.54 268.07L176.148 267.531L179.137 264.948H180.152V274.048H182.126ZM188.035 264.57H186.901V266.824C186.901 269.204 185.375 271.612 183.527 272.494L184.227 273.432C185.697 272.676 186.901 271.108 187.475 269.218C188.077 271.01 189.281 272.494 190.709 273.194L191.395 272.27C189.533 271.43 188.035 269.12 188.035 266.824V264.57ZM192.711 263.478V276.064H193.859V263.478H192.711ZM196.714 264.458V265.396H201.334C201.096 267.608 199.164 269.386 196.21 270.31L196.672 271.22C200.284 270.086 202.566 267.706 202.566 264.458H196.714ZM199.248 271.724H198.1V275.756H206.472V274.818H199.248V271.724ZM205.926 267.3V263.492H204.778V272.662H205.926V268.252H207.774V267.3H205.926ZM210.405 265.662H213.919V271.92H210.405V265.662ZM209.285 272.844H215.039V264.738H209.285V272.844ZM220.513 268.49H218.441V263.492H217.293V276.036H218.441V269.456H220.513V268.49ZM223.06 265.634H227.75V264.682H221.912V272.928H222.906C225.272 272.928 226.924 272.844 228.842 272.48L228.716 271.528C226.896 271.85 225.286 271.948 223.06 271.948V265.634ZM233.112 268.434H231.04V263.478H229.892V276.064H231.04V269.386H233.112V268.434Z" fill="white"/>
<path d="M294 273L288 267H300L294 273Z" fill="white"/>
<rect x="12.5" y="245.5" width="301" height="47" rx="7.5" stroke="white" stroke-opacity="0.04"/>
<defs>
<filter id="filter0_d_4847_46482" x="87.7467" y="76" width="29.4667" height="30" filterUnits="userSpaceOnUse" color-interpolation-filters="sRGB">
<feFlood flood-opacity="0" result="BackgroundImageFix"/>
<feColorMatrix in="SourceAlpha" type="matrix" values="0 0 0 0 0 0 0 0 0 0 0 0 0 0 0 0 0 0 127 0" result="hardAlpha"/>
<feOffset dy="4"/>
<feGaussianBlur stdDeviation="5"/>
<feComposite in2="hardAlpha" operator="out"/>
<feColorMatrix type="matrix" values="0 0 0 0 0 0 0 0 0 0 0 0 0 0 0 0 0 0 0.8 0"/>
<feBlend mode="normal" in2="BackgroundImageFix" result="effect1_dropShadow_4847_46482"/>
<feBlend mode="normal" in="SourceGraphic" in2="effect1_dropShadow_4847_46482" result="shape"/>
</filter>
</defs>
</svg>
