<svg width="250" height="56" viewBox="0 0 250 56" fill="none" xmlns="http://www.w3.org/2000/svg">
<path d="M39.376 22.6443H42.19V21.4543H35.106V22.6443H37.92V23.8483C37.92 26.0183 36.618 28.3703 34.658 29.2803L35.484 30.4283C36.968 29.7143 38.102 28.2163 38.662 26.4523C39.25 28.0903 40.384 29.4623 41.854 30.1063L42.652 28.9723C40.678 28.1323 39.376 25.9483 39.376 23.8483V22.6443ZM43.66 20.1943V32.8363H45.116V20.1943H43.66ZM53.8829 23.3723V24.5483H56.1229V27.7263H57.5649V20.1943H56.1229V23.3723H53.8829ZM54.6109 26.1863C52.7209 25.5283 51.6429 23.9603 51.6429 22.3783V22.2103H54.2749V21.0483H47.5129V22.2103H50.1869V22.3923C50.1869 24.1283 49.0529 25.8083 47.0929 26.5083L47.8349 27.6563C49.3329 27.1243 50.3969 26.0043 50.9569 24.6183C51.4889 25.8363 52.4969 26.8303 53.8969 27.3203L54.6109 26.1863ZM53.3649 31.7303C51.5589 31.7303 50.5369 31.2823 50.5369 30.4563C50.5369 29.6303 51.5589 29.1823 53.3649 29.1823C55.1429 29.1823 56.1789 29.6303 56.1789 30.4563C56.1789 31.2823 55.1429 31.7303 53.3649 31.7303ZM53.3649 28.0623C50.7189 28.0623 49.0949 28.9583 49.0949 30.4563C49.0949 31.9683 50.7189 32.8503 53.3649 32.8503C55.9969 32.8503 57.6209 31.9683 57.6209 30.4563C57.6209 28.9583 55.9969 28.0623 53.3649 28.0623ZM64.1338 21.2443H62.6918V23.3163C62.6918 25.7523 61.3758 28.1743 59.3598 29.0843L60.2138 30.2883C61.7398 29.5463 62.8598 28.0483 63.4338 26.2143C64.0078 27.9223 65.1138 29.3223 66.5698 30.0083L67.4098 28.8603C65.4218 27.9643 64.1338 25.6403 64.1338 23.3163V21.2443ZM68.4178 20.1803V32.8643H69.8738V20.1803H68.4178ZM72.3407 21.1603V22.3363H76.7507C76.4987 24.3383 74.7067 25.9763 71.8087 26.8583L72.4107 28.0063C76.0927 26.8863 78.3187 24.5063 78.3187 21.1603H72.3407ZM75.1547 28.4263H73.6987V32.5983H82.2107V31.4223H75.1547V28.4263ZM81.7067 23.8903V20.1943H80.2647V29.3503H81.7067V25.0803H83.5127V23.8903H81.7067ZM97.5002 25.8503H94.3782V22.4763H97.3742V21.3003H92.9362V27.0123H97.5002V25.8503ZM92.2642 25.5003C91.2142 25.7243 90.2902 25.7943 89.2542 25.8223V22.4903H92.1522V21.3143H87.8122V27.0123H88.5542C89.9262 27.0123 91.0602 26.9703 92.3902 26.6903L92.2642 25.5003ZM93.2862 30.1063V27.6003H91.8442V30.1063H86.8742V31.2963H98.3262V30.1063H93.2862ZM109.403 23.8203H102.165V20.6423H100.723V24.9963H109.403V23.8203ZM102.081 28.8323H100.639V32.5563H109.473V31.3943H102.081V28.8323ZM99.2391 26.5083V27.6703H110.719V26.5083H99.2391ZM119.247 26.2843H116.153V24.1983H119.247V26.2843ZM120.675 21.1043H119.247V23.0783H116.153V21.1043H114.711V27.4463H120.675V21.1043ZM117.595 28.5943H116.139V32.5983H124.651V31.4223H117.595V28.5943ZM124.147 23.9183V20.2083H122.705V29.4903H124.147V25.1083H125.939V23.9183H124.147ZM127.915 29.9943H135.237V32.8503H136.679V28.8323H127.915V29.9943ZM129.553 22.8963H135.181V24.1423H129.553V22.8963ZM133.081 26.5923V25.2903H136.609V20.5023H135.181V21.7903H129.553V20.5023H128.125V25.2903H131.625V26.5923H126.627V27.7683H138.093V26.5923H133.081ZM140.182 26.3823C142.268 26.0743 143.976 25.0383 144.746 23.6383C145.516 25.0383 147.238 26.0743 149.324 26.3823L149.842 25.2483C147.434 24.9263 145.656 23.5403 145.572 22.0703H149.394V20.9083H140.084V22.0703H143.934C143.85 23.5403 142.072 24.9263 139.664 25.2483L140.182 26.3823ZM150.472 27.3063H139.034V28.4683H143.99V32.8503H145.432V28.4683H150.458L150.472 27.3063ZM152.127 21.5243V22.7003H156.635C156.383 25.6123 154.815 27.8383 151.497 29.4343L152.267 30.5823C156.607 28.4823 158.119 25.2903 158.119 21.5243H152.127ZM160.401 20.1943V32.8363H161.843V20.1943H160.401ZM172.374 22.3503H165.248V25.1923H174.026V24.1843H166.662V23.2883H173.802V20.5023H165.22V21.4963H172.374V22.3503ZM166.564 30.7363H173.844V27.9083H165.108V28.9023H172.416V29.7983H165.136V32.6963H174.222V31.7023H166.564V30.7363ZM163.778 25.9903V27.0543H175.244V25.9903H163.778ZM187.846 26.6763H189.288V20.1803H187.846V22.2943H185.284V23.4563H187.846V26.6763ZM186.278 25.3463C184.388 24.7303 183.296 23.2463 183.296 21.6503V20.5863H181.854V21.6503C181.854 23.3863 180.748 24.9683 178.774 25.6123L179.516 26.7463C181 26.2283 182.05 25.2063 182.61 23.8903C183.142 25.0663 184.15 26.0043 185.522 26.4663L186.278 25.3463ZM182.512 31.5483V30.4703H189.288V27.2783H181.056V28.3983H187.86V29.4063H181.084V32.6823H189.722V31.5483H182.512ZM197.984 23.3723V24.5483H200.224V27.7263H201.666V20.1943H200.224V23.3723H197.984ZM198.712 26.1863C196.822 25.5283 195.744 23.9603 195.744 22.3783V22.2103H198.376V21.0483H191.614V22.2103H194.288V22.3923C194.288 24.1283 193.154 25.8083 191.194 26.5083L191.936 27.6563C193.434 27.1243 194.498 26.0043 195.058 24.6183C195.59 25.8363 196.598 26.8303 197.998 27.3203L198.712 26.1863ZM197.466 31.7303C195.66 31.7303 194.638 31.2823 194.638 30.4563C194.638 29.6303 195.66 29.1823 197.466 29.1823C199.244 29.1823 200.28 29.6303 200.28 30.4563C200.28 31.2823 199.244 31.7303 197.466 31.7303ZM197.466 28.0623C194.82 28.0623 193.196 28.9583 193.196 30.4563C193.196 31.9683 194.82 32.8503 197.466 32.8503C200.098 32.8503 201.722 31.9683 201.722 30.4563C201.722 28.9583 200.098 28.0623 197.466 28.0623Z" fill="#FD4E6D"/>
<path d="M207.255 28.9303C206.233 28.9303 205.491 28.2303 205.491 27.1663C205.491 26.1023 206.233 25.4023 207.255 25.4023C208.277 25.4023 209.019 26.1023 209.019 27.1663C209.019 28.2303 208.277 28.9303 207.255 28.9303ZM207.255 24.2123C205.435 24.2123 204.119 25.4443 204.119 27.1663C204.119 28.9023 205.435 30.1203 207.255 30.1203C209.061 30.1203 210.391 28.9023 210.391 27.1663C210.391 25.4443 209.061 24.2123 207.255 24.2123ZM207.955 20.3903H206.513V22.1403H203.503V23.3163H210.909V22.1403H207.955V20.3903ZM215.333 25.2763H213.387V20.1943H211.931V32.8503H213.387V26.4803H215.333V25.2763ZM222.448 26.8723C222.518 26.4663 222.56 26.0463 222.56 25.5703C222.56 25.0383 222.504 24.5623 222.406 24.1003H224.996V26.8723H222.448ZM219.354 28.7483C218.276 28.7483 217.52 27.5583 217.52 25.5703C217.52 23.6103 218.276 22.4203 219.354 22.4203C220.446 22.4203 221.188 23.6103 221.188 25.5703C221.188 27.5583 220.446 28.7483 219.354 28.7483ZM224.996 20.1803V22.9103H222.014C221.44 21.7763 220.502 21.1183 219.354 21.1183C217.492 21.1183 216.162 22.8543 216.162 25.5703C216.162 28.3143 217.492 30.0363 219.354 30.0363C220.558 30.0363 221.552 29.3083 222.084 28.0623H224.996V32.8643H226.452V20.1803H224.996ZM34.714 50.0643V51.2543H46.166V50.0643H34.714ZM36.002 41.0623V47.7263H44.85V41.0623H43.422V43.2743H37.43V41.0623H36.002ZM37.43 44.4223H43.422V46.5643H37.43V44.4223ZM55.0169 45.0663H56.4169V49.6163H57.7889V40.1803H56.4169V43.8903H55.0169V40.4183H53.6729V49.2803H55.0169V45.0663ZM53.0009 46.2983C51.6849 46.5503 50.5369 46.6203 49.0249 46.6343V45.0103H52.3849V41.2443H47.5969V42.3923H50.9849V43.9463H47.6249V47.7963H48.4789C50.3269 47.7963 51.6009 47.7403 53.1269 47.4603L53.0009 46.2983ZM50.8869 51.4223V48.7343H49.4309V52.5983H58.1389V51.4223H50.8869ZM69.6358 46.1583H62.3138V42.4763H69.5378V41.3003H60.8718V47.3203H69.6358V46.1583ZM59.4718 50.0223V51.2123H70.9378V50.0223H59.4718ZM80.2073 40.4603C77.4493 40.4603 75.6993 41.3703 75.6993 42.8823C75.6993 44.3803 77.4493 45.3043 80.2073 45.3043C82.9653 45.3043 84.7153 44.3803 84.7153 42.8823C84.7153 41.3703 82.9653 40.4603 80.2073 40.4603ZM80.2073 41.5803C82.0833 41.5803 83.2173 42.0423 83.2173 42.8823C83.2173 43.7083 82.0833 44.1703 80.2073 44.1703C78.3313 44.1703 77.1833 43.7083 77.1833 42.8823C77.1833 42.0423 78.3313 41.5803 80.2073 41.5803ZM75.8533 48.4543V52.6823H84.5333V48.4543H75.8533ZM83.1193 49.6023V51.5343H77.2812V49.6023H83.1193ZM74.4813 46.2283V47.3763H85.9193V46.2283H74.4813ZM93.4262 47.6143V48.6223H95.9042V49.7983H97.3462V40.1803H95.9042V47.6143H93.4262ZM90.9062 41.7343C91.9422 41.7343 92.6562 42.1823 92.6562 42.8963C92.6562 43.6103 91.9422 44.0583 90.9062 44.0583C89.8562 44.0583 89.1422 43.6103 89.1422 42.8963C89.1422 42.1823 89.8562 41.7343 90.9062 41.7343ZM90.9062 45.1223C92.7542 45.1223 94.0282 44.2403 94.0282 42.8963C94.0282 41.5523 92.7542 40.6703 90.9062 40.6703C89.0442 40.6703 87.7702 41.5523 87.7702 42.8963C87.7702 44.2403 89.0442 45.1223 90.9062 45.1223ZM90.3322 49.3923H91.7742V46.9563C92.8522 46.8863 93.9582 46.7743 95.0222 46.5923L94.9102 45.5563C92.2362 45.8923 89.1282 45.9203 86.8042 45.9343L86.9862 47.1103C87.9942 47.1103 89.1282 47.0963 90.3322 47.0403V49.3923ZM89.9542 51.4223V48.8603H88.5122V52.5983H97.6402V51.4223H89.9542ZM104.965 41.4683C106.925 41.4683 107.975 41.8463 107.975 42.5743C107.975 43.2883 106.925 43.6663 104.965 43.6663C103.005 43.6663 101.955 43.2883 101.955 42.5743C101.955 41.8463 103.005 41.4683 104.965 41.4683ZM104.965 44.7443C107.793 44.7443 109.473 43.9743 109.473 42.5743C109.473 41.1603 107.793 40.3903 104.965 40.3903C102.123 40.3903 100.457 41.1603 100.457 42.5743C100.457 43.9743 102.123 44.7443 104.965 44.7443ZM102.053 50.5683H109.249V47.5443H100.597V48.6363H107.835V49.5463H100.625V52.7243H109.613V51.6183H102.053V50.5683ZM99.2391 45.4863V46.6343H110.691V45.4863H99.2391ZM120.829 47.6143V48.6223H123.307V49.7983H124.749V40.1803H123.307V47.6143H120.829ZM118.309 41.7343C119.345 41.7343 120.059 42.1823 120.059 42.8963C120.059 43.6103 119.345 44.0583 118.309 44.0583C117.258 44.0583 116.545 43.6103 116.545 42.8963C116.545 42.1823 117.258 41.7343 118.309 41.7343ZM118.309 45.1223C120.157 45.1223 121.431 44.2403 121.431 42.8963C121.431 41.5523 120.157 40.6703 118.309 40.6703C116.447 40.6703 115.173 41.5523 115.173 42.8963C115.173 44.2403 116.447 45.1223 118.309 45.1223ZM117.735 49.3923H119.177V46.9563C120.255 46.8863 121.361 46.7743 122.425 46.5923L122.312 45.5563C119.639 45.8923 116.531 45.9203 114.207 45.9343L114.389 47.1103C115.397 47.1103 116.531 47.0963 117.735 47.0403V49.3923ZM117.357 51.4223V48.8603H115.915V52.5983H125.043V51.4223H117.357ZM130.337 48.9303C129.315 48.9303 128.573 48.2303 128.573 47.1663C128.573 46.1023 129.315 45.4023 130.337 45.4023C131.359 45.4023 132.101 46.1023 132.101 47.1663C132.101 48.2303 131.359 48.9303 130.337 48.9303ZM130.337 44.2123C128.517 44.2123 127.201 45.4443 127.201 47.1663C127.201 48.9023 128.517 50.1203 130.337 50.1203C132.143 50.1203 133.473 48.9023 133.473 47.1663C133.473 45.4443 132.143 44.2123 130.337 44.2123ZM131.037 40.3903H129.595V42.1403H126.585V43.3163H133.991V42.1403H131.037V40.3903ZM138.415 45.2763H136.469V40.1943H135.013V52.8503H136.469V46.4803H138.415V45.2763ZM149.184 43.8203H141.946V40.6423H140.504V44.9963H149.184V43.8203ZM141.862 48.8323H140.42V52.5563H149.254V51.3943H141.862V48.8323ZM139.02 46.5083V47.6703H150.5V46.5083H139.02ZM153.247 42.8683H156.509V41.6923H151.833V49.8263H152.673C154.451 49.8263 155.753 49.7703 157.279 49.4763L157.153 48.2863C155.851 48.5523 154.703 48.6223 153.247 48.6363V42.8683ZM160.821 40.1803V45.1783H159.323V40.4463H157.965V52.2063H159.323V46.3543H160.821V52.8223H162.193V40.1803H160.821ZM170.218 50.1623V48.0063H174.166V46.8443H166.592V45.0803H173.886V41.0763H165.15V42.2383H172.458V43.9323H165.178V48.0063H168.776V50.1623H163.792V51.3523H175.244V50.1623H170.218ZM188.966 44.1563H181.7V43.2883H188.574V42.3223H181.7V41.4963H188.882V40.4883H180.258V45.1643H188.966V44.1563ZM181.616 50.7363H188.812V47.8383H180.16V48.8603H187.398V49.7563H180.188V52.7243H189.176V51.6883H181.616V50.7363ZM178.83 45.9623V47.0403H190.24V45.9623H178.83ZM204.773 44.8563C202.225 44.4923 200.321 42.9103 200.321 41.2723V40.6003H198.795V41.2723C198.795 42.9383 196.919 44.4923 194.343 44.8563L194.903 46.0183C197.003 45.6823 198.753 44.6323 199.565 43.1623C200.391 44.6183 202.113 45.6823 204.213 46.0183L204.773 44.8563ZM205.263 47.2083H193.839V48.3843H198.795V52.8503H200.237V48.3843H205.263V47.2083ZM219.278 40.2083H217.836V47.3903H219.278V40.2083ZM212.46 42.0843C213.58 42.0843 214.406 42.7983 214.406 43.8763C214.406 44.9683 213.58 45.6683 212.46 45.6683C211.34 45.6683 210.514 44.9683 210.514 43.8763C210.514 42.7983 211.34 42.0843 212.46 42.0843ZM212.46 46.8583C214.392 46.8583 215.806 45.6403 215.806 43.8763C215.806 42.1123 214.392 40.8943 212.46 40.8943C210.528 40.8943 209.1 42.1123 209.1 43.8763C209.1 45.6403 210.528 46.8583 212.46 46.8583ZM217.934 47.9363H216.52V48.4963C216.52 49.4483 215.988 50.6383 214.868 51.3943C213.762 50.6943 213.272 49.5603 213.272 48.4963V47.9363H211.872V48.4963C211.872 49.7283 211.032 51.0303 209.422 51.6043L210.122 52.6683C211.298 52.2343 212.11 51.4223 212.572 50.4283C212.964 51.4503 213.706 52.3183 214.896 52.7803C216.044 52.3043 216.8 51.3943 217.206 50.4003C217.64 51.4223 218.466 52.2343 219.684 52.6683L220.398 51.6043C218.76 51.0723 217.934 49.7983 217.934 48.4963V47.9363ZM224.643 48.7483C223.565 48.7483 222.823 47.5723 222.823 45.5703C222.823 43.6103 223.565 42.4203 224.643 42.4203C225.735 42.4203 226.477 43.6103 226.477 45.5703C226.477 47.5723 225.735 48.7483 224.643 48.7483ZM230.285 40.1803V44.8983H227.821C227.625 42.5743 226.337 41.1183 224.643 41.1183C222.781 41.1183 221.451 42.8543 221.451 45.5703C221.451 48.3143 222.781 50.0363 224.643 50.0363C226.379 50.0363 227.667 48.5243 227.835 46.0743H230.285V52.8643H231.741V40.1803H230.285ZM237.736 47.3623C238.226 47.4743 238.772 47.5303 239.332 47.5303C239.892 47.5303 240.438 47.4743 240.928 47.3483V50.1063H237.736V47.3623ZM239.332 42.0563C241.236 42.0563 242.566 42.8963 242.566 44.2263C242.566 45.5703 241.236 46.4103 239.332 46.4103C237.414 46.4103 236.084 45.5703 236.084 44.2263C236.084 42.8963 237.414 42.0563 239.332 42.0563ZM242.37 50.1063V46.8163C243.378 46.2423 243.98 45.3463 243.98 44.2263C243.98 42.2103 242.02 40.9223 239.332 40.9223C236.63 40.9223 234.684 42.2103 234.684 44.2263C234.684 45.3463 235.286 46.2563 236.294 46.8163V50.1063H233.62V51.2823H245.072V50.1063H242.37ZM247.371 51.9403C247.973 51.9403 248.449 51.4783 248.449 50.8203C248.449 50.1483 247.973 49.6723 247.371 49.6723C246.769 49.6723 246.293 50.1483 246.293 50.8203C246.293 51.4783 246.769 51.9403 247.371 51.9403Z" fill="white"/>
<path d="M29.5264 28.1147C5.00015 30.2584 3.11311 10.5745 4.40617 5.13157M4.40617 5.13157L1.45268 9.09739M4.40617 5.13157L7.85156 8.79057" stroke="#EE4B3C" stroke-linecap="round"/>
</svg>
