<svg width="238" height="61" viewBox="0 0 238 61" fill="none" xmlns="http://www.w3.org/2000/svg">
<path fill-rule="evenodd" clip-rule="evenodd" d="M25.7679 5H8C3.58173 5 0 8.58172 0 13V53C0 57.4183 3.58173 61 8 61H230C234.418 61 238 57.4183 238 53V13C238 8.58172 234.418 5 230 5H33.6525L31.647 1.10015C30.9324 -0.289539 29.0394 -0.382131 28.2397 0.933485L25.7679 5Z" fill="white"/>
<path d="M16.376 20.886H19.19V19.696H12.106V20.886H14.92V22.09C14.92 24.26 13.618 26.612 11.658 27.522L12.484 28.67C13.968 27.956 15.102 26.458 15.662 24.694C16.25 26.332 17.384 27.704 18.854 28.348L19.652 27.214C17.678 26.374 16.376 24.19 16.376 22.09V20.886ZM20.66 18.436V31.078H22.116V18.436H20.66ZM30.8829 21.614V22.79H33.1229V25.968H34.5649V18.436H33.1229V21.614H30.8829ZM31.6109 24.428C29.7209 23.77 28.6429 22.202 28.6429 20.62V20.452H31.2749V19.29H24.5129V20.452H27.1869V20.634C27.1869 22.37 26.0529 24.05 24.0929 24.75L24.8349 25.898C26.3329 25.366 27.3969 24.246 27.9569 22.86C28.4889 24.078 29.4969 25.072 30.8969 25.562L31.6109 24.428ZM30.3649 29.972C28.5589 29.972 27.5369 29.524 27.5369 28.698C27.5369 27.872 28.5589 27.424 30.3649 27.424C32.1429 27.424 33.1789 27.872 33.1789 28.698C33.1789 29.524 32.1429 29.972 30.3649 29.972ZM30.3649 26.304C27.7189 26.304 26.0949 27.2 26.0949 28.698C26.0949 30.21 27.7189 31.092 30.3649 31.092C32.9969 31.092 34.6209 30.21 34.6209 28.698C34.6209 27.2 32.9969 26.304 30.3649 26.304ZM41.1338 19.486H39.6918V21.558C39.6918 23.994 38.3758 26.416 36.3598 27.326L37.2138 28.53C38.7398 27.788 39.8598 26.29 40.4338 24.456C41.0078 26.164 42.1138 27.564 43.5698 28.25L44.4098 27.102C42.4218 26.206 41.1338 23.882 41.1338 21.558V19.486ZM45.4178 18.422V31.106H46.8738V18.422H45.4178ZM49.3407 19.402V20.578H53.7507C53.4987 22.58 51.7067 24.218 48.8087 25.1L49.4107 26.248C53.0927 25.128 55.3187 22.748 55.3187 19.402H49.3407ZM52.1547 26.668H50.6987V30.84H59.2107V29.664H52.1547V26.668ZM58.7067 22.132V18.436H57.2647V27.592H58.7067V23.322H60.5127V22.132H58.7067ZM74.5002 24.092H71.3782V20.718H74.3742V19.542H69.9362V25.254H74.5002V24.092ZM69.2642 23.742C68.2142 23.966 67.2902 24.036 66.2542 24.064V20.732H69.1522V19.556H64.8122V25.254H65.5542C66.9262 25.254 68.0602 25.212 69.3902 24.932L69.2642 23.742ZM70.2862 28.348V25.842H68.8442V28.348H63.8742V29.538H75.3262V28.348H70.2862ZM86.4031 22.062H79.1651V18.884H77.7231V23.238H86.4031V22.062ZM79.0811 27.074H77.6391V30.798H86.4731V29.636H79.0811V27.074ZM76.2391 24.75V25.912H87.7191V24.75H76.2391ZM96.2465 24.526H93.1525V22.44H96.2465V24.526ZM97.6745 19.346H96.2465V21.32H93.1525V19.346H91.7105V25.688H97.6745V19.346ZM94.5945 26.836H93.1385V30.84H101.651V29.664H94.5945V26.836ZM101.147 22.16V18.45H99.7045V27.732H101.147V23.35H102.939V22.16H101.147ZM104.915 28.236H112.237V31.092H113.679V27.074H104.915V28.236ZM106.553 21.138H112.181V22.384H106.553V21.138ZM110.081 24.834V23.532H113.609V18.744H112.181V20.032H106.553V18.744H105.125V23.532H108.625V24.834H103.627V26.01H115.093V24.834H110.081ZM117.182 24.624C119.268 24.316 120.976 23.28 121.746 21.88C122.516 23.28 124.238 24.316 126.324 24.624L126.842 23.49C124.434 23.168 122.656 21.782 122.572 20.312H126.394V19.15H117.084V20.312H120.934C120.85 21.782 119.072 23.168 116.664 23.49L117.182 24.624ZM127.472 25.548H116.034V26.71H120.99V31.092H122.432V26.71H127.458L127.472 25.548ZM129.127 19.766V20.942H133.635C133.383 23.854 131.815 26.08 128.497 27.676L129.267 28.824C133.607 26.724 135.119 23.532 135.119 19.766H129.127ZM137.401 18.436V31.078H138.843V18.436H137.401ZM149.374 20.592H142.248V23.434H151.026V22.426H143.662V21.53H150.802V18.744H142.22V19.738H149.374V20.592ZM143.564 28.978H150.844V26.15H142.108V27.144H149.416V28.04H142.136V30.938H151.222V29.944H143.564V28.978ZM140.778 24.232V25.296H152.244V24.232H140.778ZM164.846 24.918H166.288V18.422H164.846V20.536H162.284V21.698H164.846V24.918ZM163.278 23.588C161.388 22.972 160.296 21.488 160.296 19.892V18.828H158.854V19.892C158.854 21.628 157.748 23.21 155.774 23.854L156.516 24.988C158 24.47 159.05 23.448 159.61 22.132C160.142 23.308 161.15 24.246 162.522 24.708L163.278 23.588ZM159.512 29.79V28.712H166.288V25.52H158.056V26.64H164.86V27.648H158.084V30.924H166.722V29.79H159.512ZM174.984 21.614V22.79H177.224V25.968H178.666V18.436H177.224V21.614H174.984ZM175.712 24.428C173.822 23.77 172.744 22.202 172.744 20.62V20.452H175.376V19.29H168.614V20.452H171.288V20.634C171.288 22.37 170.154 24.05 168.194 24.75L168.936 25.898C170.434 25.366 171.498 24.246 172.058 22.86C172.59 24.078 173.598 25.072 174.998 25.562L175.712 24.428ZM174.466 29.972C172.66 29.972 171.638 29.524 171.638 28.698C171.638 27.872 172.66 27.424 174.466 27.424C176.244 27.424 177.28 27.872 177.28 28.698C177.28 29.524 176.244 29.972 174.466 29.972ZM174.466 26.304C171.82 26.304 170.196 27.2 170.196 28.698C170.196 30.21 171.82 31.092 174.466 31.092C177.098 31.092 178.722 30.21 178.722 28.698C178.722 27.2 177.098 26.304 174.466 26.304Z" fill="#FF2D55"/>
<path d="M184.255 27.172C183.233 27.172 182.491 26.472 182.491 25.408C182.491 24.344 183.233 23.644 184.255 23.644C185.277 23.644 186.019 24.344 186.019 25.408C186.019 26.472 185.277 27.172 184.255 27.172ZM184.255 22.454C182.435 22.454 181.119 23.686 181.119 25.408C181.119 27.144 182.435 28.362 184.255 28.362C186.061 28.362 187.391 27.144 187.391 25.408C187.391 23.686 186.061 22.454 184.255 22.454ZM184.955 18.632H183.513V20.382H180.503V21.558H187.909V20.382H184.955V18.632ZM192.333 23.518H190.387V18.436H188.931V31.092H190.387V24.722H192.333V23.518ZM199.448 25.114C199.518 24.708 199.56 24.288 199.56 23.812C199.56 23.28 199.504 22.804 199.406 22.342H201.996V25.114H199.448ZM196.354 26.99C195.276 26.99 194.52 25.8 194.52 23.812C194.52 21.852 195.276 20.662 196.354 20.662C197.446 20.662 198.188 21.852 198.188 23.812C198.188 25.8 197.446 26.99 196.354 26.99ZM201.996 18.422V21.152H199.014C198.44 20.018 197.502 19.36 196.354 19.36C194.492 19.36 193.162 21.096 193.162 23.812C193.162 26.556 194.492 28.278 196.354 28.278C197.558 28.278 198.552 27.55 199.084 26.304H201.996V31.106H203.452V18.422H201.996ZM11.714 46.306V47.496H23.166V46.306H11.714ZM13.002 37.304V43.968H21.85V37.304H20.422V39.516H14.43V37.304H13.002ZM14.43 40.664H20.422V42.806H14.43V40.664ZM32.0169 41.308H33.4169V45.858H34.7889V36.422H33.4169V40.132H32.0169V36.66H30.6729V45.522H32.0169V41.308ZM30.0009 42.54C28.6849 42.792 27.5369 42.862 26.0249 42.876V41.252H29.3849V37.486H24.5969V38.634H27.9849V40.188H24.6249V44.038H25.4789C27.3269 44.038 28.6009 43.982 30.1269 43.702L30.0009 42.54ZM27.8869 47.664V44.976H26.4309V48.84H35.1389V47.664H27.8869ZM46.6358 42.4H39.3138V38.718H46.5378V37.542H37.8718V43.562H46.6358V42.4ZM36.4718 46.264V47.454H47.9378V46.264H36.4718ZM57.2073 36.702C54.4493 36.702 52.6993 37.612 52.6993 39.124C52.6993 40.622 54.4493 41.546 57.2073 41.546C59.9653 41.546 61.7153 40.622 61.7153 39.124C61.7153 37.612 59.9653 36.702 57.2073 36.702ZM57.2073 37.822C59.0833 37.822 60.2173 38.284 60.2173 39.124C60.2173 39.95 59.0833 40.412 57.2073 40.412C55.3313 40.412 54.1833 39.95 54.1833 39.124C54.1833 38.284 55.3313 37.822 57.2073 37.822ZM52.8533 44.696V48.924H61.5333V44.696H52.8533ZM60.1193 45.844V47.776H54.2812V45.844H60.1193ZM51.4813 42.47V43.618H62.9193V42.47H51.4813ZM70.4262 43.856V44.864H72.9042V46.04H74.3462V36.422H72.9042V43.856H70.4262ZM67.9062 37.976C68.9422 37.976 69.6562 38.424 69.6562 39.138C69.6562 39.852 68.9422 40.3 67.9062 40.3C66.8562 40.3 66.1422 39.852 66.1422 39.138C66.1422 38.424 66.8562 37.976 67.9062 37.976ZM67.9062 41.364C69.7542 41.364 71.0282 40.482 71.0282 39.138C71.0282 37.794 69.7542 36.912 67.9062 36.912C66.0442 36.912 64.7702 37.794 64.7702 39.138C64.7702 40.482 66.0442 41.364 67.9062 41.364ZM67.3322 45.634H68.7742V43.198C69.8522 43.128 70.9582 43.016 72.0222 42.834L71.9102 41.798C69.2362 42.134 66.1282 42.162 63.8042 42.176L63.9862 43.352C64.9942 43.352 66.1282 43.338 67.3322 43.282V45.634ZM66.9542 47.664V45.102H65.5122V48.84H74.6402V47.664H66.9542ZM81.9651 37.71C83.9251 37.71 84.9751 38.088 84.9751 38.816C84.9751 39.53 83.9251 39.908 81.9651 39.908C80.0051 39.908 78.9551 39.53 78.9551 38.816C78.9551 38.088 80.0051 37.71 81.9651 37.71ZM81.9651 40.986C84.7931 40.986 86.4731 40.216 86.4731 38.816C86.4731 37.402 84.7931 36.632 81.9651 36.632C79.1231 36.632 77.4571 37.402 77.4571 38.816C77.4571 40.216 79.1231 40.986 81.9651 40.986ZM79.0531 46.81H86.2491V43.786H77.5971V44.878H84.8351V45.788H77.6251V48.966H86.6131V47.86H79.0531V46.81ZM76.2391 41.728V42.876H87.6911V41.728H76.2391ZM97.8285 43.856V44.864H100.307V46.04H101.749V36.422H100.307V43.856H97.8285ZM95.3085 37.976C96.3445 37.976 97.0585 38.424 97.0585 39.138C97.0585 39.852 96.3445 40.3 95.3085 40.3C94.2585 40.3 93.5445 39.852 93.5445 39.138C93.5445 38.424 94.2585 37.976 95.3085 37.976ZM95.3085 41.364C97.1565 41.364 98.4305 40.482 98.4305 39.138C98.4305 37.794 97.1565 36.912 95.3085 36.912C93.4465 36.912 92.1725 37.794 92.1725 39.138C92.1725 40.482 93.4465 41.364 95.3085 41.364ZM94.7345 45.634H96.1765V43.198C97.2545 43.128 98.3605 43.016 99.4245 42.834L99.3125 41.798C96.6385 42.134 93.5305 42.162 91.2065 42.176L91.3885 43.352C92.3965 43.352 93.5305 43.338 94.7345 43.282V45.634ZM94.3565 47.664V45.102H92.9145V48.84H102.043V47.664H94.3565ZM107.337 45.172C106.315 45.172 105.573 44.472 105.573 43.408C105.573 42.344 106.315 41.644 107.337 41.644C108.359 41.644 109.101 42.344 109.101 43.408C109.101 44.472 108.359 45.172 107.337 45.172ZM107.337 40.454C105.517 40.454 104.201 41.686 104.201 43.408C104.201 45.144 105.517 46.362 107.337 46.362C109.143 46.362 110.473 45.144 110.473 43.408C110.473 41.686 109.143 40.454 107.337 40.454ZM108.037 36.632H106.595V38.382H103.585V39.558H110.991V38.382H108.037V36.632ZM115.415 41.518H113.469V36.436H112.013V49.092H113.469V42.722H115.415V41.518ZM126.184 40.062H118.946V36.884H117.504V41.238H126.184V40.062ZM118.862 45.074H117.42V48.798H126.254V47.636H118.862V45.074ZM116.02 42.75V43.912H127.5V42.75H116.02ZM130.247 39.11H133.509V37.934H128.833V46.068H129.673C131.451 46.068 132.753 46.012 134.279 45.718L134.153 44.528C132.851 44.794 131.703 44.864 130.247 44.878V39.11ZM137.821 36.422V41.42H136.323V36.688H134.965V48.448H136.323V42.596H137.821V49.064H139.193V36.422H137.821ZM147.218 46.404V44.248H151.166V43.086H143.592V41.322H150.886V37.318H142.15V38.48H149.458V40.174H142.178V44.248H145.776V46.404H140.792V47.594H152.244V46.404H147.218ZM165.966 40.398H158.7V39.53H165.574V38.564H158.7V37.738H165.882V36.73H157.258V41.406H165.966V40.398ZM158.616 46.978H165.812V44.08H157.16V45.102H164.398V45.998H157.188V48.966H166.176V47.93H158.616V46.978ZM155.83 42.204V43.282H167.24V42.204H155.83ZM181.773 41.098C179.225 40.734 177.321 39.152 177.321 37.514V36.842H175.795V37.514C175.795 39.18 173.919 40.734 171.343 41.098L171.903 42.26C174.003 41.924 175.753 40.874 176.565 39.404C177.391 40.86 179.113 41.924 181.213 42.26L181.773 41.098ZM182.263 43.45H170.839V44.626H175.795V49.092H177.237V44.626H182.263V43.45ZM196.278 36.45H194.836V43.632H196.278V36.45ZM189.46 38.326C190.58 38.326 191.406 39.04 191.406 40.118C191.406 41.21 190.58 41.91 189.46 41.91C188.34 41.91 187.514 41.21 187.514 40.118C187.514 39.04 188.34 38.326 189.46 38.326ZM189.46 43.1C191.392 43.1 192.806 41.882 192.806 40.118C192.806 38.354 191.392 37.136 189.46 37.136C187.528 37.136 186.1 38.354 186.1 40.118C186.1 41.882 187.528 43.1 189.46 43.1ZM194.934 44.178H193.52V44.738C193.52 45.69 192.988 46.88 191.868 47.636C190.762 46.936 190.272 45.802 190.272 44.738V44.178H188.872V44.738C188.872 45.97 188.032 47.272 186.422 47.846L187.122 48.91C188.298 48.476 189.11 47.664 189.572 46.67C189.964 47.692 190.706 48.56 191.896 49.022C193.044 48.546 193.8 47.636 194.206 46.642C194.64 47.664 195.466 48.476 196.684 48.91L197.398 47.846C195.76 47.314 194.934 46.04 194.934 44.738V44.178ZM201.643 44.99C200.565 44.99 199.823 43.814 199.823 41.812C199.823 39.852 200.565 38.662 201.643 38.662C202.735 38.662 203.477 39.852 203.477 41.812C203.477 43.814 202.735 44.99 201.643 44.99ZM207.285 36.422V41.14H204.821C204.625 38.816 203.337 37.36 201.643 37.36C199.781 37.36 198.451 39.096 198.451 41.812C198.451 44.556 199.781 46.278 201.643 46.278C203.379 46.278 204.667 44.766 204.835 42.316H207.285V49.106H208.741V36.422H207.285ZM214.736 43.604C215.226 43.716 215.772 43.772 216.332 43.772C216.892 43.772 217.438 43.716 217.928 43.59V46.348H214.736V43.604ZM216.332 38.298C218.236 38.298 219.566 39.138 219.566 40.468C219.566 41.812 218.236 42.652 216.332 42.652C214.414 42.652 213.084 41.812 213.084 40.468C213.084 39.138 214.414 38.298 216.332 38.298ZM219.37 46.348V43.058C220.378 42.484 220.98 41.588 220.98 40.468C220.98 38.452 219.02 37.164 216.332 37.164C213.63 37.164 211.684 38.452 211.684 40.468C211.684 41.588 212.286 42.498 213.294 43.058V46.348H210.62V47.524H222.072V46.348H219.37ZM224.371 48.182C224.973 48.182 225.449 47.72 225.449 47.062C225.449 46.39 224.973 45.914 224.371 45.914C223.769 45.914 223.293 46.39 223.293 47.062C223.293 47.72 223.769 48.182 224.371 48.182Z" fill="#222222"/>
</svg>
