<svg width="77" height="150" viewBox="0 0 77 150" fill="none" xmlns="http://www.w3.org/2000/svg">
<rect width="58" height="150" rx="29" fill="url(#paint0_linear_5406_51150)"/>
<circle cx="29" cy="33" r="26" fill="#FF2D55" stroke="#FD4E6D" stroke-width="2"/>
<path d="M29 36.3335L24 31.3335H34L29 36.3335Z" fill="white"/>
<path fill-rule="evenodd" clip-rule="evenodd" d="M38.6 81H19.4V103.4H13L29 122.6L45 103.4H38.6V81Z" fill="url(#paint1_linear_5406_51150)"/>
<path d="M74.0751 67.2601L62.3145 75.1012C61.7661 75.4668 61.0551 75.3247 60.6895 74.7763C59.6738 73.2529 58.3738 72.8873 56.3832 72.278C55.2863 71.953 54.0472 71.5468 52.6862 70.9578C48.8674 69.1908 44.947 66.8753 43.6876 65.7785C42.4282 64.6817 42.1438 63.727 42.1844 62.9958C42.2047 62.102 42.7328 61.3098 43.5859 60.741C44.7437 59.9691 46.6124 60.1315 48.5015 60.7205L41.798 50.6661C40.7011 49.0209 41.1885 46.8474 42.7728 45.7911C44.3571 44.7348 46.5915 45.1816 47.6478 46.7659L50.3698 50.8486C50.5933 50.5236 50.8573 50.2595 51.2229 50.0158C52.2588 49.3251 53.5385 49.2641 54.6151 49.6906C54.8791 49.1625 55.2854 48.7156 55.8338 48.35C57.1744 47.4562 58.9416 47.5983 60.0588 48.6139C60.2822 48.2889 60.6072 47.9842 61.0337 47.6998C62.679 46.6028 64.8525 47.0902 65.9088 48.6746L67.8589 51.5995C69.5246 54.0979 70.4184 56.4947 71.231 58.7696C72.0842 61.1055 72.8156 63.2586 74.3594 65.5742C74.725 66.1226 74.6235 66.8945 74.0751 67.2601ZM61.9894 72.5012L71.861 65.9196C70.5609 63.7056 69.8093 61.6541 69.0576 59.6025C68.245 57.3276 67.4121 55.1542 65.9089 52.8996L63.8369 49.7918C63.4713 49.2434 62.7604 49.1013 62.2119 49.4669C61.6635 49.8326 61.5214 50.5435 61.887 51.0919L62.6589 52.2497C63.0246 52.7981 62.8824 53.5091 62.334 53.8747C61.7856 54.2403 61.0746 54.0982 60.709 53.5498L58.637 50.442C58.2713 49.8936 57.5604 49.7515 57.012 50.1171C56.4636 50.4828 56.3214 51.1937 56.687 51.7421L58.109 53.8749C58.4746 54.4233 58.3325 55.1342 57.7841 55.4999C57.2356 55.8655 56.5247 55.7234 56.159 55.1749L54.0871 52.0672C53.7214 51.5188 53.0105 51.3766 52.4621 51.7423C51.9136 52.1079 51.7715 52.8189 52.1371 53.3673L53.5591 55.5C53.9247 56.0485 53.7826 56.7594 53.2341 57.125C52.6857 57.4907 51.9748 57.3485 51.6091 56.8001L45.5963 47.7816C45.2307 47.2332 44.5197 47.091 43.9713 47.4567C43.4229 47.8223 43.2807 48.5333 43.6464 49.0817L53.5594 63.95C53.925 64.4984 53.7829 65.2094 53.2345 65.575C52.686 65.9407 51.9751 65.7985 51.6095 65.2501L51.0813 64.4579C48.725 62.7721 45.475 62.1222 44.8656 62.5285C44.6219 62.691 44.5406 62.8332 44.6016 63.0566C44.6219 63.2191 44.7641 63.5644 45.1704 63.9097C46.1657 64.7425 49.8017 66.8955 53.7627 68.7437C55.0221 69.3124 56.119 69.6374 57.2159 69.9623C59.0034 70.531 60.5878 71.0591 61.9894 72.5012Z" fill="white"/>
<defs>
<linearGradient id="paint0_linear_5406_51150" x1="29.6304" y1="7.92254" x2="29.6304" y2="143.662" gradientUnits="userSpaceOnUse">
<stop stop-color="#FD4E6D" stop-opacity="0"/>
<stop offset="0.490992" stop-color="#FD4E6D" stop-opacity="0.53"/>
<stop offset="1" stop-color="#FD4E6D" stop-opacity="0"/>
</linearGradient>
<linearGradient id="paint1_linear_5406_51150" x1="29" y1="122.6" x2="27.658" y2="84.247" gradientUnits="userSpaceOnUse">
<stop offset="0.554167" stop-color="#FF3B6F"/>
<stop offset="1" stop-color="#FF3B6F" stop-opacity="0"/>
</linearGradient>
</defs>
</svg>
