<svg width="279" height="34" viewBox="0 0 279 34" fill="none" xmlns="http://www.w3.org/2000/svg">
<rect width="279" height="34" rx="8" fill="white"/>
<path d="M12.4109 19.99C11.3049 19.99 10.5489 18.8 10.5489 16.826C10.5489 14.852 11.3049 13.662 12.4109 13.662C13.5029 13.662 14.2729 14.852 14.2729 16.826C14.2729 18.8 13.5029 19.99 12.4109 19.99ZM12.4109 12.36C10.5209 12.36 9.16291 14.096 9.16291 16.826C9.16291 19.556 10.5209 21.278 12.4109 21.278C14.3009 21.278 15.6589 19.556 15.6589 16.826C15.6589 14.096 14.3009 12.36 12.4109 12.36ZM20.8109 16.378H18.8369V11.436H17.3949V24.092H18.8369V17.568H20.8109V16.378ZM23.2078 17.386H26.5398V12.738H21.7938V13.914H25.1538V16.224H21.8218V21.152H22.6758C24.2298 21.152 25.6298 21.11 27.3238 20.816L27.1978 19.64C25.7558 19.878 24.5238 19.948 23.2078 19.962V17.386ZM30.8378 11.436V16.322H29.3398V11.688H27.9818V23.448H29.3398V17.498H30.8378V24.064H32.2098V11.436H30.8378ZM40.2347 21.404V19.248H44.1827V18.086H36.6087V16.322H43.9027V12.318H35.1667V13.48H42.4747V15.174H35.1947V19.248H38.7927V21.404H33.8087V22.594H45.2607V21.404H40.2347ZM56.0842 16.42C54.5442 16.756 53.1862 16.826 50.7642 16.84V13.522H54.9502V12.346H49.3222V18.016H50.3442C53.0882 18.016 54.5862 17.932 56.2382 17.596L56.0842 16.42ZM54.6282 22.916C52.8782 22.916 51.8422 22.44 51.8422 21.586C51.8422 20.732 52.8782 20.27 54.6282 20.27C56.3782 20.27 57.4142 20.732 57.4142 21.586C57.4142 22.44 56.3782 22.916 54.6282 22.916ZM54.6282 19.108C52.0382 19.108 50.4142 20.046 50.4142 21.586C50.4142 23.14 52.0382 24.092 54.6282 24.092C57.2182 24.092 58.8422 23.14 58.8422 21.586C58.8422 20.046 57.2182 19.108 54.6282 19.108ZM58.7302 14.586V11.436H57.2602V18.856H58.7302V15.776H60.4942V14.586H58.7302ZM61.9251 12.766V13.942H66.4331C66.1811 16.854 64.6131 19.08 61.2951 20.676L62.0651 21.824C66.4051 19.724 67.9171 16.532 67.9171 12.766H61.9251ZM70.1991 11.436V24.078H71.6411V11.436H70.1991ZM78.588 17.386H75.55V13.634H78.588V17.386ZM82.62 14.726V16.266H79.988V14.726H82.62ZM79.988 17.428H82.62V20.662H84.062V11.436H82.62V13.55H79.988V12.486H74.136V18.534H79.988V17.428ZM77.286 22.664V19.822H75.83V23.84H84.356V22.664H77.286ZM246.341 17.904H248.371V16.742H244.297V13.83H248.259V12.654H242.883V17.904H244.969V20.242C243.975 20.27 243.037 20.284 242.281 20.284L242.463 21.474C244.143 21.474 246.789 21.418 248.819 21.04L248.735 19.99C248.007 20.088 247.195 20.144 246.341 20.186V17.904ZM251.885 11.436V16.588H250.639V11.688H249.281V23.462H250.639V17.764H251.885V24.078H253.257V11.436H251.885ZM258.944 18.604C259.434 18.716 259.98 18.772 260.54 18.772C261.1 18.772 261.646 18.716 262.136 18.59V21.348H258.944V18.604ZM260.54 13.298C262.444 13.298 263.774 14.138 263.774 15.468C263.774 16.812 262.444 17.652 260.54 17.652C258.622 17.652 257.292 16.812 257.292 15.468C257.292 14.138 258.622 13.298 260.54 13.298ZM263.578 21.348V18.058C264.586 17.484 265.188 16.588 265.188 15.468C265.188 13.452 263.228 12.164 260.54 12.164C257.838 12.164 255.892 13.452 255.892 15.468C255.892 16.588 256.494 17.498 257.502 18.058V21.348H254.828V22.524H266.28V21.348H263.578ZM268.579 23.182C269.181 23.182 269.657 22.72 269.657 22.062C269.657 21.39 269.181 20.914 268.579 20.914C267.977 20.914 267.501 21.39 267.501 22.062C267.501 22.72 267.977 23.182 268.579 23.182Z" fill="#222222"/>
<path d="M92.5054 12.584H91.1194V14.88C91.1194 17.036 90.2374 19.304 88.4174 20.368L89.3274 21.446C90.5314 20.718 91.3574 19.402 91.8194 17.862C92.2534 19.262 93.0234 20.438 94.1854 21.096L95.0394 19.962C93.3174 19.01 92.5054 16.91 92.5054 14.782V12.584ZM98.0354 11.436V16.448H96.6214V11.674H95.2774V23.49H96.6214V17.624H98.0354V24.078H99.4074V11.436H98.0354ZM107.418 21.404V19.248H111.366V18.086H103.792V16.322H111.086V12.318H102.35V13.48H109.658V15.174H102.378V19.248H105.976V21.404H100.992V22.594H112.444V21.404H107.418ZM119.083 12.878C120.861 12.878 122.023 13.396 122.023 14.292C122.023 15.188 120.861 15.706 119.083 15.706C117.291 15.706 116.129 15.188 116.129 14.292C116.129 13.396 117.291 12.878 119.083 12.878ZM119.083 16.868C121.785 16.868 123.563 15.874 123.563 14.292C123.563 12.71 121.785 11.716 119.083 11.716C116.367 11.716 114.603 12.71 114.603 14.292C114.603 15.874 116.367 16.868 119.083 16.868ZM116.227 20.102H114.771V23.84H123.563V22.664H116.227V20.102ZM113.357 17.722V18.898H118.453V21.292H119.923V18.898H124.823V17.722H113.357ZM135.549 14.95H132.637V12.906H135.549V14.95ZM131.195 14.95H129.473V16.042H138.699V14.95H136.991V12.906H138.769V11.8H129.403V12.906H131.195V14.95ZM131.195 21.936H138.391V18.996H129.739V20.06H136.977V20.942H129.767V23.966H138.755V22.888H131.195V21.936ZM128.381 16.924V18.072H139.833V16.924H128.381ZM142.552 17.358H145.632V12.766H141.138V13.928H144.246V16.196H141.166V21.04H142.034C143.616 21.04 145.03 20.998 146.738 20.704L146.612 19.514C145.128 19.766 143.882 19.836 142.552 19.85V17.358ZM147.62 15.86H146.192V17.05H147.62V23.448H148.964V11.716H147.62V15.86ZM150.182 11.436V24.078H151.554V11.436H150.182ZM162.098 11.422V24.106H163.554V11.422H162.098ZM156.82 12.36C154.944 12.36 153.572 14.096 153.572 16.812C153.572 19.556 154.944 21.278 156.82 21.278C158.71 21.278 160.082 19.556 160.082 16.812C160.082 14.096 158.71 12.36 156.82 12.36ZM156.82 13.662C157.926 13.662 158.696 14.852 158.696 16.812C158.696 18.8 157.926 19.99 156.82 19.99C155.728 19.99 154.958 18.8 154.958 16.812C154.958 14.852 155.728 13.662 156.82 13.662ZM167.701 17.246H172.111V12.556H166.217V13.732H170.655V16.084H166.245V21.096H167.323C169.549 21.096 171.439 21.026 173.609 20.648L173.455 19.472C171.453 19.794 169.703 19.892 167.701 19.906V17.246ZM174.505 11.408V24.106H175.961V11.408H174.505ZM188.872 17.61C186.38 17.162 184.35 15.216 184.35 13.2V12.248H182.824V13.2C182.824 15.202 180.794 17.148 178.302 17.61L178.918 18.8C180.976 18.38 182.754 17.064 183.58 15.328C184.406 17.064 186.184 18.38 188.242 18.8L188.872 17.61ZM177.91 21.264V22.454H189.362V21.264H177.91ZM200.467 18.114H193.173V16.378H200.089V15.244H193.173V13.62H200.369V12.458H191.703V19.276H200.467V18.114ZM190.289 21.348V22.524H201.755V21.348H190.289ZM209.094 21.404V19.248H213.042V18.086H205.468V16.322H212.762V12.318H204.026V13.48H211.334V15.174H204.054V19.248H207.652V21.404H202.668V22.594H214.12V21.404H209.094ZM221.542 14.012H223.656V12.822H217.86V14.012H220.142V14.712C220.142 17.218 219.344 19.416 217.51 20.48L218.392 21.558C219.638 20.816 220.45 19.528 220.884 17.918C221.346 19.318 222.13 20.466 223.334 21.124L224.174 20.018C222.34 19.066 221.542 16.994 221.542 14.712V14.012ZM227.17 11.422V16.42H225.784V11.66H224.426V23.49H225.784V17.61H227.17V24.078H228.542V11.422H227.17ZM238.064 15.86H239.394V19.206H240.766V11.45H239.394V14.684H238.064V11.674H236.706V18.8H238.064V15.86ZM236.412 17.232C234.774 16.588 233.948 15.202 233.948 13.802V12.206H232.548V13.802C232.548 15.244 231.694 16.826 230 17.596L230.756 18.702C231.974 18.17 232.8 17.19 233.262 16.028C233.738 17.036 234.522 17.876 235.642 18.31L236.412 17.232ZM236.552 22.972C234.774 22.972 233.71 22.538 233.71 21.768C233.71 20.984 234.774 20.55 236.552 20.55C238.33 20.55 239.394 20.984 239.394 21.768C239.394 22.538 238.33 22.972 236.552 22.972ZM236.552 19.444C233.92 19.444 232.268 20.312 232.268 21.768C232.268 23.21 233.92 24.078 236.552 24.078C239.184 24.078 240.836 23.21 240.836 21.768C240.836 20.312 239.184 19.444 236.552 19.444Z" fill="#FD4E6D"/>
</svg>
