<svg width="85" height="29" viewBox="0 0 85 29" fill="none" xmlns="http://www.w3.org/2000/svg">
<path d="M40.102 7.94922H35.8345V21.6532H38.7611V17.104H40.1832C42.7502 17.104 44.9893 15.6676 44.9893 12.4078C44.9925 9.01697 42.7826 7.94922 40.102 7.94922ZM40.0386 14.5049H38.7637V10.5454H39.9568C41.3624 10.5454 42.147 11.0243 42.147 12.4057C42.1445 13.7508 41.4588 14.5049 40.0361 14.5049H40.0386Z" fill="#FF2D55"/>
<path d="M49.3168 7.94922H46.3901V21.6532H54.0417V18.8904H49.3174L49.3168 7.94922Z" fill="#FF2D55"/>
<path d="M70.2131 13.6661H70.1497C69.8065 12.5983 68.1554 7.94922 68.1554 7.94922H65.0474L68.7092 16.8078V21.6532H71.6187V16.8092L75.2976 7.95066H72.241C72.241 7.95066 70.5563 12.5983 70.2131 13.6661Z" fill="#FF2D55"/>
<path d="M79.7034 18.8889L84.951 9.91955V7.94922H76.6137V10.6744H81.3545L76.1069 19.6618V21.6532H84.9998V18.8904L79.7034 18.8889Z" fill="#FF2D55"/>
<path d="M27.3699 7.94922L23.5933 21.6532H26.5681L29.021 10.7801L31.5709 21.6532H34.644L30.8668 7.94922H27.3699Z" fill="#FF2D55"/>
<path d="M29.1196 18.6924C28.8643 18.6966 28.6157 18.7868 28.4051 18.9519C28.1945 19.1169 28.0314 19.3493 27.9362 19.62C27.8409 19.8906 27.8179 20.1873 27.8699 20.4729C27.922 20.7584 28.0468 21.02 28.2286 21.2248C28.4105 21.4295 28.6413 21.5684 28.892 21.6238C29.1427 21.6791 29.4022 21.6486 29.6378 21.5361C29.8734 21.4236 30.0747 21.234 30.2162 20.9912C30.3577 20.7484 30.4332 20.4633 30.4333 20.1716C30.4321 19.976 30.3972 19.7825 30.3305 19.6023C30.2639 19.422 30.1668 19.2586 30.0448 19.1212C29.9228 18.9838 29.7783 18.8753 29.6196 18.8017C29.4608 18.7281 29.2909 18.691 29.1196 18.6924V18.6924Z" fill="#FF2D55"/>
<path d="M6.82889 8.32859L9.8101 19.1546L14.5413 11.0537H9.80058V8.32786H15.3285L4.40269 0.504479C3.968 0.193626 3.46885 0.0200968 2.95622 0.00164307C2.4436 -0.0168107 1.93587 0.120458 1.4849 0.399429C1.03763 0.674074 0.66359 1.08153 0.402235 1.57877C0.140881 2.07601 0.00190947 2.64462 0 3.22456V20.3925L3.32628 8.32134L6.82889 8.32859Z" fill="#FF2D55"/>
<path d="M20.1519 11.7798L18.1222 10.3311L12.8911 19.2722H17.2995L20.1539 17.2301C20.56 16.9429 20.8951 16.542 21.1276 16.0654C21.36 15.5888 21.482 15.0523 21.482 14.5068C21.482 13.9613 21.36 13.4248 21.1276 12.9482C20.8951 12.4716 20.56 12.0707 20.1539 11.7835L20.1519 11.7798Z" fill="#FF2D55"/>
<path d="M4.98189 11.1572L2.52969 22.031H0.00390625V25.7754C0.00567982 26.3554 0.14458 26.924 0.405948 27.4213C0.667317 27.9186 1.04144 28.326 1.4888 28.6005C1.93977 28.8794 2.44745 29.0166 2.96003 28.9983C3.47261 28.98 3.97177 28.8067 4.40658 28.4962L13.4422 22.0281H7.53368L4.98189 11.1572ZM5.07958 22.031C4.82425 22.0269 4.57568 21.9366 4.36512 21.7716C4.15457 21.6066 3.99142 21.3742 3.89618 21.1037C3.80094 20.8331 3.77787 20.5364 3.82985 20.2508C3.88184 19.9653 4.00656 19.7037 4.18835 19.4989C4.37014 19.2941 4.60088 19.1553 4.85158 19.0998C5.10228 19.0443 5.36174 19.0747 5.59736 19.1871C5.83298 19.2996 6.03423 19.489 6.17583 19.7317C6.31744 19.9744 6.39307 20.2595 6.39322 20.5511C6.39205 20.7468 6.35715 20.9403 6.29051 21.1205C6.22386 21.3008 6.12678 21.4643 6.00479 21.6018C5.88281 21.7392 5.73832 21.8478 5.57957 21.9215C5.42082 21.9951 5.25092 22.0324 5.07958 22.031V22.031Z" fill="#FF2D55"/>
<path d="M59.1969 7.94922L55.4209 21.6532H58.3964L60.8486 10.7801L63.3985 21.6532H66.4723L62.6957 7.95139L59.1969 7.94922Z" fill="#FF2D55"/>
<path d="M60.9474 18.6924C60.692 18.6964 60.4434 18.7866 60.2327 18.9515C60.0221 19.1165 59.8588 19.3489 59.7635 19.6195C59.6682 19.8901 59.6451 20.1869 59.697 20.4724C59.749 20.758 59.8737 21.0197 60.0556 21.2246C60.2374 21.4294 60.4682 21.5683 60.7189 21.6237C60.9697 21.6792 61.2292 21.6487 61.4648 21.5362C61.7005 21.4237 61.9017 21.2341 62.0433 20.9913C62.1848 20.7485 62.2604 20.4633 62.2604 20.1716C62.2593 19.976 62.2245 19.7826 62.1579 19.6023C62.0913 19.4221 61.9943 19.2586 61.8724 19.1212C61.7504 18.9839 61.606 18.8753 61.4472 18.8017C61.2885 18.7281 61.1187 18.691 60.9474 18.6924Z" fill="#FF2D55"/>
</svg>
