<svg width="100" height="100" viewBox="0 0 100 100" fill="none" xmlns="http://www.w3.org/2000/svg">
<path d="M23.3262 52.9023C23.6561 52.2013 24.3611 51.7539 25.1358 51.7539H74.8651C75.6399 51.7539 76.3449 52.2013 76.6748 52.9023L86.323 73.4037C86.9473 74.7302 85.9795 76.2554 84.5134 76.2554H15.4876C14.0215 76.2554 13.0537 74.7302 13.678 73.4037L23.3262 52.9023Z" fill="#636363"/>
<path fill-rule="evenodd" clip-rule="evenodd" d="M16.1689 37.064C11.8104 26.4555 19.8696 18.4785 29.2446 18.4785C38.6196 18.4785 46.6788 26.4555 42.3202 37.064C38.8334 45.5509 32.1503 52.9906 29.2446 55.6496C26.3389 52.9906 19.6558 45.5509 16.1689 37.064Z" fill="#FB5F84"/>
<circle cx="29.2416" cy="31.7181" r="6.00329" fill="white"/>
<path fill-rule="evenodd" clip-rule="evenodd" d="M62.9049 59.2535C59.3809 50.6762 65.897 44.2266 73.477 44.2266C81.0569 44.2266 87.573 50.6762 84.049 59.2535C81.2298 66.1154 75.8263 72.1306 73.477 74.2805C71.1276 72.1306 65.7241 66.1154 62.9049 59.2535Z" fill="#DADADA"/>
<circle cx="73.4788" cy="54.932" r="4.85384" fill="#FDFAFB"/>
</svg>
