<svg width="100" height="100" viewBox="0 0 100 100" fill="none" xmlns="http://www.w3.org/2000/svg">
<path d="M73.4336 45.6334C73.4336 44.0136 72.4567 42.5536 70.9593 41.9358L54.6627 35.2116C52.0296 34.1252 49.137 36.0608 49.137 38.9092V70.935C49.137 73.1442 50.9279 74.935 53.137 74.935H69.4336C71.6427 74.935 73.4336 73.1441 73.4336 70.935V45.6334Z" fill="#B174FF"/>
<path d="M26.5625 35.6393C26.5625 34.0194 27.5394 32.5595 29.0368 31.9416L52.9261 22.0846C55.5591 20.9982 58.4517 22.9339 58.4517 25.7823V70.934C58.4517 73.1432 56.6609 74.934 54.4517 74.934H30.5625C28.3534 74.934 26.5625 73.1432 26.5625 70.934V35.6393Z" fill="#FB5F84"/>
<rect x="31.4727" y="39.2852" width="18.9842" height="3.69348" rx="1.84674" fill="white"/>
<rect x="31.4727" y="46.3086" width="14.1157" height="3.69348" rx="1.84674" fill="white"/>
</svg>
