<svg width="100" height="100" viewBox="0 0 100 100" fill="none" xmlns="http://www.w3.org/2000/svg">
<path d="M36.4397 55.639C36.8143 55.2672 37.3207 55.0586 37.8485 55.0586H62.1525C62.6803 55.0586 63.1867 55.2672 63.5613 55.639L84.2193 76.1405C85.4867 77.3982 84.596 79.56 82.8105 79.56H17.1905C15.405 79.56 14.5143 77.3982 15.7816 76.1405L36.4397 55.639Z" fill="#636363"/>
<path d="M25.0664 36.7617C25.0664 35.6571 25.9618 34.7617 27.0664 34.7617H74.4659C75.5705 34.7617 76.4659 35.6571 76.4659 36.7617V57.1385C76.4659 60.4522 73.7796 63.1385 70.4659 63.1385H31.0664C27.7527 63.1385 25.0664 60.4522 25.0664 57.1385V36.7617Z" fill="#FABC08"/>
<path d="M26.0918 35.9285C25.5964 37.237 26.5631 38.6367 27.9622 38.6367H73.5701C74.9692 38.6367 75.936 37.237 75.4405 35.9285L71.0437 24.3159C70.1606 21.9834 67.9266 20.4404 65.4325 20.4404H36.0999C33.6058 20.4404 31.3717 21.9834 30.4886 24.3159L26.0918 35.9285Z" fill="#FFF6C4"/>
<path d="M20.8359 39.6381C20.8359 37.1014 22.8924 35.0449 25.4292 35.0449H27.8486C30.3854 35.0449 32.4418 37.1014 32.4418 39.6381V39.6381C32.4418 42.1749 30.3854 44.2314 27.8486 44.2314H25.4292C22.8924 44.2314 20.8359 42.1749 20.8359 39.6381V39.6381Z" fill="#FABC08"/>
<path d="M68.5742 39.6381C68.5742 37.1014 70.6307 35.0449 73.1674 35.0449H75.5869C78.1237 35.0449 80.1801 37.1014 80.1801 39.6381V39.6381C80.1801 42.1749 78.1237 44.2314 75.5869 44.2314H73.1674C70.6307 44.2314 68.5742 42.1749 68.5742 39.6381V39.6381Z" fill="#FABC08"/>
<circle cx="39.0663" cy="49.6972" r="3.86708" fill="white"/>
<circle cx="61.953" cy="49.6972" r="3.86708" fill="white"/>
<rect x="30.375" y="58.1016" width="6.62244" height="8.65075" rx="3.31122" fill="#FABC08"/>
<rect x="63.4844" y="58.1016" width="6.62244" height="8.65075" rx="3.31122" fill="#FABC08"/>
</svg>
