<svg width="16" height="17" viewBox="0 0 16 17" fill="none" xmlns="http://www.w3.org/2000/svg">
<path d="M2.66667 1.83301H13.3333C13.5101 1.83301 13.6797 1.90325 13.8047 2.02827C13.9298 2.15329 14 2.32286 14 2.49967V14.4997C14 14.6765 13.9298 14.8461 13.8047 14.9711C13.6797 15.0961 13.5101 15.1663 13.3333 15.1663H2.66667C2.48986 15.1663 2.32029 15.0961 2.19526 14.9711C2.07024 14.8461 2 14.6765 2 14.4997V2.49967C2 2.32286 2.07024 2.15329 2.19526 2.02827C2.32029 1.90325 2.48986 1.83301 2.66667 1.83301ZM8 13.833C8.88406 13.833 9.7319 13.4818 10.357 12.8567C10.9821 12.2316 11.3333 11.3837 11.3333 10.4997C11.3333 9.61562 10.9821 8.76777 10.357 8.14265C9.7319 7.51753 8.88406 7.16634 8 7.16634C7.11595 7.16634 6.2681 7.51753 5.64298 8.14265C5.01786 8.76777 4.66667 9.61562 4.66667 10.4997C4.66667 11.3837 5.01786 12.2316 5.64298 12.8567C6.2681 13.4818 7.11595 13.833 8 13.833ZM8 5.83301C8.26522 5.83301 8.51957 5.72765 8.70711 5.54011C8.89464 5.35258 9 5.09822 9 4.83301C9 4.56779 8.89464 4.31344 8.70711 4.1259C8.51957 3.93836 8.26522 3.83301 8 3.83301C7.73478 3.83301 7.48043 3.93836 7.29289 4.1259C7.10536 4.31344 7 4.56779 7 4.83301C7 5.09822 7.10536 5.35258 7.29289 5.54011C7.48043 5.72765 7.73478 5.83301 8 5.83301ZM8 12.4997C7.46957 12.4997 6.96086 12.289 6.58579 11.9139C6.21071 11.5388 6 11.0301 6 10.4997C6 9.96924 6.21071 9.46053 6.58579 9.08546C6.96086 8.71039 7.46957 8.49967 8 8.49967C8.53043 8.49967 9.03914 8.71039 9.41421 9.08546C9.78929 9.46053 10 9.96924 10 10.4997C10 11.0301 9.78929 11.5388 9.41421 11.9139C9.03914 12.289 8.53043 12.4997 8 12.4997Z" fill="white"/>
</svg>
