<svg width="16" height="17" viewBox="0 0 16 17" fill="none" xmlns="http://www.w3.org/2000/svg">
<path d="M14.6668 8.5H13.3335V3.83333H2.66683V11.8333H3.84216H8.00016V13.1667H4.3035H1.3335V3.16667C1.3335 2.98986 1.40373 2.82029 1.52876 2.69526C1.65378 2.57024 1.82335 2.5 2.00016 2.5H14.0002C14.177 2.5 14.3465 2.57024 14.4716 2.69526C14.5966 2.82029 14.6668 2.98986 14.6668 3.16667V8.5ZM9.43016 13.214C9.30048 12.7468 9.30048 12.2532 9.43016 11.786L8.78016 11.4107L9.44683 10.256L10.0975 10.6313C10.4369 10.2853 10.8642 10.0385 11.3335 9.91733V9.16667H12.6668V9.91733C13.1435 10.04 13.5688 10.2907 13.9028 10.6313L14.5535 10.256L15.2202 11.4107L14.5702 11.786C14.6998 12.2532 14.6998 12.7468 14.5702 13.214L15.2202 13.5893L14.5535 14.744L13.9028 14.3687C13.5688 14.7087 13.1428 14.96 12.6668 15.0827V15.8333H11.3335V15.0827C10.8642 14.9615 10.4369 14.7147 10.0975 14.3687L9.44683 14.744L8.78016 13.5893L9.43016 13.214ZM12.0002 13.8333C12.3538 13.8333 12.6929 13.6929 12.943 13.4428C13.193 13.1928 13.3335 12.8536 13.3335 12.5C13.3335 12.1464 13.193 11.8072 12.943 11.5572C12.6929 11.3071 12.3538 11.1667 12.0002 11.1667C11.6465 11.1667 11.3074 11.3071 11.0574 11.5572C10.8073 11.8072 10.6668 12.1464 10.6668 12.5C10.6668 12.8536 10.8073 13.1928 11.0574 13.4428C11.3074 13.6929 11.6465 13.8333 12.0002 13.8333Z" fill="white"/>
</svg>
