<svg width="16" height="17" viewBox="0 0 16 17" fill="none" xmlns="http://www.w3.org/2000/svg">
<path d="M8.70684 5.90666L9.65017 6.84999C10.0836 7.28334 10.4273 7.79781 10.6619 8.36403C10.8965 8.93024 11.0172 9.53712 11.0172 10.15C11.0172 10.7629 10.8965 11.3697 10.6619 11.936C10.4273 12.5022 10.0836 13.0166 9.65017 13.45L9.41417 13.6853C8.53896 14.5605 7.35191 15.0522 6.11417 15.0522C4.87643 15.0522 3.68938 14.5605 2.81417 13.6853C1.93896 12.8101 1.44727 11.6231 1.44727 10.3853C1.44727 9.14759 1.93896 7.96054 2.81417 7.08533L3.7575 8.02866C3.44575 8.33769 3.19811 8.70526 3.02879 9.11026C2.85947 9.51526 2.77182 9.94972 2.77086 10.3887C2.76989 10.8276 2.85565 11.2625 3.02319 11.6682C3.19073 12.074 3.43676 12.4426 3.74716 12.753C4.05756 13.0634 4.42621 13.3094 4.83194 13.477C5.23768 13.6445 5.67251 13.7303 6.11148 13.7293C6.55045 13.7283 6.9849 13.6407 7.3899 13.4714C7.7949 13.3021 8.16247 13.0544 8.4715 12.7427L8.7075 12.5067C9.33241 11.8816 9.68346 11.0339 9.68346 10.15C9.68346 9.26611 9.33241 8.41842 8.7075 7.79332L7.76417 6.84999L8.7075 5.90733L8.70684 5.90666ZM13.1855 9.91399L12.2428 8.97132C12.5546 8.66229 12.8022 8.29472 12.9716 7.88972C13.1409 7.48472 13.2285 7.05027 13.2295 6.6113C13.2304 6.17234 13.1447 5.7375 12.9772 5.33176C12.8096 4.92603 12.5636 4.55738 12.2532 4.24698C11.9428 3.93658 11.5741 3.69055 11.1684 3.52301C10.7627 3.35547 10.3278 3.26972 9.88886 3.27068C9.44989 3.27164 9.01544 3.35929 8.61044 3.52861C8.20544 3.69793 7.83787 3.94557 7.52884 4.25733L7.29284 4.49333C6.66793 5.11842 6.31688 5.96611 6.31688 6.84999C6.31688 7.73387 6.66793 8.58157 7.29284 9.20666L8.23617 10.15L7.29284 11.0927L6.35017 10.15C5.91678 9.71665 5.57299 9.20218 5.33844 8.63596C5.10389 8.06974 4.98317 7.46287 4.98317 6.84999C4.98317 6.23712 5.10389 5.63024 5.33844 5.06403C5.57299 4.49781 5.91678 3.98334 6.35017 3.54999L6.58617 3.31466C7.46138 2.43944 8.64843 1.94775 9.88617 1.94775C11.1239 1.94775 12.311 2.43944 13.1862 3.31466C14.0614 4.18987 14.5531 5.37692 14.5531 6.61466C14.5531 7.8524 14.0614 9.03944 13.1862 9.91466L13.1855 9.91399Z" fill="white"/>
</svg>
