<svg width="25" height="24" viewBox="0 0 25 24" fill="none" xmlns="http://www.w3.org/2000/svg">
<path d="M20.3301 22H4.33008C4.06486 22 3.81051 21.8946 3.62297 21.7071C3.43543 21.5196 3.33008 21.2652 3.33008 21V3C3.33008 2.73478 3.43543 2.48043 3.62297 2.29289C3.81051 2.10536 4.06486 2 4.33008 2H20.3301C20.5953 2 20.8496 2.10536 21.0372 2.29289C21.2247 2.48043 21.3301 2.73478 21.3301 3V21C21.3301 21.2652 21.2247 21.5196 21.0372 21.7071C20.8496 21.8946 20.5953 22 20.3301 22ZM7.33008 6V10H11.3301V6H7.33008ZM7.33008 12V14H17.3301V12H7.33008ZM7.33008 16V18H17.3301V16H7.33008ZM13.3301 7V9H17.3301V7H13.3301Z" fill="white"/>
</svg>
