<svg width="25" height="24" viewBox="0 0 25 24" fill="none" xmlns="http://www.w3.org/2000/svg">
<path d="M21.333 7.99892C21.8634 7.99892 22.3721 8.20964 22.7472 8.58471C23.1223 8.95978 23.333 9.46849 23.333 9.99892V13.9989C23.333 14.5294 23.1223 15.0381 22.7472 15.4131C22.3721 15.7882 21.8634 15.9989 21.333 15.9989H20.271C20.0272 17.9322 19.0863 19.7101 17.6248 20.9989C16.1632 22.2877 14.2816 22.9989 12.333 22.9989V20.9989C13.9243 20.9989 15.4504 20.3668 16.5756 19.2416C17.7009 18.1163 18.333 16.5902 18.333 14.9989V8.99892C18.333 7.40762 17.7009 5.8815 16.5756 4.75628C15.4504 3.63106 13.9243 2.99892 12.333 2.99892C10.7417 2.99892 9.21559 3.63106 8.09037 4.75628C6.96515 5.8815 6.33301 7.40762 6.33301 8.99892V15.9989H3.33301C2.80257 15.9989 2.29387 15.7882 1.91879 15.4131C1.54372 15.0381 1.33301 14.5294 1.33301 13.9989V9.99892C1.33301 9.46849 1.54372 8.95978 1.91879 8.58471C2.29387 8.20964 2.80257 7.99892 3.33301 7.99892H4.39501C4.63904 6.06582 5.58009 4.2882 7.04158 2.9996C8.50307 1.711 10.3846 1 12.333 1C14.2815 1 16.1629 1.711 17.6244 2.9996C19.0859 4.2882 20.027 6.06582 20.271 7.99892H21.333ZM8.09301 15.7839L9.15301 14.0879C10.1061 14.685 11.2084 15.0007 12.333 14.9989C13.4576 15.0007 14.5599 14.685 15.513 14.0879L16.573 15.7839C15.3023 16.5801 13.8325 17.0012 12.333 16.9989C10.8335 17.0012 9.36375 16.5801 8.09301 15.7839Z" fill="white"/>
</svg>
