<svg width="33" height="33" viewBox="0 0 33 33" fill="none" xmlns="http://www.w3.org/2000/svg">
<path d="M5.488 2.60306L30.104 16.1417C30.2085 16.1993 30.2957 16.2838 30.3564 16.3865C30.4171 16.4893 30.4491 16.6064 30.4491 16.7257C30.4491 16.845 30.4171 16.9622 30.3564 17.0649C30.2957 17.1676 30.2085 17.2522 30.104 17.3097L5.488 30.8484C5.3865 30.9042 5.2722 30.9327 5.15636 30.9309C5.04053 30.9291 4.92716 30.8971 4.82744 30.8382C4.72771 30.7792 4.64506 30.6953 4.58764 30.5947C4.53023 30.4941 4.50002 30.3802 4.5 30.2644V3.18706C4.50002 3.07121 4.53023 2.95737 4.58764 2.85675C4.64506 2.75614 4.72771 2.67222 4.82744 2.61327C4.92716 2.55432 5.04053 2.52238 5.15636 2.52059C5.2722 2.5188 5.3865 2.54722 5.488 2.60306V2.60306ZM7.16667 18.0591V26.8817L25.6333 16.7257L7.16667 6.56973V15.3924H13.8333V18.0591H7.16667Z" fill="#FF2D55"/>
</svg>
