<svg width="32" height="33" viewBox="0 0 32 33" fill="none" xmlns="http://www.w3.org/2000/svg">
<path d="M4.988 2.60306L29.604 16.1417C29.7085 16.1993 29.7957 16.2838 29.8564 16.3865C29.9171 16.4893 29.9491 16.6064 29.9491 16.7257C29.9491 16.845 29.9171 16.9622 29.8564 17.0649C29.7957 17.1676 29.7085 17.2522 29.604 17.3097L4.988 30.8484C4.8865 30.9042 4.7722 30.9327 4.65636 30.9309C4.54053 30.9291 4.42716 30.8971 4.32744 30.8382C4.22771 30.7792 4.14506 30.6953 4.08764 30.5947C4.03023 30.4941 4.00002 30.3802 4 30.2644V3.18706C4.00002 3.07121 4.03023 2.95737 4.08764 2.85675C4.14506 2.75614 4.22771 2.67222 4.32744 2.61327C4.42716 2.55432 4.54053 2.52238 4.65636 2.52059C4.7722 2.5188 4.8865 2.54722 4.988 2.60306ZM6.66667 18.0591V26.8817L25.1333 16.7257L6.66667 6.56973V15.3924H13.3333V18.0591H6.66667Z" fill="white"/>
</svg>
