<svg width="100" height="100" viewBox="0 0 100 100" fill="none" xmlns="http://www.w3.org/2000/svg">
<path fill-rule="evenodd" clip-rule="evenodd" d="M41.6875 16.5488C39.4784 16.5488 37.6875 18.3397 37.6875 20.5488V35.613C37.6875 37.8221 39.4784 39.613 41.6875 39.613H58.3145C60.5237 39.613 62.3145 37.8221 62.3145 35.613V20.5488C62.3145 18.3397 60.5237 16.5488 58.3145 16.5488H41.6875ZM43.0181 19.6713C41.9135 19.6713 41.0181 20.5667 41.0181 21.6713V34.493C41.0181 35.5976 41.9135 36.493 43.0181 36.493H56.9798C58.0843 36.493 58.9798 35.5976 58.9798 34.493V21.6713C58.9798 20.5667 58.0843 19.6713 56.9798 19.6713H43.0181Z" fill="#FCFBFF"/>
<rect x="34.0898" y="73.6895" width="6.65556" height="9.04605" rx="3.32778" fill="#636363"/>
<rect x="59.2539" y="73.6895" width="6.65556" height="9.04605" rx="3.32778" fill="#636363"/>
<rect x="30.0195" y="28.6934" width="39.9607" height="49.5192" rx="6" fill="#9051DC"/>
<rect x="38.5352" y="37.6953" width="3.64444" height="27.1105" rx="1.82222" fill="#BA83FC"/>
<rect x="48.4219" y="37.6953" width="3.64444" height="27.1105" rx="1.82222" fill="#BA83FC"/>
<rect x="56.8906" y="15.3008" width="5.42681" height="14.7136" rx="2.7134" transform="rotate(90 56.8906 15.3008)" fill="#6A90FB"/>
<rect x="57.8203" y="37.6953" width="3.64444" height="27.1105" rx="1.82222" fill="#BA83FC"/>
</svg>
