<svg width="100" height="101" viewBox="0 0 100 101" fill="none" xmlns="http://www.w3.org/2000/svg">
<path d="M18.4219 35.7884C18.4219 31.4283 21.9565 27.8937 26.3166 27.8937H73.685C78.0452 27.8937 81.5798 31.4283 81.5798 35.7884V66.3614C81.5798 70.7215 78.0452 74.2561 73.685 74.2561H26.3166C21.9565 74.2561 18.4219 70.7215 18.4219 66.3614V35.7884Z" fill="#6766FF"/>
<path fill-rule="evenodd" clip-rule="evenodd" d="M42.9702 18.8477C40.0633 18.8477 37.7071 21.2041 37.7071 24.1108V35.9529C37.7071 38.8597 40.0633 41.2161 42.9702 41.2161H57.0314C59.9383 41.2161 62.2946 38.8597 62.2946 35.9529V24.1108C62.2946 21.2041 59.9383 18.8477 57.0314 18.8477H42.9702ZM56.538 24.758H43.4636V35.3057H56.538V24.758Z" fill="#6766FF"/>
<rect x="18.4219" y="27.8945" width="63.1579" height="22.3684" rx="6" fill="#ADAFFC"/>
<rect x="36.1445" y="44.8398" width="6.29844" height="12.4689" rx="2.39341" fill="#D1D3FA"/>
<rect x="56.5391" y="44.8398" width="6.29844" height="12.4689" rx="2.39341" fill="#D1D3FA"/>
</svg>
