<svg width="100" height="22" viewBox="0 0 100 22" fill="none" xmlns="http://www.w3.org/2000/svg">
<path d="M18.8189 7H13.9541V22H17.2904V17.0206H18.9115C21.8377 17.0206 24.3902 15.4483 24.3902 11.8803C24.3938 8.16873 21.8746 7 18.8189 7ZM18.7466 14.1757H17.2933V9.84173H18.6533C20.2557 9.84173 21.1501 10.3658 21.1501 11.8779C21.1472 13.3503 20.3656 14.1757 18.7437 14.1757H18.7466Z" fill="white"/>
<path d="M29.3231 7H25.9868V22H34.7092V18.9759H29.3238L29.3231 7Z" fill="white"/>
<path d="M53.1439 13.2575H53.0716C52.6804 12.0888 50.7983 7 50.7983 7H47.2553L51.4295 16.6963V22H54.7462V16.6979L58.94 7.00157H55.4556C55.4556 7.00157 53.5351 12.0888 53.1439 13.2575Z" fill="white"/>
<path d="M63.9623 18.9743L69.9443 9.15668V7H60.4403V9.98287H65.8445L59.8625 19.8203V22H69.9999V18.9759L63.9623 18.9743Z" fill="white"/>
<path d="M4.30513 7L0 22H3.39118L6.18728 10.0986L9.094 22H12.5973L8.2914 7H4.30513Z" fill="white"/>
<path d="M6.29952 18.759C6.00842 18.7635 5.72505 18.8623 5.48501 19.0429C5.24498 19.2236 5.059 19.478 4.95046 19.7742C4.84191 20.0704 4.81565 20.3952 4.87497 20.7078C4.93429 21.0203 5.07653 21.3067 5.28383 21.5308C5.49114 21.7549 5.75424 21.9069 6.04007 21.9675C6.32589 22.0281 6.62169 21.9948 6.89027 21.8716C7.15884 21.7484 7.38821 21.5409 7.54954 21.2751C7.71087 21.0094 7.79696 20.6973 7.79699 20.3781C7.79567 20.1639 7.75588 19.9521 7.6799 19.7549C7.60391 19.5576 7.49323 19.3786 7.35416 19.2283C7.2151 19.0779 7.05038 18.9591 6.86942 18.8786C6.68847 18.798 6.49481 18.7574 6.29952 18.759Z" fill="white"/>
<path d="M40.5859 7L36.2814 22H39.6734L42.4687 10.0986L45.3754 22H48.8794L44.5743 7.00237L40.5859 7Z" fill="white"/>
<path d="M42.5813 18.759C42.2901 18.7633 42.0067 18.862 41.7665 19.0425C41.5264 19.2231 41.3403 19.4775 41.2317 19.7737C41.123 20.0699 41.0966 20.3947 41.1559 20.7073C41.2151 21.0199 41.3573 21.3063 41.5646 21.5306C41.7719 21.7548 42.035 21.9068 42.3208 21.9675C42.6067 22.0282 42.9025 21.9948 43.1711 21.8717C43.4397 21.7485 43.6691 21.541 43.8305 21.2752C43.9919 21.0095 44.078 20.6973 44.078 20.3781C44.0768 20.164 44.0371 19.9522 43.9612 19.7549C43.8853 19.5576 43.7746 19.3787 43.6356 19.2283C43.4966 19.078 43.332 18.9591 43.151 18.8786C42.9701 18.798 42.7765 18.7574 42.5813 18.759Z" fill="white"/>
<path d="M77.172 12.754C77.5173 12.754 77.8183 12.7073 78.075 12.614C78.3317 12.5207 78.544 12.39 78.712 12.222C78.88 12.0493 79.0037 11.844 79.083 11.606C79.167 11.368 79.209 11.102 79.209 10.808C79.209 10.402 79.076 10.08 78.81 9.842C78.5487 9.604 78.1357 9.485 77.571 9.485H75.737L75.338 12.754H77.172ZM76.269 5.159L75.877 8.379H77.347C78.0377 8.379 78.5603 8.21333 78.915 7.882C79.2697 7.55067 79.447 7.07933 79.447 6.468C79.447 6.01533 79.314 5.684 79.048 5.474C78.782 5.264 78.3737 5.159 77.823 5.159H76.269ZM77.963 3.92C78.5043 3.92 78.9687 3.97367 79.356 4.081C79.748 4.18833 80.0677 4.34233 80.315 4.543C80.567 4.739 80.7513 4.977 80.868 5.257C80.9847 5.537 81.043 5.84967 81.043 6.195C81.043 6.489 81.001 6.769 80.917 7.035C80.8377 7.301 80.714 7.54833 80.546 7.777C80.3827 8.001 80.175 8.20167 79.923 8.379C79.671 8.55633 79.3723 8.701 79.027 8.813C79.6103 8.953 80.0443 9.18867 80.329 9.52C80.6183 9.85133 80.763 10.2713 80.763 10.78C80.763 11.2467 80.6767 11.676 80.504 12.068C80.336 12.46 80.091 12.8007 79.769 13.09C79.4517 13.3747 79.062 13.5987 78.6 13.762C78.1427 13.9207 77.6247 14 77.046 14H73.609L74.848 3.92L77.963 3.92ZM85.0199 7.826C84.7585 7.826 84.5159 7.87967 84.2919 7.987C84.0725 8.09433 83.8742 8.24367 83.6969 8.435C83.5242 8.62167 83.3725 8.84567 83.2419 9.107C83.1159 9.36833 83.0179 9.653 82.9479 9.961C83.5919 9.877 84.1099 9.78367 84.5019 9.681C84.8939 9.57833 85.1949 9.46633 85.4049 9.345C85.6149 9.22367 85.7549 9.09533 85.8249 8.96C85.8949 8.82 85.9299 8.673 85.9299 8.519C85.9299 8.44433 85.9135 8.365 85.8809 8.281C85.8482 8.197 85.7945 8.12233 85.7199 8.057C85.6499 7.99167 85.5565 7.938 85.4399 7.896C85.3232 7.84933 85.1832 7.826 85.0199 7.826ZM87.1129 12.677C86.8702 12.9243 86.6322 13.139 86.3989 13.321C86.1655 13.4983 85.9275 13.6453 85.6849 13.762C85.4422 13.8787 85.1879 13.965 84.9219 14.021C84.6559 14.077 84.3665 14.105 84.0539 14.105C83.6385 14.105 83.2652 14.035 82.9339 13.895C82.6025 13.755 82.3179 13.559 82.0799 13.307C81.8465 13.0503 81.6669 12.7423 81.5409 12.383C81.4149 12.019 81.3519 11.613 81.3519 11.165C81.3519 10.7917 81.3915 10.4253 81.4709 10.066C81.5502 9.702 81.6645 9.35667 81.8139 9.03C81.9679 8.70333 82.1522 8.40233 82.3669 8.127C82.5862 7.847 82.8335 7.60667 83.1089 7.406C83.3889 7.20533 83.6945 7.049 84.0259 6.937C84.3619 6.82033 84.7212 6.762 85.1039 6.762C85.4725 6.762 85.7922 6.81567 86.0629 6.923C86.3335 7.02567 86.5575 7.161 86.7349 7.329C86.9169 7.49233 87.0522 7.67433 87.1409 7.875C87.2295 8.07567 87.2739 8.27167 87.2739 8.463C87.2739 8.77567 87.2085 9.06267 87.0779 9.324C86.9519 9.58533 86.7232 9.821 86.3919 10.031C86.0605 10.241 85.6055 10.423 85.0269 10.577C84.4529 10.731 83.7155 10.8547 82.8149 10.948C82.8102 10.976 82.8079 11.0063 82.8079 11.039C82.8079 11.067 82.8079 11.0973 82.8079 11.13C82.8079 11.7227 82.9362 12.1707 83.1929 12.474C83.4495 12.7727 83.8345 12.922 84.3479 12.922C84.6699 12.922 84.9382 12.8777 85.1529 12.789C85.3675 12.7003 85.5495 12.6047 85.6989 12.502C85.8529 12.3947 85.9859 12.2967 86.0979 12.208C86.2145 12.1193 86.3359 12.075 86.4619 12.075C86.5599 12.075 86.6509 12.1217 86.7349 12.215L87.1129 12.677ZM88.2188 12.593C88.2188 12.5603 88.2188 12.523 88.2188 12.481C88.2234 12.4343 88.2281 12.369 88.2328 12.285C88.2421 12.201 88.2538 12.089 88.2678 11.949C88.2818 11.809 88.3028 11.6293 88.3308 11.41L88.7438 8.043H88.0228C87.9434 8.043 87.8804 8.01733 87.8338 7.966C87.7871 7.91 87.7708 7.82833 87.7848 7.721L87.8548 7.112L88.9398 6.944L89.4998 4.879C89.5278 4.79967 89.5698 4.73667 89.6258 4.69C89.6864 4.63867 89.7588 4.613 89.8428 4.613H90.6408L90.3468 6.958H92.1458L92.0198 8.043H90.2138L89.8148 11.326C89.7914 11.5173 89.7728 11.6713 89.7588 11.788C89.7448 11.9 89.7331 11.991 89.7238 12.061C89.7191 12.1263 89.7144 12.173 89.7098 12.201C89.7098 12.2243 89.7098 12.243 89.7098 12.257C89.7098 12.4623 89.7588 12.6187 89.8568 12.726C89.9548 12.8333 90.0901 12.887 90.2628 12.887C90.3748 12.887 90.4704 12.873 90.5498 12.845C90.6291 12.8123 90.6991 12.7797 90.7598 12.747C90.8204 12.7097 90.8718 12.677 90.9138 12.649C90.9558 12.6163 90.9954 12.6 91.0328 12.6C91.0841 12.6 91.1214 12.6117 91.1448 12.635C91.1681 12.6537 91.1914 12.6887 91.2148 12.74L91.5368 13.475C91.2894 13.6803 91.0141 13.839 90.7108 13.951C90.4121 14.0583 90.1088 14.112 89.8008 14.112C89.3201 14.112 88.9398 13.9813 88.6598 13.72C88.3798 13.454 88.2328 13.0783 88.2188 12.593ZM96.928 7.868C96.8486 7.85867 96.7693 7.85167 96.69 7.847C96.6153 7.84233 96.5383 7.84 96.459 7.84C96.0576 7.84 95.6796 7.93333 95.325 8.12C94.975 8.30667 94.6693 8.55867 94.408 8.876C94.1513 9.19333 93.9483 9.562 93.799 9.982C93.6496 10.3973 93.575 10.836 93.575 11.298C93.575 11.83 93.659 12.2243 93.827 12.481C93.9996 12.733 94.2423 12.859 94.555 12.859C94.765 12.859 94.9703 12.7913 95.171 12.656C95.3716 12.516 95.5606 12.327 95.738 12.089C95.92 11.8463 96.088 11.5617 96.242 11.235C96.396 10.9083 96.529 10.5537 96.641 10.171L96.928 7.868ZM96.452 12.334C96.2886 12.6047 96.1136 12.8497 95.927 13.069C95.745 13.2837 95.5513 13.468 95.346 13.622C95.1406 13.776 94.9236 13.895 94.695 13.979C94.4663 14.063 94.2283 14.105 93.981 14.105C93.7056 14.105 93.4513 14.0513 93.218 13.944C92.9846 13.8367 92.784 13.6757 92.616 13.461C92.448 13.2463 92.315 12.9827 92.217 12.67C92.1236 12.3527 92.077 11.9863 92.077 11.571C92.077 11.1463 92.1306 10.7333 92.238 10.332C92.3453 9.926 92.497 9.54567 92.693 9.191C92.889 8.83167 93.1246 8.50267 93.4 8.204C93.6753 7.90533 93.9833 7.64867 94.324 7.434C94.6646 7.21933 95.031 7.05367 95.423 6.937C95.8196 6.81567 96.235 6.755 96.669 6.755C96.9816 6.755 97.292 6.78067 97.6 6.832C97.908 6.87867 98.209 6.96267 98.503 7.084L97.649 14H96.858C96.6666 14 96.536 13.951 96.466 13.853C96.396 13.755 96.361 13.6337 96.361 13.489L96.452 12.334Z" fill="white"/>
</svg>
