<svg width="37" height="36" viewBox="0 0 37 36" fill="none" xmlns="http://www.w3.org/2000/svg">
<g opacity="0.3">
<path d="M14.6 9.29985V18.9674C14.6004 19.7973 14.8642 20.6055 15.3533 21.2751C15.8423 21.9446 16.5311 22.4409 17.3201 22.6919C18.1091 22.943 18.9573 22.9359 19.742 22.6716C20.5267 22.4073 21.2072 21.8995 21.6849 21.2218C22.1627 20.5441 22.4129 19.7316 22.3995 18.9019C22.386 18.0721 22.1096 17.2682 21.6101 16.6064C21.1107 15.9446 20.4141 15.4593 19.6213 15.2207C18.8284 14.9821 17.9804 15.0026 17.2 15.2792V6C10.6311 6.65293 5.5 12.21 5.5 18.9674C5.5 26.1653 11.3201 32 18.5 32C25.6799 32 31.5 26.1653 31.5 18.9674C31.5 12.21 26.3689 6.65293 19.8 6V8.62215C22.4225 8.95668 24.8195 10.2797 26.5039 12.3224C28.1882 14.3651 29.0335 16.974 28.868 19.6191C28.7025 22.2641 27.5385 24.7467 25.6126 26.5623C23.6868 28.3779 21.1436 29.3902 18.5 29.3935C16.0855 29.3948 13.7457 28.5539 11.882 27.0149C10.0183 25.4759 8.74682 23.3348 8.28566 20.9588C7.82449 18.5827 8.20237 16.1199 9.35447 13.9926C10.5066 11.8653 12.3611 10.2062 14.6 9.29985Z" fill="white"/>
</g>
</svg>
