<svg width="94" height="20" viewBox="0 0 94 20" fill="none" xmlns="http://www.w3.org/2000/svg">
<path d="M10 1.66699C14.6025 1.66699 18.3334 5.39783 18.3334 10.0003C18.3334 14.6028 14.6025 18.3337 10 18.3337C5.39752 18.3337 1.66669 14.6028 1.66669 10.0003C1.66669 5.39783 5.39752 1.66699 10 1.66699ZM7.35252 12.7862C7.02335 12.3887 6.61419 12.247 6.12002 12.362L5.99502 12.3962L5.50335 13.2428C5.41063 13.3938 5.37991 13.5748 5.41765 13.7479C5.45538 13.921 5.55863 14.0727 5.70577 14.1714C5.85292 14.2701 6.03253 14.308 6.20699 14.2772C6.38146 14.2464 6.53723 14.1493 6.64169 14.0062L6.69335 13.9287L7.35252 12.7862ZM11.0084 7.21699C10.6017 7.55366 10.1917 8.54783 10.7667 9.53949L13.3 13.9278C13.3877 14.0769 13.5285 14.1874 13.6942 14.2372C13.8598 14.287 14.0382 14.2724 14.1936 14.1964C14.3489 14.1204 14.4699 13.9885 14.5323 13.8272C14.5947 13.6659 14.5939 13.4869 14.53 13.3262L14.4892 13.2428L13.8209 12.0828H14.8125C14.9026 12.083 14.9918 12.0655 15.0751 12.0311C15.1584 11.9967 15.234 11.9461 15.2977 11.8824C15.3613 11.8187 15.4118 11.743 15.4461 11.6596C15.4804 11.5763 15.4979 11.4871 15.4975 11.397C15.498 11.2299 15.4371 11.0684 15.3266 10.9431C15.216 10.8178 15.0634 10.7374 14.8975 10.717L14.8117 10.712H13.0284L11.2 7.54783L11.0084 7.21699ZM11.24 4.68033C11.0961 4.59766 10.9272 4.56985 10.7643 4.60201C10.6015 4.63418 10.4559 4.72415 10.3542 4.85533L10.3025 4.93199L9.99669 5.45949L9.69752 4.93199C9.60979 4.78291 9.46903 4.67243 9.30338 4.62263C9.13772 4.57284 8.95937 4.5874 8.80399 4.66341C8.6486 4.73942 8.52763 4.87127 8.46525 5.03261C8.40287 5.19395 8.40368 5.37289 8.46752 5.53366L8.50835 5.61699L9.20669 6.83116L6.96919 10.7087H5.22169C5.13167 10.7084 5.0425 10.726 4.95929 10.7604C4.87608 10.7947 4.80048 10.8451 4.73683 10.9088C4.67318 10.9725 4.62273 11.0481 4.58838 11.1313C4.55404 11.2145 4.53647 11.3036 4.53669 11.3937C4.53669 11.7445 4.79669 12.032 5.13585 12.0745L5.22169 12.0795H11.455C11.7384 11.5462 11.405 10.7887 10.78 10.7145L10.6792 10.7087H8.55169L11.4917 5.61699C11.5825 5.45941 11.607 5.2722 11.5598 5.09654C11.5126 4.92088 11.3976 4.77117 11.24 4.68033Z" fill="white"/>
<path d="M33.464 11.68L31.88 7.472C31.752 7.14667 31.6213 6.73333 31.488 6.232C31.4293 6.48267 31.3653 6.71467 31.296 6.928C31.2267 7.136 31.1627 7.32 31.104 7.48L29.52 11.68H33.464ZM37.008 16H35.56C35.3947 16 35.2613 15.96 35.16 15.88C35.0587 15.7947 34.9813 15.6907 34.928 15.568L33.968 13.024H29.008L28.048 15.568C28.0053 15.6747 27.9307 15.7733 27.824 15.864C27.7173 15.9547 27.584 16 27.424 16H25.976L30.544 4.48H32.44L37.008 16ZM39.4011 13.952C39.6411 14.2613 39.9025 14.48 40.1851 14.608C40.4731 14.7307 40.7905 14.792 41.1371 14.792C41.8091 14.792 42.3318 14.5467 42.7051 14.056C43.0838 13.5653 43.2731 12.8347 43.2731 11.864C43.2731 11.3627 43.2305 10.936 43.1451 10.584C43.0598 10.2267 42.9371 9.936 42.7771 9.712C42.6171 9.488 42.4225 9.32533 42.1931 9.224C41.9638 9.12267 41.7051 9.072 41.4171 9.072C40.9798 9.072 40.6011 9.168 40.2811 9.36C39.9665 9.54667 39.6731 9.816 39.4011 10.168V13.952ZM39.3131 9.024C39.6545 8.624 40.0411 8.30133 40.4731 8.056C40.9105 7.81067 41.4171 7.688 41.9931 7.688C42.4518 7.688 42.8678 7.78133 43.2411 7.968C43.6145 8.14933 43.9345 8.416 44.2011 8.768C44.4678 9.12 44.6731 9.55733 44.8171 10.08C44.9665 10.5973 45.0411 11.192 45.0411 11.864C45.0411 12.4667 44.9585 13.0293 44.7931 13.552C44.6331 14.0693 44.4011 14.52 44.0971 14.904C43.7931 15.2827 43.4251 15.5813 42.9931 15.8C42.5611 16.0133 42.0731 16.12 41.5291 16.12C41.0491 16.12 40.6411 16.0427 40.3051 15.888C39.9745 15.7333 39.6731 15.52 39.4011 15.248V18.712H37.6811V7.84H38.7211C38.9558 7.84 39.1051 7.94933 39.1691 8.168L39.3131 9.024ZM48.1124 13.952C48.3524 14.2613 48.6137 14.48 48.8964 14.608C49.1844 14.7307 49.5017 14.792 49.8484 14.792C50.5204 14.792 51.043 14.5467 51.4164 14.056C51.795 13.5653 51.9844 12.8347 51.9844 11.864C51.9844 11.3627 51.9417 10.936 51.8564 10.584C51.771 10.2267 51.6484 9.936 51.4884 9.712C51.3284 9.488 51.1337 9.32533 50.9044 9.224C50.675 9.12267 50.4164 9.072 50.1284 9.072C49.691 9.072 49.3124 9.168 48.9924 9.36C48.6777 9.54667 48.3844 9.816 48.1124 10.168V13.952ZM48.0244 9.024C48.3657 8.624 48.7524 8.30133 49.1844 8.056C49.6217 7.81067 50.1284 7.688 50.7044 7.688C51.163 7.688 51.579 7.78133 51.9524 7.968C52.3257 8.14933 52.6457 8.416 52.9124 8.768C53.179 9.12 53.3844 9.55733 53.5284 10.08C53.6777 10.5973 53.7524 11.192 53.7524 11.864C53.7524 12.4667 53.6697 13.0293 53.5044 13.552C53.3444 14.0693 53.1124 14.52 52.8084 14.904C52.5044 15.2827 52.1364 15.5813 51.7044 15.8C51.2724 16.0133 50.7844 16.12 50.2404 16.12C49.7604 16.12 49.3524 16.0427 49.0164 15.888C48.6857 15.7333 48.3844 15.52 48.1124 15.248V18.712H46.3924V7.84H47.4324C47.667 7.84 47.8164 7.94933 47.8804 8.168L48.0244 9.024ZM65.112 6.448C65.0533 6.544 64.992 6.616 64.928 6.664C64.864 6.70667 64.784 6.728 64.688 6.728C64.5867 6.728 64.472 6.68533 64.344 6.6C64.2213 6.51467 64.0667 6.42133 63.88 6.32C63.6987 6.21333 63.4827 6.11733 63.232 6.032C62.9813 5.94133 62.6827 5.896 62.336 5.896C62.016 5.896 61.7333 5.936 61.488 6.016C61.248 6.096 61.0453 6.208 60.88 6.352C60.7147 6.496 60.5893 6.66667 60.504 6.864C60.424 7.056 60.384 7.26667 60.384 7.496C60.384 7.78933 60.4613 8.03467 60.616 8.232C60.7707 8.424 60.9733 8.58933 61.224 8.728C61.48 8.86667 61.7707 8.98933 62.096 9.096C62.4213 9.19733 62.752 9.30667 63.088 9.424C63.4293 9.54133 63.7627 9.67467 64.088 9.824C64.4133 9.97333 64.7013 10.1627 64.952 10.392C65.208 10.6213 65.4133 10.9013 65.568 11.232C65.7227 11.5627 65.8 11.9653 65.8 12.44C65.8 12.952 65.712 13.432 65.536 13.88C65.36 14.328 65.104 14.72 64.768 15.056C64.4373 15.3867 64.0267 15.648 63.536 15.84C63.0507 16.032 62.496 16.128 61.872 16.128C61.504 16.128 61.144 16.0907 60.792 16.016C60.4453 15.9467 60.112 15.848 59.792 15.72C59.4773 15.5867 59.1813 15.4267 58.904 15.24C58.6267 15.0533 58.3787 14.8453 58.16 14.616L58.704 13.72C58.752 13.6453 58.8133 13.5867 58.888 13.544C58.9627 13.5013 59.0453 13.48 59.136 13.48C59.2587 13.48 59.3947 13.5387 59.544 13.656C59.6933 13.768 59.872 13.8933 60.08 14.032C60.2933 14.1653 60.5493 14.2907 60.848 14.408C61.1467 14.52 61.504 14.576 61.92 14.576C62.5973 14.576 63.12 14.4107 63.488 14.08C63.8613 13.7493 64.048 13.2933 64.048 12.712C64.048 12.3867 63.9707 12.1227 63.816 11.92C63.6613 11.712 63.456 11.5387 63.2 11.4C62.9493 11.2613 62.6613 11.144 62.336 11.048C62.0107 10.952 61.68 10.8507 61.344 10.744C61.008 10.632 60.6773 10.504 60.352 10.36C60.0267 10.2107 59.736 10.0187 59.48 9.784C59.2293 9.544 59.0267 9.25067 58.872 8.904C58.7173 8.552 58.64 8.11467 58.64 7.592C58.64 7.176 58.72 6.77333 58.88 6.384C59.0453 5.99467 59.2827 5.65067 59.592 5.352C59.9067 5.048 60.2933 4.80533 60.752 4.624C61.2107 4.44267 61.7333 4.352 62.32 4.352C62.9813 4.352 63.5867 4.456 64.136 4.664C64.6907 4.872 65.168 5.168 65.568 5.552L65.112 6.448ZM69.439 16.128C68.7617 16.128 68.239 15.9387 67.871 15.56C67.5083 15.176 67.327 14.6373 67.327 13.944V9.192H66.431C66.335 9.192 66.2523 9.16267 66.183 9.104C66.1137 9.04 66.079 8.94667 66.079 8.824V8.128L67.399 7.936L67.775 5.576C67.8017 5.48533 67.847 5.41333 67.911 5.36C67.975 5.30133 68.0603 5.272 68.167 5.272H69.047V7.952H71.311V9.192H69.047V13.824C69.047 14.1173 69.119 14.3413 69.263 14.496C69.407 14.6507 69.599 14.728 69.839 14.728C69.9723 14.728 70.087 14.712 70.183 14.68C70.279 14.6427 70.3617 14.6053 70.431 14.568C70.5003 14.5253 70.559 14.488 70.607 14.456C70.6603 14.4187 70.711 14.4 70.759 14.4C70.855 14.4 70.9323 14.4533 70.991 14.56L71.503 15.4C71.2363 15.6347 70.9217 15.816 70.559 15.944C70.1963 16.0667 69.823 16.128 69.439 16.128ZM75.8123 7.712C76.4149 7.712 76.9589 7.81067 77.4443 8.008C77.9349 8.20533 78.3509 8.48533 78.6923 8.848C79.0389 9.21067 79.3056 9.65067 79.4923 10.168C79.6789 10.6853 79.7723 11.2667 79.7723 11.912C79.7723 12.5573 79.6789 13.1387 79.4923 13.656C79.3056 14.1733 79.0389 14.616 78.6923 14.984C78.3509 15.3467 77.9349 15.6267 77.4443 15.824C76.9589 16.0213 76.4149 16.12 75.8123 16.12C75.2043 16.12 74.6549 16.0213 74.1643 15.824C73.6789 15.6267 73.2629 15.3467 72.9163 14.984C72.5696 14.616 72.3029 14.1733 72.1163 13.656C71.9296 13.1387 71.8363 12.5573 71.8363 11.912C71.8363 11.2667 71.9296 10.6853 72.1163 10.168C72.3029 9.65067 72.5696 9.21067 72.9163 8.848C73.2629 8.48533 73.6789 8.20533 74.1643 8.008C74.6549 7.81067 75.2043 7.712 75.8123 7.712ZM75.8123 14.776C76.5483 14.776 77.0949 14.5307 77.4523 14.04C77.8149 13.544 77.9963 12.8373 77.9963 11.92C77.9963 11.0027 77.8149 10.296 77.4523 9.8C77.0949 9.29867 76.5483 9.048 75.8123 9.048C75.0656 9.048 74.5109 9.29867 74.1483 9.8C73.7856 10.296 73.6043 11.0027 73.6043 11.92C73.6043 12.8373 73.7856 13.544 74.1483 14.04C74.5109 14.5307 75.0656 14.776 75.8123 14.776ZM82.7289 9.352C82.9849 8.83467 83.2942 8.42933 83.6569 8.136C84.0195 7.83733 84.4542 7.688 84.9609 7.688C85.1369 7.688 85.3022 7.70933 85.4569 7.752C85.6115 7.78933 85.7502 7.848 85.8729 7.928L85.7529 9.224C85.7315 9.31467 85.6969 9.37867 85.6489 9.416C85.6062 9.448 85.5475 9.464 85.4729 9.464C85.3929 9.464 85.2782 9.45067 85.1289 9.424C84.9795 9.392 84.8222 9.376 84.6569 9.376C84.4169 9.376 84.2035 9.41067 84.0169 9.48C83.8355 9.54933 83.6702 9.65067 83.5209 9.784C83.3769 9.91733 83.2489 10.08 83.1369 10.272C83.0249 10.464 82.9209 10.6827 82.8249 10.928V16H81.1049V7.84H82.1049C82.2862 7.84 82.4115 7.87467 82.4809 7.944C82.5502 8.008 82.5982 8.12267 82.6249 8.288L82.7289 9.352ZM91.7619 11C91.7619 10.712 91.7192 10.4453 91.6339 10.2C91.5539 9.94933 91.4339 9.73333 91.2739 9.552C91.1139 9.36533 90.9139 9.22133 90.6739 9.12C90.4392 9.01333 90.1672 8.96 89.8579 8.96C89.2339 8.96 88.7432 9.13867 88.3859 9.496C88.0285 9.85333 87.8019 10.3547 87.7059 11H91.7619ZM87.6579 12.056C87.6792 12.52 87.7512 12.9227 87.8739 13.264C87.9965 13.6 88.1592 13.88 88.3619 14.104C88.5699 14.328 88.8152 14.496 89.0979 14.608C89.3859 14.7147 89.7059 14.768 90.0579 14.768C90.3939 14.768 90.6845 14.7307 90.9299 14.656C91.1752 14.576 91.3885 14.4907 91.5699 14.4C91.7512 14.304 91.9059 14.2187 92.0339 14.144C92.1619 14.064 92.2792 14.024 92.3859 14.024C92.5245 14.024 92.6312 14.0773 92.7059 14.184L93.1939 14.816C92.9912 15.056 92.7619 15.2587 92.5059 15.424C92.2499 15.5893 91.9779 15.7253 91.6899 15.832C91.4019 15.9333 91.1059 16.0053 90.8019 16.048C90.4979 16.096 90.2019 16.12 89.9139 16.12C89.3485 16.12 88.8232 16.0267 88.3379 15.84C87.8579 15.648 87.4392 15.368 87.0819 15C86.7299 14.632 86.4525 14.176 86.2499 13.632C86.0525 13.088 85.9539 12.4613 85.9539 11.752C85.9539 11.1867 86.0419 10.6587 86.2179 10.168C86.3992 9.67733 86.6552 9.25067 86.9859 8.888C87.3219 8.52533 87.7272 8.24 88.2019 8.032C88.6819 7.81867 89.2232 7.712 89.8259 7.712C90.3272 7.712 90.7912 7.79467 91.2179 7.96C91.6445 8.12 92.0125 8.35733 92.3219 8.672C92.6312 8.98667 92.8712 9.37333 93.0419 9.832C93.2179 10.2853 93.3059 10.8027 93.3059 11.384C93.3059 11.6507 93.2765 11.8293 93.2179 11.92C93.1592 12.0107 93.0525 12.056 92.8979 12.056H87.6579Z" fill="white"/>
</svg>
