<svg width="16" height="16" viewBox="0 0 16 16" fill="none" xmlns="http://www.w3.org/2000/svg">
<mask id="path-1-outside-1_2378_17458" maskUnits="userSpaceOnUse" x="0" y="0" width="16" height="16" fill="black">
<rect fill="white" width="16" height="16"/>
<path fill-rule="evenodd" clip-rule="evenodd" d="M8.04871 7.95146V1H7.95148V7.95146H1V8.04869H7.95148V15H8.04871V8.04869H15V7.95146H8.04871Z"/>
</mask>
<path fill-rule="evenodd" clip-rule="evenodd" d="M8.04871 7.95146V1H7.95148V7.95146H1V8.04869H7.95148V15H8.04871V8.04869H15V7.95146H8.04871Z" fill="#C4C4C4"/>
<path d="M8.04871 1H9.04871V0H8.04871V1ZM8.04871 7.95146H7.04871V8.95146H8.04871V7.95146ZM7.95148 1V0H6.95148V1H7.95148ZM7.95148 7.95146V8.95146H8.95148V7.95146H7.95148ZM1 7.95146V6.95146H0V7.95146H1ZM1 8.04869H0V9.04869H1V8.04869ZM7.95148 8.04869H8.95148V7.04869H7.95148V8.04869ZM7.95148 15H6.95148V16H7.95148V15ZM8.04871 15V16H9.04871V15H8.04871ZM8.04871 8.04869V7.04869H7.04871V8.04869H8.04871ZM15 8.04869V9.04869H16V8.04869H15ZM15 7.95146H16V6.95146H15V7.95146ZM7.04871 1V7.95146H9.04871V1H7.04871ZM7.95148 2H8.04871V0H7.95148V2ZM8.95148 7.95146V1H6.95148V7.95146H8.95148ZM1 8.95146H7.95148V6.95146H1V8.95146ZM2 8.04869V7.95146H0V8.04869H2ZM7.95148 7.04869H1V9.04869H7.95148V7.04869ZM8.95148 15V8.04869H6.95148V15H8.95148ZM8.04871 14H7.95148V16H8.04871V14ZM7.04871 8.04869V15H9.04871V8.04869H7.04871ZM15 7.04869H8.04871V9.04869H15V7.04869ZM14 7.95146V8.04869H16V7.95146H14ZM8.04871 8.95146H15V6.95146H8.04871V8.95146Z" fill="white" mask="url(#path-1-outside-1_2378_17458)"/>
</svg>
