<svg width="16" height="17" viewBox="0 0 16 17" fill="none" xmlns="http://www.w3.org/2000/svg">
<path d="M5.33317 3.8335H10.6665C11.9042 3.8335 13.0912 4.32516 13.9663 5.20033C14.8415 6.0755 15.3332 7.26249 15.3332 8.50016C15.3332 9.73784 14.8415 10.9248 13.9663 11.8C13.0912 12.6752 11.9042 13.1668 10.6665 13.1668H5.33317C4.09549 13.1668 2.90851 12.6752 2.03334 11.8C1.15817 10.9248 0.666504 9.73784 0.666504 8.50016C0.666504 7.26249 1.15817 6.0755 2.03334 5.20033C2.90851 4.32516 4.09549 3.8335 5.33317 3.8335ZM10.6665 10.5002C11.1969 10.5002 11.7056 10.2894 12.0807 9.91438C12.4558 9.5393 12.6665 9.0306 12.6665 8.50016C12.6665 7.96973 12.4558 7.46102 12.0807 7.08595C11.7056 6.71088 11.1969 6.50016 10.6665 6.50016C10.1361 6.50016 9.62736 6.71088 9.25229 7.08595C8.87722 7.46102 8.6665 7.96973 8.6665 8.50016C8.6665 9.0306 8.87722 9.5393 9.25229 9.91438C9.62736 10.2894 10.1361 10.5002 10.6665 10.5002Z" fill="white"/>
</svg>
