<svg width="213" height="92" viewBox="0 0 213 92" fill="none" xmlns="http://www.w3.org/2000/svg">
<path d="M11.0028 12.84H6.93875V17.8C6.93875 22.824 5.37075 28.104 1.05075 30.728L3.57875 33.896C6.23475 32.296 7.96275 29.48 8.98675 26.216C9.91475 29.192 11.4828 31.688 13.9788 33.224L16.2828 29.96C12.2828 27.304 11.0028 22.408 11.0028 17.64V12.84ZM16.8908 20.232H13.1788V23.656H16.8908V38.44H20.8268V10.76H16.8908V20.232ZM22.8748 10.28V39.752H26.8748V10.28H22.8748ZM47.4083 23.336C42.7683 21.896 40.7843 18.44 40.7843 14.888V11.88H36.4963V14.536C36.4963 18.536 34.5123 22.472 29.5843 24.104L31.7923 27.432C35.1523 26.248 37.4243 23.976 38.7043 21.096C39.9523 23.592 42.0963 25.576 45.2003 26.6L47.4083 23.336ZM43.6003 36.488C39.8243 36.488 37.8083 35.72 37.8083 34.056C37.8083 32.424 39.8243 31.656 43.6003 31.656C47.3443 31.656 49.3603 32.424 49.3603 34.056C49.3603 35.72 47.3443 36.488 43.6003 36.488ZM43.6003 28.392C37.4563 28.392 33.6163 30.504 33.6163 34.056C33.6163 37.64 37.4563 39.752 43.6003 39.752C49.7123 39.752 53.5523 37.64 53.5523 34.056C53.5523 30.504 49.7123 28.392 43.6003 28.392ZM53.2323 17.128V10.312H49.0083V27.72H53.2323V20.616H57.1363V17.128H53.2323ZM71.6638 15.784H84.3678V23.592H71.6638V15.784ZM80.1438 32.904V26.92H88.4958V12.456H67.5358V26.92H75.9198V32.904H64.7198V36.328H91.4078V32.904H80.1438ZM116.901 19.08H100.613V14.696H116.677V11.336H96.4213V22.44H116.901V19.08ZM100.549 30.408H96.3253V39.24H117.125V35.88H100.549V30.408ZM93.1893 24.84V28.2H119.845V24.84H93.1893ZM150.469 21.896C151.301 18.856 151.301 16.36 151.301 14.024V11.592H130.885V14.92H147.077C147.077 16.872 146.981 18.856 146.309 21.48L150.469 21.896ZM140.997 36.584C137.029 36.584 134.757 35.784 134.757 34.216C134.757 32.616 137.029 31.816 140.997 31.816C144.997 31.816 147.269 32.616 147.269 34.216C147.269 35.784 144.997 36.584 140.997 36.584ZM140.997 28.648C134.661 28.648 130.565 30.76 130.565 34.216C130.565 37.64 134.661 39.752 140.997 39.752C147.365 39.752 151.461 37.64 151.461 34.216C151.461 30.76 147.365 28.648 140.997 28.648ZM141.957 23.464V18.312H137.733V23.464H127.909V26.792H154.437V23.464H141.957ZM157.338 12.488V15.848H166.938C166.266 19.976 162.618 23.4 156.058 25.192L157.818 28.552C166.586 26.024 171.514 20.488 171.514 12.488H157.338ZM164.666 29.256H160.442V39.24H180.474V35.88H164.666V29.256ZM179.45 18.504V10.28H175.226V31.368H179.45V21.96H183.386V18.504H179.45ZM198.032 13.8C202.32 13.8 204.336 14.408 204.336 15.72C204.336 17.096 202.32 17.672 198.032 17.672C193.776 17.672 191.76 17.096 191.76 15.72C191.76 14.408 193.776 13.8 198.032 13.8ZM198.032 20.744C204.784 20.744 208.72 18.984 208.72 15.72C208.72 12.488 204.784 10.696 198.032 10.696C191.312 10.696 187.376 12.488 187.376 15.72C187.376 18.984 191.312 20.744 198.032 20.744ZM191.984 34.696H208.112V27.112H187.76V30.216H203.952V31.784H187.792V39.528H208.88V36.36H191.984V34.696ZM184.72 22.152V25.448H211.344V22.152H184.72Z" fill="white"/>
<path d="M39.2602 57H30.25V85.0847H36.4291V75.7617H39.4316C44.8514 75.7617 49.5788 72.8179 49.5788 66.1374C49.5855 59.1882 44.9197 57 39.2602 57ZM39.1263 70.4352H36.4345V62.3206H38.9535C41.9212 62.3206 43.5778 63.3019 43.5778 66.133C43.5724 68.8898 42.1248 70.4352 39.1209 70.4352H39.1263Z" fill="#FF2D55"/>
<path d="M58.7147 57H52.5355V85.0847H68.6904V79.4226H58.716L58.7147 57Z" fill="#FF2D55"/>
<path d="M102.835 68.7161H102.701C101.977 66.5278 98.4906 57 98.4906 57H91.9285L99.6597 75.1546V85.0847H105.803V75.1575L113.57 57.0029H107.116C107.116 57.0029 103.559 66.5278 102.835 68.7161Z" fill="#FF2D55"/>
<path d="M79.5763 57L71.604 85.0847H77.8862L83.0636 62.8016L88.4472 85.0847H94.937L86.9634 57.0044L79.5763 57Z" fill="#FF2D55"/>
<path d="M83.2716 79.0181C82.7324 79.0263 82.2074 79.2111 81.7627 79.5491C81.3179 79.8872 80.9733 80.3635 80.772 80.9181C80.5708 81.4726 80.522 82.0808 80.6317 82.6661C80.7414 83.2514 81.0047 83.7876 81.3886 84.2075C81.7726 84.6273 82.2599 84.9118 82.7893 85.0255C83.3187 85.1391 83.8666 85.0767 84.3641 84.8461C84.8616 84.6155 85.2865 84.227 85.5854 83.7294C85.8843 83.2318 86.0438 82.6474 86.0438 82.0496C86.0415 81.6487 85.968 81.2523 85.8274 80.8829C85.6868 80.5135 85.482 80.1785 85.2245 79.897C84.967 79.6154 84.662 79.3929 84.327 79.2421C83.9919 79.0913 83.6333 79.0152 83.2716 79.0181Z" fill="#FF2D55"/>
<path d="M128.069 76.28C126.085 76.28 124.613 74.936 124.613 72.696C124.613 70.456 126.085 69.08 128.069 69.08C130.053 69.08 131.493 70.456 131.493 72.664C131.493 74.936 130.053 76.28 128.069 76.28ZM128.069 65.656C123.781 65.656 120.581 68.568 120.581 72.664C120.581 76.824 123.781 79.736 128.069 79.736C132.325 79.736 135.493 76.824 135.493 72.664C135.493 68.568 132.325 65.656 128.069 65.656ZM130.149 56.792H125.925V60.632H119.397V63.992H136.549V60.632H130.149V56.792ZM146.917 67.8H142.693V56.28H138.469V85.752H142.693V71.288H146.917V67.8ZM153.37 70.168H162.714V58.776H149.178V62.136H158.554V66.84H149.21V79H151.706C156.826 79 160.89 78.808 165.306 78.008L164.922 74.584C161.082 75.256 157.594 75.48 153.37 75.512V70.168ZM175.354 67.384H171.13V56.248H166.906V85.816H171.13V70.872H175.354V67.384ZM179.44 74.936H182.512L183.184 63.128L183.344 58.68H178.608L178.768 63.128L179.44 74.936ZM180.976 83.448C182.64 83.448 183.92 82.104 183.92 80.376C183.92 78.616 182.64 77.304 180.976 77.304C179.312 77.304 178.064 78.616 178.064 80.376C178.064 82.104 179.312 83.448 180.976 83.448Z" fill="white"/>
</svg>
