<svg width="80" height="47" viewBox="0 0 80 47" fill="none" xmlns="http://www.w3.org/2000/svg">
<g filter="url(#filter0_d_6560_62263)">
<mask id="path-1-inside-1_6560_62263" fill="white">
<path fill-rule="evenodd" clip-rule="evenodd" d="M10 8C6.68629 8 4 10.6863 4 14V36C4 39.3137 6.68629 42 10 42H34.7326L38.5858 45.8532C39.3668 46.6343 40.6332 46.6343 41.4142 45.8532L45.2674 42H70C73.3137 42 76 39.3137 76 36V14C76 10.6863 73.3137 8 70 8H10Z"/>
</mask>
<path fill-rule="evenodd" clip-rule="evenodd" d="M10 8C6.68629 8 4 10.6863 4 14V36C4 39.3137 6.68629 42 10 42H34.7326L38.5858 45.8532C39.3668 46.6343 40.6332 46.6343 41.4142 45.8532L45.2674 42H70C73.3137 42 76 39.3137 76 36V14C76 10.6863 73.3137 8 70 8H10Z" fill="#FF2D55"/>
<path d="M34.7326 42L35.4397 41.2929L35.1468 41H34.7326V42ZM45.2674 42V41H44.8532L44.5603 41.2929L45.2674 42ZM5 14C5 11.2386 7.23858 9 10 9V7C6.13401 7 3 10.134 3 14H5ZM5 36V14H3V36H5ZM10 41C7.23858 41 5 38.7614 5 36H3C3 39.866 6.13401 43 10 43V41ZM34.7326 41H10V43H34.7326V41ZM39.2929 45.1461L35.4397 41.2929L34.0255 42.7071L37.8787 46.5603L39.2929 45.1461ZM40.7071 45.1461C40.3166 45.5366 39.6834 45.5366 39.2929 45.1461L37.8787 46.5603C39.0503 47.7319 40.9497 47.7319 42.1213 46.5603L40.7071 45.1461ZM44.5603 41.2929L40.7071 45.1461L42.1213 46.5603L45.9745 42.7071L44.5603 41.2929ZM70 41H45.2674V43H70V41ZM75 36C75 38.7614 72.7614 41 70 41V43C73.866 43 77 39.866 77 36H75ZM75 14V36H77V14H75ZM70 9C72.7614 9 75 11.2386 75 14H77C77 10.134 73.866 7 70 7V9ZM10 9H70V7H10V9Z" fill="#FF2D55" mask="url(#path-1-inside-1_6560_62263)"/>
<path d="M19.56 21.726V23.224H21.534V27.074H23.382V18.31H21.534V21.726H19.56ZM20.302 24.358C18.23 23.812 17.334 22.454 17.334 21.11V21.068H19.882V19.612H17.334V18.268H15.486V19.612H12.966V21.068H15.486V21.11C15.486 22.58 14.59 24.064 12.518 24.666L13.386 26.108C14.884 25.674 15.892 24.75 16.452 23.574C17.04 24.596 18.034 25.394 19.462 25.786L20.302 24.358ZM20.022 26.36H18.132V26.542C18.132 27.802 16.746 29.328 14.044 29.72L14.73 31.162C16.802 30.868 18.286 29.916 19.056 28.684C19.826 29.93 21.31 30.868 23.41 31.162L24.082 29.72C21.338 29.342 20.022 27.886 20.022 26.542V26.36ZM33.9608 22.566C32.4908 22.874 31.1468 22.972 28.9348 22.986V20.424H32.8688V18.982H27.1008V24.442H28.1788C30.9228 24.442 32.4768 24.372 34.1428 24.008L33.9608 22.566ZM30.1388 28.796H36.8028V25.24H28.2908V26.696H34.9828V27.452H28.3048V31.05H37.1808V29.608H30.1388V28.796ZM36.8028 20.746V18.296H34.9548V24.708H36.8028V22.244H38.5108V20.746H36.8028ZM49.1736 22.692H43.8676V20.396H49.1736V22.692ZM50.9796 18.94H42.0476V24.148H50.9796V18.94ZM52.3796 25.52H40.7036V26.99H45.5756V31.204H47.4236V26.99H52.3796V25.52ZM57.3565 26.304H59.6105V28.278H57.3565V26.304ZM61.4305 28.278V26.304H63.2365V24.834H55.7605V23.42H62.9425V19.136H53.9125V20.606H61.1225V21.978H53.9265V26.304H55.5365V28.278H52.5685V29.79H64.2585V28.278H61.4305ZM65.7774 26.472H67.1214L67.4154 21.306L67.4854 19.36H65.4134L65.4834 21.306L65.7774 26.472ZM66.4494 30.196C67.1774 30.196 67.7374 29.608 67.7374 28.852C67.7374 28.082 67.1774 27.508 66.4494 27.508C65.7214 27.508 65.1754 28.082 65.1754 28.852C65.1754 29.608 65.7214 30.196 66.4494 30.196Z" fill="white"/>
</g>
<defs>
<filter id="filter0_d_6560_62263" x="0" y="0" width="80" height="46.439" filterUnits="userSpaceOnUse" color-interpolation-filters="sRGB">
<feFlood flood-opacity="0" result="BackgroundImageFix"/>
<feColorMatrix in="SourceAlpha" type="matrix" values="0 0 0 0 0 0 0 0 0 0 0 0 0 0 0 0 0 0 127 0" result="hardAlpha"/>
<feOffset dy="-4"/>
<feGaussianBlur stdDeviation="2"/>
<feComposite in2="hardAlpha" operator="out"/>
<feColorMatrix type="matrix" values="0 0 0 0 0 0 0 0 0 0 0 0 0 0 0 0 0 0 0.25 0"/>
<feBlend mode="normal" in2="BackgroundImageFix" result="effect1_dropShadow_6560_62263"/>
<feBlend mode="normal" in="SourceGraphic" in2="effect1_dropShadow_6560_62263" result="shape"/>
</filter>
</defs>
</svg>
