<svg width="82" height="45" viewBox="0 0 82 45" fill="none" xmlns="http://www.w3.org/2000/svg">
<g filter="url(#filter0_d_6560_61872)">
<mask id="path-1-inside-1_6560_61872" fill="white">
<path fill-rule="evenodd" clip-rule="evenodd" d="M42.4142 1.41293C41.6332 0.631886 40.3668 0.631887 39.5858 1.41294L35.9985 5.00019H9C6.23858 5.00019 4 7.23876 4 10.0002V32.0002C4 34.7616 6.23858 37.0002 9 37.0002H73C75.7614 37.0002 78 34.7616 78 32.0002V10.0002C78 7.23876 75.7614 5.00019 73 5.00019H46.0015L42.4142 1.41293Z"/>
</mask>
<path fill-rule="evenodd" clip-rule="evenodd" d="M42.4142 1.41293C41.6332 0.631886 40.3668 0.631887 39.5858 1.41294L35.9985 5.00019H9C6.23858 5.00019 4 7.23876 4 10.0002V32.0002C4 34.7616 6.23858 37.0002 9 37.0002H73C75.7614 37.0002 78 34.7616 78 32.0002V10.0002C78 7.23876 75.7614 5.00019 73 5.00019H46.0015L42.4142 1.41293Z" fill="white"/>
<path d="M39.5858 1.41294L40.2929 2.12004L40.2929 2.12004L39.5858 1.41294ZM42.4142 1.41293L43.1213 0.705828L43.1213 0.705826L42.4142 1.41293ZM35.9985 5.00019V6.00019H36.4127L36.7056 5.70729L35.9985 5.00019ZM46.0015 5.00019L45.2944 5.70729L45.5873 6.00019H46.0015V5.00019ZM40.2929 2.12004C40.6834 1.72952 41.3166 1.72952 41.7071 2.12004L43.1213 0.705826C41.9497 -0.465744 40.0503 -0.465745 38.8787 0.705829L40.2929 2.12004ZM36.7056 5.70729L40.2929 2.12004L38.8787 0.705829L35.2914 4.29308L36.7056 5.70729ZM9 6.00019H35.9985V4.00019H9V6.00019ZM5 10.0002C5 7.79105 6.79086 6.00019 9 6.00019V4.00019C5.68629 4.00019 3 6.68648 3 10.0002H5ZM5 32.0002V10.0002H3V32.0002H5ZM9 36.0002C6.79086 36.0002 5 34.2093 5 32.0002H3C3 35.3139 5.68629 38.0002 9 38.0002V36.0002ZM73 36.0002H9V38.0002H73V36.0002ZM77 32.0002C77 34.2093 75.2091 36.0002 73 36.0002V38.0002C76.3137 38.0002 79 35.3139 79 32.0002H77ZM77 10.0002V32.0002H79V10.0002H77ZM73 6.00019C75.2091 6.00019 77 7.79105 77 10.0002H79C79 6.68648 76.3137 4.00019 73 4.00019V6.00019ZM46.0015 6.00019H73V4.00019H46.0015V6.00019ZM41.7071 2.12004L45.2944 5.70729L46.7086 4.29308L43.1213 0.705828L41.7071 2.12004Z" fill="url(#paint0_linear_6560_61872)" mask="url(#path-1-inside-1_6560_61872)"/>
<path d="M19.8725 18.908V20.084H22.1405V24.116H23.5825V15.422H22.1405V18.908H19.8725ZM20.5585 21.568C18.6405 20.994 17.5625 19.594 17.5625 18.152V17.984H20.2225V16.822H17.5765V15.394H16.1205V16.822H13.4605V17.984H16.1205V18.152C16.1205 19.748 15.0285 21.274 13.0965 21.89L13.7965 23.01C15.2665 22.534 16.3305 21.54 16.8765 20.252C17.4365 21.372 18.4725 22.268 19.9005 22.688L20.5585 21.568ZM20.1805 23.332H18.6965V23.57C18.6965 25.082 17.0025 26.524 14.5805 26.902L15.1265 28.036C17.1005 27.728 18.6685 26.734 19.4385 25.404C20.1945 26.748 21.7765 27.714 23.7645 28.036L24.3245 26.902C21.8605 26.524 20.1805 25.138 20.1805 23.57V23.332ZM34.3719 19.804C32.8039 20.126 31.3899 20.21 29.0659 20.224V17.284H33.2519V16.136H27.6239V21.386H28.6459C31.2919 21.386 32.8179 21.302 34.5399 20.938L34.3719 19.804ZM30.2839 25.642H37.0039V22.338H28.8419V23.5H35.5759V24.55H28.8699V27.924H37.4239V26.776H30.2839V25.642ZM37.0039 17.97V15.436H35.5619V21.764H37.0039V19.16H38.7959V17.97H37.0039ZM49.7534 19.944H43.9714V17.256H49.7534V19.944ZM51.1814 16.108H42.5434V21.106H51.1814V16.108ZM52.6094 22.66H41.1434V23.822H46.1134V28.078H47.5554V23.822H52.6094V22.66ZM57.5303 23.22H60.1203V25.404H57.5303V23.22ZM61.5483 25.404V23.22H63.4103V22.058H55.8363V20.308H63.1303V16.318H54.3943V17.48H61.7023V19.16H54.4223V23.22H56.1023V25.404H53.0363V26.594H64.4883V25.404H61.5483ZM66.0632 23.71H67.1412L67.3652 18.11L67.4212 16.444H65.7972L65.8392 18.11L66.0632 23.71ZM66.5952 27.182C67.2112 27.182 67.6872 26.72 67.6872 26.062C67.6872 25.39 67.2112 24.914 66.5952 24.914C65.9932 24.914 65.5312 25.39 65.5312 26.062C65.5312 26.72 65.9932 27.182 66.5952 27.182Z" fill="url(#paint1_linear_6560_61872)"/>
</g>
<defs>
<filter id="filter0_d_6560_61872" x="0" y="0.827148" width="82" height="44.1729" filterUnits="userSpaceOnUse" color-interpolation-filters="sRGB">
<feFlood flood-opacity="0" result="BackgroundImageFix"/>
<feColorMatrix in="SourceAlpha" type="matrix" values="0 0 0 0 0 0 0 0 0 0 0 0 0 0 0 0 0 0 127 0" result="hardAlpha"/>
<feOffset dy="4"/>
<feGaussianBlur stdDeviation="2"/>
<feComposite in2="hardAlpha" operator="out"/>
<feColorMatrix type="matrix" values="0 0 0 0 0 0 0 0 0 0 0 0 0 0 0 0 0 0 0.25 0"/>
<feBlend mode="normal" in2="BackgroundImageFix" result="effect1_dropShadow_6560_61872"/>
<feBlend mode="normal" in="SourceGraphic" in2="effect1_dropShadow_6560_61872" result="shape"/>
</filter>
<linearGradient id="paint0_linear_6560_61872" x1="41" y1="0.827148" x2="41" y2="37.0002" gradientUnits="userSpaceOnUse">
<stop stop-color="#FF2D55"/>
<stop offset="1" stop-color="#FD4E6D"/>
</linearGradient>
<linearGradient id="paint1_linear_6560_61872" x1="12" y1="22" x2="67.5" y2="26.5" gradientUnits="userSpaceOnUse">
<stop stop-color="#FF2D55"/>
<stop offset="1" stop-color="#FD4E6D"/>
</linearGradient>
</defs>
</svg>
