<svg width="47" height="47" viewBox="0 0 47 47" fill="none" xmlns="http://www.w3.org/2000/svg">
<g clip-path="url(#clip0_4581_36341)">
<g opacity="0.53" filter="url(#filter0_f_4581_36341)">
<path d="M41.621 24.6042C41.621 26.8078 41.161 28.9898 40.2671 31.0256C39.3733 33.0615 38.0631 34.9113 36.4115 36.4695C34.7598 38.0276 32.799 39.2636 30.6411 40.1069C28.4831 40.9502 26.1702 41.3842 23.8344 41.3842C21.4987 41.3842 19.1858 40.9502 17.0278 40.1069C14.8698 39.2636 12.9091 38.0276 11.2574 36.4695C9.60579 34.9113 8.29564 33.0615 7.40178 31.0256C6.50792 28.9898 6.04785 26.8078 6.04785 24.6042C6.04785 20.1539 7.92179 15.8858 11.2574 12.739C14.5931 9.59211 19.1171 7.82422 23.8344 7.82422C26.1702 7.82422 28.4831 8.25825 30.6411 9.10152C32.799 9.94479 34.7598 11.1808 36.4115 12.739C38.0631 14.2971 39.3733 16.1469 40.2671 18.1828C41.161 20.2186 41.621 22.4006 41.621 24.6042V24.6042Z" fill="black"/>
</g>
<path d="M42.298 23.1227C42.298 25.4982 41.8204 27.8505 40.8925 30.0452C39.9646 32.24 38.6046 34.2341 36.89 35.9139C35.1755 37.5937 33.1401 38.9261 30.8999 39.8352C28.6598 40.7443 26.2588 41.2122 23.8341 41.2122C18.9371 41.2122 14.2407 39.3063 10.7781 35.9139C7.31542 32.5215 5.37012 27.9203 5.37012 23.1227C5.37012 18.3251 7.31542 13.7239 10.7781 10.3315C14.2407 6.93906 18.9371 5.0332 23.8341 5.0332C26.2588 5.0332 28.6598 5.5011 30.8999 6.41019C33.1401 7.31927 35.1755 8.65173 36.89 10.3315C38.6046 12.0113 39.9646 14.0054 40.8925 16.2001C41.8204 18.3949 42.298 20.7472 42.298 23.1227V23.1227Z" fill="url(#paint0_linear_4581_36341)" stroke="#CDCDCD" stroke-width="0.0930123" stroke-linecap="round" stroke-linejoin="round"/>
<path d="M40.8516 23.1232C40.8516 27.5449 39.0588 31.7855 35.8674 34.9121C32.6761 38.0387 28.3477 39.7952 23.8345 39.7952C19.3213 39.7952 14.9929 38.0387 11.8016 34.9121C8.61025 31.7855 6.81738 27.5449 6.81738 23.1232C6.81738 18.7015 8.61025 14.4609 11.8016 11.3343C14.9929 8.20768 19.3213 6.45117 23.8345 6.45117C28.3477 6.45117 32.6761 8.20768 35.8674 11.3343C39.0588 14.4609 40.8516 18.7015 40.8516 23.1232Z" fill="url(#paint1_radial_4581_36341)"/>
<path d="M23.8338 7.32031C23.6964 7.32031 23.5857 7.42871 23.5857 7.56338V10.3671C23.5857 10.5018 23.6964 10.6102 23.8338 10.6102C23.9713 10.6102 24.0819 10.5018 24.0819 10.3671V7.56338C24.0819 7.42871 23.9713 7.32031 23.8338 7.32031ZM22.2107 7.42082C22.1943 7.41908 22.1774 7.41909 22.1603 7.42102C22.0236 7.43499 21.925 7.55406 21.9393 7.688L22.0643 8.86096C22.0786 8.9949 22.2002 9.09148 22.3369 9.0775C22.4736 9.06352 22.5722 8.94444 22.5579 8.81051L22.4329 7.63756C22.4204 7.52036 22.3258 7.43176 22.2107 7.42082H22.2107ZM25.4683 7.42197C25.3532 7.43283 25.2586 7.52141 25.246 7.63859L25.1201 8.81146C25.1057 8.94538 25.2043 9.06457 25.341 9.07866C25.4777 9.09275 25.5992 8.99626 25.6136 8.86234L25.7395 7.68938C25.7539 7.55545 25.6553 7.43636 25.5186 7.42228C25.5015 7.42055 25.4847 7.42055 25.4683 7.42198V7.42197ZM20.5434 7.65769C20.5269 7.65782 20.5101 7.65942 20.4933 7.66289C20.3589 7.69078 20.2735 7.81933 20.302 7.95107L20.8947 10.694C20.9231 10.8257 21.0543 10.9093 21.1888 10.8814C21.3233 10.8535 21.4086 10.7251 21.3801 10.5934L20.7875 7.85036C20.7625 7.73508 20.659 7.65666 20.5434 7.65754L20.5434 7.65769ZM27.1355 7.66001C27.0199 7.65885 26.9163 7.73735 26.8913 7.85261L26.2966 10.5952C26.268 10.7269 26.3533 10.8555 26.4878 10.8835C26.6222 10.9115 26.7535 10.8279 26.782 10.6962L27.3767 7.95363C27.4053 7.8219 27.32 7.69333 27.1856 7.66535C27.1688 7.66188 27.152 7.66015 27.1355 7.66015L27.1355 7.66001ZM18.9522 8.09725C18.9201 8.09436 18.8869 8.09783 18.8542 8.10845C18.7235 8.15009 18.6524 8.2866 18.6949 8.41467L19.0669 9.53634C19.1094 9.66442 19.2489 9.73405 19.3796 9.69244C19.5103 9.6508 19.5813 9.51418 19.5388 9.38611L19.1668 8.26445C19.135 8.1684 19.0486 8.10525 18.9522 8.09723V8.09725ZM28.7177 8.09783C28.6213 8.10585 28.5349 8.16899 28.5031 8.26504L28.1309 9.38661C28.0884 9.51467 28.1594 9.6513 28.2901 9.69293C28.4208 9.73457 28.5603 9.66498 28.6028 9.53694L28.975 8.41527C29.0175 8.2872 28.9465 8.15058 28.8158 8.10895C28.7831 8.09855 28.7498 8.09514 28.7177 8.0978V8.09783ZM17.3787 8.66139C17.3465 8.66196 17.3139 8.66889 17.2825 8.68258C17.1569 8.73727 17.1007 8.88033 17.1565 9.00338L18.3189 11.5654C18.3747 11.6885 18.5207 11.7435 18.6463 11.6888C18.7718 11.6341 18.8282 11.491 18.7723 11.368L17.6099 8.80595C17.568 8.71365 17.4754 8.65955 17.3787 8.66139V8.66139ZM30.309 8.66999C30.2123 8.66826 30.1196 8.72202 30.0776 8.81423L28.9117 11.3747C28.8557 11.4977 28.9117 11.6408 29.0372 11.6957C29.1627 11.7506 29.3088 11.6957 29.3649 11.5728L30.5307 9.01231C30.5867 8.88932 30.5307 8.74615 30.4052 8.69129C30.3739 8.6776 30.3412 8.67067 30.309 8.66998V8.66999ZM15.9182 9.4185C15.8705 9.41504 15.8215 9.42542 15.7768 9.45072C15.6578 9.51805 15.6173 9.66613 15.686 9.78276L16.2879 10.8041C16.3566 10.9208 16.5078 10.9604 16.6268 10.8931C16.7459 10.8257 16.7863 10.6777 16.7176 10.5611L16.1157 9.53969C16.0728 9.46679 15.9976 9.42395 15.9182 9.41851V9.4185ZM31.7495 9.4185C31.6701 9.4237 31.595 9.46678 31.552 9.53967L30.95 10.561C30.8813 10.6777 30.9219 10.8257 31.041 10.8931C31.16 10.9604 31.3111 10.9207 31.3798 10.8041L31.9817 9.78274C32.0505 9.66612 32.01 9.51803 31.8909 9.4507C31.8463 9.42546 31.7971 9.41525 31.7495 9.41849V9.4185ZM14.4999 10.2851C14.4522 10.2869 14.4044 10.3019 14.3626 10.3315C14.2514 10.4106 14.2268 10.562 14.3075 10.671L15.9879 12.9404C16.0686 13.0494 16.2233 13.0735 16.3345 12.9945C16.4458 12.9154 16.4704 12.764 16.3896 12.655L14.7091 10.3856C14.6587 10.3174 14.5794 10.2825 14.4999 10.2852V10.2851ZM33.1855 10.2975C33.106 10.2946 33.0267 10.3295 32.9762 10.3976L31.2926 12.6648C31.2117 12.7737 31.2361 12.9252 31.3473 13.0044C31.4584 13.0836 31.613 13.0598 31.6939 12.9509L33.3774 10.6837C33.4582 10.5748 33.4338 10.4233 33.3227 10.3441C33.281 10.3144 33.2332 10.2992 33.1855 10.2975V10.2975ZM13.2322 11.3267C13.1689 11.3233 13.1043 11.344 13.0532 11.389C12.951 11.4791 12.9428 11.6322 13.0348 11.7323L13.8402 12.6089C13.9322 12.709 14.0884 12.717 14.1906 12.6269C14.2928 12.5368 14.301 12.3836 14.209 12.2836L13.4037 11.4071C13.3577 11.357 13.2956 11.33 13.2322 11.3267V11.3267ZM34.4373 11.3285C34.3739 11.3319 34.3118 11.3588 34.2658 11.4088L33.4604 12.2852C33.3684 12.3853 33.3765 12.5385 33.4787 12.6286C33.5809 12.7187 33.7371 12.7106 33.8291 12.6106L34.6346 11.7342C34.7266 11.6341 34.7183 11.4809 34.6162 11.3908C34.5651 11.3458 34.5006 11.3252 34.4373 11.3285L34.4373 11.3285ZM12.0172 12.4702C11.9539 12.4736 11.8918 12.5005 11.8459 12.5505C11.7539 12.6506 11.7621 12.8037 11.8643 12.8938L13.9912 14.7696C14.0933 14.8597 14.2496 14.8517 14.3415 14.7516C14.4335 14.6515 14.4254 14.4984 14.3232 14.4083L12.1962 12.5325C12.1451 12.4875 12.0805 12.4669 12.0171 12.4702L12.0172 12.4702ZM35.6582 12.4784C35.5948 12.4749 35.5301 12.4956 35.479 12.5406L33.3508 14.4149C33.2486 14.505 33.2402 14.658 33.3321 14.7582C33.424 14.8583 33.5804 14.8665 33.6826 14.7764L35.8108 12.9021C35.9131 12.812 35.9214 12.659 35.8295 12.5588C35.7835 12.5088 35.7215 12.4817 35.6581 12.4784H35.6582ZM11.0068 13.743C10.9273 13.7401 10.848 13.7752 10.7975 13.8433C10.7167 13.9523 10.7412 14.1036 10.8524 14.1828L11.8263 14.876C11.9375 14.9552 12.092 14.9313 12.1728 14.8223C12.2536 14.7134 12.2291 14.5619 12.118 14.4827L11.1441 13.7895C11.1024 13.7598 11.0545 13.7447 11.0068 13.743L11.0068 13.743ZM36.6676 13.7519C36.6198 13.7536 36.572 13.7685 36.5303 13.7982L35.556 14.4908C35.4448 14.5699 35.4201 14.7214 35.5008 14.8304C35.5816 14.9394 35.7361 14.9634 35.8473 14.8843L36.8218 14.1917C36.933 14.1127 36.9575 13.9613 36.8768 13.8523C36.8264 13.7841 36.7471 13.7492 36.6676 13.7519V13.7519ZM10.0626 15.1007C9.98321 15.1059 9.9081 15.149 9.86515 15.2219C9.79642 15.3385 9.83691 15.4866 9.95595 15.5539L12.4343 16.9558C12.5533 17.0231 12.7045 16.9835 12.7732 16.8668C12.8419 16.7502 12.8014 16.6021 12.6824 16.5348L10.204 15.1329C10.1594 15.1077 10.1102 15.0975 10.0626 15.1007V15.1007ZM37.605 15.1007C37.5574 15.0973 37.5082 15.1077 37.4636 15.133L34.9853 16.5348C34.8663 16.6022 34.8258 16.7502 34.8945 16.8669C34.9632 16.9835 35.1143 17.0232 35.2334 16.9558L37.7118 15.554C37.8309 15.4866 37.8713 15.3385 37.8026 15.2219C37.7596 15.149 37.6844 15.1062 37.605 15.1008V15.1007ZM9.34869 16.5479C9.25201 16.5456 9.15929 16.5998 9.1173 16.6921C9.0613 16.8151 9.11726 16.9582 9.2428 17.0131L10.3423 17.4936C10.4678 17.5484 10.614 17.4936 10.6699 17.3706C10.7259 17.2476 10.6699 17.1044 10.5443 17.0496L9.44497 16.5691C9.41361 16.5554 9.38092 16.5486 9.34869 16.5479V16.5479ZM38.3238 16.5579C38.2915 16.5585 38.2588 16.5654 38.2274 16.5791L37.1277 17.0587C37.0021 17.1135 36.946 17.2566 37.0019 17.3796C37.0578 17.5027 37.204 17.5577 37.3295 17.5029L38.4292 17.0232C38.5548 16.9684 38.6109 16.8253 38.555 16.7023C38.513 16.61 38.4205 16.556 38.3238 16.5579V16.5579ZM8.71244 18.0605C8.61608 18.0684 8.52969 18.1315 8.49776 18.2275C8.4552 18.3556 8.52604 18.4922 8.65675 18.5339L11.3777 19.4026C11.5084 19.4443 11.6479 19.3748 11.6905 19.2468C11.7331 19.1187 11.6622 18.9821 11.5315 18.9404L8.81053 18.0717C8.77788 18.0613 8.74456 18.0579 8.71244 18.0605V18.0605ZM38.9589 18.0709C38.9267 18.068 38.8936 18.0715 38.8609 18.0821L36.1393 18.9488C36.0085 18.9905 35.9375 19.1271 35.98 19.2552C36.0225 19.3832 36.162 19.4528 36.2927 19.4112L39.0142 18.5444C39.1449 18.5028 39.216 18.3662 39.1735 18.2381C39.1417 18.142 39.0552 18.0789 38.9589 18.0709V18.0709ZM8.31604 19.6483C8.20046 19.6471 8.09679 19.7257 8.07179 19.841C8.0432 19.9727 8.12849 20.1013 8.26293 20.1293L9.44047 20.3744C9.57492 20.4024 9.70613 20.3189 9.73472 20.1872C9.7633 20.0555 9.67802 19.9269 9.54359 19.8989L8.36616 19.6537C8.34936 19.6503 8.33255 19.6485 8.31604 19.6485V19.6483ZM39.3521 19.6506C39.3356 19.6507 39.319 19.6529 39.3022 19.6558L38.1246 19.9008C37.9902 19.9289 37.9049 20.0573 37.9335 20.189C37.9621 20.3208 38.0933 20.4044 38.2277 20.3764L39.4052 20.1313C39.5396 20.1033 39.625 19.9748 39.5964 19.843C39.5714 19.7278 39.4678 19.6494 39.3522 19.6503L39.3521 19.6506ZM8.01601 21.2454C7.90095 21.2562 7.80624 21.3446 7.7936 21.4618C7.77916 21.5957 7.8775 21.715 8.01419 21.7291L10.8601 22.0239C10.9968 22.038 11.1185 21.9416 11.133 21.8077C11.1474 21.6738 11.049 21.5545 10.9123 21.5404L8.06634 21.2456C8.04924 21.2439 8.03245 21.2439 8.01601 21.2454V21.2454ZM39.6543 21.2663C39.6379 21.2646 39.621 21.2646 39.6039 21.2665L36.7576 21.5576C36.6209 21.5715 36.5224 21.6906 36.5366 21.8245C36.5509 21.9585 36.6724 22.0551 36.8091 22.0411L39.6554 21.7501C39.7921 21.7361 39.8906 21.617 39.8764 21.4831C39.8639 21.3659 39.7693 21.2773 39.6543 21.2663L39.6543 21.2663ZM7.96782 22.8802C7.83036 22.8802 7.71973 22.9886 7.71973 23.1233C7.71973 23.258 7.83036 23.3664 7.96782 23.3664H9.1716C9.30905 23.3664 9.4198 23.258 9.4198 23.1233C9.4198 22.9886 9.30905 22.8802 9.1716 22.8802H7.96782ZM38.4961 22.8802C38.3586 22.8802 38.248 22.9886 38.248 23.1233C38.248 23.258 38.3586 23.3664 38.4961 23.3664H39.6998C39.8373 23.3664 39.9479 23.258 39.9479 23.1233C39.9479 22.9886 39.8373 22.8802 39.6998 22.8802H38.4961ZM10.9089 24.2053C10.8925 24.2036 10.8757 24.2036 10.8586 24.2055L8.01225 24.4965C7.87553 24.5105 7.77699 24.6296 7.79125 24.7635C7.80551 24.8974 7.92704 24.994 8.06375 24.98L10.9101 24.689C11.0468 24.675 11.1454 24.556 11.1311 24.422C11.1186 24.3048 11.024 24.2163 10.9089 24.2053H10.9089ZM36.7572 24.2225C36.6421 24.2333 36.5474 24.3218 36.5348 24.4389C36.5204 24.5729 36.6187 24.6921 36.7554 24.7062L39.6013 25.001C39.738 25.0152 39.8597 24.9187 39.8742 24.7848C39.8886 24.6509 39.7901 24.5317 39.6535 24.5175L36.8076 24.2227C36.7906 24.221 36.7736 24.221 36.7572 24.2225L36.7572 24.2225ZM9.49015 25.8646C9.47365 25.8648 9.45685 25.8663 9.44005 25.8698L8.26251 26.1149C8.12806 26.1429 8.04282 26.2714 8.07137 26.4032C8.09996 26.5349 8.23118 26.6184 8.36564 26.5904L9.54318 26.3455C9.67763 26.3175 9.76286 26.1889 9.7343 26.0572C9.70931 25.9419 9.60575 25.8635 9.49017 25.8645L9.49015 25.8646ZM38.1772 25.8669C38.0616 25.8658 37.958 25.9443 37.933 26.0595C37.9045 26.1913 37.9896 26.3198 38.1241 26.3478L39.3016 26.593C39.4361 26.621 39.5673 26.5375 39.5959 26.4058C39.6244 26.2741 39.5391 26.1454 39.4047 26.1174L38.2273 25.8723C38.2105 25.8688 38.1937 25.8671 38.1772 25.8671L38.1772 25.8669ZM11.473 26.8243C11.4409 26.8214 11.4077 26.8249 11.3751 26.8355L8.65344 27.7022C8.52272 27.7439 8.45172 27.8805 8.49421 28.0086C8.53671 28.1366 8.67616 28.2062 8.80688 28.1646L11.5284 27.2978C11.6591 27.2562 11.7302 27.1196 11.6877 26.9915C11.6558 26.8954 11.5694 26.8323 11.473 26.8243V26.8243ZM36.192 26.8329C36.0956 26.8408 36.0092 26.9039 35.9773 26.9999C35.9347 27.128 36.0055 27.2646 36.1363 27.3064L38.8572 28.175C38.9879 28.2167 39.1274 28.1472 39.17 28.0192C39.2126 27.8912 39.1417 27.7545 39.011 27.7128L36.29 26.8441C36.2574 26.8337 36.2241 26.8303 36.192 26.8329V26.8329ZM10.4345 28.7227C10.4022 28.7233 10.3696 28.7301 10.3382 28.7438L9.23841 29.2235C9.11284 29.2783 9.05679 29.4214 9.11269 29.5444C9.16863 29.6675 9.31469 29.7224 9.44025 29.6676L10.5401 29.1879C10.6656 29.1332 10.7217 28.9901 10.6658 28.867C10.6239 28.7748 10.5312 28.7208 10.4345 28.7227V28.7227ZM37.2292 28.7319C37.1325 28.7296 37.0398 28.7839 36.9978 28.8761C36.9418 28.9991 36.9978 29.1422 37.1233 29.1971L38.2227 29.6776C38.3482 29.7324 38.4944 29.6776 38.5504 29.5546C38.6063 29.4316 38.5504 29.2885 38.4248 29.2336L37.3255 28.7531C37.2941 28.7394 37.2614 28.7326 37.2292 28.7319V28.7319ZM12.5757 29.2587C12.5281 29.2552 12.4789 29.2656 12.4343 29.2909L9.95595 30.6928C9.83691 30.7601 9.79642 30.9082 9.86515 31.0248C9.93387 31.1414 10.085 31.1811 10.204 31.1138L12.6824 29.712C12.8014 29.6447 12.8419 29.4965 12.7732 29.3799C12.7302 29.307 12.6551 29.2641 12.5757 29.2587V29.2587ZM35.092 29.2587C35.0126 29.2639 34.9374 29.307 34.8945 29.3798C34.8258 29.4965 34.8663 29.6446 34.9853 29.712L37.4636 31.1137C37.5827 31.1811 37.7339 31.1414 37.8026 31.0248C37.8713 30.9082 37.8309 30.7601 37.7118 30.6927L35.2334 29.2909C35.1888 29.2656 35.1397 29.2554 35.092 29.2587V29.2587ZM11.9576 31.3159C11.9098 31.3176 11.862 31.3327 11.8203 31.3624L10.846 32.055C10.7347 32.1341 10.7101 32.2855 10.7908 32.3945C10.8715 32.5035 11.0261 32.5276 11.1373 32.4485L12.1117 31.7559C12.223 31.6768 12.2476 31.5254 12.1669 31.4164C12.1164 31.3483 12.0371 31.3132 11.9576 31.3159V31.3159ZM35.7042 31.3241C35.6247 31.3212 35.5454 31.3563 35.4949 31.4244C35.4141 31.5333 35.4386 31.6848 35.5498 31.764L36.5237 32.4572C36.6349 32.5363 36.7894 32.5123 36.8702 32.4034C36.951 32.2944 36.9265 32.143 36.8154 32.0639L35.8415 31.3707C35.7998 31.341 35.752 31.3257 35.7042 31.3241L35.7042 31.3241ZM14.1642 31.408C14.1009 31.4046 14.0363 31.4252 13.9852 31.4702L11.8569 33.3446C11.7547 33.4346 11.7464 33.5877 11.8383 33.6878C11.9302 33.788 12.0864 33.7961 12.1886 33.7061L14.3169 31.8317C14.4191 31.7417 14.4275 31.5886 14.3356 31.4885C14.2896 31.4384 14.2276 31.4113 14.1642 31.408ZM33.4975 31.4147C33.4342 31.4182 33.3721 31.445 33.3261 31.4951C33.2341 31.5952 33.2424 31.7482 33.3445 31.8383L35.4714 33.7142C35.5736 33.8043 35.7299 33.7962 35.8219 33.6961C35.9138 33.5961 35.9056 33.443 35.8035 33.3529L33.6765 31.4771C33.6253 31.432 33.5609 31.4115 33.4975 31.4147V31.4147ZM16.1833 33.1954C16.1038 33.1925 16.0244 33.2274 15.9738 33.2955L14.2904 35.5627C14.2095 35.6716 14.2338 35.8231 14.3449 35.9023C14.4561 35.9815 14.6107 35.9577 14.6916 35.8488L16.375 33.5815C16.4559 33.4726 16.4316 33.3212 16.3205 33.2419C16.2788 33.2123 16.231 33.197 16.1833 33.1954ZM31.4705 33.2056C31.4228 33.2073 31.375 33.2223 31.3333 33.2519C31.222 33.331 31.1974 33.4824 31.2781 33.5914L32.9585 35.8609C33.0392 35.9699 33.1937 35.994 33.305 35.9149C33.4162 35.8358 33.4408 35.6844 33.3602 35.5754L31.6798 33.306C31.6293 33.2379 31.5501 33.2029 31.4705 33.2056V33.2056ZM14.01 33.5557C13.9467 33.5592 13.8846 33.5861 13.8386 33.6361L13.0332 34.5125C12.9412 34.6126 12.9493 34.7657 13.0515 34.8559C13.1536 34.946 13.3099 34.9379 13.4018 34.8378L14.2074 33.9614C14.2994 33.8613 14.2911 33.7081 14.189 33.618C14.1379 33.573 14.0734 33.5525 14.0101 33.5557L14.01 33.5557ZM33.6561 33.5569C33.5928 33.5534 33.5283 33.5742 33.4772 33.6192C33.375 33.7093 33.3668 33.8624 33.4587 33.9625L34.2641 34.8391C34.356 34.9392 34.5123 34.9472 34.6145 34.8571C34.7166 34.767 34.7248 34.6138 34.6328 34.5137L33.8275 33.6372C33.7815 33.5872 33.7194 33.5601 33.6561 33.5569L33.6561 33.5569ZM18.5342 34.5292C18.4375 34.5269 18.3449 34.5811 18.3029 34.6733L17.1369 37.2338C17.0809 37.3568 17.1369 37.4999 17.2624 37.5548C17.388 37.6097 17.5341 37.5548 17.5901 37.4318L18.7561 34.8714C18.8121 34.7484 18.7561 34.6052 18.6306 34.5504C18.5992 34.5366 18.5664 34.5298 18.5342 34.5292ZM29.1177 34.5362C29.0855 34.5368 29.0527 34.5436 29.0213 34.5573C28.8958 34.612 28.8396 34.7551 28.8954 34.8781L30.0578 37.4401C30.1136 37.5631 30.2597 37.6182 30.3853 37.5635C30.5108 37.5088 30.5671 37.3658 30.5112 37.2427L29.3489 34.6807C29.307 34.5884 29.2144 34.5344 29.1177 34.5362V34.5362ZM16.4854 35.3208C16.406 35.326 16.3309 35.3691 16.2879 35.442L15.686 36.4634C15.6173 36.58 15.6578 36.7281 15.7768 36.7954C15.8959 36.8627 16.047 36.823 16.1157 36.7064L16.7176 35.6851C16.7863 35.5684 16.7459 35.4204 16.6268 35.353C16.5822 35.3278 16.533 35.3176 16.4854 35.3208V35.3208ZM31.1823 35.3208C31.1347 35.3174 31.0856 35.3278 31.041 35.353C30.9219 35.4204 30.8814 35.5684 30.9502 35.6851L31.552 36.7064C31.6208 36.8231 31.7719 36.8627 31.8909 36.7954C32.01 36.7281 32.0505 36.58 31.9817 36.4634L31.3798 35.442C31.3369 35.3691 31.2617 35.3263 31.1823 35.3208V35.3208ZM21.1299 35.3574C21.0143 35.3563 20.9107 35.4348 20.8857 35.55L20.291 38.2926C20.2624 38.4243 20.3477 38.5529 20.4822 38.5809C20.6166 38.6089 20.7479 38.5253 20.7764 38.3936L21.3711 35.6511C21.3997 35.5193 21.3144 35.3908 21.18 35.3628C21.1632 35.3593 21.1464 35.3576 21.1299 35.3576L21.1299 35.3574ZM26.529 35.3592C26.5125 35.3593 26.4958 35.3609 26.479 35.3644C26.3445 35.3922 26.2592 35.5207 26.2876 35.6524L26.8803 38.3954C26.9088 38.5272 27.04 38.6108 27.1745 38.5829C27.3089 38.555 27.3943 38.4265 27.3658 38.2947L26.773 35.5519C26.7481 35.4366 26.6446 35.3582 26.529 35.3591L26.529 35.3592ZM23.8338 35.6358C23.6964 35.6358 23.5857 35.7442 23.5857 35.8789V38.6826C23.5857 38.8173 23.6964 38.9257 23.8338 38.9257C23.9713 38.9257 24.0819 38.8173 24.0819 38.6826V35.8789C24.0819 35.7442 23.9713 35.6358 23.8338 35.6358ZM19.2796 36.5418C19.1832 36.5498 19.0968 36.6129 19.0649 36.709L18.6928 37.8307C18.6503 37.9587 18.7213 38.0954 18.852 38.137C18.9827 38.1786 19.1222 38.1089 19.1647 37.9809L19.5368 36.8593C19.5793 36.7313 19.5082 36.5946 19.3776 36.553C19.3449 36.5426 19.3117 36.5391 19.2796 36.5418V36.5418ZM28.3862 36.5424C28.354 36.5395 28.3209 36.5429 28.2882 36.5535C28.1575 36.5951 28.0864 36.7318 28.1288 36.8598L28.5008 37.9815C28.5433 38.1096 28.6828 38.1791 28.8135 38.1375C28.9442 38.0958 29.0153 37.9593 28.9728 37.8313L28.6007 36.7096C28.5689 36.6135 28.4825 36.5504 28.3862 36.5424V36.5424ZM22.2765 37.1671C22.1614 37.1779 22.0666 37.2664 22.0541 37.3836L21.9283 38.5566C21.9139 38.6905 22.0124 38.8096 22.1491 38.8237C22.2858 38.8377 22.4074 38.7413 22.4218 38.6073L22.5476 37.4345C22.562 37.3006 22.4635 37.1814 22.3268 37.1673C22.3097 37.1655 22.2929 37.1655 22.2765 37.1671L22.2765 37.1671ZM25.3812 37.1682C25.3648 37.1665 25.3479 37.1665 25.3308 37.1684C25.1941 37.1824 25.0955 37.3015 25.1097 37.4354L25.2348 38.6085C25.2491 38.7424 25.3706 38.8389 25.5073 38.8249C25.644 38.8109 25.7426 38.6919 25.7283 38.5579L25.6034 37.385C25.5909 37.2678 25.4962 37.1792 25.3812 37.1682L25.3812 37.1682Z" fill="#F4F2F3"/>
<g opacity="0.409" filter="url(#filter1_f_4581_36341)">
<path d="M35.4624 13.4004L21.8882 21.1271L13.3057 34.3645L25.8613 25.2533L35.4624 13.4004Z" fill="black"/>
</g>
<path d="M25.7799 25.1193L21.8891 21.1274L35.6912 12.031L25.7799 25.1193Z" fill="#FF5150"/>
<path d="M25.7794 25.1186L21.8886 21.1267L11.9773 34.215L25.7794 25.1186Z" fill="#F1F1F1"/>
<path opacity="0.243" d="M11.9775 34.2159L25.7796 25.1195L35.6909 12.0312L11.9775 34.2159Z" fill="black"/>
</g>
<defs>
<filter id="filter0_f_4581_36341" x="3.67893" y="5.4553" width="40.3111" height="38.2984" filterUnits="userSpaceOnUse" color-interpolation-filters="sRGB">
<feFlood flood-opacity="0" result="BackgroundImageFix"/>
<feBlend mode="normal" in="SourceGraphic" in2="BackgroundImageFix" result="shape"/>
<feGaussianBlur stdDeviation="1.18446" result="effect1_foregroundBlur_4581_36341"/>
</filter>
<filter id="filter1_f_4581_36341" x="12.6323" y="12.7271" width="23.5039" height="22.3115" filterUnits="userSpaceOnUse" color-interpolation-filters="sRGB">
<feFlood flood-opacity="0" result="BackgroundImageFix"/>
<feBlend mode="normal" in="SourceGraphic" in2="BackgroundImageFix" result="shape"/>
<feGaussianBlur stdDeviation="0.336663" result="effect1_foregroundBlur_4581_36341"/>
</filter>
<linearGradient id="paint0_linear_4581_36341" x1="23.8341" y1="41.2122" x2="23.8341" y2="5.0332" gradientUnits="userSpaceOnUse">
<stop stop-color="#BDBDBD"/>
<stop offset="1" stop-color="white"/>
</linearGradient>
<radialGradient id="paint1_radial_4581_36341" cx="0" cy="0" r="1" gradientUnits="userSpaceOnUse" gradientTransform="translate(23.912 20.6924) scale(18.464 18.0896)">
<stop stop-color="#06C2E7"/>
<stop offset="0.25" stop-color="#0DB8EC"/>
<stop offset="0.5" stop-color="#12AEF1"/>
<stop offset="0.75" stop-color="#1F86F9"/>
<stop offset="1" stop-color="#107DDD"/>
</radialGradient>
<clipPath id="clip0_4581_36341">
<rect width="39" height="38" fill="white" transform="translate(4.33398 5)"/>
</clipPath>
</defs>
</svg>
