<svg width="47" height="47" viewBox="0 0 47 47" fill="none" xmlns="http://www.w3.org/2000/svg">
<g clip-path="url(#clip0_4581_36346)">
<path d="M39.0842 14.468C37.5043 11.7318 35.2321 9.45975 32.4958 7.88006C29.7596 6.30038 26.6557 5.46875 23.4962 5.46875C20.3367 5.46875 17.2328 6.30038 14.4966 7.88006C11.7603 9.45975 9.48809 11.7318 7.9082 14.468L8.9882 33.908L39.0842 14.468Z" fill="url(#paint0_linear_4581_36346)"/>
<path d="M15.7055 27.9688L7.91154 14.4688C6.33173 17.2051 5.50002 20.309 5.5 23.4686C5.49998 26.6283 6.33165 29.7322 7.91143 32.4686C9.4912 35.2049 11.7634 37.4772 14.4997 39.057C17.236 40.6369 20.3399 41.4687 23.4995 41.4688L41.1395 23.4688L15.7055 27.9688Z" fill="url(#paint1_linear_4581_36346)"/>
<path d="M31.294 27.9688L23.5 41.4688C26.6593 41.468 29.7628 40.6358 32.4986 39.0557C35.2344 37.4756 37.5061 35.2032 39.0854 32.467C40.6648 29.7308 41.4961 26.6271 41.4959 23.4677C41.4958 20.3084 40.6641 17.2048 39.0844 14.4688H23.5L31.294 27.9688Z" fill="url(#paint2_linear_4581_36346)"/>
<path d="M23.5 32.4688C24.6819 32.4688 25.8522 32.236 26.9442 31.7837C28.0361 31.3314 29.0282 30.6684 29.864 29.8327C30.6997 28.997 31.3626 28.0048 31.8149 26.9129C32.2672 25.821 32.5 24.6506 32.5 23.4688C32.5 22.2869 32.2672 21.1165 31.8149 20.0246C31.3626 18.9327 30.6997 17.9405 29.864 17.1048C29.0282 16.2691 28.0361 15.6061 26.9442 15.1538C25.8522 14.7015 24.6819 14.4687 23.5 14.4688C21.1131 14.4688 18.8239 15.417 17.136 17.1048C15.4482 18.7926 14.5 21.0818 14.5 23.4688C14.5 25.8557 15.4482 28.1449 17.136 29.8327C18.8239 31.5205 21.1131 32.4688 23.5 32.4688Z" fill="white"/>
<path d="M23.5001 30.5958C24.4361 30.5958 25.363 30.4115 26.2278 30.0533C27.0926 29.695 27.8784 29.17 28.5403 28.5081C29.2022 27.8462 29.7273 27.0604 30.0855 26.1956C30.4437 25.3308 30.6281 24.4039 30.6281 23.4678C30.6281 22.5318 30.4437 21.6049 30.0855 20.7401C29.7273 19.8753 29.2022 19.0895 28.5403 18.4276C27.8784 17.7657 27.0926 17.2406 26.2278 16.8824C25.363 16.5242 24.4361 16.3398 23.5001 16.3398C21.6096 16.3398 19.7966 17.0908 18.4598 18.4276C17.1231 19.7643 16.3721 21.5774 16.3721 23.4678C16.3721 25.3583 17.1231 27.1713 18.4598 28.5081C19.7966 29.8449 21.6096 30.5958 23.5001 30.5958V30.5958Z" fill="#1A73E8"/>
</g>
<defs>
<linearGradient id="paint0_linear_4581_36346" x1="7.9118" y1="16.718" x2="39.0842" y2="16.718" gradientUnits="userSpaceOnUse">
<stop stop-color="#D93025"/>
<stop offset="1" stop-color="#EA4335"/>
</linearGradient>
<linearGradient id="paint1_linear_4581_36346" x1="25.4471" y1="40.3419" x2="9.85915" y2="13.3419" gradientUnits="userSpaceOnUse">
<stop stop-color="#1E8E3E"/>
<stop offset="1" stop-color="#34A853"/>
</linearGradient>
<linearGradient id="paint2_linear_4581_36346" x1="20.872" y1="41.4688" x2="36.46" y2="14.5156" gradientUnits="userSpaceOnUse">
<stop stop-color="#FCC934"/>
<stop offset="1" stop-color="#FBBC04"/>
</linearGradient>
<clipPath id="clip0_4581_36346">
<rect width="36" height="36" fill="white" transform="translate(5.5 5.46875)"/>
</clipPath>
</defs>
</svg>
