<svg width="47" height="47" viewBox="0 0 47 47" fill="none" xmlns="http://www.w3.org/2000/svg">
<g clip-path="url(#clip0_4581_36342)">
<path d="M38.7961 32.7519C38.2894 33.0169 37.7669 33.2503 37.2316 33.451C35.5274 34.0887 33.7222 34.4135 31.9027 34.4099C24.8786 34.4099 18.76 29.5783 18.76 23.378C18.769 22.5464 18.9998 21.7323 19.4285 21.0197C19.8572 20.3071 20.4684 19.7218 21.1988 19.3242C14.8457 19.5914 13.2129 26.2117 13.2129 30.0904C13.2129 41.057 23.32 42.1688 25.4976 42.1688C26.6717 42.1688 28.4426 41.8273 29.5054 41.4919L29.6998 41.4266C33.7897 40.0127 37.2763 37.2485 39.5858 33.5891C39.6565 33.4776 39.6881 33.3458 39.6755 33.2144C39.663 33.083 39.607 32.9595 39.5164 32.8635C39.4258 32.7675 39.3058 32.7043 39.1754 32.6841C39.0449 32.6639 38.9115 32.6878 38.7961 32.7519Z" fill="url(#paint0_linear_4581_36342)"/>
<path opacity="0.35" d="M38.7961 32.7519C38.2894 33.0169 37.7669 33.2503 37.2316 33.451C35.5274 34.0887 33.7222 34.4135 31.9027 34.4099C24.8786 34.4099 18.76 29.5783 18.76 23.378C18.769 22.5464 18.9998 21.7323 19.4285 21.0197C19.8572 20.3071 20.4684 19.7218 21.1988 19.3242C14.8457 19.5914 13.2129 26.2117 13.2129 30.0904C13.2129 41.057 23.32 42.1688 25.4976 42.1688C26.6717 42.1688 28.4426 41.8273 29.5054 41.4919L29.6998 41.4266C33.7897 40.0127 37.2763 37.2485 39.5858 33.5891C39.6565 33.4776 39.6881 33.3458 39.6755 33.2144C39.663 33.083 39.607 32.9595 39.5164 32.8635C39.4258 32.7675 39.3058 32.7043 39.1754 32.6841C39.0449 32.6639 38.9115 32.6878 38.7961 32.7519Z" fill="url(#paint1_radial_4581_36342)"/>
<path d="M20.1914 40.3052C18.8675 39.4835 17.7201 38.4067 16.816 37.1376C15.7855 35.7258 15.0764 34.1056 14.7384 32.3907C14.4004 30.6758 14.4416 28.9077 14.8593 27.2105C15.277 25.5132 16.0609 23.9279 17.1561 22.5657C18.2514 21.2035 19.6314 20.0975 21.1993 19.3251C21.6625 19.1069 22.4536 18.712 23.506 18.7313C24.2475 18.7367 24.9776 18.9138 25.6392 19.2485C26.3008 19.5833 26.8759 20.0668 27.3194 20.661C27.9188 21.4614 28.2493 22.431 28.2635 23.4309C28.2635 23.3997 31.8943 11.6152 16.3885 11.6152C9.87206 11.6152 4.51347 17.7991 4.51347 23.2245C4.48777 26.0945 5.10184 28.9341 6.31105 31.537C8.28724 35.7535 11.7431 39.0975 16.0223 40.9339C20.3015 42.7703 25.1061 42.9713 29.5237 41.4987C27.9769 41.9864 26.3428 42.1328 24.7339 41.9277C23.1251 41.7227 21.5798 41.1712 20.2048 40.3112L20.1914 40.3052Z" fill="url(#paint2_linear_4581_36342)"/>
<path opacity="0.41" d="M20.1914 40.3052C18.8675 39.4835 17.7201 38.4067 16.816 37.1376C15.7855 35.7258 15.0764 34.1056 14.7384 32.3907C14.4004 30.6758 14.4416 28.9077 14.8593 27.2105C15.277 25.5132 16.0609 23.9279 17.1561 22.5657C18.2514 21.2035 19.6314 20.0975 21.1993 19.3251C21.6625 19.1069 22.4536 18.712 23.506 18.7313C24.2475 18.7367 24.9776 18.9138 25.6392 19.2485C26.3008 19.5833 26.8759 20.0668 27.3194 20.661C27.9188 21.4614 28.2493 22.431 28.2635 23.4309C28.2635 23.3997 31.8943 11.6152 16.3885 11.6152C9.87206 11.6152 4.51347 17.7991 4.51347 23.2245C4.48777 26.0945 5.10184 28.9341 6.31105 31.537C8.28724 35.7535 11.7431 39.0975 16.0223 40.9339C20.3015 42.7703 25.1061 42.9713 29.5237 41.4987C27.9769 41.9864 26.3428 42.1328 24.7339 41.9277C23.1251 41.7227 21.5798 41.1712 20.2048 40.3112L20.1914 40.3052Z" fill="url(#paint3_radial_4581_36342)"/>
<path d="M27.1086 26.5652C26.9883 26.721 26.6187 26.9363 26.6187 27.4053C26.6187 27.7927 26.8711 28.1653 27.3193 28.4785C29.4539 29.9629 33.478 29.767 33.4884 29.767C35.07 29.7632 36.6217 29.3351 37.9816 28.5275C39.3535 27.7265 40.4921 26.5807 41.2844 25.2038C42.0767 23.8269 42.4953 22.2667 42.4986 20.6781C42.5372 17.3516 41.3111 15.1399 40.8153 14.1602C37.6699 8.0075 30.8804 4.46875 23.4971 4.46875C18.5039 4.46826 13.7112 6.43332 10.1556 9.93893C6.60002 13.4445 4.56729 18.2089 4.49707 23.2016C4.56832 17.7777 9.95957 13.3973 16.3721 13.3973C16.8916 13.3973 19.8544 13.4477 22.6064 14.892C25.0319 16.1656 26.3025 17.7034 27.1857 19.2279C28.1031 20.8117 28.2664 22.8127 28.2664 23.6098C28.2664 24.4069 27.8597 25.5884 27.1086 26.5652Z" fill="url(#paint4_radial_4581_36342)"/>
<path d="M27.1086 26.5652C26.9883 26.721 26.6187 26.9363 26.6187 27.4053C26.6187 27.7927 26.8711 28.1653 27.3193 28.4785C29.4539 29.9629 33.478 29.767 33.4884 29.767C35.07 29.7632 36.6217 29.3351 37.9816 28.5275C39.3535 27.7265 40.4921 26.5807 41.2844 25.2038C42.0767 23.8269 42.4953 22.2667 42.4986 20.6781C42.5372 17.3516 41.3111 15.1399 40.8153 14.1602C37.6699 8.0075 30.8804 4.46875 23.4971 4.46875C18.5039 4.46826 13.7112 6.43332 10.1556 9.93893C6.60002 13.4445 4.56729 18.2089 4.49707 23.2016C4.56832 17.7777 9.95957 13.3973 16.3721 13.3973C16.8916 13.3973 19.8544 13.4477 22.6064 14.892C25.0319 16.1656 26.3025 17.7034 27.1857 19.2279C28.1031 20.8117 28.2664 22.8127 28.2664 23.6098C28.2664 24.4069 27.8597 25.5884 27.1086 26.5652Z" fill="url(#paint5_radial_4581_36342)"/>
</g>
<defs>
<linearGradient id="paint0_linear_4581_36342" x1="13.2129" y1="30.7495" x2="39.6852" y2="30.7495" gradientUnits="userSpaceOnUse">
<stop stop-color="#0C59A4"/>
<stop offset="1" stop-color="#114A8B"/>
</linearGradient>
<radialGradient id="paint1_radial_4581_36342" cx="0" cy="0" r="1" gradientUnits="userSpaceOnUse" gradientTransform="translate(27.834 30.9581) scale(14.158 13.4501)">
<stop offset="0.72" stop-opacity="0"/>
<stop offset="0.95" stop-opacity="0.53"/>
<stop offset="1"/>
</radialGradient>
<linearGradient id="paint2_linear_4581_36342" x1="27.1695" y1="19.2672" x2="10.635" y2="37.2771" gradientUnits="userSpaceOnUse">
<stop stop-color="#1B9DE2"/>
<stop offset="0.16" stop-color="#1595DF"/>
<stop offset="0.67" stop-color="#0680D7"/>
<stop offset="1" stop-color="#0078D4"/>
</linearGradient>
<radialGradient id="paint3_radial_4581_36342" cx="0" cy="0" r="1" gradientUnits="userSpaceOnUse" gradientTransform="translate(14.976 34.0097) rotate(-81.3844) scale(21.2898 17.2)">
<stop offset="0.76" stop-opacity="0"/>
<stop offset="0.95" stop-opacity="0.5"/>
<stop offset="1"/>
</radialGradient>
<radialGradient id="paint4_radial_4581_36342" cx="0" cy="0" r="1" gradientUnits="userSpaceOnUse" gradientTransform="translate(8.33603 11.5012) rotate(92.2906) scale(30.0722 64.0476)">
<stop stop-color="#35C1F1"/>
<stop offset="0.11" stop-color="#34C1ED"/>
<stop offset="0.23" stop-color="#2FC2DF"/>
<stop offset="0.31" stop-color="#2BC3D2"/>
<stop offset="0.67" stop-color="#36C752"/>
</radialGradient>
<radialGradient id="paint5_radial_4581_36342" cx="0" cy="0" r="1" gradientUnits="userSpaceOnUse" gradientTransform="translate(40.1328 15.9587) rotate(73.7398) scale(14.4489 11.7499)">
<stop stop-color="#66EB6E"/>
<stop offset="1" stop-color="#66EB6E" stop-opacity="0"/>
</radialGradient>
<clipPath id="clip0_4581_36342">
<rect width="38" height="38" fill="white" transform="translate(4.5 4.46875)"/>
</clipPath>
</defs>
</svg>
