<svg width="47" height="47" viewBox="0 0 47 47" fill="none" xmlns="http://www.w3.org/2000/svg">
<g clip-path="url(#clip0_4581_36350)">
<path d="M40.1981 17.2173C39.4151 15.2918 37.8266 13.2129 36.5828 12.5558C37.4698 14.311 38.0854 16.1961 38.4079 18.1439L38.4111 18.1748C36.3735 12.9858 32.9195 10.8903 30.097 6.33331C29.9542 6.10285 29.8115 5.87191 29.6725 5.62814C29.5929 5.48892 29.5292 5.36347 29.4739 5.248C29.3569 5.01638 29.2667 4.77159 29.2051 4.5186C29.2052 4.50693 29.2011 4.49563 29.1935 4.48687C29.186 4.4781 29.1756 4.47249 29.1642 4.47109C29.1531 4.46797 29.1414 4.46797 29.1303 4.47109C29.1279 4.47109 29.1242 4.47536 29.1214 4.47631C29.1186 4.47726 29.1126 4.48154 29.1084 4.48344L29.1154 4.47109C24.5886 7.1796 23.0518 12.1927 22.9123 14.7017C21.1039 14.8284 19.3749 15.5091 17.9508 16.6551C17.8023 16.5266 17.6471 16.4063 17.4858 16.2949C17.0752 14.8261 17.0577 13.2717 17.4351 11.7936C15.7727 12.6165 14.2956 13.7831 13.0972 15.2196H13.0888C12.3746 14.2944 12.4248 11.2438 12.4657 10.6066C12.2544 10.6934 12.0527 10.8028 11.864 10.933C11.2335 11.3929 10.6441 11.9089 10.1026 12.475C9.48561 13.1142 8.92208 13.8052 8.41794 14.5406V14.5434V14.5401C7.25942 16.2183 6.43762 18.1143 5.99996 20.1187L5.97578 20.2404C5.94184 20.4024 5.81955 21.214 5.79862 21.3903C5.79862 21.4041 5.79583 21.4169 5.79444 21.4307C5.63668 22.2686 5.53893 23.1171 5.50195 23.9695V24.0646C5.50992 28.6731 7.2083 33.1112 10.2618 36.5026C13.3153 39.894 17.5021 41.9924 21.9956 42.3835C26.4892 42.7746 30.9629 41.43 34.5337 38.6151C38.1045 35.8003 40.5129 31.7197 41.2834 27.1789C41.3136 26.9413 41.3383 26.7061 41.3652 26.4661C41.7365 23.3309 41.3346 20.1505 40.1962 17.2144L40.1981 17.2173ZM19.4267 31.6342C19.5109 31.6755 19.5899 31.7202 19.6764 31.7596L19.689 31.7677C19.6016 31.7249 19.5141 31.6804 19.4267 31.6342V31.6342ZM38.4116 18.18V18.1624L38.4148 18.1819L38.4116 18.18Z" fill="url(#paint0_linear_4581_36350)"/>
<path d="M40.1983 17.2181C39.4152 15.2927 37.8268 13.2138 36.5829 12.5566C37.4699 14.3119 38.0856 16.1969 38.408 18.1447V18.1623L38.4113 18.1818C39.8006 22.2441 39.5997 26.698 37.8505 30.6125C35.785 35.1414 30.7872 39.7834 22.9613 39.5553C14.5077 39.3106 7.05848 32.8981 5.66814 24.5017C5.41472 23.1773 5.66814 22.5059 5.79555 21.4296C5.62176 22.2657 5.52477 23.1164 5.50586 23.9709V24.0659C5.51382 28.6745 7.2122 33.1125 10.2657 36.5039C13.3192 39.8954 17.506 41.9938 21.9995 42.3849C26.4931 42.776 30.9668 41.4314 34.5376 38.6165C38.1084 35.8016 40.5168 31.721 41.2873 27.1802C41.3175 26.9427 41.3422 26.7074 41.3691 26.4675C41.7404 23.3322 41.3385 20.1518 40.2001 17.2158L40.1983 17.2181Z" fill="url(#paint1_radial_4581_36350)"/>
<path d="M40.1983 17.2181C39.4152 15.2927 37.8268 13.2138 36.5829 12.5566C37.4699 14.3119 38.0856 16.1969 38.408 18.1447V18.1623L38.4113 18.1818C39.8006 22.2441 39.5997 26.698 37.8505 30.6125C35.785 35.1414 30.7872 39.7834 22.9613 39.5553C14.5077 39.3106 7.05848 32.8981 5.66814 24.5017C5.41472 23.1773 5.66814 22.5059 5.79555 21.4296C5.62176 22.2657 5.52477 23.1164 5.50586 23.9709V24.0659C5.51382 28.6745 7.2122 33.1125 10.2657 36.5039C13.3192 39.8954 17.506 41.9938 21.9995 42.3849C26.4931 42.776 30.9668 41.4314 34.5376 38.6165C38.1084 35.8016 40.5168 31.721 41.2873 27.1802C41.3175 26.9427 41.3422 26.7074 41.3691 26.4675C41.7404 23.3322 41.3385 20.1518 40.2001 17.2158L40.1983 17.2181Z" fill="url(#paint2_radial_4581_36350)"/>
<path d="M31.4372 19.3798C31.4762 19.4079 31.5125 19.4359 31.5492 19.4639C31.0965 18.6436 30.533 17.8926 29.8752 17.233C24.272 11.5071 28.4072 4.82133 29.1043 4.4792L29.1113 4.46875C24.5845 7.17727 23.0477 12.1904 22.9082 14.6993C23.1184 14.6846 23.3267 14.6665 23.5415 14.6665C25.1476 14.6697 26.7241 15.1074 28.1109 15.9351C29.4978 16.7628 30.6454 17.951 31.4372 19.3789V19.3798Z" fill="url(#paint3_radial_4581_36350)"/>
<path d="M23.5507 20.5254C23.5209 20.9835 21.9372 22.5635 21.3834 22.5635C16.2591 22.5635 15.4268 25.7315 15.4268 25.7315C15.6537 28.3991 17.4727 30.5973 19.6717 31.7567C19.7721 31.81 19.874 31.858 19.9758 31.905C20.1522 31.9848 20.3286 32.0586 20.505 32.1264C21.2597 32.3993 22.0501 32.5552 22.85 32.5888C31.8337 33.0193 33.5728 21.6122 27.0903 18.3002C28.6194 18.0969 30.168 18.4811 31.4356 19.3784C30.6439 17.9505 29.4963 16.7623 28.1094 15.9346C26.7226 15.1069 25.146 14.6692 23.54 14.666C23.3261 14.666 23.1169 14.6841 22.9067 14.6988C21.0983 14.8255 19.3693 15.5063 17.9452 16.6523C18.22 16.8898 18.5301 17.2073 19.1835 17.8654C20.4064 19.0966 23.5428 20.372 23.5498 20.5216L23.5507 20.5254Z" fill="url(#paint4_radial_4581_36350)"/>
<path d="M23.5507 20.5254C23.5209 20.9835 21.9372 22.5635 21.3834 22.5635C16.2591 22.5635 15.4268 25.7315 15.4268 25.7315C15.6537 28.3991 17.4727 30.5973 19.6717 31.7567C19.7721 31.81 19.874 31.858 19.9758 31.905C20.1522 31.9848 20.3286 32.0586 20.505 32.1264C21.2597 32.3993 22.0501 32.5552 22.85 32.5888C31.8337 33.0193 33.5728 21.6122 27.0903 18.3002C28.6194 18.0969 30.168 18.4811 31.4356 19.3784C30.6439 17.9505 29.4963 16.7623 28.1094 15.9346C26.7226 15.1069 25.146 14.6692 23.54 14.666C23.3261 14.666 23.1169 14.6841 22.9067 14.6988C21.0983 14.8255 19.3693 15.5063 17.9452 16.6523C18.22 16.8898 18.5301 17.2073 19.1835 17.8654C20.4064 19.0966 23.5428 20.372 23.5498 20.5216L23.5507 20.5254Z" fill="url(#paint5_radial_4581_36350)"/>
<path d="M17.1065 16.044C17.2525 16.139 17.3729 16.2217 17.4785 16.2963C17.0679 14.8275 17.0504 13.273 17.4278 11.7949C15.7654 12.6178 14.2882 13.7845 13.0898 15.221C13.1777 15.2186 15.7919 15.1706 17.1065 16.044V16.044Z" fill="url(#paint6_radial_4581_36350)"/>
<path d="M5.6649 24.5013C7.0557 32.8977 14.5045 39.3126 22.9581 39.555C30.784 39.7811 35.7827 35.1387 37.8473 30.6121C39.5965 26.6976 39.7974 22.2438 38.4081 18.1814V18.1639C38.4081 18.1501 38.4053 18.142 38.4081 18.1463L38.4113 18.1772C39.0507 22.4428 36.9275 26.5736 33.6079 29.3724L33.5977 29.3961C27.1296 34.7799 20.9405 32.6435 19.6896 31.772C19.6022 31.7293 19.5148 31.6847 19.4274 31.6385C15.6567 29.7967 14.0985 26.288 14.4333 23.2754C13.5383 23.2889 12.6586 23.0368 11.9008 22.5497C11.1431 22.0627 10.5399 21.3615 10.1642 20.5312C11.1541 19.9115 12.2828 19.5612 13.4427 19.5137C14.6026 19.4661 15.7551 19.7228 16.7904 20.2594C18.9244 21.2493 21.3526 21.3468 23.5561 20.5312C23.5491 20.3815 20.4127 19.1057 19.1898 17.875C18.5365 17.2168 18.2263 16.8999 17.9515 16.6618C17.803 16.5333 17.6477 16.413 17.4865 16.3016C17.3795 16.227 17.2591 16.1463 17.1145 16.0493C15.8 15.1759 13.1857 15.2239 13.0993 15.2263H13.0909C12.3767 14.3011 12.4269 11.2505 12.4678 10.6133C12.2565 10.7001 12.0548 10.8095 11.8661 10.9397C11.2356 11.3996 10.6461 11.9156 10.1047 12.4817C9.48546 13.1191 8.9196 13.8085 8.41303 14.5425V14.5454V14.5421C7.25451 16.2202 6.4327 18.1162 5.99505 20.1206C5.98621 20.1582 5.34591 23.0188 5.66165 24.5023L5.6649 24.5013Z" fill="url(#paint7_radial_4581_36350)"/>
<path d="M29.8751 17.2327C30.5331 17.8931 31.0966 18.6449 31.5491 19.4661C31.6482 19.5426 31.7407 19.6186 31.8193 19.6923C35.9052 23.5412 33.7644 28.982 33.6049 29.3669C36.924 26.5724 39.0453 22.4388 38.4083 18.1717C36.3697 12.978 32.912 10.8825 30.0942 6.3255C29.9514 6.09503 29.8086 5.8641 29.6696 5.62033C29.5901 5.4811 29.5264 5.35566 29.4711 5.24019C29.354 5.00857 29.2638 4.76378 29.2023 4.51079C29.2024 4.49912 29.1983 4.48782 29.1907 4.47906C29.1832 4.47029 29.1727 4.46467 29.1614 4.46327C29.1503 4.46016 29.1385 4.46016 29.1274 4.46327C29.1251 4.46327 29.1214 4.46755 29.1186 4.4685C29.1158 4.46945 29.1098 4.47373 29.1056 4.47563C28.4085 4.81348 24.2743 11.5035 29.8775 17.2247L29.8751 17.2327Z" fill="url(#paint8_radial_4581_36350)"/>
<path d="M31.819 19.6936C31.7404 19.6199 31.6479 19.5439 31.5489 19.4674C31.5121 19.4394 31.4758 19.4113 31.4368 19.3833C30.1691 18.486 28.6206 18.1018 27.0914 18.3051C33.5734 21.6171 31.8344 33.0214 22.8511 32.5937C22.0512 32.5601 21.2608 32.4043 20.5061 32.1314C20.3297 32.0639 20.1533 31.9901 19.977 31.9099C19.8751 31.8624 19.7733 31.8149 19.6729 31.7617L19.6854 31.7698C20.9381 32.6436 27.1253 34.7786 33.5934 29.3939L33.6037 29.3701C33.765 28.9852 35.9059 23.5444 31.8181 19.6955L31.819 19.6936Z" fill="url(#paint9_radial_4581_36350)"/>
<path d="M15.4281 25.7292C15.4281 25.7292 16.26 22.5612 21.3847 22.5612C21.9385 22.5612 23.5237 20.9812 23.552 20.5231C21.3486 21.3387 18.9203 21.2412 16.7864 20.2513C15.7511 19.7147 14.5985 19.458 13.4386 19.5056C12.2787 19.5532 11.15 19.9035 10.1602 20.5231C10.5358 21.3535 11.1391 22.0546 11.8968 22.5417C12.6545 23.0287 13.5342 23.2808 14.4293 23.2673C14.0954 26.2785 15.6532 29.7867 19.4233 31.6304C19.5075 31.6718 19.5866 31.7164 19.673 31.7559C17.4722 30.5941 15.655 28.3968 15.4281 25.7306V25.7292Z" fill="url(#paint10_radial_4581_36350)"/>
<path d="M40.1982 17.2173C39.4151 15.2918 37.8267 13.2129 36.5828 12.5558C37.4698 14.311 38.0855 16.1961 38.4079 18.1439L38.4112 18.1748C36.3736 12.9858 32.9196 10.8903 30.097 6.33331C29.9543 6.10285 29.8115 5.87191 29.6725 5.62814C29.593 5.48892 29.5293 5.36347 29.4739 5.248C29.3569 5.01638 29.2667 4.77159 29.2052 4.5186C29.2053 4.50693 29.2011 4.49563 29.1936 4.48687C29.186 4.4781 29.1756 4.47249 29.1643 4.47109C29.1531 4.46797 29.1414 4.46797 29.1303 4.47109C29.128 4.47109 29.1243 4.47536 29.1215 4.47631C29.1187 4.47726 29.1126 4.48154 29.1085 4.48344L29.1154 4.47109C24.5887 7.1796 23.0519 12.1927 22.9124 14.7017C23.1226 14.6869 23.3309 14.6689 23.5457 14.6689C25.1517 14.6721 26.7283 15.1097 28.1151 15.9374C29.5019 16.7651 30.6496 17.9533 31.4413 19.3812C30.1737 18.484 28.6251 18.0997 27.096 18.303C33.578 21.615 31.8389 33.0193 22.8557 32.5917C22.0558 32.5581 21.2654 32.4022 20.5107 32.1293C20.3343 32.0618 20.1579 31.988 19.9815 31.9079C19.8797 31.8604 19.7778 31.8128 19.6774 31.7596L19.69 31.7677C19.6025 31.7249 19.5151 31.6804 19.4277 31.6342C19.5119 31.6755 19.5909 31.7202 19.6774 31.7596C17.4766 30.5973 15.6594 28.4001 15.4325 25.7344C15.4325 25.7344 16.2643 22.5663 21.3891 22.5663C21.9429 22.5663 23.528 20.9864 23.5564 20.5283C23.5494 20.3786 20.413 19.1028 19.1901 17.8721C18.5368 17.2139 18.2266 16.897 17.9518 16.6589C17.8033 16.5304 17.6481 16.4101 17.4868 16.2987C17.0762 14.8299 17.0587 13.2755 17.4361 11.7974C15.7737 12.6203 14.2965 13.7869 13.0982 15.2234H13.0898C12.3756 14.2982 12.4258 11.2476 12.4667 10.6104C12.2554 10.6972 12.0537 10.8066 11.865 10.9368C11.2345 11.3967 10.645 11.9127 10.1036 12.4788C9.48659 13.118 8.92306 13.809 8.41892 14.5444V14.5472V14.5439C7.2604 16.2221 6.43859 18.1181 6.00094 20.1225L5.97676 20.2442C5.94282 20.4062 5.79076 21.2292 5.76891 21.406C5.62983 22.2555 5.54101 23.1129 5.50293 23.9734V24.0684C5.51089 28.6769 7.20927 33.115 10.2628 36.5064C13.3163 39.8978 17.5031 41.9962 21.9966 42.3873C26.4901 42.7784 30.9639 41.4338 34.5347 38.619C38.1055 35.8041 40.5138 31.7235 41.2844 27.1827C41.3146 26.9451 41.3393 26.7099 41.3662 26.4699C41.7374 23.3347 41.3356 20.1543 40.1972 17.2182L40.1982 17.2173ZM38.4102 18.1633L38.4135 18.1828L38.4102 18.1633Z" fill="url(#paint11_linear_4581_36350)"/>
</g>
<defs>
<linearGradient id="paint0_linear_4581_36350" x1="37.8127" y1="10.3538" x2="7.26913" y2="39.1916" gradientUnits="userSpaceOnUse">
<stop offset="0.048" stop-color="#FFF44F"/>
<stop offset="0.111" stop-color="#FFE847"/>
<stop offset="0.225" stop-color="#FFC830"/>
<stop offset="0.368" stop-color="#FF980E"/>
<stop offset="0.401" stop-color="#FF8B16"/>
<stop offset="0.462" stop-color="#FF672A"/>
<stop offset="0.534" stop-color="#FF3647"/>
<stop offset="0.705" stop-color="#E31587"/>
</linearGradient>
<radialGradient id="paint1_radial_4581_36350" cx="0" cy="0" r="1" gradientUnits="userSpaceOnUse" gradientTransform="translate(36.655 8.74571) scale(37.5717 38.3944)">
<stop offset="0.129" stop-color="#FFBD4F"/>
<stop offset="0.186" stop-color="#FFAC31"/>
<stop offset="0.247" stop-color="#FF9D17"/>
<stop offset="0.283" stop-color="#FF980E"/>
<stop offset="0.403" stop-color="#FF563B"/>
<stop offset="0.467" stop-color="#FF3750"/>
<stop offset="0.71" stop-color="#F5156C"/>
<stop offset="0.782" stop-color="#EB0878"/>
<stop offset="0.86" stop-color="#E50080"/>
</radialGradient>
<radialGradient id="paint2_radial_4581_36350" cx="0" cy="0" r="1" gradientUnits="userSpaceOnUse" gradientTransform="translate(22.7051 24.4266) scale(37.5717 38.3944)">
<stop offset="0.3" stop-color="#960E18"/>
<stop offset="0.351" stop-color="#B11927" stop-opacity="0.74"/>
<stop offset="0.435" stop-color="#DB293D" stop-opacity="0.343"/>
<stop offset="0.497" stop-color="#F5334B" stop-opacity="0.094"/>
<stop offset="0.53" stop-color="#FF3750" stop-opacity="0"/>
</radialGradient>
<radialGradient id="paint3_radial_4581_36350" cx="0" cy="0" r="1" gradientUnits="userSpaceOnUse" gradientTransform="translate(27.3545 0.192145) scale(27.2162 27.8122)">
<stop offset="0.132" stop-color="#FFF44F"/>
<stop offset="0.252" stop-color="#FFDC3E"/>
<stop offset="0.506" stop-color="#FF9D12"/>
<stop offset="0.526" stop-color="#FF980E"/>
</radialGradient>
<radialGradient id="paint4_radial_4581_36350" cx="0" cy="0" r="1" gradientUnits="userSpaceOnUse" gradientTransform="translate(18.5194 34.4054) scale(17.8884 18.2801)">
<stop offset="0.353" stop-color="#3A8EE6"/>
<stop offset="0.472" stop-color="#5C79F0"/>
<stop offset="0.669" stop-color="#9059FF"/>
<stop offset="1" stop-color="#C139E6"/>
</radialGradient>
<radialGradient id="paint5_radial_4581_36350" cx="0" cy="0" r="1" gradientUnits="userSpaceOnUse" gradientTransform="translate(24.5216 21.1308) rotate(-13.8778) scale(9.49756 11.335)">
<stop offset="0.206" stop-color="#9059FF" stop-opacity="0"/>
<stop offset="0.278" stop-color="#8C4FF3" stop-opacity="0.064"/>
<stop offset="0.747" stop-color="#7716A8" stop-opacity="0.45"/>
<stop offset="0.975" stop-color="#6E008B" stop-opacity="0.6"/>
</radialGradient>
<radialGradient id="paint6_radial_4581_36350" cx="0" cy="0" r="1" gradientUnits="userSpaceOnUse" gradientTransform="translate(22.24 7.31969) scale(12.8711 13.1529)">
<stop stop-color="#FFE226"/>
<stop offset="0.121" stop-color="#FFDB27"/>
<stop offset="0.295" stop-color="#FFC82A"/>
<stop offset="0.502" stop-color="#FFA930"/>
<stop offset="0.732" stop-color="#FF7E37"/>
<stop offset="0.792" stop-color="#FF7139"/>
</radialGradient>
<radialGradient id="paint7_radial_4581_36350" cx="0" cy="0" r="1" gradientUnits="userSpaceOnUse" gradientTransform="translate(32.4701 -1.23434) scale(54.916 56.1186)">
<stop offset="0.113" stop-color="#FFF44F"/>
<stop offset="0.456" stop-color="#FF980E"/>
<stop offset="0.622" stop-color="#FF5634"/>
<stop offset="0.716" stop-color="#FF3647"/>
<stop offset="0.904" stop-color="#E31587"/>
</radialGradient>
<radialGradient id="paint8_radial_4581_36350" cx="0" cy="0" r="1" gradientUnits="userSpaceOnUse" gradientTransform="translate(27.9054 1.87878) rotate(84.1042) scale(41.1149 26.4175)">
<stop stop-color="#FFF44F"/>
<stop offset="0.06" stop-color="#FFE847"/>
<stop offset="0.168" stop-color="#FFC830"/>
<stop offset="0.304" stop-color="#FF980E"/>
<stop offset="0.356" stop-color="#FF8B16"/>
<stop offset="0.455" stop-color="#FF672A"/>
<stop offset="0.57" stop-color="#FF3647"/>
<stop offset="0.737" stop-color="#E31587"/>
</radialGradient>
<radialGradient id="paint9_radial_4581_36350" cx="0" cy="0" r="1" gradientUnits="userSpaceOnUse" gradientTransform="translate(22.2401 12.0717) scale(34.2795 35.0301)">
<stop offset="0.137" stop-color="#FFF44F"/>
<stop offset="0.48" stop-color="#FF980E"/>
<stop offset="0.592" stop-color="#FF5634"/>
<stop offset="0.655" stop-color="#FF3647"/>
<stop offset="0.904" stop-color="#E31587"/>
</radialGradient>
<radialGradient id="paint10_radial_4581_36350" cx="0" cy="0" r="1" gradientUnits="userSpaceOnUse" gradientTransform="translate(31.0752 13.9733) scale(37.5205 38.3421)">
<stop offset="0.094" stop-color="#FFF44F"/>
<stop offset="0.231" stop-color="#FFE141"/>
<stop offset="0.509" stop-color="#FFAF1E"/>
<stop offset="0.626" stop-color="#FF980E"/>
</radialGradient>
<linearGradient id="paint11_linear_4581_36350" x1="37.45" y1="10.1969" x2="11.4448" y2="35.6496" gradientUnits="userSpaceOnUse">
<stop offset="0.167" stop-color="#FFF44F" stop-opacity="0.8"/>
<stop offset="0.266" stop-color="#FFF44F" stop-opacity="0.634"/>
<stop offset="0.489" stop-color="#FFF44F" stop-opacity="0.217"/>
<stop offset="0.6" stop-color="#FFF44F" stop-opacity="0"/>
</linearGradient>
<clipPath id="clip0_4581_36350">
<rect width="36" height="38" fill="white" transform="translate(5.5 4.46875)"/>
</clipPath>
</defs>
</svg>
