<svg width="98" height="33" viewBox="0 0 98 33" fill="none" xmlns="http://www.w3.org/2000/svg">
<rect width="98.0002" height="32.5303" fill="white"/>
<path d="M46.2347 8.91602H41.3145V24.2882H44.6887V19.1853H46.3283C49.2879 19.1853 51.8695 17.5739 51.8695 13.9174C51.8732 10.1137 49.3252 8.91602 46.2347 8.91602ZM46.1616 16.2698H44.6917V11.8283H46.0672C47.6878 11.8283 48.5925 12.3654 48.5925 13.915C48.5895 15.4239 47.799 16.2698 46.1587 16.2698H46.1616Z" fill="#FF2D55"/>
<path d="M56.8596 8.91602H53.4854V24.2882H62.3072V21.1891H56.8604L56.8596 8.91602Z" fill="#FF2D55"/>
<path d="M80.9519 15.3288H80.8788C80.4831 14.1311 78.5795 8.91602 78.5795 8.91602H74.9961L79.2179 18.8529V24.2882H82.5725V18.8545L86.8141 8.91763H83.2899C83.2899 8.91763 81.3475 14.1311 80.9519 15.3288Z" fill="#FF2D55"/>
<path d="M91.8936 21.1874L97.9438 11.1262V8.91602H88.3314V11.9729H93.7972L87.7471 22.0545V24.2882H98.0001V21.1891L91.8936 21.1874Z" fill="#FF2D55"/>
<path d="M31.5564 8.91602L27.2021 24.2882H30.632L33.46 12.0915L36.3999 24.2882H39.9431L35.5881 8.91602H31.5564Z" fill="#FF2D55"/>
<path d="M33.5727 20.9688C33.2783 20.9734 32.9917 21.0747 32.7489 21.2598C32.5061 21.4449 32.318 21.7057 32.2083 22.0093C32.0985 22.3128 32.0719 22.6457 32.1319 22.966C32.1919 23.2863 32.3358 23.5797 32.5454 23.8094C32.7551 24.0391 33.0212 24.1948 33.3103 24.257C33.5994 24.3191 33.8986 24.2849 34.1702 24.1586C34.4418 24.0324 34.6738 23.8197 34.837 23.5474C35.0002 23.2751 35.0872 22.9552 35.0873 22.6281C35.0859 22.4086 35.0457 22.1916 34.9688 21.9894C34.892 21.7872 34.78 21.6039 34.6394 21.4498C34.4987 21.2957 34.3321 21.1739 34.1491 21.0914C33.9661 21.0088 33.7702 20.9672 33.5727 20.9688V20.9688Z" fill="#FF2D55"/>
<path d="M7.87332 9.34245L11.3105 21.4863L16.7653 12.3993H11.2995V9.34163H17.6729L5.07605 0.565891C4.57488 0.217196 3.99938 0.0225433 3.40836 0.00184308C2.81733 -0.0188571 2.23195 0.135122 1.71201 0.448052C1.19633 0.756131 0.765081 1.21318 0.463755 1.77096C0.162428 2.32873 0.00220151 2.96656 0 3.61709V22.875L3.83501 9.33432L7.87332 9.34245Z" fill="#FF2D55"/>
<path d="M23.2336 13.213L20.8934 11.5879L14.8623 21.6174H19.9449L23.2358 19.3268C23.7041 19.0046 24.0905 18.5549 24.3585 18.0203C24.6264 17.4857 24.7671 16.8839 24.7671 16.2719C24.7671 15.66 24.6264 15.0582 24.3585 14.5236C24.0905 13.989 23.7041 13.5393 23.2358 13.2171L23.2336 13.213Z" fill="#FF2D55"/>
<path d="M5.74324 12.5156L2.91599 24.7131H0.00390625V28.9133C0.00595108 29.5639 0.166095 30.2018 0.467438 30.7596C0.768781 31.3174 1.20013 31.7744 1.7159 32.0823C2.23585 32.3951 2.82117 32.5491 3.41215 32.5285C4.00313 32.508 4.57862 32.3136 5.07994 31.9653L15.4975 24.7099H8.68531L5.74324 12.5156ZM5.85587 24.7131C5.56149 24.7085 5.2749 24.6072 5.03214 24.4221C4.78938 24.2371 4.60128 23.9764 4.49148 23.6729C4.38167 23.3693 4.35507 23.0365 4.415 22.7162C4.47494 22.396 4.61874 22.1025 4.82833 21.8728C5.03793 21.643 5.30396 21.4873 5.593 21.4251C5.88204 21.3628 6.18119 21.3969 6.45284 21.523C6.72449 21.6492 6.95653 21.8617 7.11979 22.1339C7.28305 22.4061 7.37024 22.7259 7.37042 23.053C7.36908 23.2725 7.32884 23.4896 7.252 23.6918C7.17516 23.894 7.06323 24.0774 6.92259 24.2316C6.78195 24.3858 6.61536 24.5076 6.43233 24.5902C6.2493 24.6729 6.05342 24.7146 5.85587 24.7131V24.7131Z" fill="#FF2D55"/>
<path d="M68.251 8.91602L63.8975 24.2882H67.3281L70.1553 12.0915L73.0952 24.2882H76.6391L72.2849 8.91845L68.251 8.91602Z" fill="#FF2D55"/>
<path d="M70.2688 20.9688C69.9743 20.9733 69.6876 21.0744 69.4448 21.2594C69.2019 21.4445 69.0137 21.7051 68.9038 22.0087C68.7939 22.3123 68.7672 22.6451 68.8271 22.9655C68.887 23.2859 69.0309 23.5794 69.2405 23.8092C69.4501 24.0389 69.7163 24.1947 70.0054 24.2569C70.2945 24.3191 70.5937 24.285 70.8653 24.1587C71.137 24.0325 71.3691 23.8199 71.5323 23.5475C71.6955 23.2752 71.7826 22.9553 71.7826 22.6281C71.7813 22.4087 71.7412 22.1916 71.6644 21.9895C71.5876 21.7873 71.4758 21.6039 71.3352 21.4498C71.1946 21.2957 71.028 21.1739 70.8451 21.0914C70.6621 21.0089 70.4662 20.9672 70.2688 20.9688Z" fill="#FF2D55"/>
</svg>
