<svg width="32" height="32" viewBox="0 0 32 32" fill="none" xmlns="http://www.w3.org/2000/svg">
<path d="M20.0923 1.00002H7.82119C7.28538 0.997831 6.76102 1.17054 6.31444 1.49628C5.86787 1.82203 5.51916 2.28619 5.31243 2.83002L1.19478 13.405C1.06742 13.7532 1.00132 14.1247 1 14.5V17.365L1.01363 17.38L1 17.5C1.00206 18.2957 1.29055 19.0581 1.80235 19.6203C2.31414 20.1826 3.00755 20.4989 3.73081 20.5H12.3342L11.039 27.3571L10.9981 27.8371C10.9993 28.4335 11.2149 29.0051 11.598 29.4271L13.0432 31L22.0284 21.115C22.2803 20.8371 22.4798 20.5072 22.6156 20.1443C22.7513 19.7813 22.8205 19.3925 22.8192 19V4.00002C22.8172 3.20507 22.5292 2.44332 22.0183 1.8812C21.5073 1.31908 20.8149 1.00228 20.0923 1.00002ZM25.5462 1.00002V19H31V1.00002H25.5462Z" stroke="white"/>
</svg>
