<svg width="190" height="190" viewBox="0 0 190 190" fill="none" xmlns="http://www.w3.org/2000/svg">
<mask id="mask0_4995_47674" style="mask-type:alpha" maskUnits="userSpaceOnUse" x="0" y="0" width="190" height="190">
<rect width="190" height="190" fill="#C4C4C4"/>
</mask>
<g mask="url(#mask0_4995_47674)">
<g filter="url(#filter0_d_4995_47674)">
<path d="M132.34 83C136.189 76.3333 145.811 76.3333 149.66 83L172.177 122C176.026 128.667 171.215 137 163.517 137H118.483C110.785 137 105.974 128.667 109.823 122L132.34 83Z" fill="#EC3B5A"/>
</g>
<g filter="url(#filter1_b_4995_47674)">
<path d="M65.6795 36C73.3775 22.6666 92.6225 22.6667 100.321 36L159.21 138C166.908 151.333 157.286 168 141.89 168H24.1103C8.71424 168 -0.908242 151.333 6.78976 138L65.6795 36Z" fill="white" fill-opacity="0.08"/>
</g>
<rect x="80" y="77" width="7" height="46" fill="white"/>
<rect x="80" y="131" width="7" height="7" fill="white"/>
</g>
<defs>
<filter id="filter0_d_4995_47674" x="78.4688" y="52" width="125.062" height="119" filterUnits="userSpaceOnUse" color-interpolation-filters="sRGB">
<feFlood flood-opacity="0" result="BackgroundImageFix"/>
<feColorMatrix in="SourceAlpha" type="matrix" values="0 0 0 0 0 0 0 0 0 0 0 0 0 0 0 0 0 0 127 0" result="hardAlpha"/>
<feOffset dy="4"/>
<feGaussianBlur stdDeviation="15"/>
<feComposite in2="hardAlpha" operator="out"/>
<feColorMatrix type="matrix" values="0 0 0 0 0.960784 0 0 0 0 0.243137 0 0 0 0 0.439216 0 0 0 0.8 0"/>
<feBlend mode="normal" in2="BackgroundImageFix" result="effect1_dropShadow_4995_47674"/>
<feBlend mode="normal" in="SourceGraphic" in2="effect1_dropShadow_4995_47674" result="shape"/>
</filter>
<filter id="filter1_b_4995_47674" x="-95.9199" y="-74" width="357.84" height="342" filterUnits="userSpaceOnUse" color-interpolation-filters="sRGB">
<feFlood flood-opacity="0" result="BackgroundImageFix"/>
<feGaussianBlur in="BackgroundImage" stdDeviation="50"/>
<feComposite in2="SourceAlpha" operator="in" result="effect1_backgroundBlur_4995_47674"/>
<feBlend mode="normal" in="SourceGraphic" in2="effect1_backgroundBlur_4995_47674" result="shape"/>
</filter>
</defs>
</svg>
