<svg width="30" height="30" viewBox="0 0 30 30" fill="none" xmlns="http://www.w3.org/2000/svg">
<path d="M23.1788 29.5L23.1808 29.5C23.6065 29.5017 24.0275 29.3648 24.3909 29.0998C24.755 28.8342 25.046 28.4506 25.2202 27.9923L25.2202 27.9923L25.2216 27.9886L29.3373 17.4186C29.4433 17.1272 29.4988 16.8152 29.5 16.4993V13.8283L29.464 13.7887L29.4896 13.5635L29.4998 13.4735C29.4915 12.8058 29.2462 12.1758 28.8279 11.7162C28.4052 11.2519 27.8433 11.0009 27.2684 11H18.6658H18.0625L18.1744 10.4072L19.465 3.57504L19.5018 3.14332C19.496 2.67271 19.3235 2.23088 19.0327 1.90992C19.0324 1.90958 19.0321 1.90923 19.0318 1.90889L17.9588 0.741156L9.34203 10.2208C9.13405 10.4502 8.96708 10.7252 8.85278 11.0308C8.73847 11.3366 8.6797 11.6655 8.68076 11.9984V12V26.9994C8.68268 27.6765 8.92842 28.3168 9.35171 28.7825C9.77355 29.2466 10.3344 29.498 10.9085 29.5L23.1788 29.5ZM4.95384 29.5V12.5H0.5V29.5H4.95384Z" fill="#FF2D55" stroke="#FF2D55"/>
</svg>
