<svg width="154" height="40" viewBox="0 0 154 40" fill="none" xmlns="http://www.w3.org/2000/svg">
<path d="M56.6146 10.9185H50.5898V29.7415H54.7216V23.493H56.7293C60.3533 23.493 63.5143 21.52 63.5143 17.0426C63.5188 12.3851 60.3989 10.9185 56.6146 10.9185ZM56.5251 19.923H54.7252V14.4845H56.4096C58.394 14.4845 59.5017 15.1422 59.5017 17.0396C59.4981 18.8873 58.5301 19.923 56.5215 19.923H56.5251Z" fill="white"/>
<path d="M69.624 10.9185H65.4922V29.7415H76.2944V25.9466H69.6249L69.624 10.9185Z" fill="white"/>
<path d="M99.1238 18.7708H99.0343C98.5498 17.3042 96.2189 10.9185 96.2189 10.9185H91.8311L97.0007 23.0861V29.7415H101.108V23.088L106.302 10.9204H101.987C101.987 10.9204 99.6083 17.3042 99.1238 18.7708Z" fill="white"/>
<path d="M112.523 25.9446L119.931 13.6248V10.9185H108.161V14.6616H114.854L107.445 27.0063V29.7415H120V25.9466L112.523 25.9446Z" fill="white"/>
<path d="M38.6403 10.9185L33.3086 29.7415H37.5084L40.9712 14.8068L44.5711 29.7415H48.9097L43.5771 10.9185H38.6403Z" fill="white"/>
<path d="M41.1102 25.6749C40.7497 25.6805 40.3988 25.8045 40.1015 26.0312C39.8042 26.2579 39.5739 26.5772 39.4395 26.9489C39.305 27.3206 39.2725 27.7282 39.346 28.1204C39.4194 28.5126 39.5956 28.8719 39.8523 29.1532C40.1091 29.4344 40.4349 29.6251 40.7889 29.7012C41.1429 29.7773 41.5092 29.7354 41.8418 29.5808C42.1744 29.4262 42.4585 29.1658 42.6583 28.8323C42.8581 28.4989 42.9647 28.1072 42.9648 27.7066C42.9631 27.4379 42.9138 27.1722 42.8197 26.9246C42.7256 26.677 42.5886 26.4525 42.4163 26.2638C42.2441 26.0751 42.0401 25.926 41.816 25.825C41.5919 25.7239 41.3521 25.6729 41.1102 25.6749Z" fill="white"/>
<path d="M9.64077 11.4397L13.8495 26.3097L20.5289 15.1828H13.8361V11.4387H21.6402L6.21555 0.692925C5.60187 0.265954 4.89719 0.0276039 4.17348 0.00225683C3.44978 -0.0230903 2.73299 0.165455 2.09633 0.548634C1.46489 0.925871 0.936831 1.48553 0.567861 2.16851C0.198891 2.8515 0.00269572 3.63251 0 4.42908V28.0101L4.69591 11.4297L9.64077 11.4397Z" fill="#FF2D55"/>
<path d="M28.4498 16.1799L25.5843 14.1899L18.1992 26.471H24.4228L28.4525 23.6661C29.0258 23.2716 29.499 22.721 29.8271 22.0663C30.1553 21.4117 30.3275 20.6748 30.3275 19.9255C30.3275 19.1762 30.1553 18.4393 29.8271 17.7847C29.499 17.13 29.0258 16.5794 28.4525 16.1849L28.4498 16.1799Z" fill="#FF2D55"/>
<path d="M7.03262 15.3252L3.57069 30.2609H0.00488281V35.4039C0.00738667 36.2005 0.20348 36.9816 0.572471 37.6646C0.941461 38.3477 1.46964 38.9073 2.1012 39.2843C2.73786 39.6674 3.45458 39.8559 4.17823 39.8307C4.90188 39.8056 5.60656 39.5676 6.22042 39.141L18.9766 30.2569H10.6351L7.03262 15.3252ZM7.17053 30.2609C6.81006 30.2552 6.45914 30.1312 6.16188 29.9046C5.86463 29.6779 5.6343 29.3587 5.49985 28.9871C5.3654 28.6154 5.33282 28.2079 5.40621 27.8157C5.4796 27.4235 5.65568 27.0642 5.91232 26.7829C6.16897 26.5016 6.49472 26.3109 6.84865 26.2347C7.20257 26.1585 7.56888 26.2002 7.90151 26.3546C8.23415 26.5091 8.51827 26.7693 8.71818 27.1027C8.91809 27.436 9.02486 27.8276 9.02507 28.2281C9.02343 28.4969 8.97416 28.7627 8.88007 29.0103C8.78598 29.2579 8.64892 29.4825 8.47671 29.6712C8.3045 29.86 8.10051 30.0092 7.8764 30.1104C7.65228 30.2116 7.41243 30.2627 7.17053 30.2609Z" fill="#FF2D55"/>
<path d="M83.572 10.9185L78.2412 29.7415H82.4419L85.9039 14.8068L89.5037 29.7415H93.8432L88.5115 10.9214L83.572 10.9185Z" fill="white"/>
<path d="M86.0428 25.6749C85.6822 25.6804 85.3312 25.8042 85.0338 26.0307C84.7364 26.2573 84.5059 26.5765 84.3714 26.9482C84.2368 27.3199 84.2041 27.7275 84.2775 28.1198C84.3509 28.5121 84.527 28.8715 84.7837 29.1529C85.0404 29.4342 85.3662 29.625 85.7202 29.7011C86.0742 29.7773 86.4406 29.7355 86.7733 29.5809C87.1059 29.4263 87.3901 29.1659 87.5899 28.8325C87.7897 28.499 87.8964 28.1073 87.8964 27.7066C87.8949 27.4379 87.8457 27.1722 87.7517 26.9247C87.6577 26.6771 87.5207 26.4526 87.3486 26.2639C87.1764 26.0752 86.9725 25.926 86.7484 25.825C86.5244 25.7239 86.2846 25.6729 86.0428 25.6749Z" fill="white"/>
<path d="M128.768 14.576C129.163 14.576 129.507 14.5227 129.8 14.416C130.093 14.3093 130.336 14.16 130.528 13.968C130.72 13.7707 130.861 13.536 130.952 13.264C131.048 12.992 131.096 12.688 131.096 12.352C131.096 11.888 130.944 11.52 130.64 11.248C130.341 10.976 129.869 10.84 129.224 10.84H127.128L126.672 14.576H128.768ZM127.736 5.896L127.288 9.576H128.968C129.757 9.576 130.355 9.38667 130.76 9.008C131.165 8.62933 131.368 8.09067 131.368 7.392C131.368 6.87467 131.216 6.496 130.912 6.256C130.608 6.016 130.141 5.896 129.512 5.896H127.736ZM129.672 4.48C130.291 4.48 130.821 4.54133 131.264 4.664C131.712 4.78667 132.077 4.96267 132.36 5.192C132.648 5.416 132.859 5.688 132.992 6.008C133.125 6.328 133.192 6.68533 133.192 7.08C133.192 7.416 133.144 7.736 133.048 8.04C132.957 8.344 132.816 8.62667 132.624 8.888C132.437 9.144 132.2 9.37333 131.912 9.576C131.624 9.77867 131.283 9.944 130.888 10.072C131.555 10.232 132.051 10.5013 132.376 10.88C132.707 11.2587 132.872 11.7387 132.872 12.32C132.872 12.8533 132.773 13.344 132.576 13.792C132.384 14.24 132.104 14.6293 131.736 14.96C131.373 15.2853 130.928 15.5413 130.4 15.728C129.877 15.9093 129.285 16 128.624 16H124.696L126.112 4.48H129.672ZM137.737 8.944C137.438 8.944 137.161 9.00533 136.905 9.128C136.654 9.25067 136.428 9.42133 136.225 9.64C136.028 9.85333 135.854 10.1093 135.705 10.408C135.561 10.7067 135.449 11.032 135.369 11.384C136.105 11.288 136.697 11.1813 137.145 11.064C137.593 10.9467 137.937 10.8187 138.177 10.68C138.417 10.5413 138.577 10.3947 138.657 10.24C138.737 10.08 138.777 9.912 138.777 9.736C138.777 9.65067 138.758 9.56 138.721 9.464C138.684 9.368 138.622 9.28267 138.537 9.208C138.457 9.13333 138.35 9.072 138.217 9.024C138.084 8.97067 137.924 8.944 137.737 8.944ZM140.129 14.488C139.852 14.7707 139.58 15.016 139.313 15.224C139.046 15.4267 138.774 15.5947 138.497 15.728C138.22 15.8613 137.929 15.96 137.625 16.024C137.321 16.088 136.99 16.12 136.633 16.12C136.158 16.12 135.732 16.04 135.353 15.88C134.974 15.72 134.649 15.496 134.377 15.208C134.11 14.9147 133.905 14.5627 133.761 14.152C133.617 13.736 133.545 13.272 133.545 12.76C133.545 12.3333 133.59 11.9147 133.681 11.504C133.772 11.088 133.902 10.6933 134.073 10.32C134.249 9.94667 134.46 9.60267 134.705 9.288C134.956 8.968 135.238 8.69333 135.553 8.464C135.873 8.23467 136.222 8.056 136.601 7.928C136.985 7.79467 137.396 7.728 137.833 7.728C138.254 7.728 138.62 7.78933 138.929 7.912C139.238 8.02933 139.494 8.184 139.697 8.376C139.905 8.56267 140.06 8.77067 140.161 9C140.262 9.22933 140.313 9.45333 140.313 9.672C140.313 10.0293 140.238 10.3573 140.089 10.656C139.945 10.9547 139.684 11.224 139.305 11.464C138.926 11.704 138.406 11.912 137.745 12.088C137.089 12.264 136.246 12.4053 135.217 12.512C135.212 12.544 135.209 12.5787 135.209 12.616C135.209 12.648 135.209 12.6827 135.209 12.72C135.209 13.3973 135.356 13.9093 135.649 14.256C135.942 14.5973 136.382 14.768 136.969 14.768C137.337 14.768 137.644 14.7173 137.889 14.616C138.134 14.5147 138.342 14.4053 138.513 14.288C138.689 14.1653 138.841 14.0533 138.969 13.952C139.102 13.8507 139.241 13.8 139.385 13.8C139.497 13.8 139.601 13.8533 139.697 13.96L140.129 14.488ZM141.393 14.392C141.393 14.3547 141.393 14.312 141.393 14.264C141.398 14.2107 141.404 14.136 141.409 14.04C141.42 13.944 141.433 13.816 141.449 13.656C141.465 13.496 141.489 13.2907 141.521 13.04L141.993 9.192H141.169C141.078 9.192 141.006 9.16267 140.953 9.104C140.9 9.04 140.881 8.94667 140.897 8.824L140.977 8.128L142.217 7.936L142.857 5.576C142.889 5.48533 142.937 5.41333 143.001 5.36C143.07 5.30133 143.153 5.272 143.249 5.272H144.161L143.825 7.952H145.881L145.737 9.192H143.673L143.217 12.944C143.19 13.1627 143.169 13.3387 143.153 13.472C143.137 13.6 143.124 13.704 143.113 13.784C143.108 13.8587 143.102 13.912 143.097 13.944C143.097 13.9707 143.097 13.992 143.097 14.008C143.097 14.2427 143.153 14.4213 143.265 14.544C143.377 14.6667 143.532 14.728 143.729 14.728C143.857 14.728 143.966 14.712 144.057 14.68C144.148 14.6427 144.228 14.6053 144.297 14.568C144.366 14.5253 144.425 14.488 144.473 14.456C144.521 14.4187 144.566 14.4 144.609 14.4C144.668 14.4 144.71 14.4133 144.737 14.44C144.764 14.4613 144.79 14.5013 144.817 14.56L145.185 15.4C144.902 15.6347 144.588 15.816 144.241 15.944C143.9 16.0667 143.553 16.128 143.201 16.128C142.652 16.128 142.217 15.9787 141.897 15.68C141.577 15.376 141.409 14.9467 141.393 14.392ZM151.346 8.992C151.256 8.98133 151.165 8.97333 151.074 8.968C150.989 8.96267 150.901 8.96 150.81 8.96C150.352 8.96 149.92 9.06667 149.514 9.28C149.114 9.49333 148.765 9.78133 148.466 10.144C148.173 10.5067 147.941 10.928 147.77 11.408C147.6 11.8827 147.514 12.384 147.514 12.912C147.514 13.52 147.61 13.9707 147.802 14.264C148 14.552 148.277 14.696 148.634 14.696C148.874 14.696 149.109 14.6187 149.338 14.464C149.568 14.304 149.784 14.088 149.986 13.816C150.194 13.5387 150.386 13.2133 150.562 12.84C150.738 12.4667 150.89 12.0613 151.018 11.624L151.346 8.992ZM150.802 14.096C150.616 14.4053 150.416 14.6853 150.202 14.936C149.994 15.1813 149.773 15.392 149.538 15.568C149.304 15.744 149.056 15.88 148.794 15.976C148.533 16.072 148.261 16.12 147.978 16.12C147.664 16.12 147.373 16.0587 147.106 15.936C146.84 15.8133 146.61 15.6293 146.418 15.384C146.226 15.1387 146.074 14.8373 145.962 14.48C145.856 14.1173 145.802 13.6987 145.802 13.224C145.802 12.7387 145.864 12.2667 145.986 11.808C146.109 11.344 146.282 10.9093 146.506 10.504C146.73 10.0933 147 9.71733 147.314 9.376C147.629 9.03467 147.981 8.74133 148.37 8.496C148.76 8.25067 149.178 8.06133 149.626 7.928C150.08 7.78933 150.554 7.72 151.05 7.72C151.408 7.72 151.762 7.74933 152.114 7.808C152.466 7.86133 152.81 7.95733 153.146 8.096L152.17 16H151.266C151.048 16 150.898 15.944 150.818 15.832C150.738 15.72 150.698 15.5813 150.698 15.416L150.802 14.096Z" fill="#FF2D55"/>
</svg>
