<svg width="36" height="36" viewBox="0 0 36 36" fill="none" xmlns="http://www.w3.org/2000/svg">
<path d="M19.3333 27.4376H27.3333V15.8788L18 8.90405L8.66667 15.8788V27.4376H16.6667V19.7505H19.3333V27.4376ZM30 28.7188C30 29.0586 29.8595 29.3845 29.6095 29.6248C29.3594 29.865 29.0203 30 28.6667 30H7.33333C6.97971 30 6.64057 29.865 6.39052 29.6248C6.14048 29.3845 6 29.0586 6 28.7188V15.2536C5.99986 15.0584 6.04616 14.8657 6.13535 14.6903C6.22455 14.5148 6.35429 14.3613 6.51467 14.2415L17.1813 6.26994C17.4154 6.09499 17.7035 6 18 6C18.2965 6 18.5846 6.09499 18.8187 6.26994L29.4853 14.2415C29.6457 14.3613 29.7754 14.5148 29.8646 14.6903C29.9538 14.8657 30.0001 15.0584 30 15.2536V28.7188Z" fill="white"/>
</svg>
