<svg width="36" height="36" viewBox="0 0 36 36" fill="none" xmlns="http://www.w3.org/2000/svg">
<path d="M14.4 9.04602V17.9699C14.4004 18.736 14.6439 19.482 15.0953 20.1001C15.5467 20.7181 16.1826 21.1762 16.9109 21.4079C17.6392 21.6397 18.4222 21.6331 19.1465 21.3891C19.8708 21.1452 20.4989 20.6765 20.9399 20.0509C21.3809 19.4254 21.6119 18.6753 21.5995 17.9094C21.5871 17.1435 21.3319 16.4014 20.8709 15.7905C20.4099 15.1796 19.7669 14.7316 19.035 14.5114C18.3032 14.2912 17.5204 14.3101 16.8 14.5654V6C10.7364 6.60271 6 11.7323 6 17.9699C6 24.6141 11.3724 30 18 30C24.6276 30 30 24.6141 30 17.9699C30 11.7323 25.2636 6.60271 19.2 6V8.42045C21.6207 8.72924 23.8334 9.95052 25.3882 11.8361C26.943 13.7216 27.7233 16.1299 27.5705 18.5715C27.4176 21.013 26.3432 23.3047 24.5655 24.9806C22.7878 26.6565 20.4403 27.591 18 27.594C15.7712 27.5952 13.6114 26.819 11.8911 25.3984C10.1707 23.9778 8.99707 22.0013 8.57137 19.8081C8.14568 17.6148 8.49449 15.3414 9.55797 13.3778C10.6215 11.4141 12.3333 9.88267 14.4 9.04602Z" fill="white"/>
</svg>
