<svg width="24" height="24" viewBox="0 0 24 24" fill="none" xmlns="http://www.w3.org/2000/svg">
<path d="M9.95405 2.2107C11.303 1.92784 12.6958 1.92716 14.045 2.2087C14.1349 2.80199 14.3574 3.36739 14.6958 3.86288C15.0343 4.35837 15.4801 4.77121 16 5.0707C16.5196 5.37123 17.1002 5.55077 17.6987 5.59595C18.2973 5.64114 18.8983 5.55082 19.457 5.3317C20.3753 6.35976 21.0709 7.56674 21.5 8.8767C21.0314 9.25128 20.6532 9.72665 20.3935 10.2675C20.1338 10.8083 19.9993 11.4007 20 12.0007C20 13.2647 20.586 14.3917 21.502 15.1247C21.0704 16.4336 20.3739 17.6396 19.456 18.6677C18.8974 18.4487 18.2966 18.3585 17.6983 18.4037C17.0999 18.4489 16.5195 18.6283 16 18.9287C15.4805 19.2281 15.0351 19.6407 14.6968 20.1358C14.3585 20.6309 14.1361 21.1959 14.046 21.7887C12.6973 22.0722 11.3044 22.0736 9.95505 21.7927C9.86559 21.1989 9.64335 20.6329 9.30487 20.1368C8.96639 19.6408 8.52038 19.2275 8.00005 18.9277C7.48041 18.6273 6.89975 18.448 6.30124 18.403C5.70272 18.3579 5.10176 18.4484 4.54305 18.6677C3.62465 17.6393 2.92905 16.432 2.50005 15.1217C2.96844 14.7473 3.34651 14.2723 3.60618 13.7318C3.86586 13.1913 4.00048 12.5993 4.00005 11.9997C4.00054 11.3996 3.86575 10.8071 3.60571 10.2662C3.34568 9.72537 2.96707 9.25008 2.49805 8.8757C2.92972 7.56683 3.62616 6.3608 4.54405 5.3327C5.1027 5.55166 5.70352 5.6419 6.30184 5.59671C6.90017 5.55153 7.48062 5.37208 8.00005 5.0717C8.51959 4.7723 8.96503 4.35973 9.30331 3.86461C9.64158 3.36949 9.864 2.80454 9.95405 2.2117V2.2107ZM12 15.0007C12.7957 15.0007 13.5588 14.6846 14.1214 14.122C14.684 13.5594 15 12.7964 15 12.0007C15 11.2051 14.684 10.442 14.1214 9.87938C13.5588 9.31677 12.7957 9.0007 12 9.0007C11.2044 9.0007 10.4413 9.31677 9.87873 9.87938C9.31612 10.442 9.00005 11.2051 9.00005 12.0007C9.00005 12.7964 9.31612 13.5594 9.87873 14.122C10.4413 14.6846 11.2044 15.0007 12 15.0007Z" fill="white"/>
</svg>
