<svg width="87" height="43" viewBox="0 0 87 43" fill="none" xmlns="http://www.w3.org/2000/svg">
<mask id="path-1-inside-1_6557_62315" fill="white">
<path fill-rule="evenodd" clip-rule="evenodd" d="M44.4142 0.585786C43.6332 -0.195262 42.3668 -0.195262 41.5858 0.585786L37.1716 5H5C2.23858 5 0 7.23858 0 10V38C0 40.7614 2.23858 43 5 43H82C84.7614 43 87 40.7614 87 38V10C87 7.23858 84.7614 5 82 5H48.8284L44.4142 0.585786Z"/>
</mask>
<path fill-rule="evenodd" clip-rule="evenodd" d="M44.4142 0.585786C43.6332 -0.195262 42.3668 -0.195262 41.5858 0.585786L37.1716 5H5C2.23858 5 0 7.23858 0 10V38C0 40.7614 2.23858 43 5 43H82C84.7614 43 87 40.7614 87 38V10C87 7.23858 84.7614 5 82 5H48.8284L44.4142 0.585786Z" fill="white"/>
<path d="M41.5858 0.585786L40.8787 -0.121322L40.8787 -0.12132L41.5858 0.585786ZM44.4142 0.585786L45.1213 -0.12132L45.1213 -0.121322L44.4142 0.585786ZM37.1716 5V6H37.5858L37.8787 5.70711L37.1716 5ZM48.8284 5L48.1213 5.70711L48.4142 6H48.8284V5ZM42.2929 1.29289C42.6834 0.902368 43.3166 0.902368 43.7071 1.29289L45.1213 -0.121322C43.9497 -1.29289 42.0503 -1.29289 40.8787 -0.121322L42.2929 1.29289ZM37.8787 5.70711L42.2929 1.29289L40.8787 -0.12132L36.4645 4.29289L37.8787 5.70711ZM5 6H37.1716V4H5V6ZM1 10C1 7.79086 2.79086 6 5 6V4C1.68629 4 -1 6.68629 -1 10H1ZM1 38V10H-1V38H1ZM5 42C2.79086 42 1 40.2091 1 38H-1C-1 41.3137 1.68629 44 5 44V42ZM82 42H5V44H82V42ZM86 38C86 40.2091 84.2091 42 82 42V44C85.3137 44 88 41.3137 88 38H86ZM86 10V38H88V10H86ZM82 6C84.2091 6 86 7.79086 86 10H88C88 6.68629 85.3137 4 82 4V6ZM48.8284 6H82V4H48.8284V6ZM43.7071 1.29289L48.1213 5.70711L49.5355 4.29289L45.1213 -0.12132L43.7071 1.29289Z" fill="#FF2D55" mask="url(#path-1-inside-1_6557_62315)"/>
<path d="M19.7706 21.752V23.096H22.3626V27.704H24.0106V17.768H22.3626V21.752H19.7706ZM20.5546 24.792C18.3626 24.136 17.1306 22.536 17.1306 20.888V20.696H20.1706V19.368H17.1466V17.736H15.4826V19.368H12.4426V20.696H15.4826V20.888C15.4826 22.712 14.2346 24.456 12.0266 25.16L12.8266 26.44C14.5066 25.896 15.7226 24.76 16.3466 23.288C16.9866 24.568 18.1706 25.592 19.8026 26.072L20.5546 24.792ZM20.1226 26.808H18.4266V27.08C18.4266 28.808 16.4906 30.456 13.7226 30.888L14.3466 32.184C16.6026 31.832 18.3946 30.696 19.2746 29.176C20.1386 30.712 21.9466 31.816 24.2186 32.184L24.8586 30.888C22.0426 30.456 20.1226 28.872 20.1226 27.08V26.808ZM36.6271 22.776C34.8351 23.144 33.2191 23.24 30.5631 23.256V19.896H35.3471V18.584H28.9151V24.584H30.0831C33.1071 24.584 34.8511 24.488 36.8191 24.072L36.6271 22.776ZM31.9551 29.448H39.6351V25.672H30.3071V27H38.0031V28.2H30.3391V32.056H40.1151V30.744H31.9551V29.448ZM39.6351 20.68V17.784H37.9871V25.016H39.6351V22.04H41.6831V20.68H39.6351ZM54.4916 22.936H47.8836V19.864H54.4916V22.936ZM56.1236 18.552H46.2516V24.264H56.1236V18.552ZM57.7556 26.04H44.6516V27.368H50.3316V32.232H51.9796V27.368H57.7556V26.04ZM63.5223 26.68H66.4823V29.176H63.5223V26.68ZM68.1143 29.176V26.68H70.2423V25.352H61.5863V23.352H69.9223V18.792H59.9383V20.12H68.2903V22.04H59.9703V26.68H61.8903V29.176H58.3863V30.536H71.4743V29.176H68.1143ZM73.4171 27.24H74.6491L74.9051 20.84L74.9691 18.936H73.1131L73.1611 20.84L73.4171 27.24ZM74.0251 31.208C74.7291 31.208 75.2731 30.68 75.2731 29.928C75.2731 29.16 74.7291 28.616 74.0251 28.616C73.3371 28.616 72.8091 29.16 72.8091 29.928C72.8091 30.68 73.3371 31.208 74.0251 31.208Z" fill="#FF2D55"/>
</svg>
