<svg width="213" height="92" viewBox="0 0 213 92" fill="none" xmlns="http://www.w3.org/2000/svg">
<path d="M11.2603 12.52H6.23625V17.192C6.23625 22.248 5.18025 27.624 0.60425 30.44L3.67625 34.312C6.14025 32.776 7.74025 30.344 8.73225 27.4C9.66025 30.024 11.1003 32.232 13.4043 33.64L16.1562 29.608C11.9963 26.792 11.2603 21.864 11.2603 16.936V12.52ZM16.2203 19.784H13.1163V23.912H16.2203V38.792H21.0203V10.408H16.2203V19.784ZM22.3323 9.992V40.008H27.2283V9.992H22.3323ZM47.6018 22.824C42.6738 21.384 41.2018 17.992 41.2018 14.632V11.656H35.9218V14.152C35.9218 17.928 34.3538 21.928 29.0738 23.624L31.8258 27.656C35.1218 26.568 37.2978 24.424 38.6098 21.736C39.8578 24.04 41.9058 25.832 44.9138 26.792L47.6018 22.824ZM43.5698 36.104C40.1138 36.104 38.4178 35.528 38.4178 34.088C38.4178 32.648 40.1138 32.04 43.5698 32.04C47.0578 32.04 48.7538 32.648 48.7538 34.088C48.7538 35.528 47.0578 36.104 43.5698 36.104ZM43.5698 28.104C37.2978 28.104 33.2658 30.312 33.2658 34.088C33.2658 37.832 37.2978 40.072 43.5698 40.072C49.8738 40.072 53.9058 37.832 53.9058 34.088C53.9058 30.312 49.8738 28.104 43.5698 28.104ZM53.5538 16.552V10.024H48.3698V27.496H53.5538V20.744H57.2978V16.552H53.5538ZM72.2398 16.136H83.7918V23.112H72.2398V16.136ZM80.6558 32.584V27.144H88.8798V12.104H67.1518V27.144H75.4718V32.584H64.4958V36.712H91.6638V32.584H80.6558ZM117.253 18.6H101.285V15.048H116.965V10.984H96.1333V22.664H117.221L117.253 18.6ZM101.189 30.504H96.0052V39.592H117.413V35.528H101.189V30.504ZM92.9653 24.68V28.744H120.165V24.68H92.9653ZM150.819 21.768C151.683 18.632 151.683 16.008 151.683 13.672V11.24H130.691V15.272H146.499C146.467 17.032 146.307 18.888 145.731 21.224L150.819 21.768ZM141.059 36.232C137.347 36.232 135.459 35.656 135.459 34.344C135.459 33 137.347 32.424 141.059 32.424C144.739 32.424 146.659 33 146.659 34.344C146.659 35.656 144.739 36.232 141.059 36.232ZM141.059 28.552C134.563 28.552 130.307 30.76 130.307 34.344C130.307 37.896 134.563 40.104 141.059 40.104C147.555 40.104 151.811 37.896 151.811 34.344C151.811 30.76 147.555 28.552 141.059 28.552ZM142.307 23.112V18.184H137.123V23.112H127.747V27.144H154.755V23.112H142.307ZM157.081 12.2V16.264H166.137C165.433 19.912 162.137 22.952 155.737 24.616L157.849 28.648C167.001 26.184 171.769 20.584 171.769 12.2H157.081ZM165.305 29.128H160.121V39.592H180.761V35.528H165.305V29.128ZM179.897 17.992V9.992H174.713V31.272H179.897V22.184H183.673V17.992H179.897ZM198.126 14.12C202.158 14.12 203.79 14.472 203.79 15.464C203.79 16.488 202.158 16.808 198.126 16.808C194.094 16.808 192.462 16.488 192.462 15.464C192.462 14.472 194.094 14.12 198.126 14.12ZM198.126 20.552C205.07 20.552 209.166 18.76 209.166 15.464C209.166 12.168 205.07 10.376 198.126 10.376C191.182 10.376 187.086 12.168 187.086 15.464C187.086 18.76 191.182 20.552 198.126 20.552ZM192.686 35.08H208.526V26.856H187.534V30.632H203.406V31.56H187.566V39.912H209.262V36.072H192.686V35.08ZM184.526 21.608V25.608H211.726V21.608H184.526Z" fill="white"/>
<path d="M39.2602 57H30.25V85.0847H36.4291V75.7617H39.4316C44.8514 75.7617 49.5788 72.8179 49.5788 66.1374C49.5855 59.1882 44.9197 57 39.2602 57ZM39.1263 70.4352H36.4345V62.3206H38.9535C41.9212 62.3206 43.5778 63.3019 43.5778 66.133C43.5724 68.8898 42.1248 70.4352 39.1209 70.4352H39.1263Z" fill="#FF2D55"/>
<path d="M58.7147 57H52.5355V85.0847H68.6904V79.4226H58.716L58.7147 57Z" fill="#FF2D55"/>
<path d="M102.835 68.7161H102.701C101.977 66.5278 98.4906 57 98.4906 57H91.9285L99.6597 75.1546V85.0847H105.803V75.1575L113.57 57.0029H107.116C107.116 57.0029 103.559 66.5278 102.835 68.7161Z" fill="#FF2D55"/>
<path d="M79.5763 57L71.604 85.0847H77.8862L83.0636 62.8016L88.4472 85.0847H94.937L86.9634 57.0044L79.5763 57Z" fill="#FF2D55"/>
<path d="M83.2716 79.0181C82.7324 79.0263 82.2074 79.2111 81.7627 79.5491C81.3179 79.8872 80.9733 80.3635 80.772 80.9181C80.5708 81.4726 80.522 82.0808 80.6317 82.6661C80.7414 83.2514 81.0047 83.7876 81.3886 84.2075C81.7726 84.6273 82.2599 84.9118 82.7893 85.0255C83.3187 85.1391 83.8666 85.0767 84.3641 84.8461C84.8616 84.6155 85.2865 84.227 85.5854 83.7294C85.8843 83.2318 86.0438 82.6474 86.0438 82.0496C86.0415 81.6487 85.968 81.2523 85.8274 80.8829C85.6868 80.5135 85.482 80.1785 85.2245 79.897C84.967 79.6154 84.662 79.3929 84.327 79.2421C83.9919 79.0913 83.6333 79.0152 83.2716 79.0181Z" fill="#FF2D55"/>
<path d="M126.939 76.024C125.275 76.024 124.091 74.968 124.091 72.888C124.091 70.808 125.275 69.752 126.939 69.752C128.635 69.752 129.787 70.808 129.787 72.888C129.787 74.968 128.635 76.024 126.939 76.024ZM126.939 65.592C122.491 65.592 119.163 68.632 119.163 72.888C119.163 77.144 122.491 80.184 126.939 80.184C131.387 80.184 134.715 77.144 134.715 72.888C134.715 68.632 131.387 65.592 126.939 65.592ZM129.531 56.568H124.347V60.248H118.235V64.312H135.611V60.248H129.531V56.568ZM146.171 67.416H142.203V56.024H137.019V86.008H142.203V71.64H146.171V67.416ZM153.169 70.488H161.969V58.392H148.017V62.456H156.849V66.456H148.049V79.288H150.641C155.601 79.288 159.793 79.128 164.241 78.36L163.761 74.2C160.209 74.808 156.881 75.032 153.169 75.064V70.488ZM174.609 67H170.641V55.96H165.457V86.136H170.641V71.224H174.609V67ZM178.63 74.36H182.31L183.142 63.544L183.334 58.456H177.606L177.798 63.544L178.63 74.36ZM180.454 83.448C182.438 83.448 183.846 81.88 183.846 79.896C183.846 77.912 182.438 76.376 180.454 76.376C178.502 76.376 177.094 77.912 177.094 79.896C177.094 81.88 178.502 83.448 180.454 83.448Z" fill="white"/>
</svg>
