<svg width="360" height="42" viewBox="0 0 360 42" fill="none" xmlns="http://www.w3.org/2000/svg">
<mask id="path-1-inside-1_6577_62985" fill="white">
<path fill-rule="evenodd" clip-rule="evenodd" d="M239 3C235.686 3 233 5.68629 233 9V31C233 34.3137 235.686 37 239 37H263.733L267.586 40.8532C268.367 41.6343 269.633 41.6343 270.414 40.8532L274.267 37H299C302.314 37 305 34.3137 305 31V9C305 5.68629 302.314 3 299 3H239Z"/>
</mask>
<path fill-rule="evenodd" clip-rule="evenodd" d="M239 3C235.686 3 233 5.68629 233 9V31C233 34.3137 235.686 37 239 37H263.733L267.586 40.8532C268.367 41.6343 269.633 41.6343 270.414 40.8532L274.267 37H299C302.314 37 305 34.3137 305 31V9C305 5.68629 302.314 3 299 3H239Z" fill="#FF2D55"/>
<path d="M263.733 37L264.44 36.2929L264.147 36H263.733V37ZM274.267 37V36H273.853L273.56 36.2929L274.267 37ZM234 9C234 6.23858 236.239 4 239 4V2C235.134 2 232 5.13401 232 9H234ZM234 31V9H232V31H234ZM239 36C236.239 36 234 33.7614 234 31H232C232 34.866 235.134 38 239 38V36ZM263.733 36H239V38H263.733V36ZM268.293 40.1461L264.44 36.2929L263.025 37.7071L266.879 41.5603L268.293 40.1461ZM269.707 40.1461C269.317 40.5366 268.683 40.5366 268.293 40.1461L266.879 41.5603C268.05 42.7319 269.95 42.7319 271.121 41.5603L269.707 40.1461ZM273.56 36.2929L269.707 40.1461L271.121 41.5603L274.975 37.7071L273.56 36.2929ZM299 36H274.267V38H299V36ZM304 31C304 33.7614 301.761 36 299 36V38C302.866 38 306 34.866 306 31H304ZM304 9V31H306V9H304ZM299 4C301.761 4 304 6.23858 304 9H306C306 5.13401 302.866 2 299 2V4ZM239 4H299V2H239V4Z" fill="#FF2D55" mask="url(#path-1-inside-1_6577_62985)"/>
<path d="M248.56 16.726V18.224H250.534V22.074H252.382V13.31H250.534V16.726H248.56ZM249.302 19.358C247.23 18.812 246.334 17.454 246.334 16.11V16.068H248.882V14.612H246.334V13.268H244.486V14.612H241.966V16.068H244.486V16.11C244.486 17.58 243.59 19.064 241.518 19.666L242.386 21.108C243.884 20.674 244.892 19.75 245.452 18.574C246.04 19.596 247.034 20.394 248.462 20.786L249.302 19.358ZM249.022 21.36H247.132V21.542C247.132 22.802 245.746 24.328 243.044 24.72L243.73 26.162C245.802 25.868 247.286 24.916 248.056 23.684C248.826 24.93 250.31 25.868 252.41 26.162L253.082 24.72C250.338 24.342 249.022 22.886 249.022 21.542V21.36ZM262.961 17.566C261.491 17.874 260.147 17.972 257.935 17.986V15.424H261.869V13.982H256.101V19.442H257.179C259.923 19.442 261.477 19.372 263.143 19.008L262.961 17.566ZM259.139 23.796H265.803V20.24H257.291V21.696H263.983V22.452H257.305V26.05H266.181V24.608H259.139V23.796ZM265.803 15.746V13.296H263.955V19.708H265.803V17.244H267.511V15.746H265.803ZM278.174 17.692H272.868V15.396H278.174V17.692ZM279.98 13.94H271.048V19.148H279.98V13.94ZM281.38 20.52H269.704V21.99H274.576V26.204H276.424V21.99H281.38V20.52ZM286.356 21.304H288.61V23.278H286.356V21.304ZM290.43 23.278V21.304H292.236V19.834H284.76V18.42H291.942V14.136H282.912V15.606H290.122V16.978H282.926V21.304H284.536V23.278H281.568V24.79H293.258V23.278H290.43ZM294.777 21.472H296.121L296.415 16.306L296.485 14.36H294.413L294.483 16.306L294.777 21.472ZM295.449 25.196C296.177 25.196 296.737 24.608 296.737 23.852C296.737 23.082 296.177 22.508 295.449 22.508C294.721 22.508 294.175 23.082 294.175 23.852C294.175 24.608 294.721 25.196 295.449 25.196Z" fill="white"/>
</svg>
