<svg width="24" height="24" viewBox="0 0 24 24" fill="none" xmlns="http://www.w3.org/2000/svg">
<path d="M2 12C2 11.1025 2.11001 10.233 2.31602 9.40195C2.86851 9.43208 3.41827 9.30312 3.90454 9.02933C4.3908 8.75554 4.79462 8.34757 5.07136 7.85053C5.3481 7.3535 5.48698 6.78674 5.47265 6.21293C5.45832 5.63912 5.29133 5.08059 4.99015 4.59909C6.19915 3.36498 7.69108 2.47053 9.32537 2C9.57637 2.51201 9.95903 2.94197 10.431 3.24228C10.903 3.5426 11.4458 3.70155 11.9995 3.70155C12.5532 3.70155 13.096 3.5426 13.568 3.24228C14.04 2.94197 14.4226 2.51201 14.6736 2C16.3079 2.47053 17.7998 3.36498 19.0088 4.59909C18.7073 5.08067 18.5401 5.63942 18.5257 6.21349C18.5112 6.78757 18.6501 7.3546 18.927 7.85185C19.2039 8.3491 19.608 8.75718 20.0946 9.03093C20.5812 9.30469 21.1313 9.43346 21.684 9.40299C21.89 10.233 22 11.1025 22 12C22 12.8975 21.89 13.767 21.684 14.598C21.1314 14.5677 20.5815 14.6965 20.0951 14.9702C19.6087 15.2439 19.2047 15.6519 18.9278 16.149C18.651 16.646 18.512 17.2129 18.5263 17.7868C18.5406 18.3607 18.7076 18.9193 19.0088 19.4009C17.7998 20.635 16.3079 21.5295 14.6736 22C14.4226 21.488 14.04 21.058 13.568 20.7577C13.096 20.4574 12.5532 20.2984 11.9995 20.2984C11.4458 20.2984 10.903 20.4574 10.431 20.7577C9.95903 21.058 9.57637 21.488 9.32537 22C7.69108 21.5295 6.19915 20.635 4.99015 19.4009C5.29167 18.9193 5.4589 18.3606 5.47334 17.7865C5.48778 17.2124 5.34887 16.6454 5.07197 16.1482C4.79506 15.6509 4.39097 15.2428 3.9044 14.9691C3.41783 14.6953 2.86775 14.5665 2.31502 14.597C2.11001 13.768 2 12.8985 2 12ZM6.80424 15.1127C7.43427 16.2447 7.61428 17.5468 7.36827 18.769C7.77629 19.0699 8.21031 19.3304 8.66533 19.5472C9.58205 18.6952 10.7698 18.2245 12.0005 18.2254C13.2606 18.2254 14.4386 18.714 15.3357 19.5472C15.7907 19.3304 16.2247 19.0699 16.6327 18.769C16.3802 17.5198 16.581 16.2178 17.1968 15.1127C17.8114 14.007 18.7979 13.1757 19.9669 12.7782C20.0131 12.2605 20.0131 11.7395 19.9669 11.2218C18.7975 10.8245 17.8107 9.99317 17.1958 8.88732C16.58 7.78225 16.3792 6.48022 16.6317 5.23096C16.2238 4.92999 15.7896 4.66945 15.3347 4.45279C14.4182 5.30456 13.2309 5.77527 12.0005 5.77464C10.7698 5.77553 9.58205 5.3048 8.66533 4.45279C8.21044 4.66946 7.77618 4.92999 7.36827 5.23096C7.62085 6.48022 7.41999 7.78225 6.80424 8.88732C6.18958 9.99297 5.20314 10.8243 4.0341 11.2218C3.98785 11.7395 3.98785 12.2605 4.0341 12.7782C5.20351 13.1755 6.19034 14.0068 6.80524 15.1127H6.80424ZM12.0005 15.1127C11.2048 15.1127 10.4417 14.7847 9.87907 14.201C9.31644 13.6173 9.00035 12.8255 9.00035 12C9.00035 11.1745 9.31644 10.3827 9.87907 9.799C10.4417 9.21526 11.2048 8.88732 12.0005 8.88732C12.7962 8.88732 13.5593 9.21526 14.1219 9.799C14.6846 10.3827 15.0006 11.1745 15.0006 12C15.0006 12.8255 14.6846 13.6173 14.1219 14.201C13.5593 14.7847 12.7962 15.1127 12.0005 15.1127ZM12.0005 13.0376C12.2657 13.0376 12.5201 12.9282 12.7076 12.7337C12.8952 12.5391 13.0005 12.2752 13.0005 12C13.0005 11.7248 12.8952 11.4609 12.7076 11.2663C12.5201 11.0718 12.2657 10.9624 12.0005 10.9624C11.7353 10.9624 11.4809 11.0718 11.2934 11.2663C11.1058 11.4609 11.0004 11.7248 11.0004 12C11.0004 12.2752 11.1058 12.5391 11.2934 12.7337C11.4809 12.9282 11.7353 13.0376 12.0005 13.0376Z" fill="#DDDDDD"/>
</svg>
