<svg width="83" height="82" viewBox="0 0 83 82" fill="none" xmlns="http://www.w3.org/2000/svg">
<path d="M55.4839 17.4704L53.5193 27.8704L53.4074 28.4632H54.0107H67.0898C68.041 28.4647 68.9637 28.8803 69.6527 29.6372C70.3372 30.3891 70.7326 31.4156 70.7421 32.4973L70.7247 32.6501L70.6992 32.8753L70.7423 32.9227L70.7423 37.0833C70.7423 37.0837 70.7423 37.084 70.7423 37.0844C70.7404 37.5955 70.6505 38.1008 70.4783 38.5732L64.2201 54.6457L64.2186 54.6495C63.9369 55.3907 63.4644 56.0159 62.868 56.4509C62.2723 56.8855 61.5784 57.1122 60.874 57.1093L60.8719 57.1093L42.2167 57.1093C41.2667 57.1062 40.3455 56.6899 39.6579 55.9334C38.9687 55.1752 38.5731 54.1385 38.5701 53.0478V30.2437V30.2421C38.5684 29.705 38.6632 29.1737 38.8482 28.6792C39.033 28.1849 39.3036 27.7385 39.6424 27.3645L55.4839 17.4704ZM55.4839 17.4704L55.542 16.7885C55.5354 16.0077 55.2507 15.2687 54.7609 14.7284C54.7605 14.728 54.7601 14.7276 54.7598 14.7272L52.9347 12.7411M55.4839 17.4704L52.9347 12.7411M52.9347 12.7411L39.6429 27.364L52.9347 12.7411ZM33.4244 57.1093V30.7437H26.1328V57.1093H33.4244Z" fill="#FF2D55" stroke="#FF2D55"/>
<g filter="url(#filter0_b_6223_58807)">
<path d="M29.0831 69.0175H47.7391C48.5537 69.0209 49.3509 68.7583 50.0298 68.2631C50.7088 67.7678 51.2389 67.0622 51.5532 66.2354L57.8133 50.158C58.007 49.6288 58.1075 49.0638 58.1095 48.4933V44.1376L58.0887 44.1148L58.1095 43.9324C58.1063 42.7227 57.6677 41.5636 56.8896 40.7088C56.1116 39.854 55.0574 39.3731 53.9578 39.3714H40.8778L42.8471 28.9464L42.9093 28.2166C42.9074 27.31 42.5795 26.4409 41.9972 25.7994L39.7999 23.4081L26.1396 38.4364C25.7567 38.8589 25.4533 39.3605 25.247 39.9123C25.0407 40.4641 24.9354 41.0552 24.9373 41.6519V64.4566C24.9405 65.6652 25.3782 66.8233 26.1551 67.6779C26.9319 68.5325 27.9845 69.0141 29.0831 69.0175ZM20.7916 69.0175V41.6519H12.5V69.0175H20.7916Z" fill="white" fill-opacity="0.4"/>
</g>
<defs>
<filter id="filter0_b_6223_58807" x="-7.5" y="3.4082" width="85.6095" height="85.6094" filterUnits="userSpaceOnUse" color-interpolation-filters="sRGB">
<feFlood flood-opacity="0" result="BackgroundImageFix"/>
<feGaussianBlur in="BackgroundImage" stdDeviation="10"/>
<feComposite in2="SourceAlpha" operator="in" result="effect1_backgroundBlur_6223_58807"/>
<feBlend mode="normal" in="SourceGraphic" in2="effect1_backgroundBlur_6223_58807" result="shape"/>
</filter>
</defs>
</svg>
