<svg width="24" height="24" viewBox="0 0 24 24" fill="none" xmlns="http://www.w3.org/2000/svg">
<path fill-rule="evenodd" clip-rule="evenodd" d="M11.7593 19.8743V11.5591H12.9333V19.8743C12.9333 20.6588 12.7247 21.2909 12.2995 21.727C11.8738 22.1636 11.3128 22.32 10.7811 22.32C10.2215 22.32 9.66661 22.1221 9.25438 21.6816C8.84324 21.2424 8.62891 20.6212 8.62891 19.8743C8.62891 19.5501 8.8917 19.2873 9.21586 19.2873C9.54003 19.2873 9.80282 19.5501 9.80282 19.8743C9.80282 20.3991 9.95036 20.7073 10.1115 20.8795C10.2715 21.0504 10.4992 21.146 10.7811 21.146C11.0908 21.146 11.3124 21.0578 11.459 20.9075C11.606 20.7567 11.7593 20.4593 11.7593 19.8743Z" fill="url(#paint0_linear_6223_58064)"/>
<path fill-rule="evenodd" clip-rule="evenodd" d="M12.2537 4.32046C7.96707 4.28002 5.17771 6.18488 3.45305 8.58735C1.74167 10.9713 1.08442 13.8328 1.00038 15.7489C0.993728 15.9006 1.07534 16.0423 1.20978 16.1127C1.34422 16.1831 1.50725 16.1695 1.62807 16.0776C2.80011 15.1869 3.81779 14.8625 4.68805 14.8734C5.55838 14.8843 6.3326 15.2311 7.01643 15.7781C7.14415 15.8803 7.32194 15.8923 7.4622 15.8081C10.7468 13.8374 14.9917 14.3082 17.4254 15.8058C17.563 15.8905 17.7385 15.8819 17.8672 15.7841C18.7436 15.1181 19.7676 14.9705 20.7195 15.0717C21.6759 15.1735 22.5273 15.5244 23.0067 15.809C23.131 15.8828 23.2858 15.8821 23.4094 15.8072C23.533 15.7323 23.6052 15.5954 23.5972 15.4511C23.4961 13.6131 22.8119 10.8637 21.0788 8.55379C19.3332 6.22721 16.5319 4.36082 12.2537 4.32046Z" fill="url(#paint1_linear_6223_58064)"/>
<path d="M7.25781 15.4727C10.6817 13.4184 15.0839 13.9075 17.6274 15.4727L17.6234 15.4293C17.4316 13.3192 16.9046 11.2533 16.0622 9.30917V9.30917L15.646 8.45079C14.8959 6.90371 13.7158 5.60561 12.2469 4.71191V4.71191V4.71191C10.9584 5.61355 9.88367 6.78738 9.09894 8.15032L8.48786 9.21168C8.45048 9.27659 8.41776 9.34407 8.38995 9.41361V9.41361C7.64206 11.2833 7.25781 13.2786 7.25781 15.2923V15.4727Z" fill="url(#paint2_linear_6223_58064)"/>
<path d="M21.9687 11.5363L21.9687 9.19487L20.9021 9.19487L20.9021 11.5363L21.9687 11.5363ZM13.9688 4.512L13.9688 2.17056L12.9021 2.17056L12.9021 4.512L13.9688 4.512ZM19.3021 12.707L19.3021 6.85343L18.2354 6.85343L18.2354 12.707L19.3021 12.707ZM19.3021 5.68271L19.3021 2.17056L18.2354 2.17056L18.2354 5.68271L19.3021 5.68271ZM16.6354 11.5363L16.6354 8.02415L15.5688 8.02415L15.5688 11.5363L16.6354 11.5363ZM16.6354 6.85343L16.6354 0.999836L15.5687 0.999837L15.5688 6.85343L16.6354 6.85343ZM21.9687 8.02415L21.9687 0.999836L20.9021 0.999836L20.9021 8.02415L21.9687 8.02415ZM13.9688 12.707L13.9688 5.68271L12.9021 5.68271L12.9021 12.707L13.9688 12.707Z" fill="url(#paint3_linear_6223_58064)"/>
<defs>
<linearGradient id="paint0_linear_6223_58064" x1="10.7811" y1="11.5591" x2="10.7811" y2="21.733" gradientUnits="userSpaceOnUse">
<stop stop-color="#E4E4E4"/>
<stop offset="1" stop-color="#A7A7A7"/>
</linearGradient>
<linearGradient id="paint1_linear_6223_58064" x1="12.2989" y1="4.31982" x2="12.2989" y2="16.1574" gradientUnits="userSpaceOnUse">
<stop stop-color="#EAEAEA"/>
<stop offset="1" stop-color="#8B8B8B"/>
</linearGradient>
<linearGradient id="paint2_linear_6223_58064" x1="12.4426" y1="4.71191" x2="12.4426" y2="15.4727" gradientUnits="userSpaceOnUse">
<stop stop-color="#D4DEEB"/>
<stop offset="1" stop-color="white" stop-opacity="0"/>
</linearGradient>
<linearGradient id="paint3_linear_6223_58064" x1="21.9687" y1="10.6583" x2="21.9687" y2="-1.92696" gradientUnits="userSpaceOnUse">
<stop stop-color="#BAD8FF"/>
<stop offset="1" stop-color="#5DA3FF"/>
</linearGradient>
</defs>
</svg>
