<svg width="24" height="24" viewBox="0 0 24 24" fill="none" xmlns="http://www.w3.org/2000/svg">
<path d="M8.72614 24H18.543C18.9717 24.0017 19.3912 23.8636 19.7484 23.603C20.1057 23.3424 20.3847 22.9711 20.5501 22.536L23.8442 14.076C23.9461 13.7975 23.9989 13.5002 24 13.2V10.908L23.9891 10.896L24 10.8C23.9984 10.1634 23.7676 9.55352 23.3581 9.10373C22.9487 8.65394 22.394 8.4009 21.8153 8.39999H14.9326L15.9688 2.91428L16.0016 2.53028C16.0006 2.05319 15.828 1.5959 15.5216 1.25829L14.3654 0L7.17725 7.908C6.97574 8.13032 6.81612 8.39423 6.70756 8.68459C6.59899 8.97495 6.54361 9.28603 6.5446 9.59999V21.6C6.54625 22.2359 6.77662 22.8453 7.18538 23.295C7.59414 23.7447 8.14807 23.9982 8.72614 24ZM4.36307 24V9.59999H0V24H4.36307Z" fill="#FF2D55"/>
</svg>
