<svg width="24" height="25" viewBox="0 0 24 25" fill="none" xmlns="http://www.w3.org/2000/svg">
<mask id="path-1-outside-1_6223_58200" maskUnits="userSpaceOnUse" x="5" y="0" width="19" height="21" fill="black">
<rect fill="white" x="5" width="19" height="21"/>
<path fill-rule="evenodd" clip-rule="evenodd" d="M14.5238 1C14.7865 1 14.9994 1.22386 14.9994 1.5V4.0566L17.0889 2.76865C17.3155 2.629 17.6068 2.70891 17.7396 2.94714C17.8725 3.18537 17.7965 3.4917 17.5699 3.63135L14.9994 5.21575V6.85202L15.3744 8.23367C15.4166 8.38936 15.5687 8.48171 15.7181 8.44234L17.1566 8.06321L18.4174 7.29786L18.4371 4.15776C18.4389 3.88162 18.6532 3.65925 18.9158 3.66108C19.1784 3.6629 19.3899 3.88824 19.3882 4.16437L19.3721 6.71828L21.3249 5.53281C21.5524 5.39474 21.8432 5.47667 21.9745 5.71582C22.1058 5.95497 22.0279 6.26076 21.8004 6.39883L19.8828 7.56298L21.986 8.88473C22.2115 9.0264 22.285 9.3334 22.1502 9.57043C22.0155 9.80746 21.7235 9.88477 21.4981 9.7431L18.9398 8.1354L17.4381 9.04701L16.5687 9.99133C16.4615 10.1077 16.4615 10.2923 16.5687 10.4087L17.605 11.5343L19.7152 12.8153L22.2894 11.2764C22.5177 11.1399 22.808 11.2239 22.9378 11.4639C23.0676 11.704 22.9877 12.0092 22.7594 12.1457L20.6699 13.3948L22.215 14.3328C22.4425 14.4709 22.5204 14.7767 22.3891 15.0158C22.2578 15.255 21.9669 15.3369 21.7395 15.1988L20.2079 14.269L20.1705 16.8715C20.1665 17.1476 19.9504 17.368 19.6878 17.3639C19.4252 17.3597 19.2155 17.1325 19.2195 16.8564L19.2649 13.6966L16.9238 12.2754L15.7181 11.9577C15.5687 11.9183 15.4166 12.0106 15.3744 12.1663L14.9994 13.548V16.2842L17.5699 17.8687C17.7965 18.0083 17.8725 18.3146 17.7396 18.5529C17.6068 18.7911 17.3155 18.871 17.0889 18.7313L14.9994 17.4434V19.5C14.9994 19.7761 14.7865 20 14.5238 20C14.2612 20 14.0483 19.7761 14.0483 19.5V17.479L11.9021 18.7367C11.6727 18.8712 11.3831 18.7846 11.2552 18.5434C11.1274 18.3022 11.2097 17.9977 11.4391 17.8633L14.0483 16.3341V13.548L13.6733 12.1663C13.631 12.0106 13.4789 11.9183 13.3295 11.9577L12.117 12.2772L9.73547 13.723L9.7805 16.8564C9.78447 17.1325 9.57481 17.3597 9.31221 17.3639C9.04961 17.368 8.83352 17.1476 8.82955 16.8715L8.79253 14.2954L6.97484 15.3988C6.7474 15.5369 6.45657 15.455 6.32526 15.2158C6.19394 14.9767 6.27187 14.6709 6.49931 14.5328L8.35213 13.408L6.24058 12.1457C6.01227 12.0092 5.93242 11.704 6.06223 11.4639C6.19203 11.2239 6.48234 11.1399 6.71065 11.2764L9.30686 12.8285L11.4475 11.529L12.479 10.4087C12.5861 10.2923 12.5861 10.1077 12.479 9.99133L11.6144 9.0523L10.0817 8.12188L7.50191 9.7431C7.27647 9.88477 6.9845 9.80746 6.84976 9.57043C6.71503 9.3334 6.78855 9.0264 7.01398 8.88473L9.13877 7.54945L6.91391 6.19883C6.68647 6.06076 6.60854 5.75497 6.73985 5.51582C6.87117 5.27667 7.162 5.19474 7.38944 5.33281L9.62774 6.69158L9.61184 4.16437C9.6101 3.88824 9.82159 3.6629 10.0842 3.66108C10.3468 3.65925 10.5611 3.88162 10.5629 4.15776L10.5825 7.27116L11.8843 8.06142L13.3295 8.44234C13.4789 8.48171 13.631 8.38936 13.6733 8.23367L14.0483 6.852V5.1659L11.4391 3.63674C11.2097 3.5023 11.1274 3.19778 11.2552 2.95657C11.3831 2.71537 11.6727 2.62882 11.9021 2.76326L14.0483 4.02105V1.5C14.0483 1.22386 14.2612 1 14.5238 1ZM13.4757 10.95L14.5465 11.6L15.6172 10.95V9.65L14.5465 9L13.4757 9.65V10.95Z"/>
</mask>
<path fill-rule="evenodd" clip-rule="evenodd" d="M14.5238 1C14.7865 1 14.9994 1.22386 14.9994 1.5V4.0566L17.0889 2.76865C17.3155 2.629 17.6068 2.70891 17.7396 2.94714C17.8725 3.18537 17.7965 3.4917 17.5699 3.63135L14.9994 5.21575V6.85202L15.3744 8.23367C15.4166 8.38936 15.5687 8.48171 15.7181 8.44234L17.1566 8.06321L18.4174 7.29786L18.4371 4.15776C18.4389 3.88162 18.6532 3.65925 18.9158 3.66108C19.1784 3.6629 19.3899 3.88824 19.3882 4.16437L19.3721 6.71828L21.3249 5.53281C21.5524 5.39474 21.8432 5.47667 21.9745 5.71582C22.1058 5.95497 22.0279 6.26076 21.8004 6.39883L19.8828 7.56298L21.986 8.88473C22.2115 9.0264 22.285 9.3334 22.1502 9.57043C22.0155 9.80746 21.7235 9.88477 21.4981 9.7431L18.9398 8.1354L17.4381 9.04701L16.5687 9.99133C16.4615 10.1077 16.4615 10.2923 16.5687 10.4087L17.605 11.5343L19.7152 12.8153L22.2894 11.2764C22.5177 11.1399 22.808 11.2239 22.9378 11.4639C23.0676 11.704 22.9877 12.0092 22.7594 12.1457L20.6699 13.3948L22.215 14.3328C22.4425 14.4709 22.5204 14.7767 22.3891 15.0158C22.2578 15.255 21.9669 15.3369 21.7395 15.1988L20.2079 14.269L20.1705 16.8715C20.1665 17.1476 19.9504 17.368 19.6878 17.3639C19.4252 17.3597 19.2155 17.1325 19.2195 16.8564L19.2649 13.6966L16.9238 12.2754L15.7181 11.9577C15.5687 11.9183 15.4166 12.0106 15.3744 12.1663L14.9994 13.548V16.2842L17.5699 17.8687C17.7965 18.0083 17.8725 18.3146 17.7396 18.5529C17.6068 18.7911 17.3155 18.871 17.0889 18.7313L14.9994 17.4434V19.5C14.9994 19.7761 14.7865 20 14.5238 20C14.2612 20 14.0483 19.7761 14.0483 19.5V17.479L11.9021 18.7367C11.6727 18.8712 11.3831 18.7846 11.2552 18.5434C11.1274 18.3022 11.2097 17.9977 11.4391 17.8633L14.0483 16.3341V13.548L13.6733 12.1663C13.631 12.0106 13.4789 11.9183 13.3295 11.9577L12.117 12.2772L9.73547 13.723L9.7805 16.8564C9.78447 17.1325 9.57481 17.3597 9.31221 17.3639C9.04961 17.368 8.83352 17.1476 8.82955 16.8715L8.79253 14.2954L6.97484 15.3988C6.7474 15.5369 6.45657 15.455 6.32526 15.2158C6.19394 14.9767 6.27187 14.6709 6.49931 14.5328L8.35213 13.408L6.24058 12.1457C6.01227 12.0092 5.93242 11.704 6.06223 11.4639C6.19203 11.2239 6.48234 11.1399 6.71065 11.2764L9.30686 12.8285L11.4475 11.529L12.479 10.4087C12.5861 10.2923 12.5861 10.1077 12.479 9.99133L11.6144 9.0523L10.0817 8.12188L7.50191 9.7431C7.27647 9.88477 6.9845 9.80746 6.84976 9.57043C6.71503 9.3334 6.78855 9.0264 7.01398 8.88473L9.13877 7.54945L6.91391 6.19883C6.68647 6.06076 6.60854 5.75497 6.73985 5.51582C6.87117 5.27667 7.162 5.19474 7.38944 5.33281L9.62774 6.69158L9.61184 4.16437C9.6101 3.88824 9.82159 3.6629 10.0842 3.66108C10.3468 3.65925 10.5611 3.88162 10.5629 4.15776L10.5825 7.27116L11.8843 8.06142L13.3295 8.44234C13.4789 8.48171 13.631 8.38936 13.6733 8.23367L14.0483 6.852V5.1659L11.4391 3.63674C11.2097 3.5023 11.1274 3.19778 11.2552 2.95657C11.3831 2.71537 11.6727 2.62882 11.9021 2.76326L14.0483 4.02105V1.5C14.0483 1.22386 14.2612 1 14.5238 1ZM13.4757 10.95L14.5465 11.6L15.6172 10.95V9.65L14.5465 9L13.4757 9.65V10.95Z" fill="url(#paint0_linear_6223_58200)"/>
<path fill-rule="evenodd" clip-rule="evenodd" d="M14.5238 1C14.7865 1 14.9994 1.22386 14.9994 1.5V4.0566L17.0889 2.76865C17.3155 2.629 17.6068 2.70891 17.7396 2.94714C17.8725 3.18537 17.7965 3.4917 17.5699 3.63135L14.9994 5.21575V6.85202L15.3744 8.23367C15.4166 8.38936 15.5687 8.48171 15.7181 8.44234L17.1566 8.06321L18.4174 7.29786L18.4371 4.15776C18.4389 3.88162 18.6532 3.65925 18.9158 3.66108C19.1784 3.6629 19.3899 3.88824 19.3882 4.16437L19.3721 6.71828L21.3249 5.53281C21.5524 5.39474 21.8432 5.47667 21.9745 5.71582C22.1058 5.95497 22.0279 6.26076 21.8004 6.39883L19.8828 7.56298L21.986 8.88473C22.2115 9.0264 22.285 9.3334 22.1502 9.57043C22.0155 9.80746 21.7235 9.88477 21.4981 9.7431L18.9398 8.1354L17.4381 9.04701L16.5687 9.99133C16.4615 10.1077 16.4615 10.2923 16.5687 10.4087L17.605 11.5343L19.7152 12.8153L22.2894 11.2764C22.5177 11.1399 22.808 11.2239 22.9378 11.4639C23.0676 11.704 22.9877 12.0092 22.7594 12.1457L20.6699 13.3948L22.215 14.3328C22.4425 14.4709 22.5204 14.7767 22.3891 15.0158C22.2578 15.255 21.9669 15.3369 21.7395 15.1988L20.2079 14.269L20.1705 16.8715C20.1665 17.1476 19.9504 17.368 19.6878 17.3639C19.4252 17.3597 19.2155 17.1325 19.2195 16.8564L19.2649 13.6966L16.9238 12.2754L15.7181 11.9577C15.5687 11.9183 15.4166 12.0106 15.3744 12.1663L14.9994 13.548V16.2842L17.5699 17.8687C17.7965 18.0083 17.8725 18.3146 17.7396 18.5529C17.6068 18.7911 17.3155 18.871 17.0889 18.7313L14.9994 17.4434V19.5C14.9994 19.7761 14.7865 20 14.5238 20C14.2612 20 14.0483 19.7761 14.0483 19.5V17.479L11.9021 18.7367C11.6727 18.8712 11.3831 18.7846 11.2552 18.5434C11.1274 18.3022 11.2097 17.9977 11.4391 17.8633L14.0483 16.3341V13.548L13.6733 12.1663C13.631 12.0106 13.4789 11.9183 13.3295 11.9577L12.117 12.2772L9.73547 13.723L9.7805 16.8564C9.78447 17.1325 9.57481 17.3597 9.31221 17.3639C9.04961 17.368 8.83352 17.1476 8.82955 16.8715L8.79253 14.2954L6.97484 15.3988C6.7474 15.5369 6.45657 15.455 6.32526 15.2158C6.19394 14.9767 6.27187 14.6709 6.49931 14.5328L8.35213 13.408L6.24058 12.1457C6.01227 12.0092 5.93242 11.704 6.06223 11.4639C6.19203 11.2239 6.48234 11.1399 6.71065 11.2764L9.30686 12.8285L11.4475 11.529L12.479 10.4087C12.5861 10.2923 12.5861 10.1077 12.479 9.99133L11.6144 9.0523L10.0817 8.12188L7.50191 9.7431C7.27647 9.88477 6.9845 9.80746 6.84976 9.57043C6.71503 9.3334 6.78855 9.0264 7.01398 8.88473L9.13877 7.54945L6.91391 6.19883C6.68647 6.06076 6.60854 5.75497 6.73985 5.51582C6.87117 5.27667 7.162 5.19474 7.38944 5.33281L9.62774 6.69158L9.61184 4.16437C9.6101 3.88824 9.82159 3.6629 10.0842 3.66108C10.3468 3.65925 10.5611 3.88162 10.5629 4.15776L10.5825 7.27116L11.8843 8.06142L13.3295 8.44234C13.4789 8.48171 13.631 8.38936 13.6733 8.23367L14.0483 6.852V5.1659L11.4391 3.63674C11.2097 3.5023 11.1274 3.19778 11.2552 2.95657C11.3831 2.71537 11.6727 2.62882 11.9021 2.76326L14.0483 4.02105V1.5C14.0483 1.22386 14.2612 1 14.5238 1ZM13.4757 10.95L14.5465 11.6L15.6172 10.95V9.65L14.5465 9L13.4757 9.65V10.95Z" stroke="url(#paint1_linear_6223_58200)" stroke-width="0.4" mask="url(#path-1-outside-1_6223_58200)"/>
<path d="M4.50454 16.4162C4.50454 16.736 4.85382 16.9341 5.13132 16.7754C5.33166 16.6607 5.58918 16.7279 5.70538 16.9273L5.78979 17.0722C5.90562 17.271 5.83727 17.5261 5.63756 17.6404C5.35949 17.7995 5.35949 18.2005 5.63756 18.3596C5.83727 18.4739 5.90562 18.729 5.78979 18.9278L5.70538 19.0727C5.58918 19.2721 5.33166 19.3393 5.13132 19.2246C4.85382 19.0659 4.50454 19.264 4.50454 19.5838C4.50454 19.8136 4.31818 20 4.08829 20H3.91171C3.68182 20 3.49546 19.8136 3.49546 19.5838C3.49546 19.264 3.14618 19.0659 2.86868 19.2246C2.66834 19.3393 2.41082 19.2721 2.29462 19.0727L2.21021 18.9278C2.09438 18.729 2.16273 18.4739 2.36244 18.3596C2.64051 18.2005 2.64051 17.7995 2.36244 17.6404C2.16273 17.5261 2.09438 17.271 2.21021 17.0722L2.29462 16.9273C2.41082 16.7279 2.66834 16.6607 2.86868 16.7754C3.14618 16.9341 3.49546 16.736 3.49546 16.4162C3.49546 16.1864 3.68182 16 3.91171 16H4.08829C4.31818 16 4.50454 16.1864 4.50454 16.4162Z" fill="url(#paint2_linear_6223_58200)"/>
<path d="M12.1307 20.5203C12.1307 20.92 12.5673 21.1677 12.9141 20.9692C13.1646 20.8259 13.4865 20.9098 13.6317 21.1591L13.7372 21.3402C13.882 21.5888 13.7966 21.9076 13.547 22.0505C13.1994 22.2494 13.1994 22.7506 13.547 22.9495C13.7966 23.0924 13.882 23.4112 13.7372 23.6598L13.6317 23.8409C13.4865 24.0902 13.1646 24.1741 12.9141 24.0308C12.5673 23.8323 12.1307 24.08 12.1307 24.4797C12.1307 24.767 11.8977 25 11.6104 25H11.3896C11.1023 25 10.8693 24.767 10.8693 24.4797C10.8693 24.08 10.4327 23.8323 10.0859 24.0308C9.83542 24.1741 9.51353 24.0902 9.36828 23.8409L9.26276 23.6598C9.11798 23.4112 9.20341 23.0924 9.45304 22.9495C9.80063 22.7506 9.80063 22.2494 9.45304 22.0505C9.20341 21.9076 9.11798 21.5888 9.26276 21.3402L9.36828 21.1591C9.51353 20.9098 9.83542 20.8259 10.0859 20.9692C10.4327 21.1677 10.8693 20.92 10.8693 20.5203C10.8693 20.233 11.1023 20 11.3896 20H11.6104C11.8977 20 12.1307 20.233 12.1307 20.5203Z" fill="url(#paint3_linear_6223_58200)"/>
<defs>
<linearGradient id="paint0_linear_6223_58200" x1="21.3463" y1="5.65" x2="9.31601" y2="15.2552" gradientUnits="userSpaceOnUse">
<stop stop-color="#86B5FF"/>
<stop offset="1" stop-color="#BED7F6"/>
</linearGradient>
<linearGradient id="paint1_linear_6223_58200" x1="17.1563" y1="5.75" x2="10.3071" y2="14.7656" gradientUnits="userSpaceOnUse">
<stop stop-color="#8FBBFE"/>
<stop offset="1" stop-color="#BFD8F7"/>
</linearGradient>
<linearGradient id="paint2_linear_6223_58200" x1="4" y1="16" x2="4" y2="20" gradientUnits="userSpaceOnUse">
<stop stop-color="#BCD6F7"/>
<stop offset="1" stop-color="#90BBFE"/>
</linearGradient>
<linearGradient id="paint3_linear_6223_58200" x1="11.5" y1="20" x2="11.5" y2="25" gradientUnits="userSpaceOnUse">
<stop stop-color="#BCD6F7"/>
<stop offset="1" stop-color="#90BBFE"/>
</linearGradient>
</defs>
</svg>
