<svg width="24" height="24" viewBox="0 0 24 24" fill="none" xmlns="http://www.w3.org/2000/svg">
<path fill-rule="evenodd" clip-rule="evenodd" d="M17.6231 4.68281H17.8529C21.2474 4.68281 23.9992 7.43459 23.9992 10.8291C23.9992 14.2236 21.2474 16.9754 17.8529 16.9754H13.6926L13.6391 16.9756H5.56091C5.47616 16.9756 5.39185 16.9737 5.30803 16.97C5.22805 16.9737 5.14758 16.9756 5.06667 16.9756C2.26842 16.9756 0 14.7072 0 11.9089V11.4147V10.9204C0 8.15149 2.22119 5.90132 4.97898 5.85452C5.67322 2.49795 8.31477 0 11.4674 0C14.2407 0 16.6185 1.93288 17.6231 4.68281Z" fill="url(#paint0_linear_6223_58064)"/>
<rect x="12.8008" y="4.68262" width="11.2" height="12.2926" rx="5.6" fill="url(#paint1_linear_6223_58064)"/>
<g clip-path="url(#clip0_6223_58064)">
<path d="M16.5352 12.2928L16.5352 14.6342L15.4685 14.6342L15.4685 12.2928L16.5352 12.2928ZM8.53516 19.3171L8.53516 21.6585L7.46849 21.6585L7.46849 19.3171L8.53516 19.3171ZM13.8685 11.1221L13.8685 16.9757L12.8018 16.9757L12.8018 11.1221L13.8685 11.1221ZM13.8685 18.1464L13.8685 21.6585L12.8018 21.6585L12.8018 18.1464L13.8685 18.1464ZM11.2018 12.2928L11.2018 15.8049L10.1352 15.8049L10.1352 12.2928L11.2018 12.2928ZM11.2018 16.9757L11.2018 22.8293L10.1352 22.8293L10.1352 16.9757L11.2018 16.9757ZM16.5352 15.8049L16.5352 22.8293L15.4685 22.8293L15.4685 15.8049L16.5352 15.8049ZM8.53516 11.1221L8.53516 18.1464L7.46849 18.1464L7.46849 11.1221L8.53516 11.1221Z" fill="url(#paint2_linear_6223_58064)"/>
</g>
<defs>
<linearGradient id="paint0_linear_6223_58064" x1="21.5993" y1="17.5608" x2="7.66636" y2="5.39555" gradientUnits="userSpaceOnUse">
<stop stop-color="#D9D2D2"/>
<stop offset="0.661458" stop-color="#CCCBCF"/>
<stop offset="1" stop-color="#EDE8E8"/>
</linearGradient>
<linearGradient id="paint1_linear_6223_58064" x1="22.4008" y1="7.60942" x2="13.6354" y2="13.2771" gradientUnits="userSpaceOnUse">
<stop stop-color="#D9D9D9"/>
<stop offset="1" stop-color="#D9D9D9" stop-opacity="0"/>
</linearGradient>
<linearGradient id="paint2_linear_6223_58064" x1="16.5352" y1="13.1708" x2="16.5352" y2="25.7561" gradientUnits="userSpaceOnUse">
<stop stop-color="#5CA3FF"/>
<stop offset="1" stop-color="#FDFEFF"/>
</linearGradient>
<clipPath id="clip0_6223_58064">
<rect width="14.0486" height="12.8" fill="white" transform="translate(18.668 9.95117) rotate(90)"/>
</clipPath>
</defs>
</svg>
